ISO-10303-21;
HEADER;
FILE_DESCRIPTION (( 'STEP AP214' ),
    '1' );
FILE_NAME ('Part16.STEP',
    '2026-08-12T19:49:47',
    ( '' ),
    ( '' ),
    'SwSTEP 2.0',
    'SolidWorks 2026',
    '' );
FILE_SCHEMA (( 'AUTOMOTIVE_DESIGN' ));
ENDSEC;

DATA;
#1 = CIRCLE ( 'NONE', #97, 0.7500000000000000000 ) ;
#2 = LINE ( 'NONE', #89, #88 ) ;
#3 = VERTEX_POINT ( 'NONE', #462 ) ;
#4 = DIRECTION ( 'NONE',  ( 0.000000000000000000, 0.000000000000000000, 1.000000000000000000 ) ) ;
#5 = CARTESIAN_POINT ( 'NONE',  ( -4.205378593051967151, 0.2243207632786642092, 2.716244165872103711 ) ) ;
#6 = CARTESIAN_POINT ( 'NONE',  ( -4.377904606383163255, 0.2192725247368911001, 3.176819120875568725 ) ) ;
#7 = DIRECTION ( 'NONE',  ( 0.000000000000000000, 1.000000000000000000, 0.000000000000000000 ) ) ;
#8 = DIRECTION ( 'NONE',  ( 0.3109606783832558619, -0.7071067811865514585, 0.6350617737664735474 ) ) ;
#9 = EDGE_CURVE ( 'NONE', #284, #3, #352, .T. ) ;
#10 = LINE ( 'NONE', #48, #516 ) ;
#11 = CARTESIAN_POINT ( 'NONE',  ( -4.112192135676652427, 0.1843741777021546402, 2.736989687883072619 ) ) ;
#12 = ORIENTED_EDGE ( 'NONE', *, *, #498, .F. ) ;
#13 = ADVANCED_FACE ( 'NONE', ( #353 ), #402, .T. ) ;
#14 = CARTESIAN_POINT ( 'NONE',  ( -3.894519660808373196, -0.1435533905932752652, 3.367530886883236985 ) ) ;
#15 = AXIS2_PLACEMENT_3D ( 'NONE', #334, #468, #373 ) ;
#16 = CARTESIAN_POINT ( 'NONE',  ( -4.064129788779564656, 0.2470590105027876127, 3.470864308528981645 ) ) ;
#17 = ORIENTED_EDGE ( 'NONE', *, *, #256, .F. ) ;
#18 = CARTESIAN_POINT ( 'NONE',  ( 0.6707749667185481934, 0.06999999999999999278, 1.369895198252069957 ) ) ;
#19 = SURFACE_SIDE_STYLE ('',( #119 ) ) ;
#20 = PRODUCT_DEFINITION ( 'UNKNOWN', '', #543, #63 ) ;
#21 = EDGE_LOOP ( 'NONE', ( #331, #455, #122, #121, #157 ) ) ;
#22 = CARTESIAN_POINT ( 'NONE',  ( -3.674548443490143423, 0.2283896979209379396, 3.125768373788881505 ) ) ;
#23 = DIRECTION ( 'NONE',  ( 0.000000000000000000, 1.000000000000000000, 0.000000000000000000 ) ) ;
#24 = CIRCLE ( 'NONE', #189, 0.7500000000000000000 ) ;
#25 = ORIENTED_EDGE ( 'NONE', *, *, #78, .F. ) ;
#26 = EDGE_LOOP ( 'NONE', ( #494, #263, #419, #17, #163 ) ) ;
#27 =( LENGTH_UNIT ( ) NAMED_UNIT ( * ) SI_UNIT ( .CENTI., .METRE. ) );
#28 = EDGE_LOOP ( 'NONE', ( #36, #406, #212 ) ) ;
#29 = ORIENTED_EDGE ( 'NONE', *, *, #9, .F. ) ;
#30 = ADVANCED_FACE ( 'NONE', ( #110 ), #321, .T. ) ;
#31 = ORIENTED_EDGE ( 'NONE', *, *, #9, .T. ) ;
#32 = DIRECTION ( 'NONE',  ( 0.000000000000000000, 0.000000000000000000, -1.000000000000000000 ) ) ;
#33 = AXIS2_PLACEMENT_3D ( 'NONE', #38, #255, #366 ) ;
#34 = CIRCLE ( 'NONE', #136, 0.9000000000000001332 ) ;
#35 = DIRECTION ( 'NONE',  ( -0.3109606783832558619, 0.7071067811865514585, -0.6350617737664735474 ) ) ;
#36 = ORIENTED_EDGE ( 'NONE', *, *, #78, .T. ) ;
#37 = DIRECTION ( 'NONE',  ( -0.000000000000000000, -1.000000000000000000, -0.000000000000000000 ) ) ;
#38 = CARTESIAN_POINT ( 'NONE',  ( -4.112192135676652427, 0.3514213562373107447, 2.922987645246704957 ) ) ;
#39 = ORIENTED_EDGE ( 'NONE', *, *, #60, .F. ) ;
#40 = ORIENTED_EDGE ( 'NONE', *, *, #531, .F. ) ;
#41 = ADVANCED_FACE ( 'NONE', ( #57 ), #196, .T. ) ;
#42 = DIRECTION ( 'NONE',  ( 0.000000000000000000, -0.6681887141406241959, -0.7439918294545305733 ) ) ;
#43 = CARTESIAN_POINT ( 'NONE',  ( -3.933375760973885971, 0.2255221212370152328, 2.695247494645704567 ) ) ;
#44 = ORIENTED_EDGE ( 'NONE', *, *, #54, .F. ) ;
#45 = CARTESIAN_POINT ( 'NONE',  ( -4.049999999999999822, 0.3099999999999999978, 3.950000000000000178 ) ) ;
#46 = CARTESIAN_POINT ( 'NONE',  ( -4.150326087035978162, 0.2218924756022740141, 2.703294017798886006 ) ) ;
#47 = CARTESIAN_POINT ( 'NONE',  ( -4.049999999999999822, 0.3099999999999999978, 2.149999999999999911 ) ) ;
#48 = CARTESIAN_POINT ( 'NONE',  ( -4.112192135676652427, 0.5184685347724669047, 3.108985602610337740 ) ) ;
#49 = EDGE_CURVE ( 'NONE', #114, #244, #537, .T. ) ;
#50 = CARTESIAN_POINT ( 'NONE',  ( -3.733241455114423069, 0.2524855944977006383, 3.342174568574953764 ) ) ;
#51 = DIRECTION ( 'NONE',  ( 1.000000000000000000, 0.000000000000000000, 0.000000000000000000 ) ) ;
#52 = CIRCLE ( 'NONE', #515, 0.2999999999999999334 ) ;
#53 = CARTESIAN_POINT ( 'NONE',  ( -4.112192135676652427, 0.5184685347724670157, 3.108985602610337740 ) ) ;
#54 = EDGE_CURVE ( 'NONE', #539, #509, #1, .T. ) ;
#55 = CARTESIAN_POINT ( 'NONE',  ( -3.721492601587289784, 0.2501753753802465341, 3.322840607333418905 ) ) ;
#56 = ORIENTED_EDGE ( 'NONE', *, *, #134, .T. ) ;
#57 = FACE_OUTER_BOUND ( 'NONE', #297, .T. ) ;
#58 = DIRECTION ( 'NONE',  ( -0.3109606783832558619, 0.7071067811865514585, -0.6350617737664735474 ) ) ;
#59 =( GEOMETRIC_REPRESENTATION_CONTEXT ( 3 ) GLOBAL_UNCERTAINTY_ASSIGNED_CONTEXT ( ( #395 ) ) GLOBAL_UNIT_ASSIGNED_CONTEXT ( ( #27, #529, #154 ) ) REPRESENTATION_CONTEXT ( 'NONE', 'WORKASPACE' ) );
#60 = EDGE_CURVE ( 'NONE', #244, #118, #312, .T. ) ;
#61 = CARTESIAN_POINT ( 'NONE',  ( -4.112192135676652427, 0.3514213562373107447, 2.922987645246704957 ) ) ;
#62 = DIRECTION ( 'NONE',  ( 0.000000000000000000, -0.000000000000000000, 1.000000000000000000 ) ) ;
#63 = PRODUCT_DEFINITION_CONTEXT ( 'detailed design', #317, 'design' ) ;
#64 = B_SPLINE_CURVE_WITH_KNOTS ( 'NONE', 3,
 ( #522, #142, #99, #513, #137, #264, #432, #474, #310, #268, #437, #50, #55, #228, #394, #512, #530, #22, #439, #535, #318, #200, #316, #283, #106, #235 ),
 .UNSPECIFIED., .F., .F.,
 ( 4, 2, 2, 2, 2, 2, 2, 2, 2, 2, 2, 2, 4 ),
 ( 0.007091753226401450658, 0.007769648314034890632, 0.008447543401668332341, 0.009125438489301772316, 0.009803333576935212290, 0.01048122866456865226, 0.01115912375220209224, 0.01183701883983553395, 0.01251491392746897392, 0.01387070410273585214, 0.01522649427800273209, 0.01658228445326961203, 0.01793807462853649198 ),
 .UNSPECIFIED. ) ;
#65 = FACE_OUTER_BOUND ( 'NONE', #452, .T. ) ;
#66 = PRODUCT ( 'Part16', 'Part16', '', ( #127 ) ) ;
#67 = EDGE_LOOP ( 'NONE', ( #201, #281, #190 ) ) ;
#68 = ORIENTED_EDGE ( 'NONE', *, *, #447, .F. ) ;
#69 = DIRECTION ( 'NONE',  ( 0.000000000000000000, 1.000000000000000000, 0.000000000000000000 ) ) ;
#70 = CARTESIAN_POINT ( 'NONE',  ( -4.049999999999999822, 0.2099999999999999922, 2.299999999999999822 ) ) ;
#71 = ADVANCED_FACE ( 'NONE', ( #453 ), #388, .F. ) ;
#72 = EDGE_LOOP ( 'NONE', ( #491, #554, #361, #339, #240, #279 ) ) ;
#73 = CARTESIAN_POINT ( 'NONE',  ( -4.049999999999999822, 0.5100000000000000089, 3.049999999999999822 ) ) ;
#74 = CARTESIAN_POINT ( 'NONE',  ( -3.959473158589717823, 0.07000000000000000666, 3.637115739002351411 ) ) ;
#75 = ORIENTED_EDGE ( 'NONE', *, *, #391, .T. ) ;
#76 = CARTESIAN_POINT ( 'NONE',  ( -4.593829916795799662, 0.07000000000000000666, 3.484274472281200907 ) ) ;
#77 = AXIS2_PLACEMENT_3D ( 'NONE', #314, #225, #95 ) ;
#78 = EDGE_CURVE ( 'NONE', #249, #203, #518, .T. ) ;
#79 = DIRECTION ( 'NONE',  ( 0.000000000000000000, 1.000000000000000000, 0.000000000000000000 ) ) ;
#80 = ORIENTED_EDGE ( 'NONE', *, *, #206, .F. ) ;
#81 = DIRECTION ( 'NONE',  ( 0.000000000000000000, 1.000000000000000000, 0.000000000000000000 ) ) ;
#82 = CARTESIAN_POINT ( 'NONE',  ( -3.908193946077836323, 0.2308387115423886082, 2.688836847125337215 ) ) ;
#83 = ORIENTED_EDGE ( 'NONE', *, *, #49, .F. ) ;
#84 = APPLICATION_PROTOCOL_DEFINITION ( 'draft international standard', 'automotive_design', 1998, #317 ) ;
#85 = DIRECTION ( 'NONE',  ( -0.3109606783832558619, 0.7071067811865514585, -0.6350617737664735474 ) ) ;
#86 = CARTESIAN_POINT ( 'NONE',  ( -4.266955477192268198, 0.2212326762662982782, 2.765297767134823115 ) ) ;
#87 = CARTESIAN_POINT ( 'NONE',  ( -4.049999999999999822, 0.06999999999999992339, 3.049999999999999822 ) ) ;
#88 = VECTOR ( 'NONE', #79, 100.0000000000000000 ) ;
#89 = CARTESIAN_POINT ( 'NONE',  ( -4.049999999999999822, -2.051320343559642545, 2.299999999999999822 ) ) ;
#90 = CARTESIAN_POINT ( 'NONE',  ( -4.305685716776348038, 0.2208976965980416485, 3.300160012633834850 ) ) ;
#91 = EDGE_CURVE ( 'NONE', #496, #147, #239, .T. ) ;
#92 = FACE_OUTER_BOUND ( 'NONE', #195, .T. ) ;
#93 = CARTESIAN_POINT ( 'NONE',  ( -4.105343519974435473, 0.2422285578267310002, 3.458212248448913062 ) ) ;
#94 = FACE_BOUND ( 'NONE', #193, .T. ) ;
#95 = DIRECTION ( 'NONE',  ( 0.000000000000000000, 0.000000000000000000, 1.000000000000000000 ) ) ;
#96 = EDGE_CURVE ( 'NONE', #203, #173, #547, .T. ) ;
#97 = AXIS2_PLACEMENT_3D ( 'NONE', #236, #23, #534 ) ;
#98 = AXIS2_PLACEMENT_3D ( 'NONE', #130, #298, #501 ) ;
#99 = CARTESIAN_POINT ( 'NONE',  ( -4.005277372338754027, 0.2532681852261104982, 3.479897379807971536 ) ) ;
#100 = MANIFOLD_SOLID_BREP ( 'Cut-Extrude1', #197 ) ;
#101 = DIRECTION ( 'NONE',  ( 0.000000000000000000, 0.6681887141406244179, 0.7439918294545302402 ) ) ;
#102 = ORIENTED_EDGE ( 'NONE', *, *, #517, .T. ) ;
#103 = CARTESIAN_POINT ( 'NONE',  ( -4.049999999999999822, 0.3099999999999999978, 3.049999999999999822 ) ) ;
#104 = DIRECTION ( 'NONE',  ( 0.000000000000000000, 0.6681887141406248620, 0.7439918294545299071 ) ) ;
#105 = CIRCLE ( 'NONE', #434, 0.9000000000000001332 ) ;
#106 = CARTESIAN_POINT ( 'NONE',  ( -3.852646363965130050, 0.2295971853974761168, 2.717132512397937294 ) ) ;
#107 = CIRCLE ( 'NONE', #184, 0.3499999999999999778 ) ;
#108 = EDGE_CURVE ( 'NONE', #497, #244, #52, .T. ) ;
#109 = DIRECTION ( 'NONE',  ( -0.000000000000000000, -1.000000000000000000, -0.000000000000000000 ) ) ;
#110 = FACE_OUTER_BOUND ( 'NONE', #67, .T. ) ;
#111 = VERTEX_POINT ( 'NONE', #45 ) ;
#112 = DIRECTION ( 'NONE',  ( 0.000000000000000000, 0.000000000000000000, -1.000000000000000000 ) ) ;
#113 = EDGE_CURVE ( 'NONE', #164, #370, #161, .T. ) ;
#114 = VERTEX_POINT ( 'NONE', #257 ) ;
#115 = DIRECTION ( 'NONE',  ( 0.000000000000000000, 0.000000000000000000, 1.000000000000000000 ) ) ;
#116 = AXIS2_PLACEMENT_3D ( 'NONE', #295, #85, #424 ) ;
#117 = CARTESIAN_POINT ( 'NONE',  ( -4.049999999999999822, 0.3099999999999999978, 3.049999999999999822 ) ) ;
#118 = VERTEX_POINT ( 'NONE', #174 ) ;
#119 = SURFACE_STYLE_FILL_AREA ( #234 ) ;
#120 = PLANE ( 'NONE',  #396 ) ;
#121 = ORIENTED_EDGE ( 'NONE', *, *, #371, .F. ) ;
#122 = ORIENTED_EDGE ( 'NONE', *, *, #179, .F. ) ;
#123 = DIRECTION ( 'NONE',  ( 0.3109606783832559174, -0.7071067811865514585, 0.6350617737664736584 ) ) ;
#124 = AXIS2_PLACEMENT_3D ( 'NONE', #148, #276, #115 ) ;
#125 = CARTESIAN_POINT ( 'NONE',  ( -4.091278985502566634, 0.07000000000000000666, 2.705300542469215586 ) ) ;
#126 = ORIENTED_EDGE ( 'NONE', *, *, #91, .T. ) ;
#127 = PRODUCT_CONTEXT ( 'NONE', #519, 'mechanical' ) ;
#128 = DIRECTION ( 'NONE',  ( 0.000000000000000000, 0.6681887141406248620, 0.7439918294545299071 ) ) ;
#129 = CARTESIAN_POINT ( 'NONE',  ( -4.312957185015514838, 0.2132067985059949156, 2.867398698547742431 ) ) ;
#130 = CARTESIAN_POINT ( 'NONE',  ( 0.000000000000000000, 0.000000000000000000, 0.000000000000000000 ) ) ;
#131 = DIRECTION ( 'NONE',  ( -0.000000000000000000, -1.000000000000000000, -0.000000000000000000 ) ) ;
#132 = CARTESIAN_POINT ( 'NONE',  ( -3.641739631089382812, 0.06999999999999999278, 3.481536175977131720 ) ) ;
#133 = CARTESIAN_POINT ( 'NONE',  ( -4.352153623244272573, 0.2190492241969725917, 3.228016417761057966 ) ) ;
#134 = EDGE_CURVE ( 'NONE', #313, #427, #404, .T. ) ;
#135 = AXIS2_PLACEMENT_3D ( 'NONE', #87, #429, #380 ) ;
#136 = AXIS2_PLACEMENT_3D ( 'NONE', #304, #387, #436 ) ;
#137 = CARTESIAN_POINT ( 'NONE',  ( -3.937238172155784532, 0.2586132614233775939, 3.476039353498261431 ) ) ;
#138 = FACE_BOUND ( 'NONE', #160, .T. ) ;
#139 = EDGE_CURVE ( 'NONE', #315, #497, #217, .T. ) ;
#140 = DIRECTION ( 'NONE',  ( 0.000000000000000000, 0.6681887141406245290, 0.7439918294545302402 ) ) ;
#141 = ADVANCED_BREP_SHAPE_REPRESENTATION ( 'Part16', ( #100, #98 ), #59 ) ;
#142 = CARTESIAN_POINT ( 'NONE',  ( -4.027690262826568279, 0.2510335263235656811, 3.477921937021118737 ) ) ;
#143 = DIRECTION ( 'NONE',  ( -0.3109606783832558619, 0.7071067811865514585, -0.6350617737664735474 ) ) ;
#144 = CARTESIAN_POINT ( 'NONE',  ( -4.078167601526885733, 0.2454428217956224623, 3.467174612947774293 ) ) ;
#145 = VERTEX_POINT ( 'NONE', #510 ) ;
#146 = CARTESIAN_POINT ( 'NONE',  ( -4.032990883426238682, 0.2132067985059026283, 2.730312017122447088 ) ) ;
#147 = VERTEX_POINT ( 'NONE', #383 ) ;
#148 = CARTESIAN_POINT ( 'NONE',  ( -4.049999999999999822, 0.3099999999999999978, 3.049999999999999822 ) ) ;
#149 =( NAMED_UNIT ( * ) PLANE_ANGLE_UNIT ( ) SI_UNIT ( $, .RADIAN. ) );
#150 = DIRECTION ( 'NONE',  ( 0.000000000000000000, 0.6681887141406245290, 0.7439918294545302402 ) ) ;
#151 = CIRCLE ( 'NONE', #124, 0.9000000000000001332 ) ;
#152 = CARTESIAN_POINT ( 'NONE',  ( -4.049999999999999822, 0.3099999999999999978, 3.049999999999999822 ) ) ;
#153 = ORIENTED_EDGE ( 'NONE', *, *, #531, .T. ) ;
#154 =( NAMED_UNIT ( * ) SI_UNIT ( $, .STERADIAN. ) SOLID_ANGLE_UNIT ( ) );
#155 = B_SPLINE_CURVE_WITH_KNOTS ( 'NONE', 3,
 ( #422, #162, #461, #43, #82, #369 ),
 .UNSPECIFIED., .F., .F.,
 ( 4, 2, 4 ),
 ( 0.004740263097251284051, 0.005528241293880738899, 0.006316219490510193747 ),
 .UNSPECIFIED. ) ;
#156 = EDGE_CURVE ( 'NONE', #550, #313, #464, .T. ) ;
#157 = ORIENTED_EDGE ( 'NONE', *, *, #311, .F. ) ;
#158 = ORIENTED_EDGE ( 'NONE', *, *, #371, .T. ) ;
#159 = CYLINDRICAL_SURFACE ( 'NONE', #319, 0.7500000000000000000 ) ;
#160 = EDGE_LOOP ( 'NONE', ( #459, #450 ) ) ;
#161 = CIRCLE ( 'NONE', #135, 0.7500000000000000000 ) ;
#162 = CARTESIAN_POINT ( 'NONE',  ( -4.008638065689898333, 0.2148786791355369041, 2.720249105358138131 ) ) ;
#163 = ORIENTED_EDGE ( 'NONE', *, *, #229, .F. ) ;
#164 = VERTEX_POINT ( 'NONE', #292 ) ;
#165 = ADVANCED_FACE ( 'NONE', ( #467 ), #337, .F. ) ;
#166 = CARTESIAN_POINT ( 'NONE',  ( -4.049999999999999822, 0.5100000000000000089, 2.773606797749979425 ) ) ;
#167 = CARTESIAN_POINT ( 'NONE',  ( -4.118590432065803775, 0.2406187042505586460, 3.452920600244662630 ) ) ;
#168 = CARTESIAN_POINT ( 'NONE',  ( -4.259729196665149153, 0.2220530877451033780, 2.756445221134421253 ) ) ;
#169 = EDGE_LOOP ( 'NONE', ( #294, #409 ) ) ;
#170 = CARTESIAN_POINT ( 'NONE',  ( -4.062420734542135925, 0.2150973748578015599, 2.718321712581123428 ) ) ;
#171 = CARTESIAN_POINT ( 'NONE',  ( -3.727033017112233448, 0.07000000000000002054, 2.705300542469216030 ) ) ;
#172 = ORIENTED_EDGE ( 'NONE', *, *, #440, .F. ) ;
#173 = VERTEX_POINT ( 'NONE', #260 ) ;
#174 = CARTESIAN_POINT ( 'NONE',  ( -4.032990883426238682, 0.2132067985059026283, 2.730312017122447088 ) ) ;
#175 = AXIS2_PLACEMENT_3D ( 'NONE', #506, #254, #42 ) ;
#176 = AXIS2_PLACEMENT_3D ( 'NONE', #350, #306, #51 ) ;
#177 = CARTESIAN_POINT ( 'NONE',  ( -4.312957185015514838, 0.2132067985059949156, 2.867398698547742431 ) ) ;
#178 = CARTESIAN_POINT ( 'NONE',  ( -4.431116552387199370, 0.2290449233969034659, 3.013369136425461559 ) ) ;
#179 = EDGE_CURVE ( 'NONE', #147, #496, #476, .T. ) ;
#180 = CARTESIAN_POINT ( 'NONE',  ( -4.112192135676652427, 0.3514213562373107447, 2.922987645246704957 ) ) ;
#181 = ORIENTED_EDGE ( 'NONE', *, *, #49, .T. ) ;
#182 = PLANE ( 'NONE',  #176 ) ;
#183 = AXIS2_PLACEMENT_3D ( 'NONE', #187, #226, #265 ) ;
#184 = AXIS2_PLACEMENT_3D ( 'NONE', #490, #58, #150 ) ;
#185 = DIRECTION ( 'NONE',  ( -0.3109606783832558619, 0.7071067811865515695, -0.6350617737664736584 ) ) ;
#186 = FACE_OUTER_BOUND ( 'NONE', #241, .T. ) ;
#187 = CARTESIAN_POINT ( 'NONE',  ( -3.894519660808373196, -0.1435533905932752652, 3.367530886883236985 ) ) ;
#188 = DIRECTION ( 'NONE',  ( 0.3109606783832558619, -0.7071067811865514585, 0.6350617737664735474 ) ) ;
#189 = AXIS2_PLACEMENT_3D ( 'NONE', #287, #454, #545 ) ;
#190 = ORIENTED_EDGE ( 'NONE', *, *, #192, .T. ) ;
#191 = CARTESIAN_POINT ( 'NONE',  ( -4.050000000000005151, 0.2486001685607767409, 3.473600974203630010 ) ) ;
#192 = EDGE_CURVE ( 'NONE', #271, #173, #232, .T. ) ;
#193 = EDGE_LOOP ( 'NONE', ( #211, #126 ) ) ;
#194 = DIRECTION ( 'NONE',  ( 0.000000000000000000, 0.000000000000000000, 1.000000000000000000 ) ) ;
#195 = EDGE_LOOP ( 'NONE', ( #489, #526 ) ) ;
#196 = CYLINDRICAL_SURFACE ( 'NONE', #532, 0.3500000000000000333 ) ;
#197 = CLOSED_SHELL ( 'NONE', ( #198, #215, #507, #525, #544, #349, #466, #555, #401, #13, #71, #41, #325, #363, #30, #165 ) ) ;
#198 = ADVANCED_FACE ( 'NONE', ( #327 ), #207, .F. ) ;
#199 = ORIENTED_EDGE ( 'NONE', *, *, #156, .T. ) ;
#200 = CARTESIAN_POINT ( 'NONE',  ( -3.749209808682597789, 0.2190914215828906886, 2.866007301458330492 ) ) ;
#201 = ORIENTED_EDGE ( 'NONE', *, *, #96, .F. ) ;
#202 = CARTESIAN_POINT ( 'NONE',  ( -4.243667104047101013, 0.2233741146837885660, 2.740418524896289565 ) ) ;
#203 = VERTEX_POINT ( 'NONE', #125 ) ;
#204 = CIRCLE ( 'NONE', #224, 0.3499999999999999778 ) ;
#205 = CARTESIAN_POINT ( 'NONE',  ( -4.091278985502566634, 0.07000000000000000666, 2.705300542469215586 ) ) ;
#206 = EDGE_CURVE ( 'NONE', #111, #550, #105, .T. ) ;
#207 = CYLINDRICAL_SURFACE ( 'NONE', #33, 0.2500000000000001110 ) ;
#208 = ORIENTED_EDGE ( 'NONE', *, *, #237, .F. ) ;
#209 = CARTESIAN_POINT ( 'NONE',  ( -4.112192135676652427, 0.3514213562373107447, 2.922987645246704957 ) ) ;
#210 = CARTESIAN_POINT ( 'NONE',  ( -4.285382148282278258, 0.2186207857237921492, 2.793594312441987526 ) ) ;
#211 = ORIENTED_EDGE ( 'NONE', *, *, #179, .T. ) ;
#212 = ORIENTED_EDGE ( 'NONE', *, *, #447, .T. ) ;
#213 = CARTESIAN_POINT ( 'NONE',  ( -3.894519660808373196, -0.1435533905932752652, 3.367530886883236985 ) ) ;
#214 = CARTESIAN_POINT ( 'NONE',  ( -4.441377872580098973, 0.2376369916845619823, 2.957482123104211880 ) ) ;
#215 = ADVANCED_FACE ( 'NONE', ( #465 ), #252, .T. ) ;
#216 = DIRECTION ( 'NONE',  ( 0.000000000000000000, 0.000000000000000000, 1.000000000000000000 ) ) ;
#217 = CIRCLE ( 'NONE', #358, 0.4999999999999997780 ) ;
#218 = CARTESIAN_POINT ( 'NONE',  ( -4.049999999999999822, 0.2099999999999999922, 2.149999999999999911 ) ) ;
#219 = CARTESIAN_POINT ( 'NONE',  ( -4.441377872580098973, 0.2376369916845619823, 2.957482123104211880 ) ) ;
#220 = DIRECTION ( 'NONE',  ( 0.000000000000000000, 0.000000000000000000, 1.000000000000000000 ) ) ;
#221 = PLANE ( 'NONE',  #183 ) ;
#222 = CARTESIAN_POINT ( 'NONE',  ( -4.389329629915999398, 0.2198239850172598042, 3.150163256864709549 ) ) ;
#223 = PLANE ( 'NONE',  #359 ) ;
#224 = AXIS2_PLACEMENT_3D ( 'NONE', #14, #143, #140 ) ;
#225 = DIRECTION ( 'NONE',  ( 0.000000000000000000, 1.000000000000000000, 0.000000000000000000 ) ) ;
#226 = DIRECTION ( 'NONE',  ( -0.3109606783832558619, 0.7071067811865515695, -0.6350617737664736584 ) ) ;
#227 = ORIENTED_EDGE ( 'NONE', *, *, #345, .T. ) ;
#228 = CARTESIAN_POINT ( 'NONE',  ( -3.701933871719379709, 0.2452236820680169238, 3.281689780338233220 ) ) ;
#229 = EDGE_CURVE ( 'NONE', #528, #342, #266, .T. ) ;
#230 = CARTESIAN_POINT ( 'NONE',  ( -4.127934574889521535, 0.2201715832705231912, 2.704839573527873853 ) ) ;
#231 = COLOUR_RGB ( '',0.7921568627450980005, 0.8196078431372548767, 0.9333333333333333481 ) ;
#232 = CIRCLE ( 'NONE', #116, 0.3499999999999999778 ) ;
#233 = CARTESIAN_POINT ( 'NONE',  ( -4.049999999999999822, 0.3099999999999999978, 3.049999999999999822 ) ) ;
#234 = FILL_AREA_STYLE ('',( #443 ) ) ;
#235 = CARTESIAN_POINT ( 'NONE',  ( -3.883083117402204465, 0.2376369916845610386, 2.684110739438200000 ) ) ;
#236 = CARTESIAN_POINT ( 'NONE',  ( -4.049999999999999822, 0.2099999999999999922, 3.049999999999999822 ) ) ;
#237 = EDGE_CURVE ( 'NONE', #509, #539, #24, .T. ) ;
#238 = CARTESIAN_POINT ( 'NONE',  ( -4.049999999999999822, 0.5100000000000000089, 3.049999999999999822 ) ) ;
#239 = CIRCLE ( 'NONE', #379, 0.2499999999999998335 ) ;
#240 = ORIENTED_EDGE ( 'NONE', *, *, #247, .T. ) ;
#241 = EDGE_LOOP ( 'NONE', ( #420, #172, #227, #44 ) ) ;
#242 = DIRECTION ( 'NONE',  ( 0.000000000000000000, 0.000000000000000000, 1.000000000000000000 ) ) ;
#243 = PLANE ( 'NONE',  #533 ) ;
#244 = VERTEX_POINT ( 'NONE', #552 ) ;
#245 = EDGE_LOOP ( 'NONE', ( #102, #75, #29, #288, #367, #181, #393 ) ) ;
#246 = DIRECTION ( 'NONE',  ( -0.000000000000000000, -1.000000000000000000, -0.000000000000000000 ) ) ;
#247 = EDGE_CURVE ( 'NONE', #118, #145, #155, .T. ) ;
#248 = ORIENTED_EDGE ( 'NONE', *, *, #384, .F. ) ;
#249 = VERTEX_POINT ( 'NONE', #74 ) ;
#250 = VECTOR ( 'NONE', #280, 100.0000000000000142 ) ;
#251 =( LENGTH_UNIT ( ) NAMED_UNIT ( * ) SI_UNIT ( .CENTI., .METRE. ) );
#252 = CYLINDRICAL_SURFACE ( 'NONE', #503, 0.3500000000000000333 ) ;
#253 = ORIENTED_EDGE ( 'NONE', *, *, #134, .F. ) ;
#254 = DIRECTION ( 'NONE',  ( 0.3109606783832559174, -0.7071067811865514585, 0.6350617737664736584 ) ) ;
#255 = DIRECTION ( 'NONE',  ( 0.3109606783832559174, -0.7071067811865514585, 0.6350617737664736584 ) ) ;
#256 = EDGE_CURVE ( 'NONE', #342, #118, #493, .T. ) ;
#257 = CARTESIAN_POINT ( 'NONE',  ( -4.127934574889521535, 0.2201715832705231912, 2.704839573527873853 ) ) ;
#258 = CARTESIAN_POINT ( 'NONE',  ( -4.234929505688572959, 0.2238656466373974141, 2.733321643830348702 ) ) ;
#259 = EDGE_LOOP ( 'NONE', ( #248, #540, #39, #83, #158, #322 ) ) ;
#260 = CARTESIAN_POINT ( 'NONE',  ( -3.894519660808373196, -0.3774194405424938781, 3.107133746574151090 ) ) ;
#261 = PRESENTATION_LAYER_ASSIGNMENT (  '', '', ( #449 ) ) ;
#262 = CARTESIAN_POINT ( 'NONE',  ( -4.441377872580098973, 0.2376369916845619823, 2.957482123104211880 ) ) ;
#263 = ORIENTED_EDGE ( 'NONE', *, *, #498, .T. ) ;
#264 = CARTESIAN_POINT ( 'NONE',  ( -3.893088606127657059, 0.2606560048513490990, 3.465134865721027246 ) ) ;
#265 = DIRECTION ( 'NONE',  ( 0.000000000000000000, 0.6681887141406244179, 0.7439918294545302402 ) ) ;
#266 = CIRCLE ( 'NONE', #441, 0.2500000000000001110 ) ;
#267 = DIRECTION ( 'NONE',  ( 1.000000000000000000, 0.000000000000000000, -1.224646799147353207E-16 ) ) ;
#268 = CARTESIAN_POINT ( 'NONE',  ( -3.776902649358293562, 0.2581253518106073619, 3.394935941919468458 ) ) ;
#269 = EDGE_CURVE ( 'NONE', #284, #528, #308, .T. ) ;
#270 = FACE_OUTER_BOUND ( 'NONE', #553, .T. ) ;
#271 = VERTEX_POINT ( 'NONE', #548 ) ;
#272 = CARTESIAN_POINT ( 'NONE',  ( -4.049999999999999822, 0.3099999999999999978, 2.550000000000000266 ) ) ;
#273 = CARTESIAN_POINT ( 'NONE',  ( -4.112192135676652427, 0.1175553062880921595, 2.662590504937619507 ) ) ;
#274 = AXIS2_PLACEMENT_3D ( 'NONE', #213, #376, #128 ) ;
#275 = AXIS2_PLACEMENT_3D ( 'NONE', #351, #267, #524 ) ;
#276 = DIRECTION ( 'NONE',  ( 0.000000000000000000, 1.000000000000000000, 0.000000000000000000 ) ) ;
#277 = PRODUCT_RELATED_PRODUCT_CATEGORY ( 'part', '', ( #66 ) ) ;
#278 = CARTESIAN_POINT ( 'NONE',  ( -3.959473158589717823, 0.07000000000000000666, 3.637115739002351411 ) ) ;
#279 = ORIENTED_EDGE ( 'NONE', *, *, #473, .F. ) ;
#280 = DIRECTION ( 'NONE',  ( -0.8981129734052661906, 0.000000000000000000, 0.4397648087343410950 ) ) ;
#281 = ORIENTED_EDGE ( 'NONE', *, *, #305, .T. ) ;
#282 = EDGE_LOOP ( 'NONE', ( #374, #460 ) ) ;
#283 = CARTESIAN_POINT ( 'NONE',  ( -3.823821756434653274, 0.2253652584982271112, 2.751818915349851569 ) ) ;
#284 = VERTEX_POINT ( 'NONE', #262 ) ;
#285 = EDGE_CURVE ( 'NONE', #164, #539, #2, .T. ) ;
#286 = DIRECTION ( 'NONE',  ( 0.000000000000000000, -0.6681887141406245290, -0.7439918294545301292 ) ) ;
#287 = CARTESIAN_POINT ( 'NONE',  ( -4.049999999999999822, 0.2099999999999999922, 3.049999999999999822 ) ) ;
#288 = ORIENTED_EDGE ( 'NONE', *, *, #269, .T. ) ;
#289 = SURFACE_STYLE_USAGE ( .BOTH. , #19 ) ;
#290 = CARTESIAN_POINT ( 'NONE',  ( -4.112192135676652427, 0.3514213562373107447, 2.922987645246704957 ) ) ;
#291 = ORIENTED_EDGE ( 'NONE', *, *, #113, .F. ) ;
#292 = CARTESIAN_POINT ( 'NONE',  ( -4.049999999999999822, 0.06999999999999992339, 2.299999999999999822 ) ) ;
#293 = CARTESIAN_POINT ( 'NONE',  ( -4.112192135676652427, 0.3514213562373107447, 2.922987645246704957 ) ) ;
#294 = ORIENTED_EDGE ( 'NONE', *, *, #440, .T. ) ;
#295 = CARTESIAN_POINT ( 'NONE',  ( -3.894519660808373196, -0.1435533905932752652, 3.367530886883236985 ) ) ;
#296 = CARTESIAN_POINT ( 'NONE',  ( -4.279743332219089424, 0.2195199388640165228, 2.783832281272393683 ) ) ;
#297 = EDGE_LOOP ( 'NONE', ( #12, #31, #536 ) ) ;
#298 = DIRECTION ( 'NONE',  ( 0.000000000000000000, 0.000000000000000000, 1.000000000000000000 ) ) ;
#299 = DIRECTION ( 'NONE',  ( 0.000000000000000000, 1.000000000000000000, 0.000000000000000000 ) ) ;
#300 = CARTESIAN_POINT ( 'NONE',  ( -4.157392126255557763, 0.2358863917284476364, 3.434784341443437139 ) ) ;
#301 = FACE_OUTER_BOUND ( 'NONE', #26, .T. ) ;
#302 = CARTESIAN_POINT ( 'NONE',  ( -4.337781567165688301, 0.2193747446219669883, 3.252726878429396784 ) ) ;
#303 = AXIS2_PLACEMENT_3D ( 'NONE', #340, #299, #220 ) ;
#304 = CARTESIAN_POINT ( 'NONE',  ( -4.049999999999999822, 0.2099999999999999922, 3.049999999999999822 ) ) ;
#305 = EDGE_CURVE ( 'NONE', #203, #271, #307, .T. ) ;
#306 = DIRECTION ( 'NONE',  ( -0.000000000000000000, 1.000000000000000000, 0.000000000000000000 ) ) ;
#307 =( BOUNDED_CURVE ( )  B_SPLINE_CURVE ( 3, ( #338, #171, #508, #132 ),
 .UNSPECIFIED., .F., .T. ) 
 B_SPLINE_CURVE_WITH_KNOTS ( ( 4, 4 ),
 ( 3.474911941644188484, 5.753341466272146043 ),
 .UNSPECIFIED. ) 
 CURVE ( )  GEOMETRIC_REPRESENTATION_ITEM ( )  RATIONAL_B_SPLINE_CURVE ( ( 1.000000000000000000, 0.6122052456033055812, 0.6122052456033055812, 1.000000000000000000 ) ) 
 REPRESENTATION_ITEM ( '' )  );
#308 = B_SPLINE_CURVE_WITH_KNOTS ( 'NONE', 3,
 ( #214, #511, #377, #177 ),
 .UNSPECIFIED., .F., .F.,
 ( 4, 4 ),
 ( 4.771793272890811107E-05, 0.001635280733141919159 ),
 .UNSPECIFIED. ) ;
#309 = DIRECTION ( 'NONE',  ( 0.000000000000000000, 1.000000000000000000, 0.000000000000000000 ) ) ;
#310 = CARTESIAN_POINT ( 'NONE',  ( -3.811762797844373107, 0.2603952327440385850, 3.423971157088853801 ) ) ;
#311 = EDGE_CURVE ( 'NONE', #528, #114, #329, .T. ) ;
#312 = B_SPLINE_CURVE_WITH_KNOTS ( 'NONE', 3,
 ( #412, #499, #333, #527, #146 ),
 .UNSPECIFIED., .F., .F.,
 ( 4, 1, 4 ),
 ( 0.001672411758063202221, 0.001765006219837655412, 0.001857600681612108819 ),
 .UNSPECIFIED. ) ;
#313 = VERTEX_POINT ( 'NONE', #218 ) ;
#314 = CARTESIAN_POINT ( 'NONE',  ( -4.049999999999999822, -2.051320343559642545, 3.049999999999999822 ) ) ;
#315 = VERTEX_POINT ( 'NONE', #381 ) ;
#316 = CARTESIAN_POINT ( 'NONE',  ( -3.772204888987484850, 0.2200668577103697121, 2.826130817379248761 ) ) ;
#317 = APPLICATION_CONTEXT ( 'automotive_design' ) ;
#318 = CARTESIAN_POINT ( 'NONE',  ( -3.711931978130001752, 0.2191918277440352003, 2.948431647278128231 ) ) ;
#319 = AXIS2_PLACEMENT_3D ( 'NONE', #407, #69, #194 ) ;
#320 = FACE_OUTER_BOUND ( 'NONE', #245, .T. ) ;
#321 = CYLINDRICAL_SURFACE ( 'NONE', #523, 0.3500000000000000333 ) ;
#322 = ORIENTED_EDGE ( 'NONE', *, *, #91, .F. ) ;
#323 = LINE ( 'NONE', #18, #250 ) ;
#324 = FACE_BOUND ( 'NONE', #282, .T. ) ;
#325 = ADVANCED_FACE ( 'NONE', ( #301 ), #120, .T. ) ;
#326 = ORIENTED_EDGE ( 'NONE', *, *, #408, .T. ) ;
#327 = FACE_OUTER_BOUND ( 'NONE', #21, .T. ) ;
#328 = DIRECTION ( 'NONE',  ( -0.3109606783832558619, 0.7071067811865514585, -0.6350617737664735474 ) ) ;
#329 = B_SPLINE_CURVE_WITH_KNOTS ( 'NONE', 3,
 ( #129, #430, #414, #210, #296, #86, #168, #202, #258, #426, #5, #330, #46, #500 ),
 .UNSPECIFIED., .F., .F.,
 ( 4, 2, 2, 2, 2, 2, 4 ),
 ( 0.01730491334878179674, 0.01797918157633636091, 0.01831631569011364646, 0.01865344980389093202, 0.01899058391766822104, 0.01932771803144550660, 0.02000198625900009852 ),
 .UNSPECIFIED. ) ;
#330 = CARTESIAN_POINT ( 'NONE',  ( -4.173408665777280646, 0.2234803949396569622, 2.705412722481097099 ) ) ;
#331 = ORIENTED_EDGE ( 'NONE', *, *, #229, .T. ) ;
#332 = ORIENTED_EDGE ( 'NONE', *, *, #487, .F. ) ;
#333 = CARTESIAN_POINT ( 'NONE',  ( -4.041430997695201199, 0.2137149470608994684, 2.726575779333962668 ) ) ;
#334 = CARTESIAN_POINT ( 'NONE',  ( -4.112192135676652427, 0.3514213562373107447, 2.922987645246704957 ) ) ;
#335 = VECTOR ( 'NONE', #131, 100.0000000000000000 ) ;
#336 = TOROIDAL_SURFACE ( 'NONE', #405, 0.2763932022500208419, 0.2999999999999999889 ) ;
#337 = CYLINDRICAL_SURFACE ( 'NONE', #175, 0.2500000000000001110 ) ;
#338 = CARTESIAN_POINT ( 'NONE',  ( -4.091278985502566634, 0.07000000000000000666, 2.705300542469215586 ) ) ;
#339 = ORIENTED_EDGE ( 'NONE', *, *, #60, .T. ) ;
#340 = CARTESIAN_POINT ( 'NONE',  ( -4.049999999999999822, 0.2099999999999999922, 3.049999999999999822 ) ) ;
#341 = DIRECTION ( 'NONE',  ( 0.000000000000000000, 0.000000000000000000, 1.000000000000000000 ) ) ;
#342 = VERTEX_POINT ( 'NONE', #53 ) ;
#343 = CARTESIAN_POINT ( 'NONE',  ( -4.049999999999999822, 0.2099999999999999922, 3.950000000000000178 ) ) ;
#344 = CARTESIAN_POINT ( 'NONE',  ( -4.417265472826237271, 0.2238060581114643399, 3.068670263726051672 ) ) ;
#345 = EDGE_CURVE ( 'NONE', #370, #509, #348, .T. ) ;
#346 = CIRCLE ( 'NONE', #442, 0.7500000000000000000 ) ;
#347 = LINE ( 'NONE', #11, #458 ) ;
#348 = LINE ( 'NONE', #477, #413 ) ;
#349 = ADVANCED_FACE ( 'NONE', ( #186 ), #521, .T. ) ;
#350 = CARTESIAN_POINT ( 'NONE',  ( 0.000000000000000000, 0.06999999999999999278, 0.000000000000000000 ) ) ;
#351 = CARTESIAN_POINT ( 'NONE',  ( -4.049999999999999822, 0.5100000000000000089, 3.326393202250020664 ) ) ;
#352 = B_SPLINE_CURVE_WITH_KNOTS ( 'NONE', 3,
 ( #219, #382, #178, #344, #469, #222, #6, #133, #302, #90, #431, #386, #514, #425, #300, #167, #93, #144, #16, #191 ),
 .UNSPECIFIED., .F., .F.,
 ( 4, 2, 2, 2, 2, 2, 2, 2, 2, 4 ),
 ( 0.0002222760444851921524, 0.001080960692224724540, 0.001939645339964256874, 0.002798329987703788990, 0.003657014635443321324, 0.004515699283182853657, 0.005374383930922385991, 0.006233068578661918324, 0.006662410902531684491, 0.007091753226401450658 ),
 .UNSPECIFIED. ) ;
#353 = FACE_OUTER_BOUND ( 'NONE', #416, .T. ) ;
#354 = CARTESIAN_POINT ( 'NONE',  ( -4.049999999999999822, 0.2099999999999999922, 3.049999999999999822 ) ) ;
#355 = EDGE_LOOP ( 'NONE', ( #80, #478, #326, #481 ) ) ;
#356 = CARTESIAN_POINT ( 'NONE',  ( -4.049999999999999822, 0.3099999999999999978, 3.950000000000000178 ) ) ;
#357 = DIRECTION ( 'NONE',  ( 0.3109606783832559174, -0.7071067811865514585, 0.6350617737664736584 ) ) ;
#358 = AXIS2_PLACEMENT_3D ( 'NONE', #421, #81, #4 ) ;
#359 = AXIS2_PLACEMENT_3D ( 'NONE', #385, #7, #390 ) ;
#360 = LINE ( 'NONE', #356, #435 ) ;
#361 = ORIENTED_EDGE ( 'NONE', *, *, #108, .T. ) ;
#362 = DIRECTION ( 'NONE',  ( 0.000000000000000000, 1.000000000000000000, 0.000000000000000000 ) ) ;
#363 = ADVANCED_FACE ( 'NONE', ( #94, #270 ), #221, .F. ) ;
#364 = EDGE_LOOP ( 'NONE', ( #40, #546, #25 ) ) ;
#365 = MECHANICAL_DESIGN_GEOMETRIC_PRESENTATION_REPRESENTATION (  '', ( #449 ), #471 ) ;
#366 = DIRECTION ( 'NONE',  ( 0.000000000000000000, -0.6681887141406241959, -0.7439918294545305733 ) ) ;
#367 = ORIENTED_EDGE ( 'NONE', *, *, #311, .T. ) ;
#368 = CARTESIAN_POINT ( 'NONE',  ( -3.894519660808373196, -0.1435533905932752652, 3.367530886883236985 ) ) ;
#369 = CARTESIAN_POINT ( 'NONE',  ( -3.883083117402204465, 0.2376369916845610386, 2.684110739438200000 ) ) ;
#370 = VERTEX_POINT ( 'NONE', #433 ) ;
#371 = EDGE_CURVE ( 'NONE', #114, #147, #347, .T. ) ;
#372 = CARTESIAN_POINT ( 'NONE',  ( -4.101384468513010972, 0.2180736836418189495, 2.707920576929091272 ) ) ;
#373 = DIRECTION ( 'NONE',  ( 0.000000000000000000, 0.6681887141406241959, 0.7439918294545305733 ) ) ;
#374 = ORIENTED_EDGE ( 'NONE', *, *, #237, .T. ) ;
#375 = ORIENTED_EDGE ( 'NONE', *, *, #285, .T. ) ;
#376 = DIRECTION ( 'NONE',  ( -0.3109606783832558619, 0.7071067811865514585, -0.6350617737664735474 ) ) ;
#377 = CARTESIAN_POINT ( 'NONE',  ( -4.359192487975973584, 0.2165849441115355600, 2.893799391412494426 ) ) ;
#378 = ORIENTED_EDGE ( 'NONE', *, *, #345, .F. ) ;
#379 = AXIS2_PLACEMENT_3D ( 'NONE', #368, #328, #104 ) ;
#380 = DIRECTION ( 'NONE',  ( 0.000000000000000000, 0.000000000000000000, 1.000000000000000000 ) ) ;
#381 = CARTESIAN_POINT ( 'NONE',  ( -4.049999999999999822, 0.3099999999999999978, 3.549999999999999822 ) ) ;
#382 = CARTESIAN_POINT ( 'NONE',  ( -4.436690740277575706, 0.2325584854803515178, 2.985460007090260159 ) ) ;
#383 = CARTESIAN_POINT ( 'NONE',  ( -3.894519660808373196, -0.3106005691284315362, 3.181532929519603758 ) ) ;
#384 = EDGE_CURVE ( 'NONE', #342, #496, #10, .T. ) ;
#385 = CARTESIAN_POINT ( 'NONE',  ( -4.049999999999999822, 0.3099999999999999978, 3.049999999999999822 ) ) ;
#386 = CARTESIAN_POINT ( 'NONE',  ( -4.248815176509427083, 0.2255107468239549162, 3.365418637246750944 ) ) ;
#387 = DIRECTION ( 'NONE',  ( 0.000000000000000000, 1.000000000000000000, 0.000000000000000000 ) ) ;
#388 = TOROIDAL_SURFACE ( 'NONE', #542, 0.2763932022500208419, 0.2999999999999999889 ) ;
#389 = CIRCLE ( 'NONE', #275, 0.2999999999999999334 ) ;
#390 = DIRECTION ( 'NONE',  ( 0.000000000000000000, -0.000000000000000000, 1.000000000000000000 ) ) ;
#391 = EDGE_CURVE ( 'NONE', #315, #3, #389, .T. ) ;
#392 = DIRECTION ( 'NONE',  ( 0.000000000000000000, 0.000000000000000000, 1.000000000000000000 ) ) ;
#393 = ORIENTED_EDGE ( 'NONE', *, *, #108, .F. ) ;
#394 = CARTESIAN_POINT ( 'NONE',  ( -3.694307767799291042, 0.2426226942314802515, 3.260182945841868296 ) ) ;
#395 = UNCERTAINTY_MEASURE_WITH_UNIT (LENGTH_MEASURE( 1.000000000000000082E-05 ), #27, 'distance_accuracy_value', 'NONE');
#396 = AXIS2_PLACEMENT_3D ( 'NONE', #290, #185, #101 ) ;
#397 = CARTESIAN_POINT ( 'NONE',  ( -4.114615121997831970, 0.2191479210812746770, 2.705758937820427867 ) ) ;
#398 = DIRECTION ( 'NONE',  ( -0.000000000000000000, -1.000000000000000000, -0.000000000000000000 ) ) ;
#399 = PRODUCT_DEFINITION_SHAPE ( 'NONE', 'NONE',  #20 ) ;
#400 = CARTESIAN_POINT ( 'NONE',  ( -4.704016253469016640, 0.07000000000000000666, 2.705300542469215141 ) ) ;
#401 = ADVANCED_FACE ( 'NONE', ( #92, #138 ), #223, .T. ) ;
#402 = CYLINDRICAL_SURFACE ( 'NONE', #470, 0.9000000000000001332 ) ;
#403 = DIRECTION ( 'NONE',  ( 0.000000000000000000, 1.000000000000000000, 0.000000000000000000 ) ) ;
#404 = CIRCLE ( 'NONE', #303, 0.9000000000000001332 ) ;
#405 = AXIS2_PLACEMENT_3D ( 'NONE', #238, #482, #492 ) ;
#406 = ORIENTED_EDGE ( 'NONE', *, *, #96, .T. ) ;
#407 = CARTESIAN_POINT ( 'NONE',  ( -4.049999999999999822, -2.051320343559642545, 3.049999999999999822 ) ) ;
#408 = EDGE_CURVE ( 'NONE', #427, #313, #34, .T. ) ;
#409 = ORIENTED_EDGE ( 'NONE', *, *, #113, .T. ) ;
#410 = ORIENTED_EDGE ( 'NONE', *, *, #480, .F. ) ;
#411 = UNCERTAINTY_MEASURE_WITH_UNIT (LENGTH_MEASURE( 1.000000000000000082E-05 ), #251, 'distance_accuracy_value', 'NONE');
#412 = CARTESIAN_POINT ( 'NONE',  ( -4.049999999999999822, 0.2142734497872756383, 2.723150802077700661 ) ) ;
#413 = VECTOR ( 'NONE', #309, 100.0000000000000000 ) ;
#414 = CARTESIAN_POINT ( 'NONE',  ( -4.300432092223278602, 0.2159955046958692559, 2.824119410621143800 ) ) ;
#415 = CIRCLE ( 'NONE', #484, 0.4999999999999997780 ) ;
#416 = EDGE_LOOP ( 'NONE', ( #332, #410, #199, #56 ) ) ;
#417 = PRESENTATION_STYLE_ASSIGNMENT (( #289 ) ) ;
#418 = DIRECTION ( 'NONE',  ( 0.000000000000000000, 0.6681887141406241959, 0.7439918294545305733 ) ) ;
#419 = ORIENTED_EDGE ( 'NONE', *, *, #247, .F. ) ;
#420 = ORIENTED_EDGE ( 'NONE', *, *, #285, .F. ) ;
#421 = CARTESIAN_POINT ( 'NONE',  ( -4.049999999999999822, 0.3099999999999999978, 3.049999999999999822 ) ) ;
#422 = CARTESIAN_POINT ( 'NONE',  ( -4.032990883426238682, 0.2132067985059026283, 2.730312017122447088 ) ) ;
#423 = EDGE_LOOP ( 'NONE', ( #291, #375, #208, #378 ) ) ;
#424 = DIRECTION ( 'NONE',  ( 0.000000000000000000, 0.6681887141406245290, 0.7439918294545302402 ) ) ;
#425 = CARTESIAN_POINT ( 'NONE',  ( -4.182217382647795745, 0.2328456046978576999, 3.419489488378845365 ) ) ;
#426 = CARTESIAN_POINT ( 'NONE',  ( -4.215831909561338797, 0.2243456209928143541, 2.721225416989178303 ) ) ;
#427 = VERTEX_POINT ( 'NONE', #343 ) ;
#428 = SHAPE_DEFINITION_REPRESENTATION ( #399, #141 ) ;
#429 = DIRECTION ( 'NONE',  ( -0.000000000000000000, -1.000000000000000000, -0.000000000000000000 ) ) ;
#430 = CARTESIAN_POINT ( 'NONE',  ( -4.307723271530266018, 0.2144148774671551516, 2.845492167290420760 ) ) ;
#431 = CARTESIAN_POINT ( 'NONE',  ( -4.287794739617184270, 0.2221187868411295951, 3.323066984113022038 ) ) ;
#432 = CARTESIAN_POINT ( 'NONE',  ( -3.871840490841851334, 0.2611581835317162148, 3.457283529274578271 ) ) ;
#433 = CARTESIAN_POINT ( 'NONE',  ( -4.049999999999999822, 0.06999999999999992339, 3.799999999999999822 ) ) ;
#434 = AXIS2_PLACEMENT_3D ( 'NONE', #117, #504, #341 ) ;
#435 = VECTOR ( 'NONE', #109, 100.0000000000000000 ) ;
#436 = DIRECTION ( 'NONE',  ( 0.000000000000000000, 0.000000000000000000, 1.000000000000000000 ) ) ;
#437 = CARTESIAN_POINT ( 'NONE',  ( -3.760914293364782335, 0.2564671446809432265, 3.378243872525314107 ) ) ;
#438 = CARTESIAN_POINT ( 'NONE',  ( -4.049999999999999822, 0.2142734497872756383, 2.723150802077700661 ) ) ;
#439 = CARTESIAN_POINT ( 'NONE',  ( -3.678447409771616439, 0.2248916299034453004, 3.080705802943958904 ) ) ;
#440 = EDGE_CURVE ( 'NONE', #370, #164, #346, .T. ) ;
#441 = AXIS2_PLACEMENT_3D ( 'NONE', #180, #35, #418 ) ;
#442 = AXIS2_PLACEMENT_3D ( 'NONE', #472, #520, #392 ) ;
#443 = FILL_AREA_STYLE_COLOUR ( '', #231 ) ;
#444 = CARTESIAN_POINT ( 'NONE',  ( -4.049999999999999822, 0.2099999999999999922, 3.799999999999999822 ) ) ;
#445 =( NAMED_UNIT ( * ) SI_UNIT ( $, .STERADIAN. ) SOLID_ANGLE_UNIT ( ) );
#446 = CARTESIAN_POINT ( 'NONE',  ( -4.049999999999999822, 0.3099999999999999978, 2.149999999999999911 ) ) ;
#447 = EDGE_CURVE ( 'NONE', #173, #249, #204, .T. ) ;
#448 = ORIENTED_EDGE ( 'NONE', *, *, #192, .F. ) ;
#449 = STYLED_ITEM ( 'NONE', ( #417 ), #100 ) ;
#450 = ORIENTED_EDGE ( 'NONE', *, *, #139, .F. ) ;
#451 = CARTESIAN_POINT ( 'NONE',  ( -4.312957185015514838, 0.2132067985059949156, 2.867398698547742431 ) ) ;
#452 = EDGE_LOOP ( 'NONE', ( #253, #549 ) ) ;
#453 = FACE_OUTER_BOUND ( 'NONE', #72, .T. ) ;
#454 = DIRECTION ( 'NONE',  ( 0.000000000000000000, 1.000000000000000000, 0.000000000000000000 ) ) ;
#455 = ORIENTED_EDGE ( 'NONE', *, *, #384, .T. ) ;
#456 = VECTOR ( 'NONE', #485, 100.0000000000000142 ) ;
#457 = DIRECTION ( 'NONE',  ( 0.3109606783832559174, -0.7071067811865514585, 0.6350617737664736584 ) ) ;
#458 = VECTOR ( 'NONE', #8, 100.0000000000000142 ) ;
#459 = ORIENTED_EDGE ( 'NONE', *, *, #517, .F. ) ;
#460 = ORIENTED_EDGE ( 'NONE', *, *, #54, .T. ) ;
#461 = CARTESIAN_POINT ( 'NONE',  ( -3.983864367928568129, 0.2174975791838716088, 2.711034562584147878 ) ) ;
#462 = CARTESIAN_POINT ( 'NONE',  ( -4.050000000000005151, 0.2486001685607767409, 3.473600974203630010 ) ) ;
#463 = APPLICATION_PROTOCOL_DEFINITION ( 'draft international standard', 'automotive_design', 1998, #519 ) ;
#464 = LINE ( 'NONE', #47, #335 ) ;
#465 = FACE_OUTER_BOUND ( 'NONE', #28, .T. ) ;
#466 = ADVANCED_FACE ( 'NONE', ( #479, #475 ), #182, .F. ) ;
#467 = FACE_OUTER_BOUND ( 'NONE', #259, .T. ) ;
#468 = DIRECTION ( 'NONE',  ( -0.3109606783832558619, 0.7071067811865514585, -0.6350617737664735474 ) ) ;
#469 = CARTESIAN_POINT ( 'NONE',  ( -4.409008841001583079, 0.2220964083114390086, 3.096069138251024366 ) ) ;
#470 = AXIS2_PLACEMENT_3D ( 'NONE', #152, #37, #488 ) ;
#471 =( GEOMETRIC_REPRESENTATION_CONTEXT ( 3 ) GLOBAL_UNCERTAINTY_ASSIGNED_CONTEXT ( ( #411 ) ) GLOBAL_UNIT_ASSIGNED_CONTEXT ( ( #251, #149, #445 ) ) REPRESENTATION_CONTEXT ( 'NONE', 'WORKASPACE' ) );
#472 = CARTESIAN_POINT ( 'NONE',  ( -4.049999999999999822, 0.06999999999999992339, 3.049999999999999822 ) ) ;
#473 = EDGE_CURVE ( 'NONE', #3, #145, #64, .T. ) ;
#474 = CARTESIAN_POINT ( 'NONE',  ( -3.831035324282208610, 0.2610347453217356506, 3.436668195059558339 ) ) ;
#475 = FACE_OUTER_BOUND ( 'NONE', #169, .T. ) ;
#476 = CIRCLE ( 'NONE', #274, 0.2499999999999998335 ) ;
#477 = CARTESIAN_POINT ( 'NONE',  ( -4.049999999999999822, -2.051320343559642545, 3.799999999999999822 ) ) ;
#478 = ORIENTED_EDGE ( 'NONE', *, *, #487, .T. ) ;
#479 = FACE_BOUND ( 'NONE', #364, .T. ) ;
#480 = EDGE_CURVE ( 'NONE', #550, #111, #151, .T. ) ;
#481 = ORIENTED_EDGE ( 'NONE', *, *, #156, .F. ) ;
#482 = DIRECTION ( 'NONE',  ( -0.000000000000000000, -1.000000000000000000, -0.000000000000000000 ) ) ;
#483 = CYLINDRICAL_SURFACE ( 'NONE', #505, 0.9000000000000001332 ) ;
#484 = AXIS2_PLACEMENT_3D ( 'NONE', #233, #362, #242 ) ;
#485 = DIRECTION ( 'NONE',  ( 0.3109606783832558619, -0.7071067811865514585, 0.6350617737664735474 ) ) ;
#486 = FACE_OUTER_BOUND ( 'NONE', #355, .T. ) ;
#487 = EDGE_CURVE ( 'NONE', #111, #427, #360, .T. ) ;
#488 = DIRECTION ( 'NONE',  ( 0.000000000000000000, 0.000000000000000000, -1.000000000000000000 ) ) ;
#489 = ORIENTED_EDGE ( 'NONE', *, *, #480, .T. ) ;
#490 = CARTESIAN_POINT ( 'NONE',  ( -4.112192135676652427, 0.3514213562373107447, 2.922987645246704957 ) ) ;
#491 = ORIENTED_EDGE ( 'NONE', *, *, #391, .F. ) ;
#492 = DIRECTION ( 'NONE',  ( 0.000000000000000000, 0.000000000000000000, -1.000000000000000000 ) ) ;
#493 = CIRCLE ( 'NONE', #15, 0.2500000000000001110 ) ;
#494 = ORIENTED_EDGE ( 'NONE', *, *, #269, .F. ) ;
#495 = DIRECTION ( 'NONE',  ( 0.000000000000000000, -0.6681887141406245290, -0.7439918294545301292 ) ) ;
#496 = VERTEX_POINT ( 'NONE', #541 ) ;
#497 = VERTEX_POINT ( 'NONE', #272 ) ;
#498 = EDGE_CURVE ( 'NONE', #284, #145, #107, .T. ) ;
#499 = CARTESIAN_POINT ( 'NONE',  ( -4.047132544853379699, 0.2140832381555967945, 2.724265647377990263 ) ) ;
#500 = CARTESIAN_POINT ( 'NONE',  ( -4.127934574889521535, 0.2201715832705231912, 2.704839573527873853 ) ) ;
#501 = DIRECTION ( 'NONE',  ( 1.000000000000000000, 0.000000000000000000, 0.000000000000000000 ) ) ;
#502 = DIRECTION ( 'NONE',  ( 0.000000000000000000, -0.6681887141406245290, -0.7439918294545301292 ) ) ;
#503 = AXIS2_PLACEMENT_3D ( 'NONE', #293, #457, #495 ) ;
#504 = DIRECTION ( 'NONE',  ( 0.000000000000000000, 1.000000000000000000, 0.000000000000000000 ) ) ;
#505 = AXIS2_PLACEMENT_3D ( 'NONE', #103, #398, #112 ) ;
#506 = CARTESIAN_POINT ( 'NONE',  ( -4.112192135676652427, 0.3514213562373107447, 2.922987645246704957 ) ) ;
#507 = ADVANCED_FACE ( 'NONE', ( #320 ), #336, .F. ) ;
#508 = CARTESIAN_POINT ( 'NONE',  ( -3.482267960708000043, 0.07000000000000002054, 3.127945093504255869 ) ) ;
#509 = VERTEX_POINT ( 'NONE', #444 ) ;
#510 = CARTESIAN_POINT ( 'NONE',  ( -3.883083117402204465, 0.2376369916845610386, 2.684110739438200000 ) ) ;
#511 = CARTESIAN_POINT ( 'NONE',  ( -4.402620640557626253, 0.2238648373460978003, 2.923169935240966577 ) ) ;
#512 = CARTESIAN_POINT ( 'NONE',  ( -3.683178888730889167, 0.2375828559541633966, 3.216357600607860689 ) ) ;
#513 = CARTESIAN_POINT ( 'NONE',  ( -3.960213848062816400, 0.2570522061858505070, 3.479006438552789682 ) ) ;
#514 = CARTESIAN_POINT ( 'NONE',  ( -4.227815470947807519, 0.2276737220830003516, 3.384832026825905338 ) ) ;
#515 = AXIS2_PLACEMENT_3D ( 'NONE', #166, #556, #216 ) ;
#516 = VECTOR ( 'NONE', #188, 100.0000000000000142 ) ;
#517 = EDGE_CURVE ( 'NONE', #497, #315, #415, .T. ) ;
#518 =( BOUNDED_CURVE ( )  B_SPLINE_CURVE ( 3, ( #278, #76, #400, #205 ),
 .UNSPECIFIED., .F., .F. ) 
 B_SPLINE_CURVE_WITH_KNOTS ( ( 4, 4 ),
 ( 0.5298438409074388566, 3.474911941644188484 ),
 .UNSPECIFIED. ) 
 CURVE ( )  GEOMETRIC_REPRESENTATION_ITEM ( )  RATIONAL_B_SPLINE_CURVE ( ( 1.000000000000000000, 0.3987361497271334487, 0.3987361497271334487, 1.000000000000000000 ) ) 
 REPRESENTATION_ITEM ( '' )  );
#519 = APPLICATION_CONTEXT ( 'automotive_design' ) ;
#520 = DIRECTION ( 'NONE',  ( -0.000000000000000000, -1.000000000000000000, -0.000000000000000000 ) ) ;
#521 = CYLINDRICAL_SURFACE ( 'NONE', #77, 0.7500000000000000000 ) ;
#522 = CARTESIAN_POINT ( 'NONE',  ( -4.050000000000005151, 0.2486001685607767409, 3.473600974203630010 ) ) ;
#523 = AXIS2_PLACEMENT_3D ( 'NONE', #61, #123, #502 ) ;
#524 = DIRECTION ( 'NONE',  ( 0.000000000000000000, 0.000000000000000000, -1.000000000000000000 ) ) ;
#525 = ADVANCED_FACE ( 'NONE', ( #486 ), #483, .T. ) ;
#526 = ORIENTED_EDGE ( 'NONE', *, *, #206, .T. ) ;
#527 = CARTESIAN_POINT ( 'NONE',  ( -4.035793841787771896, 0.2133718672395765181, 2.729041421995081151 ) ) ;
#528 = VERTEX_POINT ( 'NONE', #451 ) ;
#529 =( NAMED_UNIT ( * ) PLANE_ANGLE_UNIT ( ) SI_UNIT ( $, .RADIAN. ) );
#530 = CARTESIAN_POINT ( 'NONE',  ( -3.679607353135095682, 0.2351080721814517160, 3.193700290330375058 ) ) ;
#531 = EDGE_CURVE ( 'NONE', #271, #249, #323, .T. ) ;
#532 = AXIS2_PLACEMENT_3D ( 'NONE', #209, #357, #286 ) ;
#533 = AXIS2_PLACEMENT_3D ( 'NONE', #354, #403, #62 ) ;
#534 = DIRECTION ( 'NONE',  ( 0.000000000000000000, 0.000000000000000000, 1.000000000000000000 ) ) ;
#535 = CARTESIAN_POINT ( 'NONE',  ( -3.697322743822025526, 0.2202866525234060124, 2.991194796391880129 ) ) ;
#536 = ORIENTED_EDGE ( 'NONE', *, *, #473, .T. ) ;
#537 = B_SPLINE_CURVE_WITH_KNOTS ( 'NONE', 3,
 ( #230, #397, #372, #551, #170, #438 ),
 .UNSPECIFIED., .F., .F.,
 ( 4, 2, 4 ),
 ( 0.0008702431653807417983, 0.001271327461721971901, 0.001672411758063202221 ),
 .UNSPECIFIED. ) ;
#538 = FACE_OUTER_BOUND ( 'NONE', #423, .T. ) ;
#539 = VERTEX_POINT ( 'NONE', #70 ) ;
#540 = ORIENTED_EDGE ( 'NONE', *, *, #256, .T. ) ;
#541 = CARTESIAN_POINT ( 'NONE',  ( -3.894519660808373196, 0.02349378794188087746, 3.553528844246869323 ) ) ;
#542 = AXIS2_PLACEMENT_3D ( 'NONE', #73, #246, #32 ) ;
#543 = PRODUCT_DEFINITION_FORMATION_WITH_SPECIFIED_SOURCE ( 'ANY', '', #66, .NOT_KNOWN. ) ;
#544 = ADVANCED_FACE ( 'NONE', ( #538 ), #159, .T. ) ;
#545 = DIRECTION ( 'NONE',  ( 0.000000000000000000, 0.000000000000000000, 1.000000000000000000 ) ) ;
#546 = ORIENTED_EDGE ( 'NONE', *, *, #305, .F. ) ;
#547 = LINE ( 'NONE', #273, #456 ) ;
#548 = CARTESIAN_POINT ( 'NONE',  ( -3.641739631089382812, 0.06999999999999999278, 3.481536175977131720 ) ) ;
#549 = ORIENTED_EDGE ( 'NONE', *, *, #408, .F. ) ;
#550 = VERTEX_POINT ( 'NONE', #446 ) ;
#551 = CARTESIAN_POINT ( 'NONE',  ( -4.075149608342583107, 0.2160380837907956153, 2.714236252602747257 ) ) ;
#552 = CARTESIAN_POINT ( 'NONE',  ( -4.049999999999999822, 0.2142734497872756383, 2.723150802077700661 ) ) ;
#553 = EDGE_LOOP ( 'NONE', ( #448, #153, #68 ) ) ;
#554 = ORIENTED_EDGE ( 'NONE', *, *, #139, .T. ) ;
#555 = ADVANCED_FACE ( 'NONE', ( #65, #324 ), #243, .F. ) ;
#556 = DIRECTION ( 'NONE',  ( -1.000000000000000000, 0.000000000000000000, 0.000000000000000000 ) ) ;
ENDSEC;
END-ISO-10303-21;
