ISO-10303-21;
HEADER;
FILE_DESCRIPTION (( 'STEP AP214' ),
    '1' );
FILE_NAME ('Part15.STEP',
    '2026-08-12T19:48:59',
    ( '' ),
    ( '' ),
    'SwSTEP 2.0',
    'SolidWorks 2026',
    '' );
FILE_SCHEMA (( 'AUTOMOTIVE_DESIGN' ));
ENDSEC;

DATA;
#1 = DIRECTION ( 'NONE',  ( 0.000000000000000000, 0.000000000000000000, 1.000000000000000000 ) ) ;
#2 = AXIS2_PLACEMENT_3D ( 'NONE', #104, #72, #169 ) ;
#3 =( NAMED_UNIT ( * ) SI_UNIT ( $, .STERADIAN. ) SOLID_ANGLE_UNIT ( ) );
#4 = ORIENTED_EDGE ( 'NONE', *, *, #34, .T. ) ;
#5 = ADVANCED_BREP_SHAPE_REPRESENTATION ( 'Part15', ( #49, #18 ), #126 ) ;
#6 = AXIS2_PLACEMENT_3D ( 'NONE', #184, #187, #172 ) ;
#7 = ORIENTED_EDGE ( 'NONE', *, *, #24, .F. ) ;
#8 = VERTEX_POINT ( 'NONE', #26 ) ;
#9 = CARTESIAN_POINT ( 'NONE',  ( -3.987625584068136497, -2.620445527234949168E-10, 0.000000000000000000 ) ) ;
#10 = ORIENTED_EDGE ( 'NONE', *, *, #183, .T. ) ;
#11 = CYLINDRICAL_SURFACE ( 'NONE', #192, 0.7500000000000000000 ) ;
#12 = ORIENTED_EDGE ( 'NONE', *, *, #186, .T. ) ;
#13 = CYLINDRICAL_SURFACE ( 'NONE', #190, 0.1750000000000001554 ) ;
#14 = FACE_OUTER_BOUND ( 'NONE', #25, .T. ) ;
#15 =( NAMED_UNIT ( * ) PLANE_ANGLE_UNIT ( ) SI_UNIT ( $, .RADIAN. ) );
#16 = VECTOR ( 'NONE', #182, 100.0000000000000000 ) ;
#17 = PRODUCT_CONTEXT ( 'NONE', #58, 'mechanical' ) ;
#18 = AXIS2_PLACEMENT_3D ( 'NONE', #134, #156, #88 ) ;
#19 = CIRCLE ( 'NONE', #44, 0.7500000000000000000 ) ;
#20 = CARTESIAN_POINT ( 'NONE',  ( -3.987625584068136497, -2.620445527234949168E-10, 0.2999999999999999889 ) ) ;
#21 = PRODUCT_DEFINITION_CONTEXT ( 'detailed design', #125, 'design' ) ;
#22 = CIRCLE ( 'NONE', #2, 0.7500000000000000000 ) ;
#23 = AXIS2_PLACEMENT_3D ( 'NONE', #181, #162, #42 ) ;
#24 = EDGE_CURVE ( 'NONE', #96, #160, #40, .T. ) ;
#25 = EDGE_LOOP ( 'NONE', ( #63, #37, #4, #76 ) ) ;
#26 = CARTESIAN_POINT ( 'NONE',  ( -3.237625584068136497, -2.620444608749850054E-10, 0.2999999999999999889 ) ) ;
#27 = DIRECTION ( 'NONE',  ( -0.000000000000000000, -0.000000000000000000, -1.000000000000000000 ) ) ;
#28 = VERTEX_POINT ( 'NONE', #93 ) ;
#29 = LINE ( 'NONE', #67, #170 ) ;
#30 = CYLINDRICAL_SURFACE ( 'NONE', #89, 0.1750000000000001554 ) ;
#31 = PRESENTATION_STYLE_ASSIGNMENT (( #85 ) ) ;
#32 = AXIS2_PLACEMENT_3D ( 'NONE', #70, #1, #103 ) ;
#33 = DIRECTION ( 'NONE',  ( -1.000000000000000000, 0.000000000000000000, 0.000000000000000000 ) ) ;
#34 = EDGE_CURVE ( 'NONE', #54, #139, #159, .T. ) ;
#35 =( LENGTH_UNIT ( ) NAMED_UNIT ( * ) SI_UNIT ( .CENTI., .METRE. ) );
#36 = ADVANCED_FACE ( 'NONE', ( #60 ), #30, .F. ) ;
#37 = ORIENTED_EDGE ( 'NONE', *, *, #141, .T. ) ;
#38 = EDGE_LOOP ( 'NONE', ( #106, #78 ) ) ;
#39 = DIRECTION ( 'NONE',  ( -1.000000000000000000, 0.000000000000000000, 0.000000000000000000 ) ) ;
#40 = LINE ( 'NONE', #191, #92 ) ;
#41 = DIRECTION ( 'NONE',  ( 0.000000000000000000, 0.000000000000000000, 1.000000000000000000 ) ) ;
#42 = DIRECTION ( 'NONE',  ( -1.000000000000000000, 0.000000000000000000, 0.000000000000000000 ) ) ;
#43 = FACE_OUTER_BOUND ( 'NONE', #52, .T. ) ;
#44 = AXIS2_PLACEMENT_3D ( 'NONE', #9, #64, #128 ) ;
#45 = MECHANICAL_DESIGN_GEOMETRIC_PRESENTATION_REPRESENTATION (  '', ( #122 ), #80 ) ;
#46 = UNCERTAINTY_MEASURE_WITH_UNIT (LENGTH_MEASURE( 1.000000000000000082E-05 ), #150, 'distance_accuracy_value', 'NONE');
#47 = DIRECTION ( 'NONE',  ( 0.000000000000000000, 0.000000000000000000, 1.000000000000000000 ) ) ;
#48 = CIRCLE ( 'NONE', #91, 0.1750000000000001554 ) ;
#49 = MANIFOLD_SOLID_BREP ( 'Boss-Extrude1', #188 ) ;
#50 = ORIENTED_EDGE ( 'NONE', *, *, #186, .F. ) ;
#51 = ORIENTED_EDGE ( 'NONE', *, *, #164, .F. ) ;
#52 = EDGE_LOOP ( 'NONE', ( #94, #112, #175, #173 ) ) ;
#53 = CARTESIAN_POINT ( 'NONE',  ( -4.162625584068136320, -2.620445527234949168E-10, 0.2999999999999999889 ) ) ;
#54 = VERTEX_POINT ( 'NONE', #53 ) ;
#55 = SURFACE_SIDE_STYLE ('',( #68 ) ) ;
#56 = DIRECTION ( 'NONE',  ( -1.000000000000000000, 0.000000000000000000, 0.000000000000000000 ) ) ;
#57 = EDGE_CURVE ( 'NONE', #8, #96, #116, .T. ) ;
#58 = APPLICATION_CONTEXT ( 'automotive_design' ) ;
#59 = CYLINDRICAL_SURFACE ( 'NONE', #23, 0.7500000000000000000 ) ;
#60 = FACE_OUTER_BOUND ( 'NONE', #178, .T. ) ;
#61 = COLOUR_RGB ( '',0.7921568627450980005, 0.8196078431372548767, 0.9333333333333333481 ) ;
#62 = ADVANCED_FACE ( 'NONE', ( #14 ), #13, .F. ) ;
#63 = ORIENTED_EDGE ( 'NONE', *, *, #74, .F. ) ;
#64 = DIRECTION ( 'NONE',  ( 0.000000000000000000, 0.000000000000000000, 1.000000000000000000 ) ) ;
#65 = ORIENTED_EDGE ( 'NONE', *, *, #141, .F. ) ;
#66 = CARTESIAN_POINT ( 'NONE',  ( -3.987625584068136497, -2.620445527234949168E-10, 0.2999999999999999889 ) ) ;
#67 = CARTESIAN_POINT ( 'NONE',  ( -3.812625584068136231, -2.620445312921759271E-10, 0.2999999999999999889 ) ) ;
#68 = SURFACE_STYLE_FILL_AREA ( #115 ) ;
#69 = DIRECTION ( 'NONE',  ( -0.000000000000000000, -0.000000000000000000, -1.000000000000000000 ) ) ;
#70 = CARTESIAN_POINT ( 'NONE',  ( -3.987625584068136497, -2.620445527234949168E-10, 0.2999999999999999889 ) ) ;
#71 = CIRCLE ( 'NONE', #32, 0.7500000000000000000 ) ;
#72 = DIRECTION ( 'NONE',  ( 0.000000000000000000, 0.000000000000000000, 1.000000000000000000 ) ) ;
#73 = DIRECTION ( 'NONE',  ( -0.000000000000000000, -0.000000000000000000, -1.000000000000000000 ) ) ;
#74 = EDGE_CURVE ( 'NONE', #144, #28, #29, .T. ) ;
#75 = VECTOR ( 'NONE', #73, 100.0000000000000000 ) ;
#76 = ORIENTED_EDGE ( 'NONE', *, *, #183, .F. ) ;
#77 = CARTESIAN_POINT ( 'NONE',  ( -4.162625584068136320, -2.620445527234949168E-10, 0.2999999999999999889 ) ) ;
#78 = ORIENTED_EDGE ( 'NONE', *, *, #57, .T. ) ;
#79 = FACE_OUTER_BOUND ( 'NONE', #121, .T. ) ;
#80 =( GEOMETRIC_REPRESENTATION_CONTEXT ( 3 ) GLOBAL_UNCERTAINTY_ASSIGNED_CONTEXT ( ( #46 ) ) GLOBAL_UNIT_ASSIGNED_CONTEXT ( ( #150, #15, #83 ) ) REPRESENTATION_CONTEXT ( 'NONE', 'WORKASPACE' ) );
#81 = ADVANCED_FACE ( 'NONE', ( #79 ), #11, .T. ) ;
#82 = ORIENTED_EDGE ( 'NONE', *, *, #136, .T. ) ;
#83 =( NAMED_UNIT ( * ) SI_UNIT ( $, .STERADIAN. ) SOLID_ANGLE_UNIT ( ) );
#84 = CARTESIAN_POINT ( 'NONE',  ( -3.987625584068136497, -2.620445527234949168E-10, 0.2999999999999999889 ) ) ;
#85 = SURFACE_STYLE_USAGE ( .BOTH. , #55 ) ;
#86 = CARTESIAN_POINT ( 'NONE',  ( -4.162625584068136320, -2.620445527234949168E-10, 0.000000000000000000 ) ) ;
#87 = UNCERTAINTY_MEASURE_WITH_UNIT (LENGTH_MEASURE( 1.000000000000000082E-05 ), #35, 'distance_accuracy_value', 'NONE');
#88 = DIRECTION ( 'NONE',  ( 1.000000000000000000, 0.000000000000000000, 0.000000000000000000 ) ) ;
#89 = AXIS2_PLACEMENT_3D ( 'NONE', #84, #149, #39 ) ;
#90 = DIRECTION ( 'NONE',  ( 1.000000000000000000, 0.000000000000000000, 0.000000000000000000 ) ) ;
#91 = AXIS2_PLACEMENT_3D ( 'NONE', #157, #117, #90 ) ;
#92 = VECTOR ( 'NONE', #148, 100.0000000000000000 ) ;
#93 = CARTESIAN_POINT ( 'NONE',  ( -3.812625584068136231, -2.620445312921759271E-10, 0.000000000000000000 ) ) ;
#94 = ORIENTED_EDGE ( 'NONE', *, *, #136, .F. ) ;
#95 = CIRCLE ( 'NONE', #154, 0.1750000000000001554 ) ;
#96 = VERTEX_POINT ( 'NONE', #131 ) ;
#97 = ADVANCED_FACE ( 'NONE', ( #114, #179 ), #152, .F. ) ;
#98 = DIRECTION ( 'NONE',  ( 1.000000000000000000, 0.000000000000000000, -0.000000000000000000 ) ) ;
#99 = AXIS2_PLACEMENT_3D ( 'NONE', #166, #133, #146 ) ;
#100 = PLANE ( 'NONE',  #99 ) ;
#101 = CARTESIAN_POINT ( 'NONE',  ( -3.812625584068136231, -2.620445312921759271E-10, 0.2999999999999999889 ) ) ;
#102 = APPLICATION_PROTOCOL_DEFINITION ( 'draft international standard', 'automotive_design', 1998, #125 ) ;
#103 = DIRECTION ( 'NONE',  ( 1.000000000000000000, 0.000000000000000000, 0.000000000000000000 ) ) ;
#104 = CARTESIAN_POINT ( 'NONE',  ( -3.987625584068136497, -2.620445527234949168E-10, 0.000000000000000000 ) ) ;
#105 = ADVANCED_FACE ( 'NONE', ( #43 ), #59, .T. ) ;
#106 = ORIENTED_EDGE ( 'NONE', *, *, #145, .T. ) ;
#107 = PRODUCT_DEFINITION_SHAPE ( 'NONE', 'NONE',  #158 ) ;
#108 = ORIENTED_EDGE ( 'NONE', *, *, #74, .T. ) ;
#109 = ORIENTED_EDGE ( 'NONE', *, *, #164, .T. ) ;
#110 = LINE ( 'NONE', #177, #75 ) ;
#111 = ADVANCED_FACE ( 'NONE', ( #197, #165 ), #100, .T. ) ;
#112 = ORIENTED_EDGE ( 'NONE', *, *, #145, .F. ) ;
#113 = DIRECTION ( 'NONE',  ( 1.000000000000000000, 0.000000000000000000, 0.000000000000000000 ) ) ;
#114 = FACE_OUTER_BOUND ( 'NONE', #174, .T. ) ;
#115 = FILL_AREA_STYLE ('',( #196 ) ) ;
#116 = CIRCLE ( 'NONE', #132, 0.7500000000000000000 ) ;
#117 = DIRECTION ( 'NONE',  ( 0.000000000000000000, 0.000000000000000000, 1.000000000000000000 ) ) ;
#118 = CARTESIAN_POINT ( 'NONE',  ( -3.237625584068136497, -2.620444608749850054E-10, 0.000000000000000000 ) ) ;
#119 =( NAMED_UNIT ( * ) PLANE_ANGLE_UNIT ( ) SI_UNIT ( $, .RADIAN. ) );
#120 = PRODUCT ( 'Part15', 'Part15', '', ( #17 ) ) ;
#121 = EDGE_LOOP ( 'NONE', ( #127, #82, #109, #7 ) ) ;
#122 = STYLED_ITEM ( 'NONE', ( #31 ), #49 ) ;
#123 = EDGE_CURVE ( 'NONE', #160, #161, #19, .T. ) ;
#124 = ORIENTED_EDGE ( 'NONE', *, *, #153, .F. ) ;
#125 = APPLICATION_CONTEXT ( 'automotive_design' ) ;
#126 =( GEOMETRIC_REPRESENTATION_CONTEXT ( 3 ) GLOBAL_UNCERTAINTY_ASSIGNED_CONTEXT ( ( #87 ) ) GLOBAL_UNIT_ASSIGNED_CONTEXT ( ( #35, #119, #3 ) ) REPRESENTATION_CONTEXT ( 'NONE', 'WORKASPACE' ) );
#127 = ORIENTED_EDGE ( 'NONE', *, *, #57, .F. ) ;
#128 = DIRECTION ( 'NONE',  ( 1.000000000000000000, 0.000000000000000000, 0.000000000000000000 ) ) ;
#129 = EDGE_LOOP ( 'NONE', ( #50, #65 ) ) ;
#130 = CARTESIAN_POINT ( 'NONE',  ( -3.987625584068136497, -2.620445527234949168E-10, 0.2999999999999999889 ) ) ;
#131 = CARTESIAN_POINT ( 'NONE',  ( -4.737625584068136497, -2.620445527234949168E-10, 0.2999999999999999889 ) ) ;
#132 = AXIS2_PLACEMENT_3D ( 'NONE', #66, #167, #113 ) ;
#133 = DIRECTION ( 'NONE',  ( 0.000000000000000000, 0.000000000000000000, 1.000000000000000000 ) ) ;
#134 = CARTESIAN_POINT ( 'NONE',  ( 0.000000000000000000, 0.000000000000000000, 0.000000000000000000 ) ) ;
#135 = AXIS2_PLACEMENT_3D ( 'NONE', #20, #137, #138 ) ;
#136 = EDGE_CURVE ( 'NONE', #8, #161, #110, .T. ) ;
#137 = DIRECTION ( 'NONE',  ( 0.000000000000000000, 0.000000000000000000, 1.000000000000000000 ) ) ;
#138 = DIRECTION ( 'NONE',  ( 1.000000000000000000, 0.000000000000000000, 0.000000000000000000 ) ) ;
#139 = VERTEX_POINT ( 'NONE', #86 ) ;
#140 = ORIENTED_EDGE ( 'NONE', *, *, #123, .F. ) ;
#141 = EDGE_CURVE ( 'NONE', #144, #54, #48, .T. ) ;
#142 = PRESENTATION_LAYER_ASSIGNMENT (  '', '', ( #122 ) ) ;
#143 = ORIENTED_EDGE ( 'NONE', *, *, #34, .F. ) ;
#144 = VERTEX_POINT ( 'NONE', #101 ) ;
#145 = EDGE_CURVE ( 'NONE', #96, #8, #71, .T. ) ;
#146 = DIRECTION ( 'NONE',  ( 1.000000000000000000, 0.000000000000000000, -0.000000000000000000 ) ) ;
#147 = CARTESIAN_POINT ( 'NONE',  ( -3.987625584068136497, -2.620445527234949168E-10, 0.2999999999999999889 ) ) ;
#148 = DIRECTION ( 'NONE',  ( -0.000000000000000000, -0.000000000000000000, -1.000000000000000000 ) ) ;
#149 = DIRECTION ( 'NONE',  ( -0.000000000000000000, -0.000000000000000000, -1.000000000000000000 ) ) ;
#150 =( LENGTH_UNIT ( ) NAMED_UNIT ( * ) SI_UNIT ( .CENTI., .METRE. ) );
#151 = PRODUCT_RELATED_PRODUCT_CATEGORY ( 'part', '', ( #120 ) ) ;
#152 = PLANE ( 'NONE',  #163 ) ;
#153 = EDGE_CURVE ( 'NONE', #139, #28, #95, .T. ) ;
#154 = AXIS2_PLACEMENT_3D ( 'NONE', #185, #47, #199 ) ;
#155 = APPLICATION_PROTOCOL_DEFINITION ( 'draft international standard', 'automotive_design', 1998, #58 ) ;
#156 = DIRECTION ( 'NONE',  ( 0.000000000000000000, 0.000000000000000000, 1.000000000000000000 ) ) ;
#157 = CARTESIAN_POINT ( 'NONE',  ( -3.987625584068136497, -2.620445527234949168E-10, 0.2999999999999999889 ) ) ;
#158 = PRODUCT_DEFINITION ( 'UNKNOWN', '', #198, #21 ) ;
#159 = LINE ( 'NONE', #77, #16 ) ;
#160 = VERTEX_POINT ( 'NONE', #168 ) ;
#161 = VERTEX_POINT ( 'NONE', #118 ) ;
#162 = DIRECTION ( 'NONE',  ( -0.000000000000000000, -0.000000000000000000, -1.000000000000000000 ) ) ;
#163 = AXIS2_PLACEMENT_3D ( 'NONE', #195, #41, #98 ) ;
#164 = EDGE_CURVE ( 'NONE', #161, #160, #22, .T. ) ;
#165 = FACE_BOUND ( 'NONE', #129, .T. ) ;
#166 = CARTESIAN_POINT ( 'NONE',  ( -3.987625584068136497, -2.620445527234949168E-10, 0.2999999999999999889 ) ) ;
#167 = DIRECTION ( 'NONE',  ( 0.000000000000000000, 0.000000000000000000, 1.000000000000000000 ) ) ;
#168 = CARTESIAN_POINT ( 'NONE',  ( -4.737625584068136497, -2.620445527234949168E-10, 0.000000000000000000 ) ) ;
#169 = DIRECTION ( 'NONE',  ( 1.000000000000000000, 0.000000000000000000, 0.000000000000000000 ) ) ;
#170 = VECTOR ( 'NONE', #27, 100.0000000000000000 ) ;
#171 = SHAPE_DEFINITION_REPRESENTATION ( #107, #5 ) ;
#172 = DIRECTION ( 'NONE',  ( 1.000000000000000000, 0.000000000000000000, 0.000000000000000000 ) ) ;
#173 = ORIENTED_EDGE ( 'NONE', *, *, #123, .T. ) ;
#174 = EDGE_LOOP ( 'NONE', ( #140, #51 ) ) ;
#175 = ORIENTED_EDGE ( 'NONE', *, *, #24, .T. ) ;
#176 = ORIENTED_EDGE ( 'NONE', *, *, #153, .T. ) ;
#177 = CARTESIAN_POINT ( 'NONE',  ( -3.237625584068136497, -2.620444608749850054E-10, 0.2999999999999999889 ) ) ;
#178 = EDGE_LOOP ( 'NONE', ( #12, #108, #124, #143 ) ) ;
#179 = FACE_BOUND ( 'NONE', #194, .T. ) ;
#180 = CIRCLE ( 'NONE', #135, 0.1750000000000001554 ) ;
#181 = CARTESIAN_POINT ( 'NONE',  ( -3.987625584068136497, -2.620445527234949168E-10, 0.2999999999999999889 ) ) ;
#182 = DIRECTION ( 'NONE',  ( -0.000000000000000000, -0.000000000000000000, -1.000000000000000000 ) ) ;
#183 = EDGE_CURVE ( 'NONE', #28, #139, #189, .T. ) ;
#184 = CARTESIAN_POINT ( 'NONE',  ( -3.987625584068136497, -2.620445527234949168E-10, 0.000000000000000000 ) ) ;
#185 = CARTESIAN_POINT ( 'NONE',  ( -3.987625584068136497, -2.620445527234949168E-10, 0.000000000000000000 ) ) ;
#186 = EDGE_CURVE ( 'NONE', #54, #144, #180, .T. ) ;
#187 = DIRECTION ( 'NONE',  ( 0.000000000000000000, 0.000000000000000000, 1.000000000000000000 ) ) ;
#188 = CLOSED_SHELL ( 'NONE', ( #36, #81, #111, #97, #105, #62 ) ) ;
#189 = CIRCLE ( 'NONE', #6, 0.1750000000000001554 ) ;
#190 = AXIS2_PLACEMENT_3D ( 'NONE', #130, #193, #33 ) ;
#191 = CARTESIAN_POINT ( 'NONE',  ( -4.737625584068136497, -2.620445527234949168E-10, 0.2999999999999999889 ) ) ;
#192 = AXIS2_PLACEMENT_3D ( 'NONE', #147, #69, #56 ) ;
#193 = DIRECTION ( 'NONE',  ( -0.000000000000000000, -0.000000000000000000, -1.000000000000000000 ) ) ;
#194 = EDGE_LOOP ( 'NONE', ( #176, #10 ) ) ;
#195 = CARTESIAN_POINT ( 'NONE',  ( -3.987625584068136497, -2.620445527234949168E-10, 0.000000000000000000 ) ) ;
#196 = FILL_AREA_STYLE_COLOUR ( '', #61 ) ;
#197 = FACE_OUTER_BOUND ( 'NONE', #38, .T. ) ;
#198 = PRODUCT_DEFINITION_FORMATION_WITH_SPECIFIED_SOURCE ( 'ANY', '', #120, .NOT_KNOWN. ) ;
#199 = DIRECTION ( 'NONE',  ( 1.000000000000000000, 0.000000000000000000, 0.000000000000000000 ) ) ;
ENDSEC;
END-ISO-10303-21;
