ISO-10303-21;
HEADER;
FILE_DESCRIPTION (( 'STEP AP214' ),
    '1' );
FILE_NAME ('Part13.STEP',
    '2026-08-11T02:04:14',
    ( '' ),
    ( '' ),
    'SwSTEP 2.0',
    'SolidWorks 2026',
    '' );
FILE_SCHEMA (( 'AUTOMOTIVE_DESIGN' ));
ENDSEC;

DATA;
#1 = CARTESIAN_POINT ( 'NONE',  ( 20.48739190050011416, -17.34701342078188091, 21.23734038330156793 ) ) ;
#2 = CARTESIAN_POINT ( 'NONE',  ( 0.1260228755546124457, -8.854405215685897446, -0.3335965322199484495 ) ) ;
#3 = FACE_BOUND ( 'NONE', #260, .T. ) ;
#4 = EDGE_CURVE ( 'NONE', #183, #51, #197, .T. ) ;
#5 = DIRECTION ( 'NONE',  ( -0.01171988057057824287, -0.9998626349648350731, -0.01171988057057874247 ) ) ;
#6 = STYLED_ITEM ( 'NONE', ( #155 ), #269 ) ;
#7 = EDGE_CURVE ( 'NONE', #51, #8, #243, .T. ) ;
#8 = VERTEX_POINT ( 'NONE', #290 ) ;
#9 =( NAMED_UNIT ( * ) PLANE_ANGLE_UNIT ( ) SI_UNIT ( $, .RADIAN. ) );
#10 = DIRECTION ( 'NONE',  ( 0.01171988057057687938, 0.9998626349648348510, 0.01171988057057879278 ) ) ;
#11 = ORIENTED_EDGE ( 'NONE', *, *, #91, .F. ) ;
#12 = ORIENTED_EDGE ( 'NONE', *, *, #46, .F. ) ;
#13 =( NAMED_UNIT ( * ) SI_UNIT ( $, .STERADIAN. ) SOLID_ANGLE_UNIT ( ) );
#14 = ORIENTED_EDGE ( 'NONE', *, *, #273, .F. ) ;
#15 = AXIS2_PLACEMENT_3D ( 'NONE', #123, #33, #217 ) ;
#16 = DIRECTION ( 'NONE',  ( -0.7071067811865561215, 0.000000000000000000, 0.7071067811865389130 ) ) ;
#17 = DIRECTION ( 'NONE',  ( -0.7071067811865432429, -9.887923813067800438E-17, 0.7071067811865517916 ) ) ;
#18 = VECTOR ( 'NONE', #201, 100.0000000000000000 ) ;
#19 = PRODUCT_DEFINITION_FORMATION_WITH_SPECIFIED_SOURCE ( 'ANY', '', #60, .NOT_KNOWN. ) ;
#20 = DIRECTION ( 'NONE',  ( 0.01171988057057824287, 0.9998626349648350731, 0.01171988057057874247 ) ) ;
#21 = DIRECTION ( 'NONE',  ( 0.01171988057057687938, 0.9998626349648348510, 0.01171988057057879278 ) ) ;
#22 = ADVANCED_FACE ( 'NONE', ( #157 ), #156, .F. ) ;
#23 = DIRECTION ( 'NONE',  ( 0.000000000000000000, 0.01172068554912193694, -0.9999313104059992519 ) ) ;
#24 = DIRECTION ( 'NONE',  ( -0.7070096494386800545, 0.01657441405230500667, -0.7070096494386887143 ) ) ;
#25 = VERTEX_POINT ( 'NONE', #163 ) ;
#26 = EDGE_CURVE ( 'NONE', #25, #82, #106, .T. ) ;
#27 = DIRECTION ( 'NONE',  ( 0.7070096494386858277, -0.01657441405230500667, 0.7070096494386830521 ) ) ;
#28 = ORIENTED_EDGE ( 'NONE', *, *, #130, .F. ) ;
#29 = PRODUCT_CONTEXT ( 'NONE', #111, 'mechanical' ) ;
#30 = CARTESIAN_POINT ( 'NONE',  ( 20.35137280899577661, -9.333935142334343738, 20.35137280899553147 ) ) ;
#31 = PRESENTATION_LAYER_ASSIGNMENT (  '', '', ( #6 ) ) ;
#32 = ORIENTED_EDGE ( 'NONE', *, *, #240, .F. ) ;
#33 = DIRECTION ( 'NONE',  ( 0.7071067811865461294, 3.889575293791748143E-16, -0.7071067811865490160 ) ) ;
#34 = ORIENTED_EDGE ( 'NONE', *, *, #26, .F. ) ;
#35 = AXIS2_PLACEMENT_3D ( 'NONE', #185, #112, #164 ) ;
#36 = CARTESIAN_POINT ( 'NONE',  ( -0.3453164127873898925, -9.854267850650732186, 0.1143029949808950230 ) ) ;
#37 = VECTOR ( 'NONE', #162, 99.99999999999998579 ) ;
#38 = VERTEX_POINT ( 'NONE', #207 ) ;
#39 = LINE ( 'NONE', #36, #83 ) ;
#40 = ORIENTED_EDGE ( 'NONE', *, *, #7, .T. ) ;
#41 = CIRCLE ( 'NONE', #248, 0.7500000000000001110 ) ;
#42 = FACE_BOUND ( 'NONE', #285, .T. ) ;
#43 = CARTESIAN_POINT ( 'NONE',  ( 20.10984322454097395, -10.33379777729917848, 20.56946263230917538 ) ) ;
#44 = DIRECTION ( 'NONE',  ( 0.01171988057057835389, 0.9998626349648350731, 0.01171988057057879278 ) ) ;
#45 = VERTEX_POINT ( 'NONE', #293 ) ;
#46 = EDGE_CURVE ( 'NONE', #116, #97, #271, .T. ) ;
#47 = VECTOR ( 'NONE', #187, 100.0000000000000000 ) ;
#48 = CARTESIAN_POINT ( 'NONE',  ( 20.58111937724669716, -9.344708511468342138, 21.04073878501489858 ) ) ;
#49 = ORIENTED_EDGE ( 'NONE', *, *, #59, .F. ) ;
#50 = DIRECTION ( 'NONE',  ( -0.01171988057057824287, -0.9998626349648350731, -0.01171988057057874247 ) ) ;
#51 = VERTEX_POINT ( 'NONE', #137 ) ;
#52 = PLANE ( 'NONE',  #15 ) ;
#53 = ORIENTED_EDGE ( 'NONE', *, *, #26, .T. ) ;
#54 = EDGE_CURVE ( 'NONE', #82, #51, #39, .T. ) ;
#55 = ORIENTED_EDGE ( 'NONE', *, *, #141, .F. ) ;
#56 = FACE_OUTER_BOUND ( 'NONE', #160, .T. ) ;
#57 = APPLICATION_PROTOCOL_DEFINITION ( 'draft international standard', 'automotive_design', 1998, #111 ) ;
#58 = ORIENTED_EDGE ( 'NONE', *, *, #181, .F. ) ;
#59 = EDGE_CURVE ( 'NONE', #45, #82, #86, .T. ) ;
#60 = PRODUCT ( 'Part13', 'Part13', '', ( #29 ) ) ;
#61 = VECTOR ( 'NONE', #227, 100.0000000000000000 ) ;
#62 = DIRECTION ( 'NONE',  ( -0.01171988057057824287, -0.9998626349648348510, -0.01171988057057874594 ) ) ;
#63 = ORIENTED_EDGE ( 'NONE', *, *, #224, .T. ) ;
#64 = LINE ( 'NONE', #244, #95 ) ;
#65 = ADVANCED_FACE ( 'NONE', ( #229 ), #108, .T. ) ;
#66 = SPHERICAL_SURFACE ( 'NONE', #253, 0.7500000000000001110 ) ;
#67 = CLOSED_SHELL ( 'NONE', ( #230, #286, #65, #71, #232, #22, #136, #204, #209, #114 ) ) ;
#68 = PRODUCT_DEFINITION ( 'UNKNOWN', '', #19, #272 ) ;
#69 = DIRECTION ( 'NONE',  ( 0.000000000000000000, 0.01172068554912295696, -0.9999313104059992519 ) ) ;
#70 = DIRECTION ( 'NONE',  ( -0.01171988057057824287, -0.9998626349648348510, -0.01171988057057874594 ) ) ;
#71 = ADVANCED_FACE ( 'NONE', ( #56 ), #129, .F. ) ;
#72 = ORIENTED_EDGE ( 'NONE', *, *, #273, .T. ) ;
#73 = VERTEX_POINT ( 'NONE', #279 ) ;
#74 = CARTESIAN_POINT ( 'NONE',  ( 20.81092908113054207, -9.344708511468342138, 20.81092908113104301 ) ) ;
#75 = DIRECTION ( 'NONE',  ( 0.01171988057057824287, 0.9998626349648350731, 0.01171988057057874247 ) ) ;
#76 = SURFACE_SIDE_STYLE ('',( #175 ) ) ;
#77 =( NAMED_UNIT ( * ) PLANE_ANGLE_UNIT ( ) SI_UNIT ( $, .RADIAN. ) );
#78 = VECTOR ( 'NONE', #147, 100.0000000000000142 ) ;
#79 = CARTESIAN_POINT ( 'NONE',  ( 20.79920920055996092, -10.34457114643317688, 20.79920920056046540 ) ) ;
#80 = FACE_OUTER_BOUND ( 'NONE', #250, .T. ) ;
#81 = CARTESIAN_POINT ( 'NONE',  ( 20.81092908113054207, -9.344708511468342138, 20.81092908113104301 ) ) ;
#82 = VERTEX_POINT ( 'NONE', #43 ) ;
#83 = VECTOR ( 'NONE', #135, 100.0000000000000000 ) ;
#84 = ADVANCED_BREP_SHAPE_REPRESENTATION ( 'Part13', ( #269, #191 ), #109 ) ;
#85 = ORIENTED_EDGE ( 'NONE', *, *, #4, .T. ) ;
#86 = LINE ( 'NONE', #102, #292 ) ;
#87 = DIRECTION ( 'NONE',  ( -0.01171988057057847532, -0.9998626349648349620, -0.01171988057057847359 ) ) ;
#88 = UNCERTAINTY_MEASURE_WITH_UNIT (LENGTH_MEASURE( 1.000000000000000082E-05 ), #218, 'distance_accuracy_value', 'NONE');
#89 = PLANE ( 'NONE',  #294 ) ;
#90 = AXIS2_PLACEMENT_3D ( 'NONE', #192, #75, #121 ) ;
#91 = EDGE_CURVE ( 'NONE', #73, #262, #281, .T. ) ;
#92 = CARTESIAN_POINT ( 'NONE',  ( -0.3335965322168116809, -8.854405215685897446, 0.1260228755514737620 ) ) ;
#93 = CARTESIAN_POINT ( 'NONE',  ( 20.49338366305340386, -16.82704538577969799, 20.49338366305035564 ) ) ;
#94 = DIRECTION ( 'NONE',  ( -0.01171988057057847532, -0.9998626349648349620, -0.01171988057057847359 ) ) ;
#95 = VECTOR ( 'NONE', #118, 100.0000000000000142 ) ;
#96 = DIRECTION ( 'NONE',  ( 0.000000000000000000, 0.01172068554912141826, -0.9999313104059991408 ) ) ;
#97 = VERTEX_POINT ( 'NONE', #189 ) ;
#98 = SPHERICAL_SURFACE ( 'NONE', #120, 0.7500000000000001110 ) ;
#99 = CARTESIAN_POINT ( 'NONE',  ( 0.1260228755546124457, -8.854405215685897446, -0.3335965322199484495 ) ) ;
#100 = ORIENTED_EDGE ( 'NONE', *, *, #146, .F. ) ;
#101 = LINE ( 'NONE', #30, #18 ) ;
#102 = CARTESIAN_POINT ( 'NONE',  ( 20.12156310511155510, -9.333935142334343738, 20.58118251287975653 ) ) ;
#103 = AXIS2_PLACEMENT_3D ( 'NONE', #255, #168, #23 ) ;
#104 =( GEOMETRIC_REPRESENTATION_CONTEXT ( 3 ) GLOBAL_UNCERTAINTY_ASSIGNED_CONTEXT ( ( #226 ) ) GLOBAL_UNIT_ASSIGNED_CONTEXT ( ( #152, #9, #196 ) ) REPRESENTATION_CONTEXT ( 'NONE', 'WORKASPACE' ) );
#105 = PRODUCT_RELATED_PRODUCT_CATEGORY ( 'part', '', ( #60 ) ) ;
#106 = LINE ( 'NONE', #205, #131 ) ;
#107 = ORIENTED_EDGE ( 'NONE', *, *, #153, .F. ) ;
#108 = CONICAL_SURFACE ( 'NONE', #145, 0.6620108421965281709, 0.01745329251994333364 ) ;
#109 =( GEOMETRIC_REPRESENTATION_CONTEXT ( 3 ) GLOBAL_UNCERTAINTY_ASSIGNED_CONTEXT ( ( #88 ) ) GLOBAL_UNIT_ASSIGNED_CONTEXT ( ( #218, #77, #13 ) ) REPRESENTATION_CONTEXT ( 'NONE', 'WORKASPACE' ) );
#110 = FACE_OUTER_BOUND ( 'NONE', #180, .T. ) ;
#111 = APPLICATION_CONTEXT ( 'automotive_design' ) ;
#112 = DIRECTION ( 'NONE',  ( -0.01171988057057847532, -0.9998626349648349620, -0.01171988057057847532 ) ) ;
#113 = CARTESIAN_POINT ( 'NONE',  ( -0.1037868283326696672, -8.854405215685897446, -0.1037868283326691676 ) ) ;
#114 = ADVANCED_FACE ( 'NONE', ( #235 ), #66, .T. ) ;
#115 = LINE ( 'NONE', #92, #284 ) ;
#116 = VERTEX_POINT ( 'NONE', #283 ) ;
#117 = FACE_OUTER_BOUND ( 'NONE', #249, .T. ) ;
#118 = DIRECTION ( 'NONE',  ( -0.01171988057057824287, -0.9998626349648348510, -0.01171988057057874594 ) ) ;
#119 = ORIENTED_EDGE ( 'NONE', *, *, #240, .T. ) ;
#120 = AXIS2_PLACEMENT_3D ( 'NONE', #194, #10, #173 ) ;
#121 = DIRECTION ( 'NONE',  ( 0.000000000000000000, 0.01172068554912193694, -0.9999313104059992519 ) ) ;
#122 = ORIENTED_EDGE ( 'NONE', *, *, #91, .T. ) ;
#123 = CARTESIAN_POINT ( 'NONE',  ( -0.3335965322168116809, -8.854405215685897446, 0.1260228755514737620 ) ) ;
#124 = ORIENTED_EDGE ( 'NONE', *, *, #176, .F. ) ;
#125 = FILL_AREA_STYLE ('',( #214 ) ) ;
#126 = VERTEX_POINT ( 'NONE', #1 ) ;
#127 = CARTESIAN_POINT ( 'NONE',  ( 0.000000000000000000, 0.000000000000000000, 0.000000000000000000 ) ) ;
#128 = CIRCLE ( 'NONE', #203, 0.5487492503418236467 ) ;
#129 = PLANE ( 'NONE',  #268 ) ;
#130 = EDGE_CURVE ( 'NONE', #126, #219, #41, .T. ) ;
#131 = VECTOR ( 'NONE', #17, 100.0000000000000000 ) ;
#132 = ORIENTED_EDGE ( 'NONE', *, *, #54, .T. ) ;
#133 = EDGE_CURVE ( 'NONE', #116, #73, #128, .T. ) ;
#134 = SHAPE_DEFINITION_REPRESENTATION ( #174, #84 ) ;
#135 = DIRECTION ( 'NONE',  ( 0.7070096494386858277, -0.01657441405230500667, 0.7070096494386830521 ) ) ;
#136 = ADVANCED_FACE ( 'NONE', ( #139 ), #170, .F. ) ;
#137 = CARTESIAN_POINT ( 'NONE',  ( 20.56939949667611600, -10.34457114643317688, 21.02901890444431743 ) ) ;
#138 = COLOUR_RGB ( '',0.7921568627450980005, 0.8196078431372548767, 0.9333333333333333481 ) ;
#139 = FACE_OUTER_BOUND ( 'NONE', #144, .T. ) ;
#140 = CARTESIAN_POINT ( 'NONE',  ( 20.48739190050011416, -17.33822290662003951, 20.48739190049706949 ) ) ;
#141 = EDGE_CURVE ( 'NONE', #183, #38, #208, .T. ) ;
#142 = FACE_OUTER_BOUND ( 'NONE', #200, .T. ) ;
#143 = APPLICATION_CONTEXT ( 'automotive_design' ) ;
#144 = EDGE_LOOP ( 'NONE', ( #258, #107, #32, #264 ) ) ;
#145 = AXIS2_PLACEMENT_3D ( 'NONE', #184, #20, #245 ) ;
#146 = EDGE_CURVE ( 'NONE', #8, #25, #257, .T. ) ;
#147 = DIRECTION ( 'NONE',  ( 0.01171809557600082645, 0.9999149052105132940, -0.005733112062569704036 ) ) ;
#148 = PLANE ( 'NONE',  #288 ) ;
#149 = ORIENTED_EDGE ( 'NONE', *, *, #54, .F. ) ;
#150 = ORIENTED_EDGE ( 'NONE', *, *, #176, .T. ) ;
#151 = VECTOR ( 'NONE', #24, 100.0000000000000000 ) ;
#152 =( LENGTH_UNIT ( ) NAMED_UNIT ( * ) SI_UNIT ( .CENTI., .METRE. ) );
#153 = EDGE_CURVE ( 'NONE', #169, #25, #296, .T. ) ;
#154 = ORIENTED_EDGE ( 'NONE', *, *, #59, .T. ) ;
#155 = PRESENTATION_STYLE_ASSIGNMENT (( #287 ) ) ;
#156 = PLANE ( 'NONE',  #216 ) ;
#157 = FACE_OUTER_BOUND ( 'NONE', #215, .T. ) ;
#158 = DIRECTION ( 'NONE',  ( 1.000000000000000000, 0.000000000000000000, 0.000000000000000000 ) ) ;
#159 = CIRCLE ( 'NONE', #165, 0.7500000000000001110 ) ;
#160 = EDGE_LOOP ( 'NONE', ( #53, #49, #177, #265 ) ) ;
#161 = VECTOR ( 'NONE', #178, 100.0000000000000000 ) ;
#162 = DIRECTION ( 'NONE',  ( 0.01171809557600082645, 0.9995057968746595689, 0.02916930321457235700 ) ) ;
#163 = CARTESIAN_POINT ( 'NONE',  ( 20.56946263231222716, -10.33379777729917848, 20.10984322453791862 ) ) ;
#164 = DIRECTION ( 'NONE',  ( 0.000000000000000000, 0.01172068554912193694, -0.9999313104059992519 ) ) ;
#165 = AXIS2_PLACEMENT_3D ( 'NONE', #211, #44, #186 ) ;
#166 = CIRCLE ( 'NONE', #198, 0.5487492503418236467 ) ;
#167 = DIRECTION ( 'NONE',  ( 0.000000000000000000, 0.01172068554912141826, -0.9999313104059991408 ) ) ;
#168 = DIRECTION ( 'NONE',  ( -0.01171988057057847532, -0.9998626349648349620, -0.01171988057057847532 ) ) ;
#169 = VERTEX_POINT ( 'NONE', #277 ) ;
#170 = PLANE ( 'NONE',  #270 ) ;
#171 = EDGE_LOOP ( 'NONE', ( #12, #14, #122, #267 ) ) ;
#172 = CARTESIAN_POINT ( 'NONE',  ( 20.58118251288280476, -9.333935142334343738, 20.12156310510849622 ) ) ;
#173 = DIRECTION ( 'NONE',  ( -0.9999313198412235204, 0.01171907553673876695, 0.0001373650348394467270 ) ) ;
#174 = PRODUCT_DEFINITION_SHAPE ( 'NONE', 'NONE',  #68 ) ;
#175 = SURFACE_STYLE_FILL_AREA ( #125 ) ;
#176 = EDGE_CURVE ( 'NONE', #45, #183, #115, .T. ) ;
#177 = ORIENTED_EDGE ( 'NONE', *, *, #261, .F. ) ;
#178 = DIRECTION ( 'NONE',  ( -0.7070096494386800545, 0.01657441405230500667, -0.7070096494386887143 ) ) ;
#179 = DIRECTION ( 'NONE',  ( -0.7070096494386758357, 0.01657441405230503442, -0.7070096494386930441 ) ) ;
#180 = EDGE_LOOP ( 'NONE', ( #58, #238 ) ) ;
#181 = EDGE_CURVE ( 'NONE', #262, #97, #241, .T. ) ;
#182 = MECHANICAL_DESIGN_GEOMETRIC_PRESENTATION_REPRESENTATION (  '', ( #6 ), #104 ) ;
#183 = VERTEX_POINT ( 'NONE', #48 ) ;
#184 = CARTESIAN_POINT ( 'NONE',  ( 20.56943106449416447, -10.33918446186617857, 20.56943106449111269 ) ) ;
#185 = CARTESIAN_POINT ( 'NONE',  ( 20.56943106449416447, -10.33918446186617857, 20.56943106449111269 ) ) ;
#186 = DIRECTION ( 'NONE',  ( 0.000000000000000000, -0.01172068554912512189, 0.9999313104059991408 ) ) ;
#187 = DIRECTION ( 'NONE',  ( 0.7071067811865561215, -1.994931997373328159E-16, -0.7071067811865390240 ) ) ;
#188 = DIRECTION ( 'NONE',  ( -0.7071067811865519026, -2.534322578184866121E-16, 0.7071067811865431318 ) ) ;
#189 = CARTESIAN_POINT ( 'NONE',  ( 20.56943106449416447, -10.34694368277767396, 21.23139643343166583 ) ) ;
#190 = ORIENTED_EDGE ( 'NONE', *, *, #130, .T. ) ;
#191 = AXIS2_PLACEMENT_3D ( 'NONE', #127, #223, #158 ) ;
#192 = CARTESIAN_POINT ( 'NONE',  ( 20.56943106449416447, -10.33918446186617857, 20.56943106449111269 ) ) ;
#193 = ORIENTED_EDGE ( 'NONE', *, *, #195, .T. ) ;
#194 = CARTESIAN_POINT ( 'NONE',  ( 20.48739190050011416, -17.33822290662003951, 20.48739190049706949 ) ) ;
#195 = EDGE_CURVE ( 'NONE', #97, #262, #276, .T. ) ;
#196 =( NAMED_UNIT ( * ) SI_UNIT ( $, .STERADIAN. ) SOLID_ANGLE_UNIT ( ) );
#197 = LINE ( 'NONE', #289, #246 ) ;
#198 = AXIS2_PLACEMENT_3D ( 'NONE', #220, #5, #96 ) ;
#199 = CARTESIAN_POINT ( 'NONE',  ( 20.56943106449416447, -10.33142524095468318, 19.90746569555055956 ) ) ;
#200 = EDGE_LOOP ( 'NONE', ( #28, #63 ) ) ;
#201 = DIRECTION ( 'NONE',  ( -0.7071067811865432429, -9.887923813067800438E-17, 0.7071067811865517916 ) ) ;
#202 = CARTESIAN_POINT ( 'NONE',  ( 20.35137280899577661, -9.333935142334343738, 20.35137280899553147 ) ) ;
#203 = AXIS2_PLACEMENT_3D ( 'NONE', #93, #50, #167 ) ;
#204 = ADVANCED_FACE ( 'NONE', ( #117 ), #148, .F. ) ;
#205 = CARTESIAN_POINT ( 'NONE',  ( 20.33965292842519901, -10.33379777729917848, 20.33965292842495387 ) ) ;
#206 = APPLICATION_PROTOCOL_DEFINITION ( 'draft international standard', 'automotive_design', 1998, #143 ) ;
#207 = CARTESIAN_POINT ( 'NONE',  ( 21.04073878501794681, -9.344708511468342138, 20.58111937724364182 ) ) ;
#208 = LINE ( 'NONE', #74, #47 ) ;
#209 = ADVANCED_FACE ( 'NONE', ( #3, #110 ), #89, .F. ) ;
#210 = CARTESIAN_POINT ( 'NONE',  ( -0.1155067089032479205, -9.854267850650732186, -0.1155067089032479205 ) ) ;
#211 = CARTESIAN_POINT ( 'NONE',  ( 20.48739190050011416, -17.33822290662003951, 20.48739190049706949 ) ) ;
#212 = DIRECTION ( 'NONE',  ( -0.01171988057057847706, -0.9998626349648350731, -0.01171988057057879278 ) ) ;
#213 = DIRECTION ( 'NONE',  ( 0.000000000000000000, 0.01172068554912295696, -0.9999313104059992519 ) ) ;
#214 = FILL_AREA_STYLE_COLOUR ( '', #138 ) ;
#215 = EDGE_LOOP ( 'NONE', ( #40, #295, #55, #85 ) ) ;
#216 = AXIS2_PLACEMENT_3D ( 'NONE', #81, #179, #16 ) ;
#217 = DIRECTION ( 'NONE',  ( -0.7071067811865490160, 0.000000000000000000, -0.7071067811865461294 ) ) ;
#218 =( LENGTH_UNIT ( ) NAMED_UNIT ( * ) SI_UNIT ( .CENTI., .METRE. ) );
#219 = VERTEX_POINT ( 'NONE', #252 ) ;
#220 = CARTESIAN_POINT ( 'NONE',  ( 20.49338366305340386, -16.82704538577969799, 20.49338366305035564 ) ) ;
#221 = EDGE_LOOP ( 'NONE', ( #132, #280, #124, #154 ) ) ;
#222 = VECTOR ( 'NONE', #70, 100.0000000000000142 ) ;
#223 = DIRECTION ( 'NONE',  ( 0.000000000000000000, 0.000000000000000000, 1.000000000000000000 ) ) ;
#224 = EDGE_CURVE ( 'NONE', #126, #219, #159, .T. ) ;
#225 = DIRECTION ( 'NONE',  ( -0.01171988057057824287, -0.9998626349648348510, -0.01171988057057874594 ) ) ;
#226 = UNCERTAINTY_MEASURE_WITH_UNIT (LENGTH_MEASURE( 1.000000000000000082E-05 ), #152, 'distance_accuracy_value', 'NONE');
#227 = DIRECTION ( 'NONE',  ( 0.7071067811865561215, -1.994931997373328159E-16, -0.7071067811865390240 ) ) ;
#228 = ORIENTED_EDGE ( 'NONE', *, *, #133, .T. ) ;
#229 = FACE_OUTER_BOUND ( 'NONE', #171, .T. ) ;
#230 = ADVANCED_FACE ( 'NONE', ( #42, #142 ), #98, .T. ) ;
#231 = DIRECTION ( 'NONE',  ( 0.000000000000000000, 0.01172068554912512189, -0.9999313104059991408 ) ) ;
#232 = ADVANCED_FACE ( 'NONE', ( #263 ), #52, .F. ) ;
#233 = DIRECTION ( 'NONE',  ( -0.9999313198412235204, 0.01171907553673876695, 0.0001373650348394467270 ) ) ;
#234 = ORIENTED_EDGE ( 'NONE', *, *, #141, .T. ) ;
#235 = FACE_OUTER_BOUND ( 'NONE', #274, .T. ) ;
#236 = ORIENTED_EDGE ( 'NONE', *, *, #224, .F. ) ;
#237 = DIRECTION ( 'NONE',  ( 0.7071067811865431318, 0.000000000000000000, 0.7071067811865519026 ) ) ;
#238 = ORIENTED_EDGE ( 'NONE', *, *, #195, .F. ) ;
#239 = LINE ( 'NONE', #99, #161 ) ;
#240 = EDGE_CURVE ( 'NONE', #38, #169, #239, .T. ) ;
#241 = CIRCLE ( 'NONE', #103, 0.6620108421965281709 ) ;
#242 = ORIENTED_EDGE ( 'NONE', *, *, #7, .F. ) ;
#243 = LINE ( 'NONE', #79, #61 ) ;
#244 = CARTESIAN_POINT ( 'NONE',  ( 21.04073878501794681, -9.344708511468342138, 20.58111937724364182 ) ) ;
#245 = DIRECTION ( 'NONE',  ( 0.000000000000000000, 0.01172068554912193694, -0.9999313104059992519 ) ) ;
#246 = VECTOR ( 'NONE', #62, 100.0000000000000142 ) ;
#247 = EDGE_CURVE ( 'NONE', #38, #8, #64, .T. ) ;
#248 = AXIS2_PLACEMENT_3D ( 'NONE', #140, #212, #231 ) ;
#249 = EDGE_LOOP ( 'NONE', ( #256, #150, #234, #119 ) ) ;
#250 = EDGE_LOOP ( 'NONE', ( #282, #251, #193, #11 ) ) ;
#251 = ORIENTED_EDGE ( 'NONE', *, *, #46, .T. ) ;
#252 = CARTESIAN_POINT ( 'NONE',  ( 20.48739190050011416, -17.32943239245819456, 19.73744341769256749 ) ) ;
#253 = AXIS2_PLACEMENT_3D ( 'NONE', #297, #21, #233 ) ;
#254 = CARTESIAN_POINT ( 'NONE',  ( 0.1143029949840341786, -9.854267850650732186, -0.3453164127905272163 ) ) ;
#255 = CARTESIAN_POINT ( 'NONE',  ( 20.56943106449416447, -10.33918446186617857, 20.56943106449111269 ) ) ;
#256 = ORIENTED_EDGE ( 'NONE', *, *, #261, .T. ) ;
#257 = LINE ( 'NONE', #254, #151 ) ;
#258 = ORIENTED_EDGE ( 'NONE', *, *, #146, .T. ) ;
#259 = CARTESIAN_POINT ( 'NONE',  ( 20.56943106449416447, -10.33142524095468318, 19.90746569555055956 ) ) ;
#260 = EDGE_LOOP ( 'NONE', ( #34, #100, #242, #149 ) ) ;
#261 = EDGE_CURVE ( 'NONE', #169, #45, #101, .T. ) ;
#262 = VERTEX_POINT ( 'NONE', #199 ) ;
#263 = FACE_OUTER_BOUND ( 'NONE', #221, .T. ) ;
#264 = ORIENTED_EDGE ( 'NONE', *, *, #247, .T. ) ;
#265 = ORIENTED_EDGE ( 'NONE', *, *, #153, .T. ) ;
#266 = CARTESIAN_POINT ( 'NONE',  ( 20.56943106449416447, -10.34694368277767396, 21.23139643343166583 ) ) ;
#267 = ORIENTED_EDGE ( 'NONE', *, *, #181, .T. ) ;
#268 = AXIS2_PLACEMENT_3D ( 'NONE', #202, #291, #275 ) ;
#269 = MANIFOLD_SOLID_BREP ( 'Revolve1', #67 ) ;
#270 = AXIS2_PLACEMENT_3D ( 'NONE', #2, #188, #237 ) ;
#271 = LINE ( 'NONE', #266, #37 ) ;
#272 = PRODUCT_DEFINITION_CONTEXT ( 'detailed design', #143, 'design' ) ;
#273 = EDGE_CURVE ( 'NONE', #73, #116, #166, .T. ) ;
#274 = EDGE_LOOP ( 'NONE', ( #236, #190 ) ) ;
#275 = DIRECTION ( 'NONE',  ( 0.7071067811865432429, 0.000000000000000000, -0.7071067811865517916 ) ) ;
#276 = CIRCLE ( 'NONE', #35, 0.6620108421965281709 ) ;
#277 = CARTESIAN_POINT ( 'NONE',  ( 20.58118251288280476, -9.333935142334343738, 20.12156310510849622 ) ) ;
#278 = CONICAL_SURFACE ( 'NONE', #90, 0.6620108421965281709, 0.01745329251994333364 ) ;
#279 = CARTESIAN_POINT ( 'NONE',  ( 20.49338366305340386, -16.82061366837112715, 19.94467210607173513 ) ) ;
#280 = ORIENTED_EDGE ( 'NONE', *, *, #4, .F. ) ;
#281 = LINE ( 'NONE', #259, #78 ) ;
#282 = ORIENTED_EDGE ( 'NONE', *, *, #133, .F. ) ;
#283 = CARTESIAN_POINT ( 'NONE',  ( 20.49338366305340386, -16.83347710318827239, 21.04209522002895483 ) ) ;
#284 = VECTOR ( 'NONE', #27, 100.0000000000000000 ) ;
#285 = EDGE_LOOP ( 'NONE', ( #72, #228 ) ) ;
#286 = ADVANCED_FACE ( 'NONE', ( #80 ), #278, .T. ) ;
#287 = SURFACE_STYLE_USAGE ( .BOTH. , #76 ) ;
#288 = AXIS2_PLACEMENT_3D ( 'NONE', #113, #87, #213 ) ;
#289 = CARTESIAN_POINT ( 'NONE',  ( 20.58111937724669716, -9.344708511468342138, 21.04073878501489858 ) ) ;
#290 = CARTESIAN_POINT ( 'NONE',  ( 21.02901890444736566, -10.34457114643317688, 20.56939949667306422 ) ) ;
#291 = DIRECTION ( 'NONE',  ( 0.7070096494386887143, -0.01657441405230503442, 0.7070096494386801655 ) ) ;
#292 = VECTOR ( 'NONE', #225, 100.0000000000000142 ) ;
#293 = CARTESIAN_POINT ( 'NONE',  ( 20.12156310511155510, -9.333935142334343738, 20.58118251287975653 ) ) ;
#294 = AXIS2_PLACEMENT_3D ( 'NONE', #210, #94, #69 ) ;
#295 = ORIENTED_EDGE ( 'NONE', *, *, #247, .F. ) ;
#296 = LINE ( 'NONE', #172, #222 ) ;
#297 = CARTESIAN_POINT ( 'NONE',  ( 20.48739190050011416, -17.33822290662003951, 20.48739190049706949 ) ) ;
ENDSEC;
END-ISO-10303-21;
