ISO-10303-21;
HEADER;
FILE_DESCRIPTION (( 'STEP AP214' ),
    '1' );
FILE_NAME ('Part14.STEP',
    '2026-08-12T19:48:18',
    ( '' ),
    ( '' ),
    'SwSTEP 2.0',
    'SolidWorks 2026',
    '' );
FILE_SCHEMA (( 'AUTOMOTIVE_DESIGN' ));
ENDSEC;

DATA;
#1 = CARTESIAN_POINT ( 'NONE',  ( -2.739861455444319471, -10.71999999999999886, -1.499167407330613377 ) ) ;
#2 = CYLINDRICAL_SURFACE ( 'NONE', #759, 0.1250000000000001110 ) ;
#3 = ORIENTED_EDGE ( 'NONE', *, *, #873, .F. ) ;
#4 = CARTESIAN_POINT ( 'NONE',  ( -3.297512356776353126, -10.71999999999999886, 0.4800109057402090484 ) ) ;
#5 = EDGE_CURVE ( 'NONE', #1201, #89, #553, .T. ) ;
#6 = ORIENTED_EDGE ( 'NONE', *, *, #476, .T. ) ;
#7 = LINE ( 'NONE', #1, #397 ) ;
#8 = DIRECTION ( 'NONE',  ( 0.000000000000000000, 1.000000000000000000, 0.000000000000000000 ) ) ;
#9 = VECTOR ( 'NONE', #606, 99.99999999999998579 ) ;
#10 = ORIENTED_EDGE ( 'NONE', *, *, #114, .T. ) ;
#11 = EDGE_CURVE ( 'NONE', #991, #56, #787, .T. ) ;
#12 = DIRECTION ( 'NONE',  ( 0.000000000000000000, 0.000000000000000000, -1.000000000000000000 ) ) ;
#13 = PLANE ( 'NONE',  #342 ) ;
#14 = CARTESIAN_POINT ( 'NONE',  ( -2.499999999999999556, -11.01999999999999957, -1.937535499649829740 ) ) ;
#15 = EDGE_CURVE ( 'NONE', #826, #1064, #1107, .T. ) ;
#16 = LINE ( 'NONE', #1071, #928 ) ;
#17 = DIRECTION ( 'NONE',  ( 1.000000000000000000, 0.000000000000000000, -0.000000000000000000 ) ) ;
#18 = AXIS2_PLACEMENT_3D ( 'NONE', #823, #736, #729 ) ;
#19 = AXIS2_PLACEMENT_3D ( 'NONE', #129, #600, #489 ) ;
#20 = CARTESIAN_POINT ( 'NONE',  ( 2.499999999999999556, -11.01999999999999957, -1.937535499649829740 ) ) ;
#21 = LINE ( 'NONE', #404, #947 ) ;
#22 = EDGE_CURVE ( 'NONE', #136, #1039, #348, .T. ) ;
#23 = AXIS2_PLACEMENT_3D ( 'NONE', #1010, #622, #163 ) ;
#24 = AXIS2_PLACEMENT_3D ( 'NONE', #478, #324, #603 ) ;
#25 = DIRECTION ( 'NONE',  ( 0.000000000000000000, 0.000000000000000000, 1.000000000000000000 ) ) ;
#26 = DIRECTION ( 'NONE',  ( -1.000000000000000000, 0.000000000000000000, -1.387778780781445676E-16 ) ) ;
#27 = DIRECTION ( 'NONE',  ( 0.000000000000000000, 0.000000000000000000, 1.000000000000000000 ) ) ;
#28 = LINE ( 'NONE', #788, #1210 ) ;
#29 = EDGE_LOOP ( 'NONE', ( #909, #131, #147, #571, #835, #566, #888, #525 ) ) ;
#30 = DIRECTION ( 'NONE',  ( 0.000000000000000000, 0.000000000000000000, -1.000000000000000000 ) ) ;
#31 = VECTOR ( 'NONE', #290, 100.0000000000000000 ) ;
#32 = VECTOR ( 'NONE', #112, 100.0000000000000000 ) ;
#33 = VERTEX_POINT ( 'NONE', #433 ) ;
#34 = DIRECTION ( 'NONE',  ( -1.387778780781445429E-16, 0.000000000000000000, 1.000000000000000000 ) ) ;
#35 = AXIS2_PLACEMENT_3D ( 'NONE', #768, #958, #864 ) ;
#36 = ORIENTED_EDGE ( 'NONE', *, *, #1127, .F. ) ;
#37 = CARTESIAN_POINT ( 'NONE',  ( -3.987625584330182882, -11.01999999999999957, -0.3750000000000006106 ) ) ;
#38 = AXIS2_PLACEMENT_3D ( 'NONE', #431, #1214, #1113 ) ;
#39 = VERTEX_POINT ( 'NONE', #138 ) ;
#40 = FACE_OUTER_BOUND ( 'NONE', #1159, .T. ) ;
#41 = EDGE_CURVE ( 'NONE', #543, #698, #249, .T. ) ;
#42 = CARTESIAN_POINT ( 'NONE',  ( -3.987625584330182882, -10.01999999999999957, -0.3750000000000006106 ) ) ;
#43 = ORIENTED_EDGE ( 'NONE', *, *, #931, .T. ) ;
#44 = FACE_BOUND ( 'NONE', #844, .T. ) ;
#45 = DIRECTION ( 'NONE',  ( 0.4800109057402048296, 0.000000000000000000, 0.8772625207829571892 ) ) ;
#46 = ORIENTED_EDGE ( 'NONE', *, *, #1061, .F. ) ;
#47 = DIRECTION ( 'NONE',  ( -0.000000000000000000, 1.000000000000000000, -0.000000000000000000 ) ) ;
#48 = ORIENTED_EDGE ( 'NONE', *, *, #1085, .F. ) ;
#49 = LINE ( 'NONE', #899, #98 ) ;
#50 = CARTESIAN_POINT ( 'NONE',  ( 3.987625584330185102, -10.01999999999999957, 1.323631276804987452E-15 ) ) ;
#51 = EDGE_LOOP ( 'NONE', ( #343, #295, #1181, #78 ) ) ;
#52 = DIRECTION ( 'NONE',  ( 0.000000000000000000, 1.000000000000000000, -0.000000000000000000 ) ) ;
#53 = CARTESIAN_POINT ( 'NONE',  ( -3.469446951953614189E-16, -11.01999999999999957, 0.2500000000000007216 ) ) ;
#54 = EDGE_CURVE ( 'NONE', #634, #1012, #817, .T. ) ;
#55 = ORIENTED_EDGE ( 'NONE', *, *, #184, .F. ) ;
#56 = VERTEX_POINT ( 'NONE', #329 ) ;
#57 = ORIENTED_EDGE ( 'NONE', *, *, #937, .T. ) ;
#58 = ORIENTED_EDGE ( 'NONE', *, *, #481, .T. ) ;
#59 = FACE_OUTER_BOUND ( 'NONE', #266, .T. ) ;
#60 = AXIS2_PLACEMENT_3D ( 'NONE', #1149, #555, #567 ) ;
#61 = LINE ( 'NONE', #365, #493 ) ;
#62 = EDGE_CURVE ( 'NONE', #851, #999, #641, .T. ) ;
#63 = ORIENTED_EDGE ( 'NONE', *, *, #347, .F. ) ;
#64 = DIRECTION ( 'NONE',  ( 0.000000000000000000, -1.000000000000000000, 0.000000000000000000 ) ) ;
#65 = ORIENTED_EDGE ( 'NONE', *, *, #511, .T. ) ;
#66 = AXIS2_PLACEMENT_3D ( 'NONE', #859, #8, #298 ) ;
#67 = VECTOR ( 'NONE', #127, 100.0000000000000000 ) ;
#68 = ORIENTED_EDGE ( 'NONE', *, *, #579, .T. ) ;
#69 = CARTESIAN_POINT ( 'NONE',  ( 3.987625584330185102, -11.01999999999999957, 0.3750000000001930678 ) ) ;
#70 = AXIS2_PLACEMENT_3D ( 'NONE', #884, #215, #12 ) ;
#71 = ORIENTED_EDGE ( 'NONE', *, *, #54, .T. ) ;
#72 = ADVANCED_FACE ( 'NONE', ( #1029 ), #425, .F. ) ;
#73 = DIRECTION ( 'NONE',  ( 1.000000000000000000, -0.000000000000000000, 6.938893903907227392E-16 ) ) ;
#74 = ADVANCED_FACE ( 'NONE', ( #166 ), #148, .F. ) ;
#75 = ORIENTED_EDGE ( 'NONE', *, *, #347, .T. ) ;
#76 = DIRECTION ( 'NONE',  ( 0.000000000000000000, -1.000000000000000000, 0.000000000000000000 ) ) ;
#77 = DIRECTION ( 'NONE',  ( -0.4800109057402048296, 0.000000000000000000, 0.8772625207829571892 ) ) ;
#78 = ORIENTED_EDGE ( 'NONE', *, *, #654, .F. ) ;
#79 = CARTESIAN_POINT ( 'NONE',  ( -3.987625584330182882, -10.01999999999999957, 0.3750000000000006106 ) ) ;
#80 = EDGE_CURVE ( 'NONE', #861, #1219, #1013, .T. ) ;
#81 = DIRECTION ( 'NONE',  ( 0.000000000000000000, 0.000000000000000000, 1.000000000000000000 ) ) ;
#82 = DIRECTION ( 'NONE',  ( 0.000000000000000000, -1.000000000000000000, 0.000000000000000000 ) ) ;
#83 = ORIENTED_EDGE ( 'NONE', *, *, #1027, .F. ) ;
#84 = DIRECTION ( 'NONE',  ( -0.000000000000000000, 1.000000000000000000, -0.000000000000000000 ) ) ;
#85 = EDGE_CURVE ( 'NONE', #157, #282, #1207, .T. ) ;
#86 = VECTOR ( 'NONE', #1067, 99.99999999999998579 ) ;
#87 = FACE_OUTER_BOUND ( 'NONE', #1045, .T. ) ;
#88 = LINE ( 'NONE', #395, #746 ) ;
#89 = VERTEX_POINT ( 'NONE', #720 ) ;
#90 = ORIENTED_EDGE ( 'NONE', *, *, #95, .F. ) ;
#91 = DIRECTION ( 'NONE',  ( -1.734723475976807094E-15, 0.000000000000000000, -1.000000000000000000 ) ) ;
#92 = CIRCLE ( 'NONE', #580, 0.1250000000000001110 ) ;
#93 = DIRECTION ( 'NONE',  ( 0.000000000000000000, -1.000000000000000000, 0.000000000000000000 ) ) ;
#94 = FACE_OUTER_BOUND ( 'NONE', #948, .T. ) ;
#95 = EDGE_CURVE ( 'NONE', #1064, #760, #797, .T. ) ;
#96 = LINE ( 'NONE', #1046, #960 ) ;
#97 = ORIENTED_EDGE ( 'NONE', *, *, #487, .T. ) ;
#98 = VECTOR ( 'NONE', #140, 100.0000000000000000 ) ;
#99 = DIRECTION ( 'NONE',  ( -0.000000000000000000, 1.000000000000000000, -0.000000000000000000 ) ) ;
#100 = DIRECTION ( 'NONE',  ( 0.000000000000000000, 0.000000000000000000, -1.000000000000000000 ) ) ;
#101 = AXIS2_PLACEMENT_3D ( 'NONE', #1133, #608, #508 ) ;
#102 = ORIENTED_EDGE ( 'NONE', *, *, #987, .T. ) ;
#103 = EDGE_CURVE ( 'NONE', #199, #439, #1096, .T. ) ;
#104 = ORIENTED_EDGE ( 'NONE', *, *, #137, .T. ) ;
#105 = CIRCLE ( 'NONE', #35, 0.1250000000000001110 ) ;
#106 = DIRECTION ( 'NONE',  ( 0.000000000000000000, 0.000000000000000000, -1.000000000000000000 ) ) ;
#107 = LINE ( 'NONE', #479, #615 ) ;
#108 = LINE ( 'NONE', #772, #260 ) ;
#109 = EDGE_LOOP ( 'NONE', ( #1209, #90, #535, #1216 ) ) ;
#110 = EDGE_CURVE ( 'NONE', #283, #330, #1004, .T. ) ;
#111 = DIRECTION ( 'NONE',  ( -0.000000000000000000, 1.000000000000000000, -0.000000000000000000 ) ) ;
#112 = DIRECTION ( 'NONE',  ( -0.4800109057402048296, 0.000000000000000000, 0.8772625207829571892 ) ) ;
#113 = DIRECTION ( 'NONE',  ( 0.000000000000000000, 0.000000000000000000, 1.000000000000000000 ) ) ;
#114 = EDGE_CURVE ( 'NONE', #1118, #670, #836, .T. ) ;
#115 = DIRECTION ( 'NONE',  ( 0.000000000000000000, -1.000000000000000000, 0.000000000000000000 ) ) ;
#116 = FACE_BOUND ( 'NONE', #904, .T. ) ;
#117 = AXIS2_PLACEMENT_3D ( 'NONE', #237, #521, #908 ) ;
#118 = VECTOR ( 'NONE', #632, 100.0000000000000000 ) ;
#119 = ORIENTED_EDGE ( 'NONE', *, *, #987, .F. ) ;
#120 = CARTESIAN_POINT ( 'NONE',  ( 2.000000000000000444, -10.71999999999999886, 1.905792978499776247 ) ) ;
#121 = DIRECTION ( 'NONE',  ( 0.000000000000000000, 0.000000000000000000, 1.000000000000000000 ) ) ;
#122 = ADVANCED_FACE ( 'NONE', ( #1148, #559 ), #1138, .T. ) ;
#123 = PLANE ( 'NONE',  #623 ) ;
#124 = CIRCLE ( 'NONE', #1110, 0.2500000000000000000 ) ;
#125 = AXIS2_PLACEMENT_3D ( 'NONE', #512, #900, #245 ) ;
#126 = AXIS2_PLACEMENT_3D ( 'NONE', #371, #176, #243 ) ;
#127 = DIRECTION ( 'NONE',  ( -0.000000000000000000, 1.000000000000000000, -0.000000000000000000 ) ) ;
#128 = DIRECTION ( 'NONE',  ( -0.8772625207829571892, 0.000000000000000000, 0.4800109057402048296 ) ) ;
#129 = CARTESIAN_POINT ( 'NONE',  ( 0.000000000000000000, 0.000000000000000000, 0.000000000000000000 ) ) ;
#130 = EDGE_CURVE ( 'NONE', #634, #157, #1227, .T. ) ;
#131 = ORIENTED_EDGE ( 'NONE', *, *, #628, .F. ) ;
#132 = CARTESIAN_POINT ( 'NONE',  ( -2.739861455444319915, -11.01999999999999957, 1.499167407330612711 ) ) ;
#133 = DIRECTION ( 'NONE',  ( 0.000000000000000000, -1.000000000000000000, 0.000000000000000000 ) ) ;
#134 = ORIENTED_EDGE ( 'NONE', *, *, #285, .F. ) ;
#135 = CARTESIAN_POINT ( 'NONE',  ( -3.297512356776354014, -10.71999999999999886, -0.4800109057402086599 ) ) ;
#136 = VERTEX_POINT ( 'NONE', #949 ) ;
#137 = EDGE_CURVE ( 'NONE', #139, #382, #1053, .T. ) ;
#138 = CARTESIAN_POINT ( 'NONE',  ( 3.987625584330185102, -11.01999999999999957, 0.1750000000001926403 ) ) ;
#139 = VERTEX_POINT ( 'NONE', #197 ) ;
#140 = DIRECTION ( 'NONE',  ( -1.000000000000000000, 0.000000000000000000, 0.000000000000000000 ) ) ;
#141 = VECTOR ( 'NONE', #73, 100.0000000000000000 ) ;
#142 = AXIS2_PLACEMENT_3D ( 'NONE', #853, #767, #863 ) ;
#143 =( NAMED_UNIT ( * ) SI_UNIT ( $, .STERADIAN. ) SOLID_ANGLE_UNIT ( ) );
#144 = ORIENTED_EDGE ( 'NONE', *, *, #62, .T. ) ;
#145 = CARTESIAN_POINT ( 'NONE',  ( -2.420249835993399046, -11.01999999999999957, 1.951563910473907981E-16 ) ) ;
#146 = CARTESIAN_POINT ( 'NONE',  ( -2.739861455444319471, -10.71999999999999886, -1.499167407330613377 ) ) ;
#147 = ORIENTED_EDGE ( 'NONE', *, *, #80, .F. ) ;
#148 = PLANE ( 'NONE',  #101 ) ;
#149 = EDGE_LOOP ( 'NONE', ( #154, #1206, #605, #1137 ) ) ;
#150 = CARTESIAN_POINT ( 'NONE',  ( -3.987625584330182882, -11.01999999999999957, 0.1750000000000003497 ) ) ;
#151 = CIRCLE ( 'NONE', #778, 0.1750000000000003497 ) ;
#152 = EDGE_CURVE ( 'NONE', #635, #634, #178, .T. ) ;
#153 = DIRECTION ( 'NONE',  ( 0.000000000000000000, -1.000000000000000000, 0.000000000000000000 ) ) ;
#154 = ORIENTED_EDGE ( 'NONE', *, *, #966, .F. ) ;
#155 = LINE ( 'NONE', #530, #716 ) ;
#156 = LINE ( 'NONE', #69, #597 ) ;
#157 = VERTEX_POINT ( 'NONE', #955 ) ;
#158 = ORIENTED_EDGE ( 'NONE', *, *, #784, .T. ) ;
#159 = ORIENTED_EDGE ( 'NONE', *, *, #170, .T. ) ;
#160 = DIRECTION ( 'NONE',  ( 0.000000000000000000, 0.000000000000000000, 1.000000000000000000 ) ) ;
#161 = ORIENTED_EDGE ( 'NONE', *, *, #179, .T. ) ;
#162 = EDGE_CURVE ( 'NONE', #527, #33, #362, .T. ) ;
#163 = DIRECTION ( 'NONE',  ( 0.000000000000000000, 0.000000000000000000, 1.000000000000000000 ) ) ;
#164 = DIRECTION ( 'NONE',  ( -0.8772625207829570781, 0.000000000000000000, -0.4800109057402049406 ) ) ;
#165 = ORIENTED_EDGE ( 'NONE', *, *, #162, .T. ) ;
#166 = FACE_OUTER_BOUND ( 'NONE', #309, .T. ) ;
#167 = ORIENTED_EDGE ( 'NONE', *, *, #1119, .F. ) ;
#168 = VERTEX_POINT ( 'NONE', #79 ) ;
#169 = CARTESIAN_POINT ( 'NONE',  ( -2.000000000000000444, -10.71999999999999886, 1.780792978499776247 ) ) ;
#170 = EDGE_CURVE ( 'NONE', #1089, #527, #361, .T. ) ;
#171 = EDGE_LOOP ( 'NONE', ( #10, #48, #808, #409 ) ) ;
#172 = ORIENTED_EDGE ( 'NONE', *, *, #1218, .T. ) ;
#173 =( GEOMETRIC_REPRESENTATION_CONTEXT ( 3 ) GLOBAL_UNCERTAINTY_ASSIGNED_CONTEXT ( ( #1220 ) ) GLOBAL_UNIT_ASSIGNED_CONTEXT ( ( #691, #697, #143 ) ) REPRESENTATION_CONTEXT ( 'NONE', 'WORKASPACE' ) );
#174 = ORIENTED_EDGE ( 'NONE', *, *, #628, .T. ) ;
#175 = CARTESIAN_POINT ( 'NONE',  ( -2.500000000000000000, -11.01999999999999957, 3.500000000000000444 ) ) ;
#176 = DIRECTION ( 'NONE',  ( 0.000000000000000000, -1.000000000000000000, 0.000000000000000000 ) ) ;
#177 = ORIENTED_EDGE ( 'NONE', *, *, #214, .T. ) ;
#178 = LINE ( 'NONE', #1231, #208 ) ;
#179 = EDGE_CURVE ( 'NONE', #651, #1153, #96, .T. ) ;
#180 = CYLINDRICAL_SURFACE ( 'NONE', #60, 0.1250000000000001110 ) ;
#181 = DIRECTION ( 'NONE',  ( -1.000000000000000000, 0.000000000000000000, 0.000000000000000000 ) ) ;
#182 = VERTEX_POINT ( 'NONE', #374 ) ;
#183 = DIRECTION ( 'NONE',  ( 0.000000000000000000, -1.000000000000000000, 0.000000000000000000 ) ) ;
#184 = EDGE_CURVE ( 'NONE', #806, #509, #378, .T. ) ;
#186 = AXIS2_PLACEMENT_3D ( 'NONE', #502, #332, #810 ) ;
#185 = CARTESIAN_POINT ( 'NONE',  ( 2.000000000000000888, -10.71999999999999886, -1.780792978499774692 ) ) ;
#187 = VECTOR ( 'NONE', #93, 100.0000000000000000 ) ;
#188 = CARTESIAN_POINT ( 'NONE',  ( -3.987625584330182882, -10.01999999999999957, 0.000000000000000000 ) ) ;
#189 = VERTEX_POINT ( 'NONE', #4 ) ;
#190 = APPLICATION_CONTEXT ( 'automotive_design' ) ;
#191 = DIRECTION ( 'NONE',  ( -0.000000000000000000, 1.000000000000000000, -0.000000000000000000 ) ) ;
#192 = AXIS2_PLACEMENT_3D ( 'NONE', #1213, #1025, #725 ) ;
#193 = ADVANCED_FACE ( 'NONE', ( #273 ), #284, .F. ) ;
#194 = AXIS2_PLACEMENT_3D ( 'NONE', #972, #689, #497 ) ;
#195 = CARTESIAN_POINT ( 'NONE',  ( -2.000000000000000444, -10.71999999999999886, 2.030792978499776247 ) ) ;
#196 = CARTESIAN_POINT ( 'NONE',  ( -3.297512356776354014, -11.01999999999999957, -0.4800109057402086599 ) ) ;
#197 = CARTESIAN_POINT ( 'NONE',  ( 2.499999999999999556, -10.71999999999999886, 1.937535499649831294 ) ) ;
#198 = CIRCLE ( 'NONE', #126, 0.1750000000000003497 ) ;
#199 = VERTEX_POINT ( 'NONE', #936 ) ;
#200 = DIRECTION ( 'NONE',  ( -0.000000000000000000, 1.000000000000000000, -0.000000000000000000 ) ) ;
#201 = ADVANCED_FACE ( 'NONE', ( #453, #368, #279, #653, #1041, #845 ), #253, .F. ) ;
#202 = CARTESIAN_POINT ( 'NONE',  ( 3.987625584330185102, -10.01999999999999957, 0.1750000000001926403 ) ) ;
#203 = EDGE_LOOP ( 'NONE', ( #177, #1068 ) ) ;
#204 = AXIS2_PLACEMENT_3D ( 'NONE', #997, #418, #1006 ) ;
#205 = DIRECTION ( 'NONE',  ( 0.000000000000000000, 0.000000000000000000, 1.000000000000000000 ) ) ;
#206 = DIRECTION ( 'NONE',  ( 0.000000000000000000, 1.000000000000000000, -0.000000000000000000 ) ) ;
#207 = DIRECTION ( 'NONE',  ( 0.000000000000000000, -1.000000000000000000, 0.000000000000000000 ) ) ;
#208 = VECTOR ( 'NONE', #1035, 100.0000000000000000 ) ;
#209 = AXIS2_PLACEMENT_3D ( 'NONE', #1072, #593, #393 ) ;
#210 = ORIENTED_EDGE ( 'NONE', *, *, #320, .F. ) ;
#211 = CARTESIAN_POINT ( 'NONE',  ( -1.999999999999999112, -10.71999999999999886, -1.780792978499777579 ) ) ;
#212 = AXIS2_PLACEMENT_3D ( 'NONE', #631, #52, #918 ) ;
#213 = FACE_OUTER_BOUND ( 'NONE', #217, .T. ) ;
#214 = EDGE_CURVE ( 'NONE', #698, #330, #1101, .T. ) ;
#215 = DIRECTION ( 'NONE',  ( 0.000000000000000000, -1.000000000000000000, 0.000000000000000000 ) ) ;
#216 = DIRECTION ( 'NONE',  ( 1.000000000000000000, 0.000000000000000000, -0.000000000000000000 ) ) ;
#217 = EDGE_LOOP ( 'NONE', ( #1132, #1022, #300, #261 ) ) ;
#218 = EDGE_CURVE ( 'NONE', #543, #283, #870, .T. ) ;
#219 = DIRECTION ( 'NONE',  ( 0.000000000000000000, 0.000000000000000000, 1.000000000000000000 ) ) ;
#220 = CARTESIAN_POINT ( 'NONE',  ( 4.316599029623962025, -11.01999999999999957, -0.1800040896526675649 ) ) ;
#221 = LINE ( 'NONE', #135, #582 ) ;
#222 = CIRCLE ( 'NONE', #962, 0.3750000000000006106 ) ;
#223 = CARTESIAN_POINT ( 'NONE',  ( 2.739861455444319915, -11.01999999999999957, 1.499167407330612711 ) ) ;
#224 = ADVANCED_FACE ( 'NONE', ( #793 ), #705, .F. ) ;
#225 = PLANE ( 'NONE',  #541 ) ;
#226 = CIRCLE ( 'NONE', #875, 1.000000000000000000 ) ;
#227 = AXIS2_PLACEMENT_3D ( 'NONE', #583, #482, #25 ) ;
#228 = ORIENTED_EDGE ( 'NONE', *, *, #520, .T. ) ;
#229 = CIRCLE ( 'NONE', #762, 0.1250000000000001110 ) ;
#230 = DIRECTION ( 'NONE',  ( 0.000000000000000000, 0.000000000000000000, -1.000000000000000000 ) ) ;
#231 = ORIENTED_EDGE ( 'NONE', *, *, #214, .F. ) ;
#232 = CARTESIAN_POINT ( 'NONE',  ( -3.397808346031539806, -10.71999999999999886, 1.859175586635767541 ) ) ;
#233 = EDGE_CURVE ( 'NONE', #923, #321, #661, .T. ) ;
#234 = ORIENTED_EDGE ( 'NONE', *, *, #430, .T. ) ;
#235 = EDGE_LOOP ( 'NONE', ( #471, #612, #1020, #1116 ) ) ;
#236 = CARTESIAN_POINT ( 'NONE',  ( 3.297512356776353126, -11.01999999999999957, 0.4800109057402090484 ) ) ;
#237 = CARTESIAN_POINT ( 'NONE',  ( -3.987625584330182882, -11.01999999999999957, 0.000000000000000000 ) ) ;
#238 = EDGE_LOOP ( 'NONE', ( #643, #675, #901, #744 ) ) ;
#239 = DIRECTION ( 'NONE',  ( 0.000000000000000000, 0.000000000000000000, 1.000000000000000000 ) ) ;
#240 = EDGE_LOOP ( 'NONE', ( #546, #915, #956, #259 ) ) ;
#241 = CARTESIAN_POINT ( 'NONE',  ( -3.163285252166775825E-16, -11.01999999999999957, -0.2499999999999993061 ) ) ;
#242 = EDGE_LOOP ( 'NONE', ( #529, #961, #1225, #499 ) ) ;
#243 = DIRECTION ( 'NONE',  ( 0.000000000000000000, 0.000000000000000000, -1.000000000000000000 ) ) ;
#244 =( GEOMETRIC_REPRESENTATION_CONTEXT ( 3 ) GLOBAL_UNCERTAINTY_ASSIGNED_CONTEXT ( ( #302 ) ) GLOBAL_UNIT_ASSIGNED_CONTEXT ( ( #771, #867, #486 ) ) REPRESENTATION_CONTEXT ( 'NONE', 'WORKASPACE' ) );
#245 = DIRECTION ( 'NONE',  ( 0.000000000000000000, 0.000000000000000000, -1.000000000000000000 ) ) ;
#246 = FACE_OUTER_BOUND ( 'NONE', #1120, .T. ) ;
#247 = FACE_OUTER_BOUND ( 'NONE', #424, .T. ) ;
#248 = EDGE_LOOP ( 'NONE', ( #1086, #801, #65, #234 ) ) ;
#249 = LINE ( 'NONE', #440, #573 ) ;
#250 = VECTOR ( 'NONE', #594, 100.0000000000000000 ) ;
#251 = ORIENTED_EDGE ( 'NONE', *, *, #554, .F. ) ;
#252 = ADVANCED_FACE ( 'NONE', ( #1016 ), #611, .F. ) ;
#253 = PLANE ( 'NONE',  #455 ) ;
#254 = ORIENTED_EDGE ( 'NONE', *, *, #980, .T. ) ;
#255 = CYLINDRICAL_SURFACE ( 'NONE', #1070, 0.3750000000000006106 ) ;
#256 = CARTESIAN_POINT ( 'NONE',  ( 2.739861455444319471, -10.71999999999999886, -1.499167407330613377 ) ) ;
#257 = ORIENTED_EDGE ( 'NONE', *, *, #1079, .F. ) ;
#258 = CARTESIAN_POINT ( 'NONE',  ( -1.999999999999999112, -11.01999999999999957, -2.030792978499777579 ) ) ;
#259 = ORIENTED_EDGE ( 'NONE', *, *, #1218, .F. ) ;
#260 = VECTOR ( 'NONE', #1060, 100.0000000000000000 ) ;
#261 = ORIENTED_EDGE ( 'NONE', *, *, #1185, .T. ) ;
#262 = MANIFOLD_SOLID_BREP ( 'Cut-Extrude2', #1063 ) ;
#263 = LINE ( 'NONE', #638, #842 ) ;
#264 = FACE_OUTER_BOUND ( 'NONE', #398, .T. ) ;
#265 = EDGE_LOOP ( 'NONE', ( #63, #640 ) ) ;
#266 = EDGE_LOOP ( 'NONE', ( #1105, #326, #1052, #811 ) ) ;
#267 = CARTESIAN_POINT ( 'NONE',  ( 2.000000000000001776, -11.01999999999999957, -2.030792978499774915 ) ) ;
#268 = AXIS2_PLACEMENT_3D ( 'NONE', #942, #84, #91 ) ;
#269 = VERTEX_POINT ( 'NONE', #1084 ) ;
#270 = CYLINDRICAL_SURFACE ( 'NONE', #410, 0.1750000000000003497 ) ;
#271 = CARTESIAN_POINT ( 'NONE',  ( 2.420249835993399046, -10.71999999999999886, 1.951563910473907981E-16 ) ) ;
#272 = VERTEX_POINT ( 'NONE', #1092 ) ;
#273 = FACE_OUTER_BOUND ( 'NONE', #625, .T. ) ;
#274 = ORIENTED_EDGE ( 'NONE', *, *, #773, .T. ) ;
#275 = CARTESIAN_POINT ( 'NONE',  ( -3.987625584330182882, -10.01999999999999957, 0.000000000000000000 ) ) ;
#276 = EDGE_CURVE ( 'NONE', #1142, #503, #666, .T. ) ;
#277 = DIRECTION ( 'NONE',  ( -0.000000000000000000, 1.000000000000000000, -0.000000000000000000 ) ) ;
#278 = EDGE_LOOP ( 'NONE', ( #551, #794, #6, #144 ) ) ;
#279 = FACE_BOUND ( 'NONE', #1192, .T. ) ;
#280 = LINE ( 'NONE', #1145, #895 ) ;
#281 = CARTESIAN_POINT ( 'NONE',  ( -3.297512356776353126, -10.71999999999999886, 0.4800109057402090484 ) ) ;
#282 = VERTEX_POINT ( 'NONE', #42 ) ;
#283 = VERTEX_POINT ( 'NONE', #419 ) ;
#284 = CYLINDRICAL_SURFACE ( 'NONE', #976, 0.1250000000000001110 ) ;
#285 = EDGE_CURVE ( 'NONE', #428, #1118, #800, .T. ) ;
#287 = AXIS2_PLACEMENT_3D ( 'NONE', #467, #1241, #470 ) ;
#286 = DIRECTION ( 'NONE',  ( 0.000000000000000000, 0.000000000000000000, 1.000000000000000000 ) ) ;
#288 = PRODUCT_DEFINITION_FORMATION_WITH_SPECIFIED_SOURCE ( 'ANY', '', #938, .NOT_KNOWN. ) ;
#289 = CARTESIAN_POINT ( 'NONE',  ( 3.397808346031539806, -10.71999999999999886, 1.859175586635767541 ) ) ;
#290 = DIRECTION ( 'NONE',  ( 1.000000000000000000, -0.000000000000000000, -0.000000000000000000 ) ) ;
#291 = EDGE_CURVE ( 'NONE', #136, #377, #862, .T. ) ;
#292 = VECTOR ( 'NONE', #26, 100.0000000000000000 ) ;
#293 = DIRECTION ( 'NONE',  ( 1.000000000000000000, -0.000000000000000000, -0.000000000000000000 ) ) ;
#294 = DIRECTION ( 'NONE',  ( -0.4800109057402047186, 0.000000000000000000, 0.8772625207829571892 ) ) ;
#295 = ORIENTED_EDGE ( 'NONE', *, *, #448, .T. ) ;
#296 = CARTESIAN_POINT ( 'NONE',  ( -3.987625584330182882, -11.01999999999999957, 0.000000000000000000 ) ) ;
#297 = CARTESIAN_POINT ( 'NONE',  ( 2.000000000000000444, -11.01999999999999957, 2.030792978499776247 ) ) ;
#298 = DIRECTION ( 'NONE',  ( 0.000000000000000000, 0.000000000000000000, 1.000000000000000000 ) ) ;
#299 = VERTEX_POINT ( 'NONE', #968 ) ;
#300 = ORIENTED_EDGE ( 'NONE', *, *, #616, .F. ) ;
#301 = FACE_OUTER_BOUND ( 'NONE', #652, .T. ) ;
#302 = UNCERTAINTY_MEASURE_WITH_UNIT (LENGTH_MEASURE( 1.000000000000000082E-05 ), #771, 'distance_accuracy_value', 'NONE');
#303 = CARTESIAN_POINT ( 'NONE',  ( -1.999999999999999112, -11.01999999999999957, -2.030792978499777579 ) ) ;
#304 = CARTESIAN_POINT ( 'NONE',  ( 2.499999999999999556, -10.71999999999999886, 0.000000000000000000 ) ) ;
#305 = AXIS2_PLACEMENT_3D ( 'NONE', #1197, #338, #710 ) ;
#306 = EDGE_CURVE ( 'NONE', #282, #168, #598, .T. ) ;
#307 = ORIENTED_EDGE ( 'NONE', *, *, #379, .T. ) ;
#308 = VECTOR ( 'NONE', #99, 100.0000000000000000 ) ;
#309 = EDGE_LOOP ( 'NONE', ( #333, #857, #367, #159 ) ) ;
#310 = PLANE ( 'NONE',  #1215 ) ;
#311 = CIRCLE ( 'NONE', #462, 0.3750000000001915690 ) ;
#312 = CARTESIAN_POINT ( 'NONE',  ( 3.987625584330185102, -10.01999999999999957, 1.323631276804987452E-15 ) ) ;
#313 = EDGE_CURVE ( 'NONE', #527, #382, #1172, .T. ) ;
#314 = CARTESIAN_POINT ( 'NONE',  ( -3.469446951953614189E-16, -11.01999999999999957, 6.938893903907228378E-16 ) ) ;
#315 = DIRECTION ( 'NONE',  ( 0.4800109057402049961, 0.000000000000000000, -0.8772625207829569671 ) ) ;
#316 = CARTESIAN_POINT ( 'NONE',  ( -2.739861455444319915, -10.71999999999999886, 1.499167407330612711 ) ) ;
#317 = ADVANCED_FACE ( 'NONE', ( #595 ), #485, .F. ) ;
#318 = CARTESIAN_POINT ( 'NONE',  ( 2.499999999999999556, -11.01999999999999957, 1.937535499649831294 ) ) ;
#319 = PLANE ( 'NONE',  #926 ) ;
#320 = EDGE_CURVE ( 'NONE', #1222, #350, #494, .T. ) ;
#321 = VERTEX_POINT ( 'NONE', #878 ) ;
#322 = DIRECTION ( 'NONE',  ( -0.000000000000000000, 0.000000000000000000, -1.000000000000000000 ) ) ;
#323 = ORIENTED_EDGE ( 'NONE', *, *, #596, .F. ) ;
#324 = DIRECTION ( 'NONE',  ( 0.000000000000000000, 1.000000000000000000, 0.000000000000000000 ) ) ;
#325 = DIRECTION ( 'NONE',  ( 0.000000000000000000, 0.000000000000000000, 1.000000000000000000 ) ) ;
#326 = ORIENTED_EDGE ( 'NONE', *, *, #1185, .F. ) ;
#327 = DIRECTION ( 'NONE',  ( 1.000000000000000000, 0.000000000000000000, 1.387778780781445429E-16 ) ) ;
#328 = ORIENTED_EDGE ( 'NONE', *, *, #1155, .T. ) ;
#329 = CARTESIAN_POINT ( 'NONE',  ( -4.316599029623793271, -10.71999999999999886, 0.1800040896525774980 ) ) ;
#330 = VERTEX_POINT ( 'NONE', #781 ) ;
#331 = CARTESIAN_POINT ( 'NONE',  ( 3.987625584330185102, -11.01999999999999957, 0.1750000000001926403 ) ) ;
#332 = DIRECTION ( 'NONE',  ( 0.000000000000000000, -1.000000000000000000, 0.000000000000000000 ) ) ;
#333 = ORIENTED_EDGE ( 'NONE', *, *, #313, .T. ) ;
#334 = FACE_OUTER_BOUND ( 'NONE', #1057, .T. ) ;
#335 = DIRECTION ( 'NONE',  ( -0.4800109057402049406, 0.000000000000000000, 0.8772625207829570781 ) ) ;
#336 = EDGE_CURVE ( 'NONE', #363, #382, #16, .T. ) ;
#337 = ORIENTED_EDGE ( 'NONE', *, *, #873, .T. ) ;
#338 = DIRECTION ( 'NONE',  ( 0.000000000000000000, -1.000000000000000000, 0.000000000000000000 ) ) ;
#339 = ORIENTED_EDGE ( 'NONE', *, *, #761, .T. ) ;
#340 = DIRECTION ( 'NONE',  ( 0.8772625207829571892, 0.000000000000000000, 0.4800109057402047186 ) ) ;
#341 = VECTOR ( 'NONE', #183, 100.0000000000000000 ) ;
#342 = AXIS2_PLACEMENT_3D ( 'NONE', #1059, #380, #858 ) ;
#343 = ORIENTED_EDGE ( 'NONE', *, *, #110, .F. ) ;
#344 = CARTESIAN_POINT ( 'NONE',  ( -3.469446951953614189E-16, -10.71999999999999886, 6.938893903907228378E-16 ) ) ;
#345 = LINE ( 'NONE', #717, #441 ) ;
#346 = ORIENTED_EDGE ( 'NONE', *, *, #336, .F. ) ;
#347 = EDGE_CURVE ( 'NONE', #39, #750, #384, .T. ) ;
#348 = LINE ( 'NONE', #517, #141 ) ;
#349 = AXIS2_PLACEMENT_3D ( 'NONE', #577, #680, #953 ) ;
#350 = VERTEX_POINT ( 'NONE', #984 ) ;
#351 = AXIS2_PLACEMENT_3D ( 'NONE', #686, #111, #205 ) ;
#352 = ORIENTED_EDGE ( 'NONE', *, *, #15, .T. ) ;
#353 = CARTESIAN_POINT ( 'NONE',  ( 2.000000000000000888, -10.71999999999999886, -1.780792978499774692 ) ) ;
#354 = DIRECTION ( 'NONE',  ( 0.000000000000000000, -1.000000000000000000, 0.000000000000000000 ) ) ;
#355 = ORIENTED_EDGE ( 'NONE', *, *, #815, .F. ) ;
#356 = DIRECTION ( 'NONE',  ( -1.000000000000000000, 0.000000000000000000, -6.938893903907227392E-16 ) ) ;
#357 = ADVANCED_FACE ( 'NONE', ( #871 ), #1076, .T. ) ;
#358 = VERTEX_POINT ( 'NONE', #1160 ) ;
#359 = CARTESIAN_POINT ( 'NONE',  ( -3.987625584330182882, -10.71999999999999886, 0.000000000000000000 ) ) ;
#360 = ORIENTED_EDGE ( 'NONE', *, *, #130, .F. ) ;
#361 = LINE ( 'NONE', #565, #893 ) ;
#362 = CIRCLE ( 'NONE', #268, 1.000000000000000000 ) ;
#363 = VERTEX_POINT ( 'NONE', #20 ) ;
#364 = ADVANCED_FACE ( 'NONE', ( #592 ), #403, .F. ) ;
#365 = CARTESIAN_POINT ( 'NONE',  ( 2.499999999999999556, -10.71999999999999886, 0.000000000000000000 ) ) ;
#366 = CARTESIAN_POINT ( 'NONE',  ( -3.469446951953614189E-16, -11.01999999999999957, 6.938893903907228378E-16 ) ) ;
#367 = ORIENTED_EDGE ( 'NONE', *, *, #1208, .F. ) ;
#368 = FACE_BOUND ( 'NONE', #149, .T. ) ;
#369 = CIRCLE ( 'NONE', #560, 0.2500000000000000000 ) ;
#370 = LINE ( 'NONE', #951, #1130 ) ;
#371 = CARTESIAN_POINT ( 'NONE',  ( -3.987625584330182882, -11.01999999999999957, 0.000000000000000000 ) ) ;
#372 = EDGE_CURVE ( 'NONE', #358, #199, #1154, .T. ) ;
#373 = VERTEX_POINT ( 'NONE', #1177 ) ;
#374 = CARTESIAN_POINT ( 'NONE',  ( -3.297512356776353126, -11.01999999999999957, 0.4800109057402090484 ) ) ;
#375 = DIRECTION ( 'NONE',  ( -0.4800109057402048851, 0.000000000000000000, -0.8772625207829571892 ) ) ;
#376 = LINE ( 'NONE', #663, #400 ) ;
#377 = VERTEX_POINT ( 'NONE', #211 ) ;
#378 = LINE ( 'NONE', #745, #677 ) ;
#379 = EDGE_CURVE ( 'NONE', #670, #509, #229, .T. ) ;
#380 = DIRECTION ( 'NONE',  ( 0.8772625207829571892, 0.000000000000000000, -0.4800109057402048296 ) ) ;
#381 = DIRECTION ( 'NONE',  ( 0.000000000000000000, -1.000000000000000000, 0.000000000000000000 ) ) ;
#382 = VERTEX_POINT ( 'NONE', #318 ) ;
#383 = AXIS2_PLACEMENT_3D ( 'NONE', #312, #683, #1073 ) ;
#384 = CIRCLE ( 'NONE', #542, 0.1750000000001913358 ) ;
#385 = CARTESIAN_POINT ( 'NONE',  ( -2.000000000000000444, -10.71999999999999886, 1.905792978499776247 ) ) ;
#386 = CARTESIAN_POINT ( 'NONE',  ( 3.987625584330185102, -11.01999999999999957, 1.323631276804987452E-15 ) ) ;
#387 = VECTOR ( 'NONE', #587, 100.0000000000000000 ) ;
#388 = ORIENTED_EDGE ( 'NONE', *, *, #569, .F. ) ;
#389 = DIRECTION ( 'NONE',  ( 1.000000000000000000, 0.000000000000000000, -0.000000000000000000 ) ) ;
#390 = DIRECTION ( 'NONE',  ( -0.000000000000000000, 1.000000000000000000, -0.000000000000000000 ) ) ;
#391 = PLANE ( 'NONE',  #1114 ) ;
#392 = CARTESIAN_POINT ( 'NONE',  ( 3.987625584330185102, -11.01999999999999957, 1.323631276804987452E-15 ) ) ;
#393 = DIRECTION ( 'NONE',  ( 0.000000000000000000, 0.000000000000000000, 1.000000000000000000 ) ) ;
#394 = EDGE_CURVE ( 'NONE', #930, #989, #769, .T. ) ;
#395 = CARTESIAN_POINT ( 'NONE',  ( 3.987625584330185102, -11.01999999999999957, -0.3750000000001903477 ) ) ;
#396 = VECTOR ( 'NONE', #534, 100.0000000000000000 ) ;
#397 = VECTOR ( 'NONE', #1156, 100.0000000000000000 ) ;
#398 = EDGE_LOOP ( 'NONE', ( #119, #850, #1034, #1100, #533, #43, #210, #796 ) ) ;
#399 = CARTESIAN_POINT ( 'NONE',  ( -2.000000000000000444, -11.01999999999999957, 2.030792978499776247 ) ) ;
#400 = VECTOR ( 'NONE', #475, 99.99999999999998579 ) ;
#401 = DIRECTION ( 'NONE',  ( 0.000000000000000000, 0.000000000000000000, -1.000000000000000000 ) ) ;
#402 = ADVANCED_FACE ( 'NONE', ( #406 ), #310, .T. ) ;
#403 = CYLINDRICAL_SURFACE ( 'NONE', #70, 1.000000000000000000 ) ;
#404 = CARTESIAN_POINT ( 'NONE',  ( -2.499999999999999556, -10.71999999999999886, 0.000000000000000000 ) ) ;
#405 = ADVANCED_FACE ( 'NONE', ( #301 ), #671, .F. ) ;
#406 = FACE_OUTER_BOUND ( 'NONE', #278, .T. ) ;
#407 = AXIS2_PLACEMENT_3D ( 'NONE', #1038, #809, #1033 ) ;
#408 = DIRECTION ( 'NONE',  ( -0.4800109057402048296, 0.000000000000000000, -0.8772625207829571892 ) ) ;
#409 = ORIENTED_EDGE ( 'NONE', *, *, #285, .T. ) ;
#410 = AXIS2_PLACEMENT_3D ( 'NONE', #747, #1037, #81 ) ;
#411 = PLANE ( 'NONE',  #734 ) ;
#412 = DIRECTION ( 'NONE',  ( -0.000000000000000000, 1.000000000000000000, -0.000000000000000000 ) ) ;
#413 = ORIENTED_EDGE ( 'NONE', *, *, #711, .F. ) ;
#414 = FACE_BOUND ( 'NONE', #633, .T. ) ;
#415 = ORIENTED_EDGE ( 'NONE', *, *, #1048, .F. ) ;
#416 = ORIENTED_EDGE ( 'NONE', *, *, #673, .F. ) ;
#417 = ORIENTED_EDGE ( 'NONE', *, *, #952, .F. ) ;
#418 = DIRECTION ( 'NONE',  ( 6.938893903907227392E-16, 0.000000000000000000, -1.000000000000000000 ) ) ;
#419 = CARTESIAN_POINT ( 'NONE',  ( -3.987625584330182882, -11.01999999999999957, -0.1750000000000003497 ) ) ;
#420 = ORIENTED_EDGE ( 'NONE', *, *, #1015, .F. ) ;
#421 = EDGE_CURVE ( 'NONE', #199, #358, #1115, .T. ) ;
#422 = FACE_BOUND ( 'NONE', #240, .T. ) ;
#423 = DIRECTION ( 'NONE',  ( 0.000000000000000000, 0.000000000000000000, 1.000000000000000000 ) ) ;
#424 = EDGE_LOOP ( 'NONE', ( #719, #1134, #231, #1036 ) ) ;
#425 = PLANE ( 'NONE',  #473 ) ;
#426 = ORIENTED_EDGE ( 'NONE', *, *, #1119, .T. ) ;
#427 = PLANE ( 'NONE',  #204 ) ;
#428 = VERTEX_POINT ( 'NONE', #519 ) ;
#429 = CARTESIAN_POINT ( 'NONE',  ( 2.000000000000001776, -11.01999999999999957, -2.030792978499774915 ) ) ;
#430 = EDGE_CURVE ( 'NONE', #1141, #33, #1098, .T. ) ;
#431 = CARTESIAN_POINT ( 'NONE',  ( 3.987625584330185102, -11.01999999999999957, 1.323631276804987452E-15 ) ) ;
#432 = ORIENTED_EDGE ( 'NONE', *, *, #511, .F. ) ;
#433 = CARTESIAN_POINT ( 'NONE',  ( 3.297512356776354014, -11.01999999999999957, -0.4800109057402086599 ) ) ;
#434 = ORIENTED_EDGE ( 'NONE', *, *, #711, .T. ) ;
#435 = AXIS2_PLACEMENT_3D ( 'NONE', #777, #121, #879 ) ;
#436 = VERTEX_POINT ( 'NONE', #704 ) ;
#437 = PLANE ( 'NONE',  #192 ) ;
#438 = CARTESIAN_POINT ( 'NONE',  ( 4.316599029623962025, -10.71999999999999886, 0.1800040896526698686 ) ) ;
#439 = VERTEX_POINT ( 'NONE', #990 ) ;
#440 = CARTESIAN_POINT ( 'NONE',  ( -3.987625584330182882, -11.01999999999999957, 0.1750000000000003497 ) ) ;
#441 = VECTOR ( 'NONE', #1104, 100.0000000000000000 ) ;
#442 = EDGE_CURVE ( 'NONE', #182, #1153, #841, .T. ) ;
#443 = ORIENTED_EDGE ( 'NONE', *, *, #1015, .T. ) ;
#444 = VECTOR ( 'NONE', #766, 100.0000000000000000 ) ;
#445 = LINE ( 'NONE', #639, #118 ) ;
#446 = ORIENTED_EDGE ( 'NONE', *, *, #952, .T. ) ;
#447 = CARTESIAN_POINT ( 'NONE',  ( -2.500000000000000000, -10.71999999999999886, 3.500000000000000444 ) ) ;
#448 = EDGE_CURVE ( 'NONE', #283, #543, #198, .T. ) ;
#449 = EDGE_LOOP ( 'NONE', ( #307, #55, #413, #452 ) ) ;
#450 = LINE ( 'NONE', #53, #1051 ) ;
#451 = DIRECTION ( 'NONE',  ( 0.4800109057402048296, 0.000000000000000000, 0.8772625207829571892 ) ) ;
#452 = ORIENTED_EDGE ( 'NONE', *, *, #1085, .T. ) ;
#453 = FACE_BOUND ( 'NONE', #1196, .T. ) ;
#454 = EDGE_CURVE ( 'NONE', #373, #1012, #825, .T. ) ;
#455 = AXIS2_PLACEMENT_3D ( 'NONE', #1183, #604, #1191 ) ;
#456 = AXIS2_PLACEMENT_3D ( 'NONE', #483, #1173, #979 ) ;
#457 = DIRECTION ( 'NONE',  ( 0.000000000000000000, -1.000000000000000000, 0.000000000000000000 ) ) ;
#458 = DIRECTION ( 'NONE',  ( 0.000000000000000000, -1.000000000000000000, 0.000000000000000000 ) ) ;
#459 = ORIENTED_EDGE ( 'NONE', *, *, #454, .F. ) ;
#460 = EDGE_LOOP ( 'NONE', ( #824, #1131, #1123, #607 ) ) ;
#461 = DIRECTION ( 'NONE',  ( 0.000000000000000000, 0.000000000000000000, 1.000000000000000000 ) ) ;
#462 = AXIS2_PLACEMENT_3D ( 'NONE', #524, #76, #1031 ) ;
#463 = FACE_BOUND ( 'NONE', #203, .T. ) ;
#464 = ADVANCED_FACE ( 'NONE', ( #40 ), #1136, .F. ) ;
#465 = LINE ( 'NONE', #970, #846 ) ;
#466 = ORIENTED_EDGE ( 'NONE', *, *, #481, .F. ) ;
#467 = CARTESIAN_POINT ( 'NONE',  ( -3.987625584330182882, -10.71999999999999886, 0.000000000000000000 ) ) ;
#468 = CARTESIAN_POINT ( 'NONE',  ( 3.297512356776353126, -10.71999999999999886, 0.4800109057402090484 ) ) ;
#469 = DIRECTION ( 'NONE',  ( -0.000000000000000000, 1.000000000000000000, -0.000000000000000000 ) ) ;
#470 = DIRECTION ( 'NONE',  ( 0.000000000000000000, 0.000000000000000000, -1.000000000000000000 ) ) ;
#471 = ORIENTED_EDGE ( 'NONE', *, *, #80, .T. ) ;
#472 = VECTOR ( 'NONE', #696, 100.0000000000000000 ) ;
#473 = AXIS2_PLACEMENT_3D ( 'NONE', #1117, #626, #540 ) ;
#474 = FACE_OUTER_BOUND ( 'NONE', #709, .T. ) ;
#475 = DIRECTION ( 'NONE',  ( 0.4800109057402048851, 0.000000000000000000, -0.8772625207829571892 ) ) ;
#476 = EDGE_CURVE ( 'NONE', #906, #851, #645, .T. ) ;
#477 = ORIENTED_EDGE ( 'NONE', *, *, #1069, .T. ) ;
#478 = CARTESIAN_POINT ( 'NONE',  ( -3.469446951953614189E-16, -11.01999999999999957, 6.938893903907228378E-16 ) ) ;
#479 = CARTESIAN_POINT ( 'NONE',  ( 2.000000000000000888, -11.01999999999999957, -1.780792978499774692 ) ) ;
#480 = LINE ( 'NONE', #281, #1175 ) ;
#481 = EDGE_CURVE ( 'NONE', #189, #1164, #501, .T. ) ;
#482 = DIRECTION ( 'NONE',  ( 0.000000000000000000, -1.000000000000000000, 0.000000000000000000 ) ) ;
#483 = CARTESIAN_POINT ( 'NONE',  ( 3.987625584330185102, -11.01999999999999957, 1.323631276804987452E-15 ) ) ;
#484 = CARTESIAN_POINT ( 'NONE',  ( -4.316599029623793271, -10.71999999999999886, -0.1800040896525772205 ) ) ;
#485 = CYLINDRICAL_SURFACE ( 'NONE', #351, 0.2500000000000000000 ) ;
#486 =( NAMED_UNIT ( * ) SI_UNIT ( $, .STERADIAN. ) SOLID_ANGLE_UNIT ( ) );
#487 = EDGE_CURVE ( 'NONE', #189, #269, #1224, .T. ) ;
#488 = CARTESIAN_POINT ( 'NONE',  ( 4.857225732735059864E-16, -10.71999999999999886, -3.500000000000000444 ) ) ;
#489 = DIRECTION ( 'NONE',  ( 1.000000000000000000, 0.000000000000000000, 0.000000000000000000 ) ) ;
#490 = VECTOR ( 'NONE', #45, 100.0000000000000000 ) ;
#491 = DIRECTION ( 'NONE',  ( 0.000000000000000000, 1.000000000000000000, 0.000000000000000000 ) ) ;
#492 = LINE ( 'NONE', #584, #32 ) ;
#493 = VECTOR ( 'NONE', #423, 100.0000000000000000 ) ;
#494 = CIRCLE ( 'NONE', #227, 0.3750000000001917355 ) ;
#495 = CARTESIAN_POINT ( 'NONE',  ( 2.499999999999999556, -10.71999999999999886, -1.937535499649829740 ) ) ;
#496 = EDGE_CURVE ( 'NONE', #774, #999, #49, .T. ) ;
#497 = DIRECTION ( 'NONE',  ( 0.000000000000000000, 0.000000000000000000, -1.000000000000000000 ) ) ;
#498 = FACE_OUTER_BOUND ( 'NONE', #601, .T. ) ;
#499 = ORIENTED_EDGE ( 'NONE', *, *, #805, .F. ) ;
#500 = EDGE_CURVE ( 'NONE', #929, #1201, #785, .T. ) ;
#501 = LINE ( 'NONE', #545, #472 ) ;
#502 = CARTESIAN_POINT ( 'NONE',  ( -3.987625584330182882, -10.01999999999999957, 0.000000000000000000 ) ) ;
#503 = VERTEX_POINT ( 'NONE', #834 ) ;
#504 = CIRCLE ( 'NONE', #1125, 1.000000000000000000 ) ;
#505 = CARTESIAN_POINT ( 'NONE',  ( -4.316599029623793271, -10.71999999999999886, 0.1800040896525774980 ) ) ;
#506 = VECTOR ( 'NONE', #64, 100.0000000000000000 ) ;
#507 = ORIENTED_EDGE ( 'NONE', *, *, #849, .F. ) ;
#508 = DIRECTION ( 'NONE',  ( 0.4800109057402048296, 0.000000000000000000, -0.8772625207829571892 ) ) ;
#509 = VERTEX_POINT ( 'NONE', #550 ) ;
#510 = CARTESIAN_POINT ( 'NONE',  ( -3.987625584330182882, -11.01999999999999957, 0.000000000000000000 ) ) ;
#511 = EDGE_CURVE ( 'NONE', #1089, #1141, #504, .T. ) ;
#512 = CARTESIAN_POINT ( 'NONE',  ( 2.000000000000001776, -10.71999999999999886, -1.905792978499774915 ) ) ;
#513 = EDGE_LOOP ( 'NONE', ( #798, #1017, #416, #328 ) ) ;
#514 = FACE_OUTER_BOUND ( 'NONE', #29, .T. ) ;
#515 = CARTESIAN_POINT ( 'NONE',  ( 2.000000000000000888, -11.01999999999999957, -1.780792978499774692 ) ) ;
#516 = ORIENTED_EDGE ( 'NONE', *, *, #394, .F. ) ;
#517 = CARTESIAN_POINT ( 'NONE',  ( 2.000000000000000888, -11.01999999999999957, -1.780792978499774692 ) ) ;
#518 = ORIENTED_EDGE ( 'NONE', *, *, #487, .F. ) ;
#519 = CARTESIAN_POINT ( 'NONE',  ( -2.000000000000000444, -11.01999999999999957, 2.030792978499776247 ) ) ;
#520 = EDGE_CURVE ( 'NONE', #39, #614, #940, .T. ) ;
#521 = DIRECTION ( 'NONE',  ( -0.000000000000000000, 1.000000000000000000, -0.000000000000000000 ) ) ;
#522 = ORIENTED_EDGE ( 'NONE', *, *, #1079, .T. ) ;
#523 = DIRECTION ( 'NONE',  ( -0.000000000000000000, 1.000000000000000000, -0.000000000000000000 ) ) ;
#524 = CARTESIAN_POINT ( 'NONE',  ( 3.987625584330185102, -10.71999999999999886, 1.323631276804987452E-15 ) ) ;
#525 = ORIENTED_EDGE ( 'NONE', *, *, #1061, .T. ) ;
#526 = ORIENTED_EDGE ( 'NONE', *, *, #830, .F. ) ;
#527 = VERTEX_POINT ( 'NONE', #236 ) ;
#528 = FILL_AREA_STYLE_COLOUR ( '', #1211 ) ;
#529 = ORIENTED_EDGE ( 'NONE', *, *, #980, .F. ) ;
#530 = CARTESIAN_POINT ( 'NONE',  ( 2.739861455444319471, -11.01999999999999957, -1.499167407330613377 ) ) ;
#531 = CARTESIAN_POINT ( 'NONE',  ( -1.999999999999999112, -11.01999999999999957, -1.905792978499777579 ) ) ;
#532 = ADVANCED_FACE ( 'NONE', ( #619 ), #411, .F. ) ;
#533 = ORIENTED_EDGE ( 'NONE', *, *, #500, .F. ) ;
#534 = DIRECTION ( 'NONE',  ( -0.000000000000000000, 1.000000000000000000, -0.000000000000000000 ) ) ;
#535 = ORIENTED_EDGE ( 'NONE', *, *, #15, .F. ) ;
#536 = ORIENTED_EDGE ( 'NONE', *, *, #579, .F. ) ;
#537 = CARTESIAN_POINT ( 'NONE',  ( 3.397808346031538917, -11.01999999999999957, -1.859175586635767097 ) ) ;
#538 = ADVANCED_FACE ( 'NONE', ( #1182 ), #427, .F. ) ;
#539 = EDGE_LOOP ( 'NONE', ( #172, #536, #167, #731 ) ) ;
#540 = DIRECTION ( 'NONE',  ( -1.000000000000000000, 0.000000000000000000, 0.000000000000000000 ) ) ;
#541 = AXIS2_PLACEMENT_3D ( 'NONE', #974, #216, #322 ) ;
#542 = AXIS2_PLACEMENT_3D ( 'NONE', #392, #776, #1066 ) ;
#543 = VERTEX_POINT ( 'NONE', #150 ) ;
#544 = LINE ( 'NONE', #256, #982 ) ;
#545 = CARTESIAN_POINT ( 'NONE',  ( -2.739861455444319915, -10.71999999999999886, 1.499167407330612711 ) ) ;
#546 = ORIENTED_EDGE ( 'NONE', *, *, #784, .F. ) ;
#547 = DIRECTION ( 'NONE',  ( 0.000000000000000000, 0.000000000000000000, 1.000000000000000000 ) ) ;
#548 = PRODUCT_DEFINITION ( 'UNKNOWN', '', #288, #925 ) ;
#549 = PLANE ( 'NONE',  #435 ) ;
#550 = CARTESIAN_POINT ( 'NONE',  ( 2.000000000000000444, -10.71999999999999886, 1.780792978499776247 ) ) ;
#551 = ORIENTED_EDGE ( 'NONE', *, *, #496, .F. ) ;
#552 = DIRECTION ( 'NONE',  ( -0.000000000000000000, 1.000000000000000000, 0.000000000000000000 ) ) ;
#553 = CIRCLE ( 'NONE', #18, 0.3750000000001915690 ) ;
#554 = EDGE_CURVE ( 'NONE', #1198, #299, #907, .T. ) ;
#555 = DIRECTION ( 'NONE',  ( -0.000000000000000000, 1.000000000000000000, -0.000000000000000000 ) ) ;
#556 = DIRECTION ( 'NONE',  ( -1.000000000000000000, 0.000000000000000000, -6.938893903907227392E-16 ) ) ;
#557 = ORIENTED_EDGE ( 'NONE', *, *, #306, .F. ) ;
#558 = ORIENTED_EDGE ( 'NONE', *, *, #394, .T. ) ;
#559 = FACE_BOUND ( 'NONE', #618, .T. ) ;
#560 = AXIS2_PLACEMENT_3D ( 'NONE', #782, #613, #1001 ) ;
#561 = ADVANCED_FACE ( 'NONE', ( #1109 ), #1229, .F. ) ;
#562 = VECTOR ( 'NONE', #1235, 100.0000000000000000 ) ;
#563 = CARTESIAN_POINT ( 'NONE',  ( 2.500000000000000000, -10.71999999999999886, 3.500000000000000444 ) ) ;
#564 = FACE_OUTER_BOUND ( 'NONE', #1028, .T. ) ;
#565 = CARTESIAN_POINT ( 'NONE',  ( 3.297512356776353126, -10.71999999999999886, 0.4800109057402090484 ) ) ;
#566 = ORIENTED_EDGE ( 'NONE', *, *, #667, .F. ) ;
#567 = DIRECTION ( 'NONE',  ( 0.000000000000000000, 0.000000000000000000, 1.000000000000000000 ) ) ;
#568 = DIRECTION ( 'NONE',  ( 0.000000000000000000, 0.000000000000000000, 1.000000000000000000 ) ) ;
#569 = EDGE_CURVE ( 'NONE', #503, #760, #1240, .T. ) ;
#570 = ORIENTED_EDGE ( 'NONE', *, *, #5, .T. ) ;
#571 = ORIENTED_EDGE ( 'NONE', *, *, #1042, .T. ) ;
#572 = VECTOR ( 'NONE', #934, 100.0000000000000000 ) ;
#573 = VECTOR ( 'NONE', #47, 100.0000000000000000 ) ;
#574 = CARTESIAN_POINT ( 'NONE',  ( -1.999999999999999112, -11.01999999999999957, -1.780792978499777579 ) ) ;
#575 = AXIS2_PLACEMENT_3D ( 'NONE', #146, #164, #335 ) ;
#576 = LINE ( 'NONE', #957, #308 ) ;
#577 = CARTESIAN_POINT ( 'NONE',  ( 2.739861455444319471, -10.71999999999999886, -1.499167407330613377 ) ) ;
#578 = ORIENTED_EDGE ( 'NONE', *, *, #218, .F. ) ;
#579 = EDGE_CURVE ( 'NONE', #436, #651, #108, .T. ) ;
#580 = AXIS2_PLACEMENT_3D ( 'NONE', #848, #753, #113 ) ;
#581 = ORIENTED_EDGE ( 'NONE', *, *, #887, .F. ) ;
#582 = VECTOR ( 'NONE', #1186, 100.0000000000000000 ) ;
#583 = CARTESIAN_POINT ( 'NONE',  ( 3.987625584330185102, -11.01999999999999957, 1.323631276804987452E-15 ) ) ;
#584 = CARTESIAN_POINT ( 'NONE',  ( 2.739861455444319915, -10.71999999999999886, 1.499167407330612711 ) ) ;
#585 = PLANE ( 'NONE',  #349 ) ;
#586 = EDGE_CURVE ( 'NONE', #189, #182, #480, .T. ) ;
#587 = DIRECTION ( 'NONE',  ( -0.000000000000000000, 1.000000000000000000, -0.000000000000000000 ) ) ;
#588 = FACE_OUTER_BOUND ( 'NONE', #238, .T. ) ;
#589 = CARTESIAN_POINT ( 'NONE',  ( 3.987625584330185102, -11.01999999999999957, -0.1750000000001900036 ) ) ;
#590 = ORIENTED_EDGE ( 'NONE', *, *, #95, .T. ) ;
#591 = EDGE_CURVE ( 'NONE', #760, #377, #92, .T. ) ;
#592 = FACE_OUTER_BOUND ( 'NONE', #248, .T. ) ;
#593 = DIRECTION ( 'NONE',  ( 0.000000000000000000, -1.000000000000000000, 0.000000000000000000 ) ) ;
#594 = DIRECTION ( 'NONE',  ( 0.000000000000000000, -1.000000000000000000, 0.000000000000000000 ) ) ;
#595 = FACE_OUTER_BOUND ( 'NONE', #460, .T. ) ;
#596 = EDGE_CURVE ( 'NONE', #1198, #861, #674, .T. ) ;
#597 = VECTOR ( 'NONE', #1221, 100.0000000000000000 ) ;
#598 = CIRCLE ( 'NONE', #194, 0.3750000000000006106 ) ;
#599 = FACE_BOUND ( 'NONE', #932, .T. ) ;
#600 = DIRECTION ( 'NONE',  ( 0.000000000000000000, 0.000000000000000000, 1.000000000000000000 ) ) ;
#601 = EDGE_LOOP ( 'NONE', ( #1040, #1097, #58, #828 ) ) ;
#602 = AXIS2_PLACEMENT_3D ( 'NONE', #510, #82, #791 ) ;
#603 = DIRECTION ( 'NONE',  ( 0.000000000000000000, 0.000000000000000000, 1.000000000000000000 ) ) ;
#604 = DIRECTION ( 'NONE',  ( 0.000000000000000000, -1.000000000000000000, 0.000000000000000000 ) ) ;
#605 = ORIENTED_EDGE ( 'NONE', *, *, #114, .F. ) ;
#606 = DIRECTION ( 'NONE',  ( -0.4800109057402048851, 0.000000000000000000, -0.8772625207829571892 ) ) ;
#607 = ORIENTED_EDGE ( 'NONE', *, *, #910, .F. ) ;
#608 = DIRECTION ( 'NONE',  ( 0.8772625207829571892, 0.000000000000000000, 0.4800109057402048296 ) ) ;
#609 = ORIENTED_EDGE ( 'NONE', *, *, #11, .F. ) ;
#610 = CARTESIAN_POINT ( 'NONE',  ( 3.397808346031539806, -10.71999999999999886, 1.859175586635767541 ) ) ;
#611 = CYLINDRICAL_SURFACE ( 'NONE', #983, 0.1250000000000001110 ) ;
#612 = ORIENTED_EDGE ( 'NONE', *, *, #1179, .F. ) ;
#613 = DIRECTION ( 'NONE',  ( 0.000000000000000000, 1.000000000000000000, 0.000000000000000000 ) ) ;
#614 = VERTEX_POINT ( 'NONE', #202 ) ;
#615 = VECTOR ( 'NONE', #390, 100.0000000000000000 ) ;
#616 = EDGE_CURVE ( 'NONE', #1039, #826, #105, .T. ) ;
#617 = DIRECTION ( 'NONE',  ( -0.000000000000000000, 1.000000000000000000, -0.000000000000000000 ) ) ;
#618 = EDGE_LOOP ( 'NONE', ( #1184, #1126 ) ) ;
#619 = FACE_OUTER_BOUND ( 'NONE', #513, .T. ) ;
#620 = FILL_AREA_STYLE ('',( #528 ) ) ;
#621 = EDGE_LOOP ( 'NONE', ( #434, #522, #967, #657 ) ) ;
#622 = DIRECTION ( 'NONE',  ( -0.000000000000000000, 1.000000000000000000, -0.000000000000000000 ) ) ;
#623 = AXIS2_PLACEMENT_3D ( 'NONE', #316, #874, #408 ) ;
#624 = CARTESIAN_POINT ( 'NONE',  ( -2.000000000000000444, -11.01999999999999957, 1.780792978499776247 ) ) ;
#625 = EDGE_LOOP ( 'NONE', ( #1230, #134, #526, #558 ) ) ;
#626 = DIRECTION ( 'NONE',  ( -0.000000000000000000, 0.000000000000000000, -1.000000000000000000 ) ) ;
#627 = ORIENTED_EDGE ( 'NONE', *, *, #11, .T. ) ;
#628 = EDGE_CURVE ( 'NONE', #1219, #1012, #465, .T. ) ;
#629 = CARTESIAN_POINT ( 'NONE',  ( -3.987625584330182882, -11.01999999999999957, 0.000000000000000000 ) ) ;
#630 = ORIENTED_EDGE ( 'NONE', *, *, #910, .T. ) ;
#631 = CARTESIAN_POINT ( 'NONE',  ( -2.000000000000000444, -11.01999999999999957, 1.905792978499776247 ) ) ;
#632 = DIRECTION ( 'NONE',  ( 0.000000000000000000, -1.000000000000000000, 0.000000000000000000 ) ) ;
#633 = EDGE_LOOP ( 'NONE', ( #658, #352, #701, #1095 ) ) ;
#634 = VERTEX_POINT ( 'NONE', #484 ) ;
#635 = VERTEX_POINT ( 'NONE', #1044 ) ;
#636 = ORIENTED_EDGE ( 'NONE', *, *, #62, .F. ) ;
#637 = EDGE_CURVE ( 'NONE', #89, #321, #88, .T. ) ;
#638 = CARTESIAN_POINT ( 'NONE',  ( -2.499999999999999556, -10.71999999999999886, 1.937535499649831294 ) ) ;
#639 = CARTESIAN_POINT ( 'NONE',  ( 2.499999999999999556, -10.71999999999999886, -1.937535499649829740 ) ) ;
#640 = ORIENTED_EDGE ( 'NONE', *, *, #1234, .F. ) ;
#641 = LINE ( 'NONE', #447, #506 ) ;
#642 = VECTOR ( 'NONE', #191, 100.0000000000000000 ) ;
#643 = ORIENTED_EDGE ( 'NONE', *, *, #637, .F. ) ;
#644 = LINE ( 'NONE', #537, #490 ) ;
#645 = LINE ( 'NONE', #650, #890 ) ;
#646 = ORIENTED_EDGE ( 'NONE', *, *, #520, .F. ) ;
#647 = DIRECTION ( 'NONE',  ( -0.000000000000000000, 1.000000000000000000, -0.000000000000000000 ) ) ;
#648 = EDGE_LOOP ( 'NONE', ( #703, #516, #257, #913 ) ) ;
#649 = DIRECTION ( 'NONE',  ( 0.000000000000000000, -1.000000000000000000, 0.000000000000000000 ) ) ;
#650 = CARTESIAN_POINT ( 'NONE',  ( 0.000000000000000000, -10.71999999999999886, 3.500000000000000444 ) ) ;
#651 = VERTEX_POINT ( 'NONE', #14 ) ;
#652 = EDGE_LOOP ( 'NONE', ( #158, #975, #518, #695 ) ) ;
#653 = FACE_BOUND ( 'NONE', #1189, .T. ) ;
#654 = EDGE_CURVE ( 'NONE', #330, #698, #151, .T. ) ;
#655 = CARTESIAN_POINT ( 'NONE',  ( 3.987625584330185102, -10.01999999999999957, 1.323631276804987452E-15 ) ) ;
#656 = DIRECTION ( 'NONE',  ( 0.000000000000000000, -1.000000000000000000, 0.000000000000000000 ) ) ;
#657 = ORIENTED_EDGE ( 'NONE', *, *, #1176, .T. ) ;
#658 = ORIENTED_EDGE ( 'NONE', *, *, #616, .T. ) ;
#659 = CARTESIAN_POINT ( 'NONE',  ( 2.000000000000000444, -10.71999999999999886, 2.030792978499776247 ) ) ;
#660 = ADVANCED_FACE ( 'NONE', ( #1163 ), #391, .T. ) ;
#661 = CIRCLE ( 'NONE', #814, 0.3750000000001917355 ) ;
#662 = CARTESIAN_POINT ( 'NONE',  ( -2.499999999999999556, -11.01999999999999957, 1.937535499649831294 ) ) ;
#663 = CARTESIAN_POINT ( 'NONE',  ( 3.397808346031539806, -11.01999999999999957, 1.859175586635767541 ) ) ;
#664 = DIRECTION ( 'NONE',  ( 0.000000000000000000, 0.000000000000000000, 1.000000000000000000 ) ) ;
#665 = CIRCLE ( 'NONE', #383, 0.3750000000001917355 ) ;
#666 = CIRCLE ( 'NONE', #125, 0.1250000000000001110 ) ;
#667 = EDGE_CURVE ( 'NONE', #774, #350, #376, .T. ) ;
#668 = CARTESIAN_POINT ( 'NONE',  ( -2.500000000000000000, -10.71999999999999886, -3.500000000000000888 ) ) ;
#669 = CARTESIAN_POINT ( 'NONE',  ( 2.000000000000001776, -11.01999999999999957, -1.905792978499774915 ) ) ;
#670 = VERTEX_POINT ( 'NONE', #758 ) ;
#671 = CYLINDRICAL_SURFACE ( 'NONE', #1088, 1.000000000000000000 ) ;
#672 = LINE ( 'NONE', #668, #1204 ) ;
#673 = EDGE_CURVE ( 'NONE', #906, #929, #1146, .T. ) ;
#674 = LINE ( 'NONE', #1050, #839 ) ;
#675 = ORIENTED_EDGE ( 'NONE', *, *, #5, .F. ) ;
#676 = VERTEX_POINT ( 'NONE', #196 ) ;
#677 = VECTOR ( 'NONE', #855, 100.0000000000000000 ) ;
#678 = DIRECTION ( 'NONE',  ( 0.000000000000000000, 0.000000000000000000, 1.000000000000000000 ) ) ;
#679 = CARTESIAN_POINT ( 'NONE',  ( -2.500000000000000000, -11.01999999999999957, -3.500000000000000888 ) ) ;
#680 = DIRECTION ( 'NONE',  ( -0.8772625207829570781, 0.000000000000000000, 0.4800109057402049406 ) ) ;
#681 = AXIS2_PLACEMENT_3D ( 'NONE', #386, #469, #1158 ) ;
#682 = DIRECTION ( 'NONE',  ( 0.000000000000000000, 0.000000000000000000, 1.000000000000000000 ) ) ;
#683 = DIRECTION ( 'NONE',  ( 0.000000000000000000, -1.000000000000000000, 0.000000000000000000 ) ) ;
#684 = ADVANCED_FACE ( 'NONE', ( #564 ), #585, .T. ) ;
#685 = VECTOR ( 'NONE', #556, 100.0000000000000000 ) ;
#686 = CARTESIAN_POINT ( 'NONE',  ( -3.469446951953614189E-16, -11.01999999999999957, 6.938893903907228378E-16 ) ) ;
#687 = CARTESIAN_POINT ( 'NONE',  ( 2.500000000000000000, -10.71999999999999886, -3.500000000000000444 ) ) ;
#688 = DIRECTION ( 'NONE',  ( 0.000000000000000000, -1.000000000000000000, 0.000000000000000000 ) ) ;
#689 = DIRECTION ( 'NONE',  ( 0.000000000000000000, -1.000000000000000000, 0.000000000000000000 ) ) ;
#690 = FACE_BOUND ( 'NONE', #265, .T. ) ;
#691 =( LENGTH_UNIT ( ) NAMED_UNIT ( * ) SI_UNIT ( .CENTI., .METRE. ) );
#692 = VECTOR ( 'NONE', #1203, 100.0000000000000000 ) ;
#693 = ADVANCED_FACE ( 'NONE', ( #94 ), #764, .F. ) ;
#694 = DIRECTION ( 'NONE',  ( -0.000000000000000000, 1.000000000000000000, -0.000000000000000000 ) ) ;
#695 = ORIENTED_EDGE ( 'NONE', *, *, #586, .T. ) ;
#696 = DIRECTION ( 'NONE',  ( 0.4800109057402048296, 0.000000000000000000, 0.8772625207829571892 ) ) ;
#697 =( NAMED_UNIT ( * ) PLANE_ANGLE_UNIT ( ) SI_UNIT ( $, .RADIAN. ) );
#698 = VERTEX_POINT ( 'NONE', #854 ) ;
#699 = PLANE ( 'NONE',  #775 ) ;
#700 = ADVANCED_FACE ( 'NONE', ( #213 ), #2, .F. ) ;
#701 = ORIENTED_EDGE ( 'NONE', *, *, #1048, .T. ) ;
#702 = DIRECTION ( 'NONE',  ( -0.000000000000000000, 1.000000000000000000, -0.000000000000000000 ) ) ;
#703 = ORIENTED_EDGE ( 'NONE', *, *, #966, .T. ) ;
#704 = CARTESIAN_POINT ( 'NONE',  ( -2.499999999999999556, -10.71999999999999886, -1.937535499649829740 ) ) ;
#705 = CYLINDRICAL_SURFACE ( 'NONE', #117, 0.1750000000000003497 ) ;
#706 = CARTESIAN_POINT ( 'NONE',  ( -2.500000000000000000, -10.71999999999999886, 3.500000000000000444 ) ) ;
#707 = DIRECTION ( 'NONE',  ( 0.000000000000000000, 0.000000000000000000, -1.000000000000000000 ) ) ;
#708 = AXIS2_PLACEMENT_3D ( 'NONE', #751, #552, #664 ) ;
#709 = EDGE_LOOP ( 'NONE', ( #1236, #323, #1223, #477 ) ) ;
#710 = DIRECTION ( 'NONE',  ( 0.000000000000000000, 0.000000000000000000, -1.000000000000000000 ) ) ;
#711 = EDGE_CURVE ( 'NONE', #818, #806, #1151, .T. ) ;
#712 = ORIENTED_EDGE ( 'NONE', *, *, #673, .T. ) ;
#713 = DIRECTION ( 'NONE',  ( -0.000000000000000000, 1.000000000000000000, -0.000000000000000000 ) ) ;
#714 = ORIENTED_EDGE ( 'NONE', *, *, #233, .F. ) ;
#715 = CARTESIAN_POINT ( 'NONE',  ( 2.000000000000000444, -11.01999999999999957, 2.030792978499776247 ) ) ;
#716 = VECTOR ( 'NONE', #819, 100.0000000000000000 ) ;
#717 = CARTESIAN_POINT ( 'NONE',  ( 4.316599029623793271, -10.71999999999999886, 0.1800040896525773038 ) ) ;
#718 = PRESENTATION_LAYER_ASSIGNMENT (  '', '', ( #877 ) ) ;
#719 = ORIENTED_EDGE ( 'NONE', *, *, #218, .T. ) ;
#720 = CARTESIAN_POINT ( 'NONE',  ( 3.987625584330185102, -10.71999999999999886, -0.3750000000001901812 ) ) ;
#721 = ORIENTED_EDGE ( 'NONE', *, *, #993, .F. ) ;
#722 = AXIS2_PLACEMENT_3D ( 'NONE', #296, #963, #219 ) ;
#723 = ADVANCED_FACE ( 'NONE', ( #1081 ), #319, .F. ) ;
#724 = ORIENTED_EDGE ( 'NONE', *, *, #1208, .T. ) ;
#725 = DIRECTION ( 'NONE',  ( 1.000000000000000000, 0.000000000000000000, 6.938893903907227392E-16 ) ) ;
#726 = CARTESIAN_POINT ( 'NONE',  ( -4.316599029623792383, -11.01999999999999957, -0.1800040896525771372 ) ) ;
#727 = VERTEX_POINT ( 'NONE', #495 ) ;
#728 = ORIENTED_EDGE ( 'NONE', *, *, #1179, .T. ) ;
#729 = DIRECTION ( 'NONE',  ( 0.000000000000000000, 0.000000000000000000, -1.000000000000000000 ) ) ;
#730 = ADVANCED_FACE ( 'NONE', ( #498 ), #123, .T. ) ;
#731 = ORIENTED_EDGE ( 'NONE', *, *, #748, .T. ) ;
#732 = ADVANCED_FACE ( 'NONE', ( #1078 ), #225, .F. ) ;
#733 = CARTESIAN_POINT ( 'NONE',  ( 3.987625584330185102, -10.01999999999999957, 1.323631276804987452E-15 ) ) ;
#734 = AXIS2_PLACEMENT_3D ( 'NONE', #610, #1190, #77 ) ;
#735 = ORIENTED_EDGE ( 'NONE', *, *, #54, .F. ) ;
#736 = DIRECTION ( 'NONE',  ( 0.000000000000000000, -1.000000000000000000, 0.000000000000000000 ) ) ;
#737 = VECTOR ( 'NONE', #1021, 100.0000000000000000 ) ;
#738 = VECTOR ( 'NONE', #457, 100.0000000000000000 ) ;
#739 = ORIENTED_EDGE ( 'NONE', *, *, #276, .F. ) ;
#740 = DIRECTION ( 'NONE',  ( 0.000000000000000000, 0.000000000000000000, 1.000000000000000000 ) ) ;
#741 = ADVANCED_FACE ( 'NONE', ( #414, #795, #599, #514, #44, #422, #116, #690 ), #699, .T. ) ;
#742 = CARTESIAN_POINT ( 'NONE',  ( 3.297512356776354014, -10.71999999999999886, -0.4800109057402086599 ) ) ;
#743 = CIRCLE ( 'NONE', #1232, 0.3750000000000006106 ) ;
#744 = ORIENTED_EDGE ( 'NONE', *, *, #233, .T. ) ;
#745 = CARTESIAN_POINT ( 'NONE',  ( 2.000000000000000444, -11.01999999999999957, 1.780792978499776247 ) ) ;
#746 = VECTOR ( 'NONE', #868, 100.0000000000000000 ) ;
#747 = CARTESIAN_POINT ( 'NONE',  ( -3.987625584330182882, -11.01999999999999957, 0.000000000000000000 ) ) ;
#748 = EDGE_CURVE ( 'NONE', #269, #676, #221, .T. ) ;
#749 = CARTESIAN_POINT ( 'NONE',  ( -3.397808346031539806, -10.71999999999999886, -1.859175586635767097 ) ) ;
#750 = VERTEX_POINT ( 'NONE', #589 ) ;
#751 = CARTESIAN_POINT ( 'NONE',  ( 3.987625584330185102, -10.01999999999999957, 1.323631276804987452E-15 ) ) ;
#752 = DIRECTION ( 'NONE',  ( 0.000000000000000000, -1.000000000000000000, 0.000000000000000000 ) ) ;
#753 = DIRECTION ( 'NONE',  ( 0.000000000000000000, 1.000000000000000000, 0.000000000000000000 ) ) ;
#754 = CARTESIAN_POINT ( 'NONE',  ( -3.987625584330182882, -11.01999999999999957, -0.1750000000000003497 ) ) ;
#755 = EDGE_CURVE ( 'NONE', #1198, #635, #880, .T. ) ;
#756 = CIRCLE ( 'NONE', #837, 0.1250000000000001110 ) ;
#757 = CARTESIAN_POINT ( 'NONE',  ( -2.499999999999999556, -10.71999999999999886, 1.937535499649831294 ) ) ;
#758 = CARTESIAN_POINT ( 'NONE',  ( 2.000000000000000444, -10.71999999999999886, 2.030792978499776247 ) ) ;
#759 = AXIS2_PLACEMENT_3D ( 'NONE', #669, #1056, #568 ) ;
#760 = VERTEX_POINT ( 'NONE', #1169 ) ;
#761 = EDGE_CURVE ( 'NONE', #56, #373, #1094, .T. ) ;
#762 = AXIS2_PLACEMENT_3D ( 'NONE', #120, #491, #866 ) ;
#763 = DIRECTION ( 'NONE',  ( 0.000000000000000000, 0.000000000000000000, -1.000000000000000000 ) ) ;
#764 = CYLINDRICAL_SURFACE ( 'NONE', #681, 0.1750000000001913358 ) ;
#765 = ORIENTED_EDGE ( 'NONE', *, *, #152, .T. ) ;
#766 = DIRECTION ( 'NONE',  ( -0.4800109057402048296, 0.000000000000000000, 0.8772625207829571892 ) ) ;
#767 = DIRECTION ( 'NONE',  ( 0.000000000000000000, -1.000000000000000000, 0.000000000000000000 ) ) ;
#768 = CARTESIAN_POINT ( 'NONE',  ( 2.000000000000001776, -11.01999999999999957, -1.905792978499774915 ) ) ;
#769 = LINE ( 'NONE', #1167, #387 ) ;
#770 = CIRCLE ( 'NONE', #872, 0.1750000000001913358 ) ;
#771 =( LENGTH_UNIT ( ) NAMED_UNIT ( * ) SI_UNIT ( .CENTI., .METRE. ) );
#772 = CARTESIAN_POINT ( 'NONE',  ( -2.499999999999999556, -10.71999999999999886, -1.937535499649829740 ) ) ;
#773 = EDGE_CURVE ( 'NONE', #436, #1164, #21, .T. ) ;
#774 = VERTEX_POINT ( 'NONE', #894 ) ;
#775 = AXIS2_PLACEMENT_3D ( 'NONE', #992, #688, #985 ) ;
#776 = DIRECTION ( 'NONE',  ( 0.000000000000000000, -1.000000000000000000, 0.000000000000000000 ) ) ;
#777 = CARTESIAN_POINT ( 'NONE',  ( 2.000000000000000444, -11.01999999999999957, 2.030792978499776247 ) ) ;
#778 = AXIS2_PLACEMENT_3D ( 'NONE', #188, #381, #100 ) ;
#779 = CARTESIAN_POINT ( 'NONE',  ( 4.857225732735059864E-16, -10.71999999999999886, -3.500000000000000444 ) ) ;
#780 = EDGE_CURVE ( 'NONE', #439, #272, #369, .T. ) ;
#781 = CARTESIAN_POINT ( 'NONE',  ( -3.987625584330182882, -10.01999999999999957, -0.1750000000000003497 ) ) ;
#782 = CARTESIAN_POINT ( 'NONE',  ( -3.469446951953614189E-16, -10.71999999999999886, 6.938893903907228378E-16 ) ) ;
#783 = SHAPE_DEFINITION_REPRESENTATION ( #950, #1157 ) ;
#784 = EDGE_CURVE ( 'NONE', #182, #676, #226, .T. ) ;
#785 = CIRCLE ( 'NONE', #407, 0.3750000000001915690 ) ;
#786 = CARTESIAN_POINT ( 'NONE',  ( 0.000000000000000000, -10.71999999999999886, 3.500000000000000444 ) ) ;
#787 = CIRCLE ( 'NONE', #305, 0.3750000000000006106 ) ;
#788 = CARTESIAN_POINT ( 'NONE',  ( -3.987625584330182882, -11.01999999999999957, 0.3750000000000006106 ) ) ;
#789 = VECTOR ( 'NONE', #832, 100.0000000000000000 ) ;
#790 = EDGE_LOOP ( 'NONE', ( #161, #581, #1009, #68 ) ) ;
#791 = DIRECTION ( 'NONE',  ( 0.000000000000000000, 0.000000000000000000, -1.000000000000000000 ) ) ;
#792 = EDGE_CURVE ( 'NONE', #321, #923, #665, .T. ) ;
#793 = FACE_OUTER_BOUND ( 'NONE', #51, .T. ) ;
#794 = ORIENTED_EDGE ( 'NONE', *, *, #1155, .F. ) ;
#795 = FACE_BOUND ( 'NONE', #621, .T. ) ;
#796 = ORIENTED_EDGE ( 'NONE', *, *, #1069, .F. ) ;
#797 = LINE ( 'NONE', #258, #396 ) ;
#798 = ORIENTED_EDGE ( 'NONE', *, *, #667, .T. ) ;
#799 = DIRECTION ( 'NONE',  ( 0.000000000000000000, -1.000000000000000000, 0.000000000000000000 ) ) ;
#800 = LINE ( 'NONE', #399, #67 ) ;
#801 = ORIENTED_EDGE ( 'NONE', *, *, #170, .F. ) ;
#802 = DIRECTION ( 'NONE',  ( 0.000000000000000000, -1.000000000000000000, 0.000000000000000000 ) ) ;
#803 = ADVANCED_FACE ( 'NONE', ( #981 ), #1178, .T. ) ;
#804 = DIRECTION ( 'NONE',  ( -0.000000000000000000, 1.000000000000000000, -0.000000000000000000 ) ) ;
#805 = EDGE_CURVE ( 'NONE', #991, #168, #28, .T. ) ;
#806 = VERTEX_POINT ( 'NONE', #1087 ) ;
#807 = EDGE_LOOP ( 'NONE', ( #898, #954, #415, #590 ) ) ;
#808 = ORIENTED_EDGE ( 'NONE', *, *, #1176, .F. ) ;
#809 = DIRECTION ( 'NONE',  ( 0.000000000000000000, -1.000000000000000000, 0.000000000000000000 ) ) ;
#810 = DIRECTION ( 'NONE',  ( 0.000000000000000000, 0.000000000000000000, -1.000000000000000000 ) ) ;
#811 = ORIENTED_EDGE ( 'NONE', *, *, #291, .T. ) ;
#812 = DIRECTION ( 'NONE',  ( 0.000000000000000000, 0.000000000000000000, 1.000000000000000000 ) ) ;
#813 = CARTESIAN_POINT ( 'NONE',  ( -3.987625584330182882, -10.71999999999999886, 0.3750000000000006106 ) ) ;
#814 = AXIS2_PLACEMENT_3D ( 'NONE', #50, #133, #160 ) ;
#815 = EDGE_CURVE ( 'NONE', #851, #56, #1174, .T. ) ;
#816 = ORIENTED_EDGE ( 'NONE', *, *, #130, .T. ) ;
#817 = LINE ( 'NONE', #905, #737 ) ;
#818 = VERTEX_POINT ( 'NONE', #715 ) ;
#819 = DIRECTION ( 'NONE',  ( -0.4800109057402049961, 0.000000000000000000, -0.8772625207829569671 ) ) ;
#820 = DIRECTION ( 'NONE',  ( 0.000000000000000000, -1.000000000000000000, 0.000000000000000000 ) ) ;
#821 = VECTOR ( 'NONE', #1080, 100.0000000000000000 ) ;
#822 = ORIENTED_EDGE ( 'NONE', *, *, #993, .T. ) ;
#823 = CARTESIAN_POINT ( 'NONE',  ( 3.987625584330185102, -10.71999999999999886, 1.323631276804987452E-15 ) ) ;
#824 = ORIENTED_EDGE ( 'NONE', *, *, #421, .F. ) ;
#825 = CIRCLE ( 'NONE', #602, 0.3750000000000006106 ) ;
#826 = VERTEX_POINT ( 'NONE', #429 ) ;
#827 = CARTESIAN_POINT ( 'NONE',  ( 2.500000000000000000, -10.71999999999999886, 3.500000000000000444 ) ) ;
#828 = ORIENTED_EDGE ( 'NONE', *, *, #887, .T. ) ;
#829 = ORIENTED_EDGE ( 'NONE', *, *, #1027, .T. ) ;
#830 = EDGE_CURVE ( 'NONE', #930, #428, #1170, .T. ) ;
#831 = ORIENTED_EDGE ( 'NONE', *, *, #372, .F. ) ;
#832 = DIRECTION ( 'NONE',  ( -0.000000000000000000, 1.000000000000000000, -0.000000000000000000 ) ) ;
#833 = VECTOR ( 'NONE', #451, 100.0000000000000000 ) ;
#834 = CARTESIAN_POINT ( 'NONE',  ( 2.000000000000001776, -10.71999999999999886, -2.030792978499774915 ) ) ;
#835 = ORIENTED_EDGE ( 'NONE', *, *, #320, .T. ) ;
#836 = LINE ( 'NONE', #659, #31 ) ;
#837 = AXIS2_PLACEMENT_3D ( 'NONE', #385, #206, #763 ) ;
#838 = EDGE_CURVE ( 'NONE', #377, #1142, #1193, .T. ) ;
#839 = VECTOR ( 'NONE', #656, 100.0000000000000000 ) ;
#840 = FACE_OUTER_BOUND ( 'NONE', #449, .T. ) ;
#841 = LINE ( 'NONE', #132, #562 ) ;
#842 = VECTOR ( 'NONE', #802, 100.0000000000000000 ) ;
#843 = EDGE_LOOP ( 'NONE', ( #346, #721, #446, #104 ) ) ;
#844 = EDGE_LOOP ( 'NONE', ( #578, #886 ) ) ;
#845 = FACE_BOUND ( 'NONE', #1187, .T. ) ;
#846 = VECTOR ( 'NONE', #294, 100.0000000000000000 ) ;
#847 = PLANE ( 'NONE',  #142 ) ;
#848 = CARTESIAN_POINT ( 'NONE',  ( -1.999999999999999112, -10.71999999999999886, -1.905792978499777579 ) ) ;
#849 = EDGE_CURVE ( 'NONE', #272, #439, #124, .T. ) ;
#850 = ORIENTED_EDGE ( 'NONE', *, *, #637, .T. ) ;
#851 = VERTEX_POINT ( 'NONE', #706 ) ;
#852 = DIRECTION ( 'NONE',  ( 0.000000000000000000, -1.000000000000000000, 0.000000000000000000 ) ) ;
#853 = CARTESIAN_POINT ( 'NONE',  ( -3.987625584330182882, -10.01999999999999957, 0.000000000000000000 ) ) ;
#854 = CARTESIAN_POINT ( 'NONE',  ( -3.987625584330182882, -10.01999999999999957, 0.1750000000000003497 ) ) ;
#855 = DIRECTION ( 'NONE',  ( -0.000000000000000000, 1.000000000000000000, -0.000000000000000000 ) ) ;
#856 = ADVANCED_FACE ( 'NONE', ( #334 ), #255, .T. ) ;
#857 = ORIENTED_EDGE ( 'NONE', *, *, #137, .F. ) ;
#858 = DIRECTION ( 'NONE',  ( -0.4800109057402048296, 0.000000000000000000, -0.8772625207829571892 ) ) ;
#859 = CARTESIAN_POINT ( 'NONE',  ( 2.000000000000000444, -11.01999999999999957, 1.905792978499776247 ) ) ;
#860 = PRODUCT_RELATED_PRODUCT_CATEGORY ( 'part', '', ( #938 ) ) ;
#861 = VERTEX_POINT ( 'NONE', #1018 ) ;
#862 = LINE ( 'NONE', #574, #821 ) ;
#863 = DIRECTION ( 'NONE',  ( 0.000000000000000000, -0.000000000000000000, -1.000000000000000000 ) ) ;
#864 = DIRECTION ( 'NONE',  ( 0.000000000000000000, 0.000000000000000000, -1.000000000000000000 ) ) ;
#865 = ADVANCED_FACE ( 'NONE', ( #246 ), #911, .F. ) ;
#866 = DIRECTION ( 'NONE',  ( 0.000000000000000000, 0.000000000000000000, 1.000000000000000000 ) ) ;
#867 =( NAMED_UNIT ( * ) PLANE_ANGLE_UNIT ( ) SI_UNIT ( $, .RADIAN. ) );
#868 = DIRECTION ( 'NONE',  ( -0.000000000000000000, 1.000000000000000000, -0.000000000000000000 ) ) ;
#869 = APPLICATION_PROTOCOL_DEFINITION ( 'draft international standard', 'automotive_design', 1998, #876 ) ;
#870 = CIRCLE ( 'NONE', #1202, 0.1750000000000003497 ) ;
#871 = FACE_OUTER_BOUND ( 'NONE', #242, .T. ) ;
#872 = AXIS2_PLACEMENT_3D ( 'NONE', #655, #752, #286 ) ;
#873 = EDGE_CURVE ( 'NONE', #33, #363, #155, .T. ) ;
#874 = DIRECTION ( 'NONE',  ( 0.8772625207829571892, 0.000000000000000000, -0.4800109057402048296 ) ) ;
#875 = AXIS2_PLACEMENT_3D ( 'NONE', #145, #902, #401 ) ;
#876 = APPLICATION_CONTEXT ( 'automotive_design' ) ;
#877 = STYLED_ITEM ( 'NONE', ( #891 ), #262 ) ;
#878 = CARTESIAN_POINT ( 'NONE',  ( 3.987625584330185102, -10.01999999999999957, -0.3750000000001903477 ) ) ;
#879 = DIRECTION ( 'NONE',  ( 1.000000000000000000, 0.000000000000000000, -0.000000000000000000 ) ) ;
#880 = LINE ( 'NONE', #488, #292 ) ;
#881 = AXIS2_PLACEMENT_3D ( 'NONE', #314, #977, #27 ) ;
#882 = ADVANCED_FACE ( 'NONE', ( #59 ), #437, .F. ) ;
#883 = AXIS2_PLACEMENT_3D ( 'NONE', #366, #277, #965 ) ;
#884 = CARTESIAN_POINT ( 'NONE',  ( 2.420249835993399046, -10.71999999999999886, 1.951563910473907981E-16 ) ) ;
#885 = DIRECTION ( 'NONE',  ( 0.4800109057402048296, 0.000000000000000000, 0.8772625207829571892 ) ) ;
#886 = ORIENTED_EDGE ( 'NONE', *, *, #448, .F. ) ;
#887 = EDGE_CURVE ( 'NONE', #1164, #1153, #263, .T. ) ;
#888 = ORIENTED_EDGE ( 'NONE', *, *, #496, .T. ) ;
#889 = CARTESIAN_POINT ( 'NONE',  ( -2.420249835993399046, -10.71999999999999886, 1.951563910473907981E-16 ) ) ;
#890 = VECTOR ( 'NONE', #181, 100.0000000000000000 ) ;
#891 = PRESENTATION_STYLE_ASSIGNMENT (( #916 ) ) ;
#892 = ORIENTED_EDGE ( 'NONE', *, *, #500, .T. ) ;
#893 = VECTOR ( 'NONE', #852, 100.0000000000000000 ) ;
#894 = CARTESIAN_POINT ( 'NONE',  ( 2.500000000000000000, -11.01999999999999957, 3.500000000000000444 ) ) ;
#895 = VECTOR ( 'NONE', #200, 100.0000000000000000 ) ;
#896 = EDGE_LOOP ( 'NONE', ( #714, #996 ) ) ;
#897 = CARTESIAN_POINT ( 'NONE',  ( 4.857225732735059864E-16, -11.01999999999999957, -3.500000000000000444 ) ) ;
#898 = ORIENTED_EDGE ( 'NONE', *, *, #591, .T. ) ;
#899 = CARTESIAN_POINT ( 'NONE',  ( 0.000000000000000000, -11.01999999999999957, 3.500000000000000444 ) ) ;
#900 = DIRECTION ( 'NONE',  ( 0.000000000000000000, 1.000000000000000000, -0.000000000000000000 ) ) ;
#901 = ORIENTED_EDGE ( 'NONE', *, *, #971, .T. ) ;
#902 = DIRECTION ( 'NONE',  ( 0.000000000000000000, -1.000000000000000000, 0.000000000000000000 ) ) ;
#903 = CYLINDRICAL_SURFACE ( 'NONE', #38, 0.3750000000001917355 ) ;
#904 = EDGE_LOOP ( 'NONE', ( #1212, #165, #337, #941 ) ) ;
#905 = CARTESIAN_POINT ( 'NONE',  ( -4.316599029623793271, -10.71999999999999886, -0.1800040896525772205 ) ) ;
#906 = VERTEX_POINT ( 'NONE', #827 ) ;
#907 = LINE ( 'NONE', #1199, #833 ) ;
#908 = DIRECTION ( 'NONE',  ( 0.000000000000000000, 0.000000000000000000, 1.000000000000000000 ) ) ;
#909 = ORIENTED_EDGE ( 'NONE', *, *, #454, .T. ) ;
#910 = EDGE_CURVE ( 'NONE', #358, #272, #450, .T. ) ;
#911 = CYLINDRICAL_SURFACE ( 'NONE', #23, 0.1750000000001913358 ) ;
#912 = DIRECTION ( 'NONE',  ( -0.4800109057402049961, 0.000000000000000000, -0.8772625207829569671 ) ) ;
#913 = ORIENTED_EDGE ( 'NONE', *, *, #184, .T. ) ;
#914 = DIRECTION ( 'NONE',  ( -1.000000000000000000, 0.000000000000000000, -1.387778780781445676E-16 ) ) ;
#915 = ORIENTED_EDGE ( 'NONE', *, *, #442, .T. ) ;
#916 = SURFACE_STYLE_USAGE ( .BOTH. , #998 ) ;
#917 = ORIENTED_EDGE ( 'NONE', *, *, #805, .T. ) ;
#918 = DIRECTION ( 'NONE',  ( 0.000000000000000000, 0.000000000000000000, -1.000000000000000000 ) ) ;
#919 = CARTESIAN_POINT ( 'NONE',  ( 2.000000000000000444, -10.71999999999999886, 1.780792978499776247 ) ) ;
#920 = ORIENTED_EDGE ( 'NONE', *, *, #815, .T. ) ;
#921 = AXIS2_PLACEMENT_3D ( 'NONE', #531, #1195, #1128 ) ;
#922 = ORIENTED_EDGE ( 'NONE', *, *, #780, .F. ) ;
#923 = VERTEX_POINT ( 'NONE', #927 ) ;
#924 = ORIENTED_EDGE ( 'NONE', *, *, #476, .F. ) ;
#925 = PRODUCT_DEFINITION_CONTEXT ( 'detailed design', #876, 'design' ) ;
#926 = AXIS2_PLACEMENT_3D ( 'NONE', #779, #34, #327 ) ;
#927 = CARTESIAN_POINT ( 'NONE',  ( 3.987625584330185102, -10.01999999999999957, 0.3750000000001930678 ) ) ;
#928 = VECTOR ( 'NONE', #678, 100.0000000000000000 ) ;
#929 = VERTEX_POINT ( 'NONE', #438 ) ;
#930 = VERTEX_POINT ( 'NONE', #624 ) ;
#931 = EDGE_CURVE ( 'NONE', #929, #350, #345, .T. ) ;
#932 = EDGE_LOOP ( 'NONE', ( #1108, #1074 ) ) ;
#933 = LINE ( 'NONE', #919, #1008 ) ;
#934 = DIRECTION ( 'NONE',  ( -0.000000000000000000, 1.000000000000000000, -0.000000000000000000 ) ) ;
#935 = ORIENTED_EDGE ( 'NONE', *, *, #152, .F. ) ;
#936 = CARTESIAN_POINT ( 'NONE',  ( -3.163285252166775825E-16, -11.01999999999999957, -0.2499999999999993061 ) ) ;
#937 = EDGE_CURVE ( 'NONE', #1141, #727, #544, .T. ) ;
#938 = PRODUCT ( 'Part14', 'Part14', '', ( #988 ) ) ;
#939 = LINE ( 'NONE', #297, #1047 ) ;
#940 = LINE ( 'NONE', #331, #572 ) ;
#941 = ORIENTED_EDGE ( 'NONE', *, *, #336, .T. ) ;
#942 = CARTESIAN_POINT ( 'NONE',  ( 2.420249835993399046, -11.01999999999999957, 1.951563910473907981E-16 ) ) ;
#943 = VECTOR ( 'NONE', #914, 100.0000000000000000 ) ;
#944 = ADVANCED_FACE ( 'NONE', ( #264 ), #903, .T. ) ;
#945 = LINE ( 'NONE', #1055, #1228 ) ;
#946 = DIRECTION ( 'NONE',  ( -0.000000000000000000, 0.000000000000000000, -1.000000000000000000 ) ) ;
#947 = VECTOR ( 'NONE', #239, 100.0000000000000000 ) ;
#948 = EDGE_LOOP ( 'NONE', ( #420, #995, #228, #36 ) ) ;
#949 = CARTESIAN_POINT ( 'NONE',  ( -1.999999999999999112, -11.01999999999999957, -1.780792978499777579 ) ) ;
#950 = PRODUCT_DEFINITION_SHAPE ( 'NONE', 'NONE',  #548 ) ;
#951 = CARTESIAN_POINT ( 'NONE',  ( -3.397808346031539806, -11.01999999999999957, 1.859175586635767541 ) ) ;
#952 = EDGE_CURVE ( 'NONE', #727, #139, #61, .T. ) ;
#953 = DIRECTION ( 'NONE',  ( 0.4800109057402049406, 0.000000000000000000, 0.8772625207829570781 ) ) ;
#954 = ORIENTED_EDGE ( 'NONE', *, *, #291, .F. ) ;
#955 = CARTESIAN_POINT ( 'NONE',  ( -3.987625584330182882, -10.71999999999999886, -0.3750000000000006106 ) ) ;
#956 = ORIENTED_EDGE ( 'NONE', *, *, #179, .F. ) ;
#957 = CARTESIAN_POINT ( 'NONE',  ( 2.000000000000001776, -11.01999999999999957, -2.030792978499774915 ) ) ;
#958 = DIRECTION ( 'NONE',  ( 0.000000000000000000, 1.000000000000000000, -0.000000000000000000 ) ) ;
#959 = ORIENTED_EDGE ( 'NONE', *, *, #85, .F. ) ;
#960 = VECTOR ( 'NONE', #461, 100.0000000000000000 ) ;
#961 = ORIENTED_EDGE ( 'NONE', *, *, #85, .T. ) ;
#962 = AXIS2_PLACEMENT_3D ( 'NONE', #275, #649, #707 ) ;
#963 = DIRECTION ( 'NONE',  ( -0.000000000000000000, 1.000000000000000000, -0.000000000000000000 ) ) ;
#964 = DIRECTION ( 'NONE',  ( 0.000000000000000000, -1.000000000000000000, 0.000000000000000000 ) ) ;
#965 = DIRECTION ( 'NONE',  ( 0.000000000000000000, 0.000000000000000000, 1.000000000000000000 ) ) ;
#966 = EDGE_CURVE ( 'NONE', #509, #989, #933, .T. ) ;
#967 = ORIENTED_EDGE ( 'NONE', *, *, #830, .T. ) ;
#968 = CARTESIAN_POINT ( 'NONE',  ( 4.316599029623792383, -10.71999999999999886, -0.1800040896525773038 ) ) ;
#969 = CARTESIAN_POINT ( 'NONE',  ( 3.987625584330185102, -10.71999999999999886, 0.3750000000001929013 ) ) ;
#970 = CARTESIAN_POINT ( 'NONE',  ( -3.397808346031539806, -11.01999999999999957, -1.859175586635767097 ) ) ;
#971 = EDGE_CURVE ( 'NONE', #1201, #923, #156, .T. ) ;
#972 = CARTESIAN_POINT ( 'NONE',  ( -3.987625584330182882, -10.01999999999999957, 0.000000000000000000 ) ) ;
#973 = CYLINDRICAL_SURFACE ( 'NONE', #456, 0.3750000000001917355 ) ;
#974 = CARTESIAN_POINT ( 'NONE',  ( -2.499999999999999556, -10.71999999999999886, 0.000000000000000000 ) ) ;
#975 = ORIENTED_EDGE ( 'NONE', *, *, #748, .F. ) ;
#976 = AXIS2_PLACEMENT_3D ( 'NONE', #1143, #647, #547 ) ;
#977 = DIRECTION ( 'NONE',  ( 0.000000000000000000, 1.000000000000000000, 0.000000000000000000 ) ) ;
#978 = CIRCLE ( 'NONE', #1103, 0.1750000000001913358 ) ;
#979 = DIRECTION ( 'NONE',  ( 0.000000000000000000, 0.000000000000000000, 1.000000000000000000 ) ) ;
#980 = EDGE_CURVE ( 'NONE', #157, #991, #743, .T. ) ;
#981 = FACE_OUTER_BOUND ( 'NONE', #1003, .T. ) ;
#982 = VECTOR ( 'NONE', #912, 100.0000000000000000 ) ;
#983 = AXIS2_PLACEMENT_3D ( 'NONE', #1099, #412, #325 ) ;
#984 = CARTESIAN_POINT ( 'NONE',  ( 4.316599029623962025, -11.01999999999999957, 0.1800040896526700351 ) ) ;
#985 = DIRECTION ( 'NONE',  ( 0.000000000000000000, -0.000000000000000000, -1.000000000000000000 ) ) ;
#986 = VECTOR ( 'NONE', #458, 100.0000000000000000 ) ;
#987 = EDGE_CURVE ( 'NONE', #89, #299, #311, .T. ) ;
#988 = PRODUCT_CONTEXT ( 'NONE', #190, 'mechanical' ) ;
#989 = VERTEX_POINT ( 'NONE', #169 ) ;
#990 = CARTESIAN_POINT ( 'NONE',  ( -3.163285252166775825E-16, -10.71999999999999886, -0.2499999999999993061 ) ) ;
#991 = VERTEX_POINT ( 'NONE', #813 ) ;
#992 = CARTESIAN_POINT ( 'NONE',  ( -3.987625584330182882, -11.01999999999999957, 0.000000000000000000 ) ) ;
#993 = EDGE_CURVE ( 'NONE', #727, #363, #445, .T. ) ;
#994 = VERTEX_POINT ( 'NONE', #1205 ) ;
#995 = ORIENTED_EDGE ( 'NONE', *, *, #1234, .T. ) ;
#996 = ORIENTED_EDGE ( 'NONE', *, *, #792, .F. ) ;
#997 = CARTESIAN_POINT ( 'NONE',  ( 2.000000000000001776, -11.01999999999999957, -2.030792978499774915 ) ) ;
#998 = SURFACE_SIDE_STYLE ('',( #1200 ) ) ;
#999 = VERTEX_POINT ( 'NONE', #175 ) ;
#1000 = VECTOR ( 'NONE', #617, 100.0000000000000000 ) ;
#1001 = DIRECTION ( 'NONE',  ( 0.000000000000000000, 0.000000000000000000, 1.000000000000000000 ) ) ;
#1002 = CIRCLE ( 'NONE', #209, 0.1750000000001913358 ) ;
#1003 = EDGE_LOOP ( 'NONE', ( #46, #636, #920, #339 ) ) ;
#1004 = LINE ( 'NONE', #754, #642 ) ;
#1005 = EDGE_LOOP ( 'NONE', ( #892, #570, #102, #251, #1024, #765, #816, #254, #627, #355, #924, #712 ) ) ;
#1006 = DIRECTION ( 'NONE',  ( -1.000000000000000000, 0.000000000000000000, -6.938893903907227392E-16 ) ) ;
#1007 = EDGE_CURVE ( 'NONE', #614, #994, #978, .T. ) ;
#1008 = VECTOR ( 'NONE', #1011, 100.0000000000000000 ) ;
#1009 = ORIENTED_EDGE ( 'NONE', *, *, #773, .F. ) ;
#1010 = CARTESIAN_POINT ( 'NONE',  ( 3.987625584330185102, -11.01999999999999957, 1.323631276804987452E-15 ) ) ;
#1011 = DIRECTION ( 'NONE',  ( -1.000000000000000000, 0.000000000000000000, 0.000000000000000000 ) ) ;
#1012 = VERTEX_POINT ( 'NONE', #726 ) ;
#1013 = LINE ( 'NONE', #897, #943 ) ;
#1014 = ORIENTED_EDGE ( 'NONE', *, *, #838, .F. ) ;
#1015 = EDGE_CURVE ( 'NONE', #750, #994, #1122, .T. ) ;
#1016 = FACE_OUTER_BOUND ( 'NONE', #807, .T. ) ;
#1017 = ORIENTED_EDGE ( 'NONE', *, *, #931, .F. ) ;
#1018 = CARTESIAN_POINT ( 'NONE',  ( 2.500000000000000000, -11.01999999999999957, -3.500000000000000444 ) ) ;
#1019 = FACE_OUTER_BOUND ( 'NONE', #539, .T. ) ;
#1020 = ORIENTED_EDGE ( 'NONE', *, *, #755, .F. ) ;
#1021 = DIRECTION ( 'NONE',  ( 0.000000000000000000, -1.000000000000000000, 0.000000000000000000 ) ) ;
#1022 = ORIENTED_EDGE ( 'NONE', *, *, #1106, .F. ) ;
#1023 = AXIS2_PLACEMENT_3D ( 'NONE', #749, #340, #1140 ) ;
#1024 = ORIENTED_EDGE ( 'NONE', *, *, #755, .T. ) ;
#1025 = DIRECTION ( 'NONE',  ( -6.938893903907227392E-16, 0.000000000000000000, 1.000000000000000000 ) ) ;
#1026 = PLANE ( 'NONE',  #575 ) ;
#1027 = EDGE_CURVE ( 'NONE', #168, #282, #222, .T. ) ;
#1028 = EDGE_LOOP ( 'NONE', ( #3, #1093, #57, #822 ) ) ;
#1029 = FACE_OUTER_BOUND ( 'NONE', #648, .T. ) ;
#1030 = ORIENTED_EDGE ( 'NONE', *, *, #849, .T. ) ;
#1031 = DIRECTION ( 'NONE',  ( 0.000000000000000000, 0.000000000000000000, -1.000000000000000000 ) ) ;
#1032 = ADVANCED_FACE ( 'NONE', ( #1019 ), #1026, .F. ) ;
#1033 = DIRECTION ( 'NONE',  ( 0.000000000000000000, 0.000000000000000000, -1.000000000000000000 ) ) ;
#1034 = ORIENTED_EDGE ( 'NONE', *, *, #792, .T. ) ;
#1035 = DIRECTION ( 'NONE',  ( -0.4800109057402047186, 0.000000000000000000, 0.8772625207829571892 ) ) ;
#1036 = ORIENTED_EDGE ( 'NONE', *, *, #41, .F. ) ;
#1037 = DIRECTION ( 'NONE',  ( -0.000000000000000000, 1.000000000000000000, -0.000000000000000000 ) ) ;
#1038 = CARTESIAN_POINT ( 'NONE',  ( 3.987625584330185102, -10.71999999999999886, 1.323631276804987452E-15 ) ) ;
#1039 = VERTEX_POINT ( 'NONE', #515 ) ;
#1040 = ORIENTED_EDGE ( 'NONE', *, *, #442, .F. ) ;
#1041 = FACE_OUTER_BOUND ( 'NONE', #1005, .T. ) ;
#1042 = EDGE_CURVE ( 'NONE', #861, #1222, #644, .T. ) ;
#1043 = CARTESIAN_POINT ( 'NONE',  ( 3.297512356776354014, -10.71999999999999886, -0.4800109057402086599 ) ) ;
#1044 = CARTESIAN_POINT ( 'NONE',  ( -2.500000000000000000, -10.71999999999999886, -3.500000000000000888 ) ) ;
#1045 = EDGE_LOOP ( 'NONE', ( #83, #557 ) ) ;
#1046 = CARTESIAN_POINT ( 'NONE',  ( -2.499999999999999556, -11.01999999999999957, 0.000000000000000000 ) ) ;
#1047 = VECTOR ( 'NONE', #293, 100.0000000000000000 ) ;
#1048 = EDGE_CURVE ( 'NONE', #1064, #136, #1166, .T. ) ;
#1049 = LINE ( 'NONE', #563, #187 ) ;
#1050 = CARTESIAN_POINT ( 'NONE',  ( 2.500000000000000000, -10.71999999999999886, -3.500000000000000444 ) ) ;
#1051 = VECTOR ( 'NONE', #804, 100.0000000000000000 ) ;
#1052 = ORIENTED_EDGE ( 'NONE', *, *, #22, .F. ) ;
#1053 = LINE ( 'NONE', #1237, #341 ) ;
#1054 = ADVANCED_FACE ( 'NONE', ( #247 ), #270, .F. ) ;
#1055 = CARTESIAN_POINT ( 'NONE',  ( 2.000000000000000444, -11.01999999999999957, 1.780792978499776247 ) ) ;
#1056 = DIRECTION ( 'NONE',  ( -0.000000000000000000, 1.000000000000000000, -0.000000000000000000 ) ) ;
#1057 = EDGE_LOOP ( 'NONE', ( #959, #360, #71, #459, #1090, #609, #917, #829 ) ) ;
#1058 = CARTESIAN_POINT ( 'NONE',  ( -2.420249835993399046, -10.71999999999999886, 1.951563910473907981E-16 ) ) ;
#1059 = CARTESIAN_POINT ( 'NONE',  ( 3.397808346031538917, -10.71999999999999886, -1.859175586635767097 ) ) ;
#1060 = DIRECTION ( 'NONE',  ( 0.000000000000000000, -1.000000000000000000, 0.000000000000000000 ) ) ;
#1061 = EDGE_CURVE ( 'NONE', #999, #373, #370, .T. ) ;
#1062 = AXIS2_PLACEMENT_3D ( 'NONE', #889, #799, #30 ) ;
#1063 = CLOSED_SHELL ( 'NONE', ( #317, #865, #944, #1054, #357, #856, #741, #1144, #224, #74, #660, #684, #1162, #723, #464, #803, #402, #405, #1032, #732, #532, #730, #364, #201, #122, #1239, #693, #561, #1075, #1194, #193, #72, #700, #882, #252, #538 ) ) ;
#1064 = VERTEX_POINT ( 'NONE', #303 ) ;
#1065 = VECTOR ( 'NONE', #315, 100.0000000000000000 ) ;
#1066 = DIRECTION ( 'NONE',  ( 0.000000000000000000, 0.000000000000000000, 1.000000000000000000 ) ) ;
#1067 = DIRECTION ( 'NONE',  ( 0.4800109057402048851, 0.000000000000000000, -0.8772625207829571892 ) ) ;
#1068 = ORIENTED_EDGE ( 'NONE', *, *, #654, .T. ) ;
#1069 = EDGE_CURVE ( 'NONE', #299, #1222, #1139, .T. ) ;
#1070 = AXIS2_PLACEMENT_3D ( 'NONE', #1121, #523, #1102 ) ;
#1071 = CARTESIAN_POINT ( 'NONE',  ( 2.499999999999999556, -11.01999999999999957, 0.000000000000000000 ) ) ;
#1072 = CARTESIAN_POINT ( 'NONE',  ( 3.987625584330185102, -11.01999999999999957, 1.323631276804987452E-15 ) ) ;
#1073 = DIRECTION ( 'NONE',  ( 0.000000000000000000, 0.000000000000000000, 1.000000000000000000 ) ) ;
#1074 = ORIENTED_EDGE ( 'NONE', *, *, #421, .T. ) ;
#1075 = ADVANCED_FACE ( 'NONE', ( #840 ), #180, .F. ) ;
#1076 = CYLINDRICAL_SURFACE ( 'NONE', #722, 0.3750000000000006106 ) ;
#1077 = CARTESIAN_POINT ( 'NONE',  ( -2.739861455444319471, -11.01999999999999957, -1.499167407330613377 ) ) ;
#1078 = FACE_OUTER_BOUND ( 'NONE', #790, .T. ) ;
#1079 = EDGE_CURVE ( 'NONE', #806, #930, #945, .T. ) ;
#1080 = DIRECTION ( 'NONE',  ( -0.000000000000000000, 1.000000000000000000, -0.000000000000000000 ) ) ;
#1081 = FACE_OUTER_BOUND ( 'NONE', #235, .T. ) ;
#1082 = APPLICATION_PROTOCOL_DEFINITION ( 'draft international standard', 'automotive_design', 1998, #190 ) ;
#1083 = AXIS2_PLACEMENT_3D ( 'NONE', #1180, #128, #885 ) ;
#1084 = CARTESIAN_POINT ( 'NONE',  ( -3.297512356776354014, -10.71999999999999886, -0.4800109057402086599 ) ) ;
#1085 = EDGE_CURVE ( 'NONE', #818, #670, #280, .T. ) ;
#1086 = ORIENTED_EDGE ( 'NONE', *, *, #162, .F. ) ;
#1087 = CARTESIAN_POINT ( 'NONE',  ( 2.000000000000000444, -11.01999999999999957, 1.780792978499776247 ) ) ;
#1088 = AXIS2_PLACEMENT_3D ( 'NONE', #1058, #115, #106 ) ;
#1089 = VERTEX_POINT ( 'NONE', #468 ) ;
#1090 = ORIENTED_EDGE ( 'NONE', *, *, #761, .F. ) ;
#1091 = DIRECTION ( 'NONE',  ( -1.734723475976807094E-15, 0.000000000000000000, -1.000000000000000000 ) ) ;
#1092 = CARTESIAN_POINT ( 'NONE',  ( -3.469446951953614189E-16, -10.71999999999999886, 0.2500000000000007216 ) ) ;
#1093 = ORIENTED_EDGE ( 'NONE', *, *, #430, .F. ) ;
#1094 = LINE ( 'NONE', #505, #250 ) ;
#1095 = ORIENTED_EDGE ( 'NONE', *, *, #22, .T. ) ;
#1096 = LINE ( 'NONE', #241, #1000 ) ;
#1097 = ORIENTED_EDGE ( 'NONE', *, *, #586, .F. ) ;
#1098 = LINE ( 'NONE', #742, #986 ) ;
#1099 = CARTESIAN_POINT ( 'NONE',  ( -1.999999999999999112, -11.01999999999999957, -1.905792978499777579 ) ) ;
#1100 = ORIENTED_EDGE ( 'NONE', *, *, #971, .F. ) ;
#1101 = CIRCLE ( 'NONE', #186, 0.1750000000000003497 ) ;
#1102 = DIRECTION ( 'NONE',  ( 0.000000000000000000, 0.000000000000000000, 1.000000000000000000 ) ) ;
#1103 = AXIS2_PLACEMENT_3D ( 'NONE', #733, #354, #740 ) ;
#1104 = DIRECTION ( 'NONE',  ( 0.000000000000000000, -1.000000000000000000, 0.000000000000000000 ) ) ;
#1105 = ORIENTED_EDGE ( 'NONE', *, *, #838, .T. ) ;
#1106 = EDGE_CURVE ( 'NONE', #826, #503, #576, .T. ) ;
#1107 = LINE ( 'NONE', #267, #1129 ) ;
#1108 = ORIENTED_EDGE ( 'NONE', *, *, #372, .T. ) ;
#1109 = FACE_OUTER_BOUND ( 'NONE', #1111, .T. ) ;
#1110 = AXIS2_PLACEMENT_3D ( 'NONE', #344, #1112, #812 ) ;
#1111 = EDGE_LOOP ( 'NONE', ( #1217, #831, #630, #1030 ) ) ;
#1112 = DIRECTION ( 'NONE',  ( 0.000000000000000000, 1.000000000000000000, 0.000000000000000000 ) ) ;
#1113 = DIRECTION ( 'NONE',  ( 0.000000000000000000, 0.000000000000000000, 1.000000000000000000 ) ) ;
#1114 = AXIS2_PLACEMENT_3D ( 'NONE', #304, #17, #946 ) ;
#1115 = CIRCLE ( 'NONE', #24, 0.2500000000000000000 ) ;
#1116 = ORIENTED_EDGE ( 'NONE', *, *, #596, .T. ) ;
#1117 = CARTESIAN_POINT ( 'NONE',  ( 2.000000000000000444, -11.01999999999999957, 1.780792978499776247 ) ) ;
#1118 = VERTEX_POINT ( 'NONE', #195 ) ;
#1119 = EDGE_CURVE ( 'NONE', #269, #436, #7, .T. ) ;
#1120 = EDGE_LOOP ( 'NONE', ( #75, #443, #1188, #646 ) ) ;
#1121 = CARTESIAN_POINT ( 'NONE',  ( -3.987625584330182882, -11.01999999999999957, 0.000000000000000000 ) ) ;
#1122 = LINE ( 'NONE', #1135, #789 ) ;
#1123 = ORIENTED_EDGE ( 'NONE', *, *, #780, .T. ) ;
#1124 = ORIENTED_EDGE ( 'NONE', *, *, #591, .F. ) ;
#1125 = AXIS2_PLACEMENT_3D ( 'NONE', #271, #713, #1091 ) ;
#1126 = ORIENTED_EDGE ( 'NONE', *, *, #1127, .T. ) ;
#1127 = EDGE_CURVE ( 'NONE', #994, #614, #770, .T. ) ;
#1129 = VECTOR ( 'NONE', #356, 100.0000000000000000 ) ;
#1128 = DIRECTION ( 'NONE',  ( 0.000000000000000000, 0.000000000000000000, 1.000000000000000000 ) ) ;
#1130 = VECTOR ( 'NONE', #375, 99.99999999999998579 ) ;
#1131 = ORIENTED_EDGE ( 'NONE', *, *, #103, .T. ) ;
#1132 = ORIENTED_EDGE ( 'NONE', *, *, #276, .T. ) ;
#1133 = CARTESIAN_POINT ( 'NONE',  ( 2.739861455444319915, -10.71999999999999886, 1.499167407330612711 ) ) ;
#1134 = ORIENTED_EDGE ( 'NONE', *, *, #110, .T. ) ;
#1135 = CARTESIAN_POINT ( 'NONE',  ( 3.987625584330185102, -11.01999999999999957, -0.1750000000001900036 ) ) ;
#1136 = PLANE ( 'NONE',  #1023 ) ;
#1137 = ORIENTED_EDGE ( 'NONE', *, *, #1171, .F. ) ;
#1138 = PLANE ( 'NONE',  #708 ) ;
#1139 = LINE ( 'NONE', #1238, #738 ) ;
#1140 = DIRECTION ( 'NONE',  ( 0.4800109057402047186, 0.000000000000000000, -0.8772625207829571892 ) ) ;
#1141 = VERTEX_POINT ( 'NONE', #1043 ) ;
#1142 = VERTEX_POINT ( 'NONE', #185 ) ;
#1143 = CARTESIAN_POINT ( 'NONE',  ( -2.000000000000000444, -11.01999999999999957, 1.905792978499776247 ) ) ;
#1144 = ADVANCED_FACE ( 'NONE', ( #87, #463 ), #847, .F. ) ;
#1145 = CARTESIAN_POINT ( 'NONE',  ( 2.000000000000000444, -11.01999999999999957, 2.030792978499776247 ) ) ;
#1146 = LINE ( 'NONE', #289, #86 ) ;
#1147 = ORIENTED_EDGE ( 'NONE', *, *, #937, .F. ) ;
#1148 = FACE_OUTER_BOUND ( 'NONE', #896, .T. ) ;
#1149 = CARTESIAN_POINT ( 'NONE',  ( 2.000000000000000444, -11.01999999999999957, 1.905792978499776247 ) ) ;
#1150 = CARTESIAN_POINT ( 'NONE',  ( 2.000000000000001776, -10.71999999999999886, -2.030792978499774915 ) ) ;
#1151 = CIRCLE ( 'NONE', #66, 0.1250000000000001110 ) ;
#1152 = MECHANICAL_DESIGN_GEOMETRIC_PRESENTATION_REPRESENTATION (  '', ( #877 ), #173 ) ;
#1153 = VERTEX_POINT ( 'NONE', #662 ) ;
#1154 = CIRCLE ( 'NONE', #881, 0.2500000000000000000 ) ;
#1155 = EDGE_CURVE ( 'NONE', #906, #774, #1049, .T. ) ;
#1156 = DIRECTION ( 'NONE',  ( 0.4800109057402049961, 0.000000000000000000, -0.8772625207829569671 ) ) ;
#1157 = ADVANCED_BREP_SHAPE_REPRESENTATION ( 'Part14', ( #262, #19 ), #244 ) ;
#1158 = DIRECTION ( 'NONE',  ( 0.000000000000000000, 0.000000000000000000, 1.000000000000000000 ) ) ;
#1159 = EDGE_LOOP ( 'NONE', ( #174, #735, #935, #728 ) ) ;
#1160 = CARTESIAN_POINT ( 'NONE',  ( -3.469446951953614189E-16, -11.01999999999999957, 0.2500000000000007216 ) ) ;
#1161 = FACE_OUTER_BOUND ( 'NONE', #171, .T. ) ;
#1162 = ADVANCED_FACE ( 'NONE', ( #474 ), #13, .T. ) ;
#1163 = FACE_OUTER_BOUND ( 'NONE', #843, .T. ) ;
#1164 = VERTEX_POINT ( 'NONE', #757 ) ;
#1165 = VECTOR ( 'NONE', #702, 100.0000000000000000 ) ;
#1166 = CIRCLE ( 'NONE', #921, 0.1250000000000001110 ) ;
#1167 = CARTESIAN_POINT ( 'NONE',  ( -2.000000000000000444, -11.01999999999999957, 1.780792978499776247 ) ) ;
#1168 = LINE ( 'NONE', #1077, #1065 ) ;
#1169 = CARTESIAN_POINT ( 'NONE',  ( -1.999999999999999112, -10.71999999999999886, -2.030792978499777579 ) ) ;
#1170 = CIRCLE ( 'NONE', #212, 0.1250000000000001110 ) ;
#1171 = EDGE_CURVE ( 'NONE', #989, #1118, #756, .T. ) ;
#1172 = LINE ( 'NONE', #223, #444 ) ;
#1173 = DIRECTION ( 'NONE',  ( -0.000000000000000000, 1.000000000000000000, -0.000000000000000000 ) ) ;
#1174 = LINE ( 'NONE', #232, #9 ) ;
#1175 = VECTOR ( 'NONE', #207, 100.0000000000000000 ) ;
#1176 = EDGE_CURVE ( 'NONE', #428, #818, #939, .T. ) ;
#1177 = CARTESIAN_POINT ( 'NONE',  ( -4.316599029623792383, -11.01999999999999957, 0.1800040896525772205 ) ) ;
#1178 = PLANE ( 'NONE',  #1083 ) ;
#1179 = EDGE_CURVE ( 'NONE', #635, #1219, #672, .T. ) ;
#1180 = CARTESIAN_POINT ( 'NONE',  ( -3.397808346031539806, -10.71999999999999886, 1.859175586635767541 ) ) ;
#1181 = ORIENTED_EDGE ( 'NONE', *, *, #41, .T. ) ;
#1182 = FACE_OUTER_BOUND ( 'NONE', #109, .T. ) ;
#1183 = CARTESIAN_POINT ( 'NONE',  ( 0.000000000000000000, -10.71999999999999886, 0.000000000000000000 ) ) ;
#1184 = ORIENTED_EDGE ( 'NONE', *, *, #1007, .T. ) ;
#1185 = EDGE_CURVE ( 'NONE', #1039, #1142, #107, .T. ) ;
#1186 = DIRECTION ( 'NONE',  ( 0.000000000000000000, -1.000000000000000000, 0.000000000000000000 ) ) ;
#1187 = EDGE_LOOP ( 'NONE', ( #724, #417, #1147, #432 ) ) ;
#1188 = ORIENTED_EDGE ( 'NONE', *, *, #1007, .F. ) ;
#1189 = EDGE_LOOP ( 'NONE', ( #97, #426, #274, #466 ) ) ;
#1190 = DIRECTION ( 'NONE',  ( -0.8772625207829571892, 0.000000000000000000, -0.4800109057402048296 ) ) ;
#1191 = DIRECTION ( 'NONE',  ( 0.000000000000000000, -0.000000000000000000, -1.000000000000000000 ) ) ;
#1192 = EDGE_LOOP ( 'NONE', ( #507, #922 ) ) ;
#1193 = LINE ( 'NONE', #353, #692 ) ;
#1194 = ADVANCED_FACE ( 'NONE', ( #1161 ), #549, .F. ) ;
#1195 = DIRECTION ( 'NONE',  ( 0.000000000000000000, 1.000000000000000000, 0.000000000000000000 ) ) ;
#1196 = EDGE_LOOP ( 'NONE', ( #388, #739, #1014, #1124 ) ) ;
#1197 = CARTESIAN_POINT ( 'NONE',  ( -3.987625584330182882, -10.71999999999999886, 0.000000000000000000 ) ) ;
#1198 = VERTEX_POINT ( 'NONE', #687 ) ;
#1199 = CARTESIAN_POINT ( 'NONE',  ( 3.397808346031538917, -10.71999999999999886, -1.859175586635767097 ) ) ;
#1200 = SURFACE_STYLE_FILL_AREA ( #620 ) ;
#1201 = VERTEX_POINT ( 'NONE', #969 ) ;
#1202 = AXIS2_PLACEMENT_3D ( 'NONE', #629, #153, #230 ) ;
#1203 = DIRECTION ( 'NONE',  ( 1.000000000000000000, -0.000000000000000000, 6.938893903907227392E-16 ) ) ;
#1204 = VECTOR ( 'NONE', #964, 100.0000000000000000 ) ;
#1205 = CARTESIAN_POINT ( 'NONE',  ( 3.987625584330185102, -10.01999999999999957, -0.1750000000001900036 ) ) ;
#1206 = ORIENTED_EDGE ( 'NONE', *, *, #379, .F. ) ;
#1207 = LINE ( 'NONE', #37, #1165 ) ;
#1208 = EDGE_CURVE ( 'NONE', #1089, #139, #492, .T. ) ;
#1209 = ORIENTED_EDGE ( 'NONE', *, *, #569, .T. ) ;
#1210 = VECTOR ( 'NONE', #694, 100.0000000000000000 ) ;
#1211 = COLOUR_RGB ( '',0.7921568627450980005, 0.8196078431372548767, 0.9333333333333333481 ) ;
#1212 = ORIENTED_EDGE ( 'NONE', *, *, #313, .F. ) ;
#1213 = CARTESIAN_POINT ( 'NONE',  ( 2.000000000000000888, -11.01999999999999957, -1.780792978499774692 ) ) ;
#1214 = DIRECTION ( 'NONE',  ( -0.000000000000000000, 1.000000000000000000, -0.000000000000000000 ) ) ;
#1215 = AXIS2_PLACEMENT_3D ( 'NONE', #786, #682, #389 ) ;
#1216 = ORIENTED_EDGE ( 'NONE', *, *, #1106, .T. ) ;
#1217 = ORIENTED_EDGE ( 'NONE', *, *, #103, .F. ) ;
#1218 = EDGE_CURVE ( 'NONE', #676, #651, #1168, .T. ) ;
#1219 = VERTEX_POINT ( 'NONE', #679 ) ;
#1220 = UNCERTAINTY_MEASURE_WITH_UNIT (LENGTH_MEASURE( 1.000000000000000082E-05 ), #691, 'distance_accuracy_value', 'NONE');
#1221 = DIRECTION ( 'NONE',  ( -0.000000000000000000, 1.000000000000000000, -0.000000000000000000 ) ) ;
#1222 = VERTEX_POINT ( 'NONE', #220 ) ;
#1223 = ORIENTED_EDGE ( 'NONE', *, *, #554, .T. ) ;
#1224 = CIRCLE ( 'NONE', #1062, 1.000000000000000000 ) ;
#1225 = ORIENTED_EDGE ( 'NONE', *, *, #306, .T. ) ;
#1227 = CIRCLE ( 'NONE', #287, 0.3750000000000006106 ) ;
#1226 = DIRECTION ( 'NONE',  ( 0.000000000000000000, 0.000000000000000000, -1.000000000000000000 ) ) ;
#1228 = VECTOR ( 'NONE', #1233, 100.0000000000000000 ) ;
#1229 = CYLINDRICAL_SURFACE ( 'NONE', #883, 0.2500000000000000000 ) ;
#1230 = ORIENTED_EDGE ( 'NONE', *, *, #1171, .T. ) ;
#1231 = CARTESIAN_POINT ( 'NONE',  ( -3.397808346031539806, -10.71999999999999886, -1.859175586635767097 ) ) ;
#1232 = AXIS2_PLACEMENT_3D ( 'NONE', #359, #820, #1226 ) ;
#1233 = DIRECTION ( 'NONE',  ( -1.000000000000000000, 0.000000000000000000, 0.000000000000000000 ) ) ;
#1234 = EDGE_CURVE ( 'NONE', #750, #39, #1002, .T. ) ;
#1235 = DIRECTION ( 'NONE',  ( 0.4800109057402048296, 0.000000000000000000, 0.8772625207829571892 ) ) ;
#1236 = ORIENTED_EDGE ( 'NONE', *, *, #1042, .F. ) ;
#1237 = CARTESIAN_POINT ( 'NONE',  ( 2.499999999999999556, -10.71999999999999886, 1.937535499649831294 ) ) ;
#1238 = CARTESIAN_POINT ( 'NONE',  ( 4.316599029623792383, -10.71999999999999886, -0.1800040896525773038 ) ) ;
#1239 = ADVANCED_FACE ( 'NONE', ( #588 ), #973, .T. ) ;
#1240 = LINE ( 'NONE', #1150, #685 ) ;
#1241 = DIRECTION ( 'NONE',  ( 0.000000000000000000, -1.000000000000000000, 0.000000000000000000 ) ) ;
ENDSEC;
END-ISO-10303-21;
