ISO-10303-21;
HEADER;
FILE_DESCRIPTION (( 'STEP AP214' ),
    '1' );
FILE_NAME ('Part7.STEP',
    '2026-08-02T19:07:43',
    ( '' ),
    ( '' ),
    'SwSTEP 2.0',
    'SolidWorks 2026',
    '' );
FILE_SCHEMA (( 'AUTOMOTIVE_DESIGN' ));
ENDSEC;

DATA;
#1 = CARTESIAN_POINT ( 'NONE',  ( -7.449999999998969891, 4.609999999999982556, -1.349999999999998757 ) ) ;
#2 = LINE ( 'NONE', #287, #676 ) ;
#3 = CARTESIAN_POINT ( 'NONE',  ( 2.729460014648820700E-16, 3.309999999999982290, 1.349999999999999201 ) ) ;
#4 = ORIENTED_EDGE ( 'NONE', *, *, #791, .F. ) ;
#5 = DIRECTION ( 'NONE',  ( 0.000000000000000000, 0.000000000000000000, -1.000000000000000000 ) ) ;
#6 = CARTESIAN_POINT ( 'NONE',  ( -7.449999999998971667, 4.609999999999982556, 1.250000000000000666 ) ) ;
#7 = PLANE ( 'NONE',  #250 ) ;
#8 = EDGE_CURVE ( 'NONE', #667, #47, #605, .T. ) ;
#9 = ORIENTED_EDGE ( 'NONE', *, *, #791, .T. ) ;
#10 = CARTESIAN_POINT ( 'NONE',  ( -4.889999999998971170, 3.309999999999982290, 1.750000000000000444 ) ) ;
#11 = AXIS2_PLACEMENT_3D ( 'NONE', #48, #587, #459 ) ;
#12 = VECTOR ( 'NONE', #728, 100.0000000000000000 ) ;
#13 = DIRECTION ( 'NONE',  ( 0.000000000000000000, 0.000000000000000000, 1.000000000000000000 ) ) ;
#14 = DIRECTION ( 'NONE',  ( 0.000000000000000000, 0.000000000000000000, 1.000000000000000000 ) ) ;
#15 = DIRECTION ( 'NONE',  ( -0.000000000000000000, -1.000000000000000000, -0.000000000000000000 ) ) ;
#16 = CARTESIAN_POINT ( 'NONE',  ( -4.889999999998971170, 3.309999999999982290, 1.574999999999999956 ) ) ;
#17 = ORIENTED_EDGE ( 'NONE', *, *, #802, .T. ) ;
#18 = DIRECTION ( 'NONE',  ( 0.000000000000000000, 1.000000000000000000, -0.000000000000000000 ) ) ;
#19 = DIRECTION ( 'NONE',  ( 0.000000000000000000, 0.000000000000000000, 1.000000000000000000 ) ) ;
#20 = DIRECTION ( 'NONE',  ( 0.000000000000000000, 0.000000000000000000, 1.000000000000000000 ) ) ;
#21 = FACE_OUTER_BOUND ( 'NONE', #52, .T. ) ;
#22 = EDGE_CURVE ( 'NONE', #125, #670, #594, .T. ) ;
#23 = LINE ( 'NONE', #176, #387 ) ;
#24 = CARTESIAN_POINT ( 'NONE',  ( 0.000000000000000000, 3.309999999999982290, 0.000000000000000000 ) ) ;
#25 = CARTESIAN_POINT ( 'NONE',  ( -7.449999999998969891, 3.409999999999982379, -3.829241450674201168E-15 ) ) ;
#26 = UNCERTAINTY_MEASURE_WITH_UNIT (LENGTH_MEASURE( 1.000000000000000082E-05 ), #853, 'distance_accuracy_value', 'NONE');
#27 = DIRECTION ( 'NONE',  ( 0.000000000000000000, 0.000000000000000000, -1.000000000000000000 ) ) ;
#28 = VECTOR ( 'NONE', #843, 100.0000000000000000 ) ;
#29 = CIRCLE ( 'NONE', #416, 0.1750000000017199464 ) ;
#30 = DIRECTION ( 'NONE',  ( 0.000000000000000000, 0.000000000000000000, -1.000000000000000000 ) ) ;
#31 = EDGE_CURVE ( 'NONE', #188, #197, #146, .T. ) ;
#32 = ORIENTED_EDGE ( 'NONE', *, *, #629, .F. ) ;
#33 = FACE_OUTER_BOUND ( 'NONE', #318, .T. ) ;
#34 = EDGE_LOOP ( 'NONE', ( #452, #880, #726, #563, #632, #680, #182, #479 ) ) ;
#35 = DIRECTION ( 'NONE',  ( 0.000000000000000000, 0.000000000000000000, 1.000000000000000000 ) ) ;
#36 = DIRECTION ( 'NONE',  ( -1.000000000000000000, 0.000000000000000000, -5.139921410301652768E-16 ) ) ;
#37 = DIRECTION ( 'NONE',  ( -1.000000000000000000, 0.000000000000000000, 2.021822233073201596E-16 ) ) ;
#38 = CARTESIAN_POINT ( 'NONE',  ( 2.729460014648820700E-16, 3.409999999999982379, 1.349999999999999201 ) ) ;
#39 = FACE_OUTER_BOUND ( 'NONE', #172, .T. ) ;
#40 = VERTEX_POINT ( 'NONE', #409 ) ;
#41 = DIRECTION ( 'NONE',  ( -1.000000000000000000, 0.000000000000000000, 1.242045448193417777E-16 ) ) ;
#42 = ADVANCED_FACE ( 'NONE', ( #319 ), #682, .F. ) ;
#43 = EDGE_LOOP ( 'NONE', ( #560, #67, #289, #818 ) ) ;
#44 = LINE ( 'NONE', #96, #776 ) ;
#45 = VECTOR ( 'NONE', #769, 100.0000000000000000 ) ;
#46 = VECTOR ( 'NONE', #417, 100.0000000000000000 ) ;
#47 = VERTEX_POINT ( 'NONE', #239 ) ;
#48 = CARTESIAN_POINT ( 'NONE',  ( -7.449999999998971667, 3.509999999999982467, -0.5999999999999999778 ) ) ;
#49 = ORIENTED_EDGE ( 'NONE', *, *, #300, .T. ) ;
#50 = EDGE_CURVE ( 'NONE', #388, #825, #454, .T. ) ;
#51 = ORIENTED_EDGE ( 'NONE', *, *, #611, .T. ) ;
#52 = EDGE_LOOP ( 'NONE', ( #619, #394, #423, #748 ) ) ;
#53 = CARTESIAN_POINT ( 'NONE',  ( -3.159999999998970743, 4.209999999999982201, -0.5999999999999999778 ) ) ;
#54 = EDGE_CURVE ( 'NONE', #431, #750, #771, .T. ) ;
#55 = ORIENTED_EDGE ( 'NONE', *, *, #209, .T. ) ;
#56 = ORIENTED_EDGE ( 'NONE', *, *, #812, .T. ) ;
#57 = DIRECTION ( 'NONE',  ( -0.000000000000000000, -1.000000000000000000, -0.000000000000000000 ) ) ;
#58 = AXIS2_PLACEMENT_3D ( 'NONE', #144, #126, #561 ) ;
#59 = ADVANCED_FACE ( 'NONE', ( #896 ), #495, .T. ) ;
#60 = VECTOR ( 'NONE', #134, 100.0000000000000000 ) ;
#61 = EDGE_LOOP ( 'NONE', ( #772, #905 ) ) ;
#62 = DIRECTION ( 'NONE',  ( 1.000000000000000000, -0.000000000000000000, -0.000000000000000000 ) ) ;
#63 = DIRECTION ( 'NONE',  ( 0.000000000000000000, 0.000000000000000000, 1.000000000000000000 ) ) ;
#64 = PLANE ( 'NONE',  #568 ) ;
#65 = ORIENTED_EDGE ( 'NONE', *, *, #70, .T. ) ;
#66 = CARTESIAN_POINT ( 'NONE',  ( -4.889999999998972058, 3.309999999999982290, -1.749999999999999778 ) ) ;
#67 = ORIENTED_EDGE ( 'NONE', *, *, #184, .F. ) ;
#68 = ORIENTED_EDGE ( 'NONE', *, *, #379, .T. ) ;
#69 = DIRECTION ( 'NONE',  ( 0.000000000000000000, 0.000000000000000000, 1.000000000000000000 ) ) ;
#70 = EDGE_CURVE ( 'NONE', #124, #825, #333, .T. ) ;
#71 = FACE_OUTER_BOUND ( 'NONE', #476, .T. ) ;
#72 = CYLINDRICAL_SURFACE ( 'NONE', #600, 0.3000000000017197244 ) ;
#73 = LINE ( 'NONE', #293, #859 ) ;
#74 = AXIS2_PLACEMENT_3D ( 'NONE', #302, #580, #906 ) ;
#75 = VECTOR ( 'NONE', #435, 100.0000000000000000 ) ;
#76 = ORIENTED_EDGE ( 'NONE', *, *, #714, .T. ) ;
#77 = CARTESIAN_POINT ( 'NONE',  ( -7.449999999998969891, 3.309999999999982290, -1.349999999999998757 ) ) ;
#78 = CARTESIAN_POINT ( 'NONE',  ( -5.189999999998971880, 3.309999999999982290, -0.000000000000000000 ) ) ;
#79 = VERTEX_POINT ( 'NONE', #136 ) ;
#80 = CARTESIAN_POINT ( 'NONE',  ( -7.449999999998971667, 4.609999999999982556, 1.250000000000000666 ) ) ;
#81 = DIRECTION ( 'NONE',  ( -0.000000000000000000, -1.000000000000000000, -0.000000000000000000 ) ) ;
#82 = ADVANCED_FACE ( 'NONE', ( #901 ), #627, .F. ) ;
#83 = DIRECTION ( 'NONE',  ( 1.000000000000000000, 0.000000000000000000, 0.000000000000000000 ) ) ;
#84 = VERTEX_POINT ( 'NONE', #140 ) ;
#85 = CARTESIAN_POINT ( 'NONE',  ( -4.889999999998971170, 3.309999999999982290, 1.750000000000000444 ) ) ;
#86 = CARTESIAN_POINT ( 'NONE',  ( -4.889999999998971170, 3.409999999999982379, 1.925000000000000933 ) ) ;
#87 =( LENGTH_UNIT ( ) NAMED_UNIT ( * ) SI_UNIT ( .CENTI., .METRE. ) );
#88 = EDGE_CURVE ( 'NONE', #223, #256, #892, .T. ) ;
#89 = DIRECTION ( 'NONE',  ( -0.000000000000000000, -1.000000000000000000, -0.000000000000000000 ) ) ;
#90 = AXIS2_PLACEMENT_3D ( 'NONE', #66, #349, #898 ) ;
#91 = VERTEX_POINT ( 'NONE', #833 ) ;
#92 = PLANE ( 'NONE',  #718 ) ;
#93 = CARTESIAN_POINT ( 'NONE',  ( -5.189999999998971880, 3.309999999999982290, -1.349999999999999867 ) ) ;
#94 = CARTESIAN_POINT ( 'NONE',  ( 0.000000000000000000, 0.000000000000000000, 0.000000000000000000 ) ) ;
#95 = DIRECTION ( 'NONE',  ( 0.000000000000000000, 0.000000000000000000, 1.000000000000000000 ) ) ;
#96 = CARTESIAN_POINT ( 'NONE',  ( -3.159999999998970743, 3.509999999999982467, 0.5999999999999999778 ) ) ;
#97 = CARTESIAN_POINT ( 'NONE',  ( -4.889999999998972058, 3.409999999999982379, -1.574999999998279776 ) ) ;
#98 = CARTESIAN_POINT ( 'NONE',  ( -4.589999999998969571, 3.409999999999982379, 7.962380754731742805E-15 ) ) ;
#99 = EDGE_CURVE ( 'NONE', #260, #400, #336, .T. ) ;
#100 = CARTESIAN_POINT ( 'NONE',  ( -4.589999999998971347, 3.409999999999982379, 0.000000000000000000 ) ) ;
#101 = DIRECTION ( 'NONE',  ( -0.000000000000000000, -1.000000000000000000, 0.000000000000000000 ) ) ;
#102 = ORIENTED_EDGE ( 'NONE', *, *, #548, .T. ) ;
#103 = FACE_OUTER_BOUND ( 'NONE', #34, .T. ) ;
#104 = VECTOR ( 'NONE', #478, 100.0000000000000000 ) ;
#105 = VECTOR ( 'NONE', #727, 100.0000000000000000 ) ;
#106 = ORIENTED_EDGE ( 'NONE', *, *, #220, .T. ) ;
#107 = AXIS2_PLACEMENT_3D ( 'NONE', #630, #724, #183 ) ;
#108 = CARTESIAN_POINT ( 'NONE',  ( -4.889999999998971170, 3.409999999999982379, 1.750000000000000444 ) ) ;
#109 = FACE_BOUND ( 'NONE', #61, .T. ) ;
#110 = ORIENTED_EDGE ( 'NONE', *, *, #867, .T. ) ;
#111 = CARTESIAN_POINT ( 'NONE',  ( -4.889999999998972058, 3.309999999999982290, -1.574999999998279776 ) ) ;
#112 = LINE ( 'NONE', #395, #885 ) ;
#113 = ORIENTED_EDGE ( 'NONE', *, *, #578, .F. ) ;
#114 = EDGE_CURVE ( 'NONE', #691, #469, #547, .T. ) ;
#115 = LINE ( 'NONE', #382, #701 ) ;
#116 = ORIENTED_EDGE ( 'NONE', *, *, #823, .F. ) ;
#117 = ORIENTED_EDGE ( 'NONE', *, *, #758, .T. ) ;
#118 = EDGE_CURVE ( 'NONE', #143, #546, #553, .T. ) ;
#119 = CARTESIAN_POINT ( 'NONE',  ( -5.189999999998971880, 3.409999999999982379, 1.350000000000000311 ) ) ;
#120 = ORIENTED_EDGE ( 'NONE', *, *, #159, .F. ) ;
#121 = VECTOR ( 'NONE', #524, 100.0000000000000000 ) ;
#122 = ORIENTED_EDGE ( 'NONE', *, *, #255, .F. ) ;
#123 = ORIENTED_EDGE ( 'NONE', *, *, #541, .T. ) ;
#124 = VERTEX_POINT ( 'NONE', #53 ) ;
#125 = VERTEX_POINT ( 'NONE', #822 ) ;
#126 = DIRECTION ( 'NONE',  ( -0.000000000000000000, -1.000000000000000000, -0.000000000000000000 ) ) ;
#127 = EDGE_CURVE ( 'NONE', #887, #400, #196, .T. ) ;
#128 = EDGE_LOOP ( 'NONE', ( #837, #793, #816, #635 ) ) ;
#129 = DIRECTION ( 'NONE',  ( 0.000000000000000000, 0.000000000000000000, -1.000000000000000000 ) ) ;
#130 = CIRCLE ( 'NONE', #247, 0.1750000000000004885 ) ;
#131 = AXIS2_PLACEMENT_3D ( 'NONE', #829, #757, #271 ) ;
#132 = LINE ( 'NONE', #637, #46 ) ;
#133 = VECTOR ( 'NONE', #15, 100.0000000000000000 ) ;
#134 = DIRECTION ( 'NONE',  ( -0.000000000000000000, -1.000000000000000000, -0.000000000000000000 ) ) ;
#135 = ORIENTED_EDGE ( 'NONE', *, *, #651, .T. ) ;
#136 = CARTESIAN_POINT ( 'NONE',  ( -4.889999999998972058, 3.409999999999982379, -1.925000000001719780 ) ) ;
#137 = DIRECTION ( 'NONE',  ( -0.000000000000000000, -1.000000000000000000, -0.000000000000000000 ) ) ;
#138 = ADVANCED_FACE ( 'NONE', ( #756 ), #760, .F. ) ;
#139 = VERTEX_POINT ( 'NONE', #198 ) ;
#140 = CARTESIAN_POINT ( 'NONE',  ( -4.589999999998971347, 3.309999999999982290, -1.349999999999999867 ) ) ;
#141 = CARTESIAN_POINT ( 'NONE',  ( -3.159999999998970743, 3.409999999999982379, 1.350000000000000089 ) ) ;
#142 = EDGE_CURVE ( 'NONE', #750, #555, #480, .T. ) ;
#143 = VERTEX_POINT ( 'NONE', #749 ) ;
#144 = CARTESIAN_POINT ( 'NONE',  ( -4.889999999998972058, 3.409999999999982379, -1.749999999999999778 ) ) ;
#145 = DIRECTION ( 'NONE',  ( 1.000000000000000000, -0.000000000000000000, -0.000000000000000000 ) ) ;
#146 = CIRCLE ( 'NONE', #370, 0.3000000000017197244 ) ;
#147 = AXIS2_PLACEMENT_3D ( 'NONE', #24, #304, #171 ) ;
#148 = ORIENTED_EDGE ( 'NONE', *, *, #578, .T. ) ;
#149 = CARTESIAN_POINT ( 'NONE',  ( 0.000000000000000000, 3.409999999999982379, 0.000000000000000000 ) ) ;
#150 = ADVANCED_FACE ( 'NONE', ( #614 ), #888, .T. ) ;
#151 = PLANE ( 'NONE',  #131 ) ;
#152 = LINE ( 'NONE', #447, #280 ) ;
#153 = ORIENTED_EDGE ( 'NONE', *, *, #8, .T. ) ;
#154 = CARTESIAN_POINT ( 'NONE',  ( -4.589999999998112479, 3.309999999999982290, -1.750000000000000444 ) ) ;
#155 = ADVANCED_FACE ( 'NONE', ( #685 ), #751, .F. ) ;
#156 = PRESENTATION_STYLE_ASSIGNMENT (( #588 ) ) ;
#157 = CARTESIAN_POINT ( 'NONE',  ( -3.259999999998970832, 3.409999999999982379, 1.250000000000000000 ) ) ;
#158 = CARTESIAN_POINT ( 'NONE',  ( -7.449999999998971667, 4.609999999999982556, -1.249999999999999556 ) ) ;
#159 = EDGE_CURVE ( 'NONE', #670, #900, #514, .T. ) ;
#160 = CARTESIAN_POINT ( 'NONE',  ( -4.889999999998972058, 3.409999999999982379, -1.749999999999999778 ) ) ;
#161 = AXIS2_PLACEMENT_3D ( 'NONE', #631, #554, #834 ) ;
#162 = CIRCLE ( 'NONE', #107, 0.1750000000017199464 ) ;
#163 = ORIENTED_EDGE ( 'NONE', *, *, #812, .F. ) ;
#164 = CARTESIAN_POINT ( 'NONE',  ( -7.449999999998971667, 3.509999999999982467, 0.5999999999999999778 ) ) ;
#165 =( NAMED_UNIT ( * ) PLANE_ANGLE_UNIT ( ) SI_UNIT ( $, .RADIAN. ) );
#166 = ADVANCED_FACE ( 'NONE', ( #215, #364 ), #792, .T. ) ;
#167 = DIRECTION ( 'NONE',  ( -0.000000000000000000, -1.000000000000000000, -0.000000000000000000 ) ) ;
#168 = ADVANCED_BREP_SHAPE_REPRESENTATION ( 'Part7', ( #598, #205 ), #702 ) ;
#169 = ORIENTED_EDGE ( 'NONE', *, *, #745, .F. ) ;
#170 = DIRECTION ( 'NONE',  ( 1.734723475976804136E-15, 0.000000000000000000, 1.000000000000000000 ) ) ;
#171 = DIRECTION ( 'NONE',  ( 0.000000000000000000, 0.000000000000000000, 1.000000000000000000 ) ) ;
#172 = EDGE_LOOP ( 'NONE', ( #351, #821, #211, #9, #51, #716, #891, #123 ) ) ;
#173 = CARTESIAN_POINT ( 'NONE',  ( -3.821244020508354502E-16, 3.309999999999982290, -1.350000000000000755 ) ) ;
#174 = EDGE_CURVE ( 'NONE', #535, #256, #130, .T. ) ;
#175 = DIRECTION ( 'NONE',  ( 1.000000000000000000, 0.000000000000000000, -1.734723475976807883E-15 ) ) ;
#176 = CARTESIAN_POINT ( 'NONE',  ( -5.189999999998970104, 3.309999999999982290, 9.003214840317845994E-15 ) ) ;
#177 = ORIENTED_EDGE ( 'NONE', *, *, #802, .F. ) ;
#178 = CYLINDRICAL_SURFACE ( 'NONE', #500, 0.1750000000017199464 ) ;
#179 = ADVANCED_FACE ( 'NONE', ( #21 ), #567, .F. ) ;
#180 = ORIENTED_EDGE ( 'NONE', *, *, #797, .F. ) ;
#181 = LINE ( 'NONE', #740, #385 ) ;
#182 = ORIENTED_EDGE ( 'NONE', *, *, #823, .T. ) ;
#183 = DIRECTION ( 'NONE',  ( 0.000000000000000000, 0.000000000000000000, 1.000000000000000000 ) ) ;
#184 = EDGE_CURVE ( 'NONE', #40, #670, #498, .T. ) ;
#185 = VERTEX_POINT ( 'NONE', #80 ) ;
#186 = FACE_OUTER_BOUND ( 'NONE', #807, .T. ) ;
#187 = EDGE_LOOP ( 'NONE', ( #672, #530, #723, #325, #606, #813, #392, #788, #688, #420, #313, #589, #877 ) ) ;
#188 = VERTEX_POINT ( 'NONE', #715 ) ;
#189 = EDGE_CURVE ( 'NONE', #79, #214, #458, .T. ) ;
#190 = EDGE_CURVE ( 'NONE', #185, #900, #219, .T. ) ;
#191 = ORIENTED_EDGE ( 'NONE', *, *, #50, .T. ) ;
#192 = LINE ( 'NONE', #747, #803 ) ;
#193 = VECTOR ( 'NONE', #41, 100.0000000000000000 ) ;
#194 = EDGE_CURVE ( 'NONE', #79, #281, #522, .T. ) ;
#195 = ORIENTED_EDGE ( 'NONE', *, *, #462, .T. ) ;
#196 = LINE ( 'NONE', #556, #625 ) ;
#197 = VERTEX_POINT ( 'NONE', #154 ) ;
#198 = CARTESIAN_POINT ( 'NONE',  ( -3.259999999998970832, 4.209999999999982201, -0.5999999999999999778 ) ) ;
#199 = CARTESIAN_POINT ( 'NONE',  ( -4.889999999998972058, 3.409999999999982379, -2.050000000001719336 ) ) ;
#200 = ORIENTED_EDGE ( 'NONE', *, *, #230, .F. ) ;
#201 = CARTESIAN_POINT ( 'NONE',  ( -7.449999999998971667, 4.209999999999982201, 0.6000000000000001998 ) ) ;
#202 = VECTOR ( 'NONE', #482, 100.0000000000000000 ) ;
#203 = LINE ( 'NONE', #199, #202 ) ;
#204 = COLOUR_RGB ( '',0.7921568627450980005, 0.8196078431372548767, 0.9333333333333333481 ) ;
#205 = AXIS2_PLACEMENT_3D ( 'NONE', #94, #20, #83 ) ;
#206 = EDGE_LOOP ( 'NONE', ( #613, #804, #257, #384 ) ) ;
#207 = CARTESIAN_POINT ( 'NONE',  ( -7.449999999998971667, 3.509999999999982467, -0.5999999999999999778 ) ) ;
#208 = FACE_OUTER_BOUND ( 'NONE', #128, .T. ) ;
#209 = EDGE_CURVE ( 'NONE', #457, #549, #338, .T. ) ;
#210 = ORIENTED_EDGE ( 'NONE', *, *, #184, .T. ) ;
#211 = ORIENTED_EDGE ( 'NONE', *, *, #418, .T. ) ;
#212 = DIRECTION ( 'NONE',  ( 1.242045448193417777E-16, -0.000000000000000000, 1.000000000000000000 ) ) ;
#213 = CARTESIAN_POINT ( 'NONE',  ( -7.449999999998971667, 4.209999999999982201, -0.5999999999999999778 ) ) ;
#214 = VERTEX_POINT ( 'NONE', #437 ) ;
#215 = FACE_OUTER_BOUND ( 'NONE', #543, .T. ) ;
#216 = LINE ( 'NONE', #422, #403 ) ;
#217 = VECTOR ( 'NONE', #446, 100.0000000000000000 ) ;
#218 = EDGE_LOOP ( 'NONE', ( #191, #494, #677, #347 ) ) ;
#219 = LINE ( 'NONE', #700, #873 ) ;
#220 = EDGE_CURVE ( 'NONE', #886, #735, #354, .T. ) ;
#221 = CARTESIAN_POINT ( 'NONE',  ( -4.889999999998971170, 3.409999999999982379, 1.750000000000000444 ) ) ;
#222 = FACE_OUTER_BOUND ( 'NONE', #639, .T. ) ;
#223 = VERTEX_POINT ( 'NONE', #838 ) ;
#224 = DIRECTION ( 'NONE',  ( 0.000000000000000000, 0.000000000000000000, 1.000000000000000000 ) ) ;
#225 = LINE ( 'NONE', #846, #234 ) ;
#226 = LINE ( 'NONE', #456, #474 ) ;
#227 = CARTESIAN_POINT ( 'NONE',  ( -7.449999999998971667, 3.509999999999982467, 0.5999999999999999778 ) ) ;
#228 = CARTESIAN_POINT ( 'NONE',  ( -4.589999999998971347, 3.409999999999982379, 1.750000000000000444 ) ) ;
#229 = CARTESIAN_POINT ( 'NONE',  ( -7.449999999998969891, 3.409999999999982379, -3.829241450674201168E-15 ) ) ;
#230 = EDGE_CURVE ( 'NONE', #549, #735, #576, .T. ) ;
#231 = CARTESIAN_POINT ( 'NONE',  ( -5.189999999998971880, 3.409999999999982379, -1.349999999999999867 ) ) ;
#232 = VECTOR ( 'NONE', #640, 100.0000000000000000 ) ;
#233 = CARTESIAN_POINT ( 'NONE',  ( -3.259999999998970832, 3.509999999999982467, 0.5999999999999999778 ) ) ;
#234 = VECTOR ( 'NONE', #642, 100.0000000000000000 ) ;
#235 = CARTESIAN_POINT ( 'NONE',  ( -4.589999999998969571, 3.309999999999982290, 7.962380754731742805E-15 ) ) ;
#236 = SHAPE_DEFINITION_REPRESENTATION ( #345, #168 ) ;
#237 = CARTESIAN_POINT ( 'NONE',  ( -4.889999999998972058, 3.409999999999982379, -1.749999999999999778 ) ) ;
#238 = ORIENTED_EDGE ( 'NONE', *, *, #258, .F. ) ;
#239 = CARTESIAN_POINT ( 'NONE',  ( -5.189999999999832525, 3.309999999999982290, -1.749999999999999778 ) ) ;
#240 = LINE ( 'NONE', #100, #356 ) ;
#241 = APPLICATION_CONTEXT ( 'automotive_design' ) ;
#242 = CARTESIAN_POINT ( 'NONE',  ( -4.589999999998971347, 3.409999999999982379, -1.349999999999999867 ) ) ;
#243 = VERTEX_POINT ( 'NONE', #77 ) ;
#244 = CARTESIAN_POINT ( 'NONE',  ( -7.449999999998971667, 3.509999999999982467, 0.5999999999999999778 ) ) ;
#245 = CARTESIAN_POINT ( 'NONE',  ( -4.889999999998972058, 3.309999999999982290, -1.749999999999999778 ) ) ;
#246 = CARTESIAN_POINT ( 'NONE',  ( -7.449999999998971667, 4.609999999999982556, 1.350000000000000755 ) ) ;
#247 = AXIS2_PLACEMENT_3D ( 'NONE', #509, #440, #224 ) ;
#248 = VECTOR ( 'NONE', #424, 100.0000000000000000 ) ;
#249 = EDGE_CURVE ( 'NONE', #256, #535, #278, .T. ) ;
#250 = AXIS2_PLACEMENT_3D ( 'NONE', #709, #778, #439 ) ;
#251 = DIRECTION ( 'NONE',  ( 0.000000000000000000, -1.000000000000000000, 0.000000000000000000 ) ) ;
#252 = EDGE_LOOP ( 'NONE', ( #116, #375, #815, #340, #268 ) ) ;
#253 = DIRECTION ( 'NONE',  ( -0.000000000000000000, -1.000000000000000000, -0.000000000000000000 ) ) ;
#254 = ORIENTED_EDGE ( 'NONE', *, *, #397, .T. ) ;
#255 = EDGE_CURVE ( 'NONE', #139, #388, #782, .T. ) ;
#256 = VERTEX_POINT ( 'NONE', #16 ) ;
#257 = ORIENTED_EDGE ( 'NONE', *, *, #118, .F. ) ;
#258 = EDGE_CURVE ( 'NONE', #457, #399, #785, .T. ) ;
#259 = EDGE_LOOP ( 'NONE', ( #463, #163, #335, #68 ) ) ;
#260 = VERTEX_POINT ( 'NONE', #720 ) ;
#261 = DIRECTION ( 'NONE',  ( -1.000000000000000000, 0.000000000000000000, 0.000000000000000000 ) ) ;
#262 = AXIS2_PLACEMENT_3D ( 'NONE', #711, #299, #95 ) ;
#263 = AXIS2_PLACEMENT_3D ( 'NONE', #721, #251, #540 ) ;
#264 = ORIENTED_EDGE ( 'NONE', *, *, #493, .F. ) ;
#265 = CARTESIAN_POINT ( 'NONE',  ( -4.889999999998971170, 3.409999999999982379, 1.750000000000000444 ) ) ;
#266 = CYLINDRICAL_SURFACE ( 'NONE', #444, 0.1750000000000004885 ) ;
#267 = DIRECTION ( 'NONE',  ( 1.000000000000000000, 0.000000000000000000, -2.021822233073201596E-16 ) ) ;
#268 = ORIENTED_EDGE ( 'NONE', *, *, #467, .T. ) ;
#269 = EDGE_LOOP ( 'NONE', ( #528, #741, #408, #831 ) ) ;
#270 = CARTESIAN_POINT ( 'NONE',  ( 2.729460014648820700E-16, 3.309999999999982290, 1.349999999999999201 ) ) ;
#271 = DIRECTION ( 'NONE',  ( -1.000000000000000000, 0.000000000000000000, 1.242045448193417777E-16 ) ) ;
#272 = DIRECTION ( 'NONE',  ( 0.000000000000000000, 0.000000000000000000, -1.000000000000000000 ) ) ;
#273 = EDGE_LOOP ( 'NONE', ( #508, #542, #661, #17 ) ) ;
#274 = DIRECTION ( 'NONE',  ( 1.000000000000000000, -0.000000000000000000, -0.000000000000000000 ) ) ;
#275 = AXIS2_PLACEMENT_3D ( 'NONE', #412, #348, #69 ) ;
#276 = ADVANCED_FACE ( 'NONE', ( #378 ), #650, .T. ) ;
#277 = VECTOR ( 'NONE', #870, 100.0000000000000000 ) ;
#278 = CIRCLE ( 'NONE', #473, 0.1750000000000004885 ) ;
#279 = CARTESIAN_POINT ( 'NONE',  ( -4.889999999998972058, 3.409999999999982379, -1.749999999999999778 ) ) ;
#280 = VECTOR ( 'NONE', #570, 100.0000000000000000 ) ;
#281 = VERTEX_POINT ( 'NONE', #857 ) ;
#282 = LINE ( 'NONE', #213, #789 ) ;
#283 = VERTEX_POINT ( 'NONE', #233 ) ;
#284 = DIRECTION ( 'NONE',  ( -0.000000000000000000, 0.000000000000000000, 1.000000000000000000 ) ) ;
#285 = CARTESIAN_POINT ( 'NONE',  ( -3.259999999998970832, 3.409999999999982379, 1.250000000000000000 ) ) ;
#286 = CARTESIAN_POINT ( 'NONE',  ( -4.889999999998971170, 3.309999999999982290, 1.925000000000000933 ) ) ;
#287 = CARTESIAN_POINT ( 'NONE',  ( -3.159999999998970743, 3.409999999999982379, -1.350000000000000089 ) ) ;
#288 = ADVANCED_FACE ( 'NONE', ( #360, #633 ), #665, .T. ) ;
#289 = ORIENTED_EDGE ( 'NONE', *, *, #573, .F. ) ;
#290 = CARTESIAN_POINT ( 'NONE',  ( -3.259999999998970832, 4.609999999999982556, 1.250000000000000000 ) ) ;
#291 = DIRECTION ( 'NONE',  ( 0.000000000000000000, 0.000000000000000000, -1.000000000000000000 ) ) ;
#292 = AXIS2_PLACEMENT_3D ( 'NONE', #610, #261, #828 ) ;
#293 = CARTESIAN_POINT ( 'NONE',  ( -3.259999999998970832, 3.409999999999982379, -1.250000000000000000 ) ) ;
#294 = CARTESIAN_POINT ( 'NONE',  ( -7.449999999998971667, 3.409999999999982379, 1.250000000000000666 ) ) ;
#295 = AXIS2_PLACEMENT_3D ( 'NONE', #160, #167, #5 ) ;
#296 = AXIS2_PLACEMENT_3D ( 'NONE', #108, #869, #794 ) ;
#297 = VERTEX_POINT ( 'NONE', #393 ) ;
#298 = DIRECTION ( 'NONE',  ( 0.000000000000000000, 0.000000000000000000, 1.000000000000000000 ) ) ;
#299 = DIRECTION ( 'NONE',  ( 0.000000000000000000, 1.000000000000000000, -0.000000000000000000 ) ) ;
#300 = EDGE_CURVE ( 'NONE', #283, #143, #115, .T. ) ;
#301 = DIRECTION ( 'NONE',  ( 0.000000000000000000, 0.000000000000000000, 1.000000000000000000 ) ) ;
#302 = CARTESIAN_POINT ( 'NONE',  ( -5.189999999998971880, 3.409999999999982379, 0.000000000000000000 ) ) ;
#303 = ADVANCED_FACE ( 'NONE', ( #186 ), #306, .T. ) ;
#304 = DIRECTION ( 'NONE',  ( 0.000000000000000000, 1.000000000000000000, -0.000000000000000000 ) ) ;
#305 = AXIS2_PLACEMENT_3D ( 'NONE', #38, #468, #267 ) ;
#306 = PLANE ( 'NONE',  #305 ) ;
#307 = AXIS2_PLACEMENT_3D ( 'NONE', #781, #729, #14 ) ;
#308 = DIRECTION ( 'NONE',  ( -1.734723475976807883E-15, 0.000000000000000000, -1.000000000000000000 ) ) ;
#309 = CARTESIAN_POINT ( 'NONE',  ( -3.159999999998970743, 3.309999999999982290, 0.000000000000000000 ) ) ;
#310 = CARTESIAN_POINT ( 'NONE',  ( -5.189999999999832525, 3.409999999999982379, -1.749999999999999778 ) ) ;
#311 = VERTEX_POINT ( 'NONE', #111 ) ;
#312 = DIRECTION ( 'NONE',  ( -0.000000000000000000, -1.000000000000000000, -0.000000000000000000 ) ) ;
#313 = ORIENTED_EDGE ( 'NONE', *, *, #99, .T. ) ;
#314 = FILL_AREA_STYLE_COLOUR ( '', #204 ) ;
#315 = CARTESIAN_POINT ( 'NONE',  ( -5.189999999999832525, 3.409999999999982379, -1.749999999999999778 ) ) ;
#316 = EDGE_CURVE ( 'NONE', #40, #185, #722, .T. ) ;
#317 = PLANE ( 'NONE',  #11 ) ;
#318 = EDGE_LOOP ( 'NONE', ( #504, #566, #738, #148 ) ) ;
#319 = FACE_OUTER_BOUND ( 'NONE', #571, .T. ) ;
#320 = EDGE_LOOP ( 'NONE', ( #552, #882, #411, #110 ) ) ;
#321 = CARTESIAN_POINT ( 'NONE',  ( -7.449999999998971667, 3.409999999999982379, 1.350000000000000755 ) ) ;
#322 = ORIENTED_EDGE ( 'NONE', *, *, #127, .T. ) ;
#323 = VECTOR ( 'NONE', #762, 100.0000000000000000 ) ;
#324 = CARTESIAN_POINT ( 'NONE',  ( -3.259999999998970832, 4.609999999999982556, -1.250000000000000000 ) ) ;
#325 = ORIENTED_EDGE ( 'NONE', *, *, #851, .F. ) ;
#326 = DIRECTION ( 'NONE',  ( 0.000000000000000000, 0.000000000000000000, -1.000000000000000000 ) ) ;
#327 = ORIENTED_EDGE ( 'NONE', *, *, #481, .T. ) ;
#328 = DIRECTION ( 'NONE',  ( 0.000000000000000000, 0.000000000000000000, -1.000000000000000000 ) ) ;
#329 = EDGE_CURVE ( 'NONE', #825, #407, #181, .T. ) ;
#330 = VERTEX_POINT ( 'NONE', #246 ) ;
#331 = ORIENTED_EDGE ( 'NONE', *, *, #481, .F. ) ;
#332 = ORIENTED_EDGE ( 'NONE', *, *, #427, .F. ) ;
#333 = LINE ( 'NONE', #617, #786 ) ;
#334 = APPLICATION_CONTEXT ( 'automotive_design' ) ;
#335 = ORIENTED_EDGE ( 'NONE', *, *, #258, .T. ) ;
#336 = LINE ( 'NONE', #270, #516 ) ;
#337 = AXIS2_PLACEMENT_3D ( 'NONE', #265, #57, #129 ) ;
#338 = CIRCLE ( 'NONE', #262, 0.3000000000000002665 ) ;
#339 = CIRCLE ( 'NONE', #296, 0.1750000000000004885 ) ;
#340 = ORIENTED_EDGE ( 'NONE', *, *, #584, .F. ) ;
#341 = VERTEX_POINT ( 'NONE', #533 ) ;
#342 = DIRECTION ( 'NONE',  ( -1.000000000000000000, 0.000000000000000000, 2.021822233073201596E-16 ) ) ;
#343 = LINE ( 'NONE', #141, #641 ) ;
#344 = CARTESIAN_POINT ( 'NONE',  ( -3.259999999998970832, 4.609999999999982556, -1.250000000000000000 ) ) ;
#345 = PRODUCT_DEFINITION_SHAPE ( 'NONE', 'NONE',  #862 ) ;
#346 = ADVANCED_FACE ( 'NONE', ( #820 ), #675, .T. ) ;
#347 = ORIENTED_EDGE ( 'NONE', *, *, #521, .F. ) ;
#348 = DIRECTION ( 'NONE',  ( 0.000000000000000000, 1.000000000000000000, -0.000000000000000000 ) ) ;
#349 = DIRECTION ( 'NONE',  ( -0.000000000000000000, -1.000000000000000000, 0.000000000000000000 ) ) ;
#350 = ORIENTED_EDGE ( 'NONE', *, *, #775, .F. ) ;
#351 = ORIENTED_EDGE ( 'NONE', *, *, #573, .T. ) ;
#352 = ADVANCED_FACE ( 'NONE', ( #538 ), #317, .F. ) ;
#353 = ADVANCED_FACE ( 'NONE', ( #33 ), #178, .F. ) ;
#354 = CIRCLE ( 'NONE', #415, 0.3000000000000002665 ) ;
#355 = DIRECTION ( 'NONE',  ( 0.000000000000000000, 1.000000000000000000, 0.000000000000000000 ) ) ;
#356 = VECTOR ( 'NONE', #389, 100.0000000000000000 ) ;
#357 = DIRECTION ( 'NONE',  ( 0.000000000000000000, 0.000000000000000000, -1.000000000000000000 ) ) ;
#358 = CARTESIAN_POINT ( 'NONE',  ( -5.189999999998971880, 3.409999999999982379, 1.750000000000000444 ) ) ;
#359 = ORIENTED_EDGE ( 'NONE', *, *, #584, .T. ) ;
#360 = FACE_BOUND ( 'NONE', #705, .T. ) ;
#361 = EDGE_CURVE ( 'NONE', #396, #84, #798, .T. ) ;
#362 = DIRECTION ( 'NONE',  ( -0.000000000000000000, -1.000000000000000000, -0.000000000000000000 ) ) ;
#363 = VERTEX_POINT ( 'NONE', #453 ) ;
#364 = FACE_BOUND ( 'NONE', #537, .T. ) ;
#365 = CARTESIAN_POINT ( 'NONE',  ( -4.589999999998971347, 3.409999999999982379, -1.349999999999999867 ) ) ;
#366 = PRODUCT_CONTEXT ( 'NONE', #241, 'mechanical' ) ;
#367 = ORIENTED_EDGE ( 'NONE', *, *, #764, .F. ) ;
#368 = DIRECTION ( 'NONE',  ( 0.000000000000000000, 1.000000000000000000, -0.000000000000000000 ) ) ;
#369 = LINE ( 'NONE', #97, #487 ) ;
#370 = AXIS2_PLACEMENT_3D ( 'NONE', #245, #470, #678 ) ;
#371 = LINE ( 'NONE', #231, #133 ) ;
#372 = VECTOR ( 'NONE', #312, 100.0000000000000000 ) ;
#373 = VECTOR ( 'NONE', #355, 100.0000000000000000 ) ;
#374 = DIRECTION ( 'NONE',  ( 0.000000000000000000, 1.000000000000000000, -0.000000000000000000 ) ) ;
#375 = ORIENTED_EDGE ( 'NONE', *, *, #142, .F. ) ;
#376 = CARTESIAN_POINT ( 'NONE',  ( 0.000000000000000000, 3.409999999999982379, 0.000000000000000000 ) ) ;
#377 = CARTESIAN_POINT ( 'NONE',  ( -7.449999999998971667, 3.309999999999982290, 1.350000000000000755 ) ) ;
#378 = FACE_OUTER_BOUND ( 'NONE', #259, .T. ) ;
#379 = EDGE_CURVE ( 'NONE', #399, #363, #464, .T. ) ;
#380 = VERTEX_POINT ( 'NONE', #806 ) ;
#381 = FACE_BOUND ( 'NONE', #515, .T. ) ;
#382 = CARTESIAN_POINT ( 'NONE',  ( -3.259999999998970832, 3.509999999999982467, -1.250000000000000000 ) ) ;
#383 = ORIENTED_EDGE ( 'NONE', *, *, #142, .T. ) ;
#384 = ORIENTED_EDGE ( 'NONE', *, *, #300, .F. ) ;
#385 = VECTOR ( 'NONE', #448, 100.0000000000000000 ) ;
#386 = DIRECTION ( 'NONE',  ( 2.830551126302482826E-16, -0.000000000000000000, 1.000000000000000000 ) ) ;
#387 = VECTOR ( 'NONE', #860, 100.0000000000000000 ) ;
#388 = VERTEX_POINT ( 'NONE', #398 ) ;
#389 = DIRECTION ( 'NONE',  ( 0.000000000000000000, 0.000000000000000000, -1.000000000000000000 ) ) ;
#390 = LINE ( 'NONE', #86, #501 ) ;
#391 = ADVANCED_FACE ( 'NONE', ( #103 ), #736, .F. ) ;
#392 = ORIENTED_EDGE ( 'NONE', *, *, #31, .T. ) ;
#393 = CARTESIAN_POINT ( 'NONE',  ( -3.159999999998970743, 4.609999999999982556, 1.350000000000000089 ) ) ;
#394 = ORIENTED_EDGE ( 'NONE', *, *, #638, .T. ) ;
#395 = CARTESIAN_POINT ( 'NONE',  ( -3.159999999998970743, 4.609999999999982556, 1.350000000000000089 ) ) ;
#396 = VERTEX_POINT ( 'NONE', #868 ) ;
#397 = EDGE_CURVE ( 'NONE', #330, #626, #660, .T. ) ;
#398 = CARTESIAN_POINT ( 'NONE',  ( -3.259999999998970832, 4.209999999999982201, 0.6000000000000001998 ) ) ;
#399 = VERTEX_POINT ( 'NONE', #591 ) ;
#400 = VERTEX_POINT ( 'NONE', #889 ) ;
#401 = VECTOR ( 'NONE', #274, 100.0000000000000000 ) ;
#402 = CARTESIAN_POINT ( 'NONE',  ( -3.259999999998970832, 4.609999999999982556, 1.250000000000000000 ) ) ;
#403 = VECTOR ( 'NONE', #362, 100.0000000000000000 ) ;
#404 = ADVANCED_FACE ( 'NONE', ( #601 ), #801, .F. ) ;
#405 = AXIS2_PLACEMENT_3D ( 'NONE', #244, #876, #529 ) ;
#406 = ORIENTED_EDGE ( 'NONE', *, *, #209, .F. ) ;
#407 = VERTEX_POINT ( 'NONE', #733 ) ;
#408 = ORIENTED_EDGE ( 'NONE', *, *, #88, .T. ) ;
#409 = CARTESIAN_POINT ( 'NONE',  ( -3.259999999998970832, 4.609999999999982556, 1.250000000000000000 ) ) ;
#410 = ADVANCED_FACE ( 'NONE', ( #551 ), #151, .F. ) ;
#411 = ORIENTED_EDGE ( 'NONE', *, *, #541, .F. ) ;
#412 = CARTESIAN_POINT ( 'NONE',  ( 0.000000000000000000, 3.409999999999982379, 0.000000000000000000 ) ) ;
#413 = ORIENTED_EDGE ( 'NONE', *, *, #88, .F. ) ;
#414 = DIRECTION ( 'NONE',  ( -1.000000000000000000, 0.000000000000000000, 2.830551126302482826E-16 ) ) ;
#415 = AXIS2_PLACEMENT_3D ( 'NONE', #85, #368, #298 ) ;
#416 = AXIS2_PLACEMENT_3D ( 'NONE', #441, #712, #13 ) ;
#417 = DIRECTION ( 'NONE',  ( 0.000000000000000000, 0.000000000000000000, 1.000000000000000000 ) ) ;
#418 = EDGE_CURVE ( 'NONE', #185, #330, #562, .T. ) ;
#419 = FACE_BOUND ( 'NONE', #539, .T. ) ;
#420 = ORIENTED_EDGE ( 'NONE', *, *, #784, .T. ) ;
#421 = DIRECTION ( 'NONE',  ( 1.000000000000000000, 0.000000000000000000, -1.242045448193417777E-16 ) ) ;
#422 = CARTESIAN_POINT ( 'NONE',  ( -3.259999999998970832, 4.609999999999982556, -1.250000000000000000 ) ) ;
#423 = ORIENTED_EDGE ( 'NONE', *, *, #683, .T. ) ;
#424 = DIRECTION ( 'NONE',  ( 0.000000000000000000, 0.000000000000000000, -1.000000000000000000 ) ) ;
#425 = ORIENTED_EDGE ( 'NONE', *, *, #707, .F. ) ;
#426 = CARTESIAN_POINT ( 'NONE',  ( -4.889999999998971170, 3.409999999999982379, 1.574999999999999956 ) ) ;
#427 = EDGE_CURVE ( 'NONE', #399, #887, #343, .T. ) ;
#428 = CLOSED_SHELL ( 'NONE', ( #179, #835, #150, #695, #166, #276, #472, #82, #288, #346, #455, #42, #391, #604, #303, #155, #353, #59, #646, #830, #138, #410, #734, #352, #622, #404, #897 ) ) ;
#429 =( GEOMETRIC_REPRESENTATION_CONTEXT ( 3 ) GLOBAL_UNCERTAINTY_ASSIGNED_CONTEXT ( ( #26 ) ) GLOBAL_UNIT_ASSIGNED_CONTEXT ( ( #853, #847, #663 ) ) REPRESENTATION_CONTEXT ( 'NONE', 'WORKASPACE' ) );
#430 = CARTESIAN_POINT ( 'NONE',  ( -3.259999999998970832, 4.609999999999981668, 0.6000000000000005329 ) ) ;
#431 = VERTEX_POINT ( 'NONE', #634 ) ;
#432 = DIRECTION ( 'NONE',  ( 0.000000000000000000, 0.000000000000000000, 1.000000000000000000 ) ) ;
#433 = PRODUCT_RELATED_PRODUCT_CATEGORY ( 'part', '', ( #485 ) ) ;
#434 = CARTESIAN_POINT ( 'NONE',  ( -3.159999999998970743, 3.509999999999982467, -0.5999999999999999778 ) ) ;
#435 = DIRECTION ( 'NONE',  ( 1.000000000000000000, -0.000000000000000000, -0.000000000000000000 ) ) ;
#436 = EDGE_LOOP ( 'NONE', ( #471, #76 ) ) ;
#437 = CARTESIAN_POINT ( 'NONE',  ( -4.889999999998972058, 3.409999999999982379, -1.574999999998279776 ) ) ;
#438 = DIRECTION ( 'NONE',  ( 0.000000000000000000, -1.000000000000000000, -0.000000000000000000 ) ) ;
#439 = DIRECTION ( 'NONE',  ( 0.000000000000000000, 0.000000000000000000, 1.000000000000000000 ) ) ;
#440 = DIRECTION ( 'NONE',  ( 0.000000000000000000, 1.000000000000000000, -0.000000000000000000 ) ) ;
#441 = CARTESIAN_POINT ( 'NONE',  ( -4.889999999998972058, 3.309999999999982290, -1.749999999999999778 ) ) ;
#442 = AXIS2_PLACEMENT_3D ( 'NONE', #636, #780, #854 ) ;
#443 = EDGE_CURVE ( 'NONE', #886, #363, #559, .T. ) ;
#444 = AXIS2_PLACEMENT_3D ( 'NONE', #221, #536, #328 ) ;
#445 = CARTESIAN_POINT ( 'NONE',  ( -5.189999999998971880, 3.409999999999982379, 0.000000000000000000 ) ) ;
#446 = DIRECTION ( 'NONE',  ( -1.387778780781456404E-14, 0.000000000000000000, 1.000000000000000000 ) ) ;
#447 = CARTESIAN_POINT ( 'NONE',  ( -7.449999999998971667, 4.609999999999982556, -1.249999999999999556 ) ) ;
#448 = DIRECTION ( 'NONE',  ( -0.000000000000000000, -1.000000000000000000, -2.478176394252582127E-16 ) ) ;
#449 = ORIENTED_EDGE ( 'NONE', *, *, #856, .F. ) ;
#450 = CARTESIAN_POINT ( 'NONE',  ( -3.159999999998970743, 3.409999999999982379, -1.350000000000000089 ) ) ;
#451 = LINE ( 'NONE', #657, #730 ) ;
#452 = ORIENTED_EDGE ( 'NONE', *, *, #851, .T. ) ;
#453 = CARTESIAN_POINT ( 'NONE',  ( -5.189999999998971880, 3.309999999999982290, 1.350000000000000311 ) ) ;
#454 = LINE ( 'NONE', #201, #671 ) ;
#455 = ADVANCED_FACE ( 'NONE', ( #208 ), #72, .T. ) ;
#456 = CARTESIAN_POINT ( 'NONE',  ( -4.589999999998112479, 3.409999999999982379, -1.750000000000000444 ) ) ;
#457 = VERTEX_POINT ( 'NONE', #491 ) ;
#458 = CIRCLE ( 'NONE', #442, 0.1750000000017199464 ) ;
#459 = DIRECTION ( 'NONE',  ( -1.000000000000000000, 0.000000000000000000, -0.000000000000000000 ) ) ;
#460 = VECTOR ( 'NONE', #35, 100.0000000000000000 ) ;
#461 = LINE ( 'NONE', #450, #12 ) ;
#462 = EDGE_CURVE ( 'NONE', #431, #188, #203, .T. ) ;
#463 = ORIENTED_EDGE ( 'NONE', *, *, #443, .F. ) ;
#464 = LINE ( 'NONE', #119, #105 ) ;
#465 = EDGE_LOOP ( 'NONE', ( #808, #656, #737, #210 ) ) ;
#466 = ORIENTED_EDGE ( 'NONE', *, *, #249, .F. ) ;
#467 = EDGE_CURVE ( 'NONE', #667, #380, #903, .T. ) ;
#468 = DIRECTION ( 'NONE',  ( 2.021822233073201596E-16, -0.000000000000000000, 1.000000000000000000 ) ) ;
#469 = VERTEX_POINT ( 'NONE', #1 ) ;
#470 = DIRECTION ( 'NONE',  ( -0.000000000000000000, -1.000000000000000000, 0.000000000000000000 ) ) ;
#471 = ORIENTED_EDGE ( 'NONE', *, *, #189, .T. ) ;
#472 = ADVANCED_FACE ( 'NONE', ( #623 ), #777, .T. ) ;
#473 = AXIS2_PLACEMENT_3D ( 'NONE', #10, #374, #850 ) ;
#474 = VECTOR ( 'NONE', #783, 100.0000000000000000 ) ;
#475 = ORIENTED_EDGE ( 'NONE', *, *, #739, .F. ) ;
#476 = EDGE_LOOP ( 'NONE', ( #842, #686, #466, #413 ) ) ;
#477 = ORIENTED_EDGE ( 'NONE', *, *, #511, .T. ) ;
#478 = DIRECTION ( 'NONE',  ( 1.734723475976804136E-15, 0.000000000000000000, 1.000000000000000000 ) ) ;
#479 = ORIENTED_EDGE ( 'NONE', *, *, #881, .T. ) ;
#480 = LINE ( 'NONE', #768, #104 ) ;
#481 = EDGE_CURVE ( 'NONE', #143, #139, #824, .T. ) ;
#482 = DIRECTION ( 'NONE',  ( -0.000000000000000000, -1.000000000000000000, -0.000000000000000000 ) ) ;
#483 = ORIENTED_EDGE ( 'NONE', *, *, #127, .F. ) ;
#484 = DIRECTION ( 'NONE',  ( -0.000000000000000000, -1.000000000000000000, -0.000000000000000000 ) ) ;
#485 = PRODUCT ( 'Part7', 'Part7', '', ( #366 ) ) ;
#486 = AXIS2_PLACEMENT_3D ( 'NONE', #615, #809, #27 ) ;
#487 = VECTOR ( 'NONE', #644, 100.0000000000000000 ) ;
#488 = CARTESIAN_POINT ( 'NONE',  ( -3.259999999998970832, 4.609999999999982556, -0.5999999999999999778 ) ) ;
#489 = ORIENTED_EDGE ( 'NONE', *, *, #418, .F. ) ;
#490 = DIRECTION ( 'NONE',  ( 0.000000000000000000, 0.000000000000000000, 1.000000000000000000 ) ) ;
#491 = CARTESIAN_POINT ( 'NONE',  ( -5.189999999998971880, 3.409999999999982379, 1.750000000000000444 ) ) ;
#492 = DIRECTION ( 'NONE',  ( 1.000000000000000000, -0.000000000000000000, -1.242045448193417777E-16 ) ) ;
#493 = EDGE_CURVE ( 'NONE', #47, #188, #557, .T. ) ;
#494 = ORIENTED_EDGE ( 'NONE', *, *, #329, .T. ) ;
#495 = PLANE ( 'NONE',  #275 ) ;
#496 = LINE ( 'NONE', #430, #787 ) ;
#497 = ORIENTED_EDGE ( 'NONE', *, *, #50, .F. ) ;
#498 = LINE ( 'NONE', #290, #28 ) ;
#499 = AXIS2_PLACEMENT_3D ( 'NONE', #621, #550, #490 ) ;
#500 = AXIS2_PLACEMENT_3D ( 'NONE', #237, #253, #526 ) ;
#501 = VECTOR ( 'NONE', #861, 100.0000000000000000 ) ;
#502 = LINE ( 'NONE', #708, #874 ) ;
#503 = CARTESIAN_POINT ( 'NONE',  ( -3.159999999998970743, 4.209999999999982201, 0.6000000000000001998 ) ) ;
#504 = ORIENTED_EDGE ( 'NONE', *, *, #638, .F. ) ;
#505 = CARTESIAN_POINT ( 'NONE',  ( -4.889999999998972058, 3.409999999999982379, -1.925000000001719780 ) ) ;
#506 = LINE ( 'NONE', #719, #121 ) ;
#507 = UNCERTAINTY_MEASURE_WITH_UNIT (LENGTH_MEASURE( 1.000000000000000082E-05 ), #87, 'distance_accuracy_value', 'NONE');
#508 = ORIENTED_EDGE ( 'NONE', *, *, #784, .F. ) ;
#509 = CARTESIAN_POINT ( 'NONE',  ( -4.889999999998971170, 3.309999999999982290, 1.750000000000000444 ) ) ;
#510 = FACE_BOUND ( 'NONE', #436, .T. ) ;
#511 = EDGE_CURVE ( 'NONE', #139, #124, #282, .T. ) ;
#512 = SURFACE_STYLE_FILL_AREA ( #527 ) ;
#513 = APPLICATION_PROTOCOL_DEFINITION ( 'draft international standard', 'automotive_design', 1998, #334 ) ;
#514 = LINE ( 'NONE', #157, #531 ) ;
#515 = EDGE_LOOP ( 'NONE', ( #113, #597 ) ) ;
#516 = VECTOR ( 'NONE', #342, 100.0000000000000000 ) ;
#517 = CARTESIAN_POINT ( 'NONE',  ( -3.159999999998970743, 3.509999999999982467, -0.5999999999999999778 ) ) ;
#518 = FACE_OUTER_BOUND ( 'NONE', #206, .T. ) ;
#519 = FACE_OUTER_BOUND ( 'NONE', #681, .T. ) ;
#520 = PRESENTATION_LAYER_ASSIGNMENT (  '', '', ( #658 ) ) ;
#521 = EDGE_CURVE ( 'NONE', #388, #283, #496, .T. ) ;
#522 = LINE ( 'NONE', #505, #232 ) ;
#523 = CARTESIAN_POINT ( 'NONE',  ( -4.589999999998971347, 3.309999999999982290, 1.750000000000000444 ) ) ;
#524 = DIRECTION ( 'NONE',  ( -0.000000000000000000, -0.000000000000000000, -1.000000000000000000 ) ) ;
#525 = EDGE_CURVE ( 'NONE', #742, #125, #216, .T. ) ;
#526 = DIRECTION ( 'NONE',  ( 0.000000000000000000, 0.000000000000000000, -1.000000000000000000 ) ) ;
#527 = FILL_AREA_STYLE ('',( #314 ) ) ;
#528 = ORIENTED_EDGE ( 'NONE', *, *, #590, .F. ) ;
#529 = DIRECTION ( 'NONE',  ( 0.000000000000000000, -1.000000000000000000, -2.478176394252582127E-16 ) ) ;
#530 = ORIENTED_EDGE ( 'NONE', *, *, #856, .T. ) ;
#531 = VECTOR ( 'NONE', #572, 100.0000000000000000 ) ;
#532 = VECTOR ( 'NONE', #595, 100.0000000000000000 ) ;
#533 = CARTESIAN_POINT ( 'NONE',  ( -7.449999999998969891, 3.409999999999982379, -1.249999999999999778 ) ) ;
#534 = VECTOR ( 'NONE', #37, 100.0000000000000000 ) ;
#535 = VERTEX_POINT ( 'NONE', #286 ) ;
#536 = DIRECTION ( 'NONE',  ( -0.000000000000000000, -1.000000000000000000, -0.000000000000000000 ) ) ;
#537 = EDGE_LOOP ( 'NONE', ( #475, #832 ) ) ;
#538 = FACE_OUTER_BOUND ( 'NONE', #866, .T. ) ;
#539 = EDGE_LOOP ( 'NONE', ( #49, #327, #755, #624 ) ) ;
#540 = DIRECTION ( 'NONE',  ( 0.000000000000000000, -0.000000000000000000, -1.000000000000000000 ) ) ;
#541 = EDGE_CURVE ( 'NONE', #608, #742, #565, .T. ) ;
#542 = ORIENTED_EDGE ( 'NONE', *, *, #766, .F. ) ;
#543 = EDGE_LOOP ( 'NONE', ( #332, #238, #55, #659 ) ) ;
#544 = EDGE_LOOP ( 'NONE', ( #135, #483, #350, #810 ) ) ;
#545 = CIRCLE ( 'NONE', #643, 0.3000000000017197244 ) ;
#546 = VERTEX_POINT ( 'NONE', #434 ) ;
#547 = LINE ( 'NONE', #817, #753 ) ;
#548 = EDGE_CURVE ( 'NONE', #469, #243, #502, .T. ) ;
#549 = VERTEX_POINT ( 'NONE', #689 ) ;
#550 = DIRECTION ( 'NONE',  ( -0.000000000000000000, -1.000000000000000000, 0.000000000000000000 ) ) ;
#551 = FACE_OUTER_BOUND ( 'NONE', #320, .T. ) ;
#552 = ORIENTED_EDGE ( 'NONE', *, *, #797, .T. ) ;
#553 = LINE ( 'NONE', #207, #401 ) ;
#554 = DIRECTION ( 'NONE',  ( -0.000000000000000000, -1.000000000000000000, 0.000000000000000000 ) ) ;
#555 = VERTEX_POINT ( 'NONE', #365 ) ;
#556 = CARTESIAN_POINT ( 'NONE',  ( -4.589999999998971347, 3.409999999999982379, 1.350000000000000089 ) ) ;
#557 = CIRCLE ( 'NONE', #161, 0.3000000000017197244 ) ;
#558 = MECHANICAL_DESIGN_GEOMETRIC_PRESENTATION_REPRESENTATION (  '', ( #658 ), #429 ) ;
#559 = LINE ( 'NONE', #78, #248 ) ;
#560 = ORIENTED_EDGE ( 'NONE', *, *, #22, .T. ) ;
#561 = DIRECTION ( 'NONE',  ( 0.000000000000000000, 0.000000000000000000, -1.000000000000000000 ) ) ;
#562 = LINE ( 'NONE', #6, #844 ) ;
#563 = ORIENTED_EDGE ( 'NONE', *, *, #766, .T. ) ;
#564 = DIRECTION ( 'NONE',  ( 0.000000000000000000, 0.000000000000000000, -1.000000000000000000 ) ) ;
#565 = LINE ( 'NONE', #694, #899 ) ;
#566 = ORIENTED_EDGE ( 'NONE', *, *, #189, .F. ) ;
#567 = CYLINDRICAL_SURFACE ( 'NONE', #295, 0.1750000000017199464 ) ;
#568 = AXIS2_PLACEMENT_3D ( 'NONE', #344, #894, #272 ) ;
#569 = CARTESIAN_POINT ( 'NONE',  ( -4.889999999998972058, 3.409999999999982379, -1.749999999999999778 ) ) ;
#570 = DIRECTION ( 'NONE',  ( -0.000000000000000000, -1.000000000000000000, -0.000000000000000000 ) ) ;
#571 = EDGE_LOOP ( 'NONE', ( #117, #699, #684, #153 ) ) ;
#572 = DIRECTION ( 'NONE',  ( -1.000000000000000000, 0.000000000000000000, 1.242045448193417777E-16 ) ) ;
#573 = EDGE_CURVE ( 'NONE', #742, #40, #132, .T. ) ;
#574 = DIRECTION ( 'NONE',  ( -5.139921410301652768E-16, 0.000000000000000000, 1.000000000000000000 ) ) ;
#575 = APPLICATION_PROTOCOL_DEFINITION ( 'draft international standard', 'automotive_design', 1998, #241 ) ;
#576 = LINE ( 'NONE', #228, #774 ) ;
#577 = LINE ( 'NONE', #517, #373 ) ;
#578 = EDGE_CURVE ( 'NONE', #281, #311, #687, .T. ) ;
#579 =( NAMED_UNIT ( * ) SI_UNIT ( $, .STERADIAN. ) SOLID_ANGLE_UNIT ( ) );
#580 = DIRECTION ( 'NONE',  ( -1.000000000000000000, 0.000000000000000000, 0.000000000000000000 ) ) ;
#581 = VECTOR ( 'NONE', #879, 100.0000000000000000 ) ;
#582 = SURFACE_SIDE_STYLE ('',( #512 ) ) ;
#583 = AXIS2_PLACEMENT_3D ( 'NONE', #98, #655, #864 ) ;
#584 = EDGE_CURVE ( 'NONE', #667, #431, #545, .T. ) ;
#585 = CARTESIAN_POINT ( 'NONE',  ( -5.189999999998971880, 3.309999999999982290, 1.750000000000000444 ) ) ;
#586 = VECTOR ( 'NONE', #863, 100.0000000000000000 ) ;
#587 = DIRECTION ( 'NONE',  ( 0.000000000000000000, 0.000000000000000000, -1.000000000000000000 ) ) ;
#588 = SURFACE_STYLE_USAGE ( .BOTH. , #582 ) ;
#589 = ORIENTED_EDGE ( 'NONE', *, *, #651, .F. ) ;
#590 = EDGE_CURVE ( 'NONE', #91, #535, #390, .T. ) ;
#591 = CARTESIAN_POINT ( 'NONE',  ( -5.189999999998971880, 3.409999999999982379, 1.350000000000000311 ) ) ;
#592 = CARTESIAN_POINT ( 'NONE',  ( -5.189999999998970104, 3.409999999999982379, 9.003214840317845994E-15 ) ) ;
#593 = DIRECTION ( 'NONE',  ( 0.000000000000000000, 0.000000000000000000, -1.000000000000000000 ) ) ;
#594 = LINE ( 'NONE', #811, #277 ) ;
#595 = DIRECTION ( 'NONE',  ( -1.000000000000000000, 0.000000000000000000, 2.830551126302482826E-16 ) ) ;
#596 = EDGE_CURVE ( 'NONE', #91, #223, #602, .T. ) ;
#597 = ORIENTED_EDGE ( 'NONE', *, *, #683, .F. ) ;
#598 = MANIFOLD_SOLID_BREP ( 'Cut-Extrude1', #428 ) ;
#599 = ORIENTED_EDGE ( 'NONE', *, *, #379, .F. ) ;
#600 = AXIS2_PLACEMENT_3D ( 'NONE', #569, #137, #291 ) ;
#601 = FACE_OUTER_BOUND ( 'NONE', #218, .T. ) ;
#602 = CIRCLE ( 'NONE', #307, 0.1750000000000004885 ) ;
#603 = EDGE_LOOP ( 'NONE', ( #106, #200, #406, #56 ) ) ;
#604 = ADVANCED_FACE ( 'NONE', ( #222 ), #790, .T. ) ;
#605 = LINE ( 'NONE', #315, #581 ) ;
#606 = ORIENTED_EDGE ( 'NONE', *, *, #758, .F. ) ;
#607 = EDGE_CURVE ( 'NONE', #750, #197, #226, .T. ) ;
#608 = VERTEX_POINT ( 'NONE', #158 ) ;
#609 = ORIENTED_EDGE ( 'NONE', *, *, #867, .F. ) ;
#610 = CARTESIAN_POINT ( 'NONE',  ( -4.589999999998971347, 3.409999999999982379, 0.000000000000000000 ) ) ;
#611 = EDGE_CURVE ( 'NONE', #297, #691, #506, .T. ) ;
#612 = AXIS2_PLACEMENT_3D ( 'NONE', #149, #706, #432 ) ;
#613 = ORIENTED_EDGE ( 'NONE', *, *, #890, .T. ) ;
#614 = FACE_OUTER_BOUND ( 'NONE', #827, .T. ) ;
#615 = CARTESIAN_POINT ( 'NONE',  ( -3.159999999998970743, 3.409999999999982379, 0.000000000000000000 ) ) ;
#616 = ORIENTED_EDGE ( 'NONE', *, *, #329, .F. ) ;
#617 = CARTESIAN_POINT ( 'NONE',  ( -3.159999999998970743, 4.209999999999982201, -0.5999999999999999778 ) ) ;
#618 = DIRECTION ( 'NONE',  ( 1.000000000000000000, -0.000000000000000000, -2.021822233073201596E-16 ) ) ;
#619 = ORIENTED_EDGE ( 'NONE', *, *, #714, .F. ) ;
#620 = VERTEX_POINT ( 'NONE', #93 ) ;
#621 = CARTESIAN_POINT ( 'NONE',  ( -4.889999999998972058, 3.409999999999982379, -1.749999999999999778 ) ) ;
#622 = ADVANCED_FACE ( 'NONE', ( #518 ), #795, .F. ) ;
#623 = FACE_OUTER_BOUND ( 'NONE', #603, .T. ) ;
#624 = ORIENTED_EDGE ( 'NONE', *, *, #521, .T. ) ;
#625 = VECTOR ( 'NONE', #484, 100.0000000000000000 ) ;
#626 = VERTEX_POINT ( 'NONE', #377 ) ;
#627 = PLANE ( 'NONE',  #292 ) ;
#628 = AXIS2_PLACEMENT_3D ( 'NONE', #229, #36, #574 ) ;
#629 = EDGE_CURVE ( 'NONE', #469, #608, #713, .T. ) ;
#630 = CARTESIAN_POINT ( 'NONE',  ( -4.889999999998972058, 3.409999999999982379, -1.749999999999999778 ) ) ;
#631 = CARTESIAN_POINT ( 'NONE',  ( -4.889999999998972058, 3.309999999999982290, -1.749999999999999778 ) ) ;
#632 = ORIENTED_EDGE ( 'NONE', *, *, #361, .T. ) ;
#633 = FACE_OUTER_BOUND ( 'NONE', #273, .T. ) ;
#634 = CARTESIAN_POINT ( 'NONE',  ( -4.889999999998972058, 3.409999999999982379, -2.050000000001719336 ) ) ;
#635 = ORIENTED_EDGE ( 'NONE', *, *, #31, .F. ) ;
#636 = CARTESIAN_POINT ( 'NONE',  ( -4.889999999998972058, 3.409999999999982379, -1.749999999999999778 ) ) ;
#637 = CARTESIAN_POINT ( 'NONE',  ( -3.259999999998970832, 4.609999999999982556, -1.250000000000000000 ) ) ;
#638 = EDGE_CURVE ( 'NONE', #214, #311, #369, .T. ) ;
#639 = EDGE_LOOP ( 'NONE', ( #746, #763, #489, #800, #883, #609, #32, #102 ) ) ;
#640 = DIRECTION ( 'NONE',  ( -0.000000000000000000, -1.000000000000000000, -0.000000000000000000 ) ) ;
#641 = VECTOR ( 'NONE', #618, 100.0000000000000000 ) ;
#642 = DIRECTION ( 'NONE',  ( 5.139921410301651782E-16, 0.000000000000000000, -1.000000000000000000 ) ) ;
#643 = AXIS2_PLACEMENT_3D ( 'NONE', #279, #101, #19 ) ;
#644 = DIRECTION ( 'NONE',  ( -0.000000000000000000, -1.000000000000000000, -0.000000000000000000 ) ) ;
#645 = CARTESIAN_POINT ( 'NONE',  ( -4.589999999998971347, 3.409999999999982379, 1.350000000000000089 ) ) ;
#646 = ADVANCED_FACE ( 'NONE', ( #109, #649, #381 ), #653, .F. ) ;
#647 = CARTESIAN_POINT ( 'NONE',  ( -3.259999999998970832, 4.209999999999982201, -1.250000000000000000 ) ) ;
#648 = ORIENTED_EDGE ( 'NONE', *, *, #99, .F. ) ;
#649 = FACE_OUTER_BOUND ( 'NONE', #187, .T. ) ;
#650 = PLANE ( 'NONE',  #74 ) ;
#651 = EDGE_CURVE ( 'NONE', #735, #400, #451, .T. ) ;
#652 = CARTESIAN_POINT ( 'NONE',  ( -4.589999999998112479, 3.409999999999982379, -1.750000000000000444 ) ) ;
#653 = PLANE ( 'NONE',  #147 ) ;
#654 = LINE ( 'NONE', #227, #75 ) ;
#655 = DIRECTION ( 'NONE',  ( 1.000000000000000000, 0.000000000000000000, -1.734723475976804136E-15 ) ) ;
#656 = ORIENTED_EDGE ( 'NONE', *, *, #190, .F. ) ;
#657 = CARTESIAN_POINT ( 'NONE',  ( -4.589999999998971347, 3.309999999999982290, -0.000000000000000000 ) ) ;
#658 = STYLED_ITEM ( 'NONE', ( #156 ), #598 ) ;
#659 = ORIENTED_EDGE ( 'NONE', *, *, #775, .T. ) ;
#660 = LINE ( 'NONE', #321, #372 ) ;
#661 = ORIENTED_EDGE ( 'NONE', *, *, #611, .F. ) ;
#662 = LINE ( 'NONE', #235, #845 ) ;
#663 =( NAMED_UNIT ( * ) SI_UNIT ( $, .STERADIAN. ) SOLID_ANGLE_UNIT ( ) );
#664 = ORIENTED_EDGE ( 'NONE', *, *, #511, .F. ) ;
#665 = PLANE ( 'NONE',  #486 ) ;
#666 = DIRECTION ( 'NONE',  ( 1.000000000000000000, -0.000000000000000000, -2.021822233073201596E-16 ) ) ;
#667 = VERTEX_POINT ( 'NONE', #310 ) ;
#668 = EDGE_CURVE ( 'NONE', #555, #84, #799, .T. ) ;
#669 = DIRECTION ( 'NONE',  ( 1.000000000000000000, 0.000000000000000000, -2.830551126302482826E-16 ) ) ;
#670 = VERTEX_POINT ( 'NONE', #285 ) ;
#671 = VECTOR ( 'NONE', #62, 100.0000000000000000 ) ;
#672 = ORIENTED_EDGE ( 'NONE', *, *, #443, .T. ) ;
#673 = AXIS2_PLACEMENT_3D ( 'NONE', #592, #175, #308 ) ;
#674 = AXIS2_PLACEMENT_3D ( 'NONE', #893, #698, #357 ) ;
#675 = PLANE ( 'NONE',  #583 ) ;
#676 = VECTOR ( 'NONE', #904, 100.0000000000000000 ) ;
#677 = ORIENTED_EDGE ( 'NONE', *, *, #890, .F. ) ;
#678 = DIRECTION ( 'NONE',  ( 0.000000000000000000, 0.000000000000000000, 1.000000000000000000 ) ) ;
#679 = EDGE_CURVE ( 'NONE', #626, #243, #225, .T. ) ;
#680 = ORIENTED_EDGE ( 'NONE', *, *, #668, .F. ) ;
#681 = EDGE_LOOP ( 'NONE', ( #477, #65, #497, #122 ) ) ;
#682 = PLANE ( 'NONE',  #673 ) ;
#683 = EDGE_CURVE ( 'NONE', #311, #281, #29, .T. ) ;
#684 = ORIENTED_EDGE ( 'NONE', *, *, #467, .F. ) ;
#685 = FACE_OUTER_BOUND ( 'NONE', #269, .T. ) ;
#686 = ORIENTED_EDGE ( 'NONE', *, *, #590, .T. ) ;
#687 = CIRCLE ( 'NONE', #90, 0.1750000000017199464 ) ;
#688 = ORIENTED_EDGE ( 'NONE', *, *, #361, .F. ) ;
#689 = CARTESIAN_POINT ( 'NONE',  ( -4.589999999998971347, 3.409999999999982379, 1.750000000000000444 ) ) ;
#690 = FACE_OUTER_BOUND ( 'NONE', #43, .T. ) ;
#691 = VERTEX_POINT ( 'NONE', #855 ) ;
#692 = EDGE_LOOP ( 'NONE', ( #180, #767, #120, #796 ) ) ;
#693 = DIRECTION ( 'NONE',  ( -0.000000000000000000, -1.000000000000000000, -0.000000000000000000 ) ) ;
#694 = CARTESIAN_POINT ( 'NONE',  ( -3.259999999998970832, 4.609999999999982556, -1.250000000000000000 ) ) ;
#695 = ADVANCED_FACE ( 'NONE', ( #852, #510 ), #92, .T. ) ;
#696 = ORIENTED_EDGE ( 'NONE', *, *, #668, .T. ) ;
#697 = CARTESIAN_POINT ( 'NONE',  ( -3.259999999998970832, 4.609999999999982556, 1.250000000000000000 ) ) ;
#698 = DIRECTION ( 'NONE',  ( -0.000000000000000000, -1.000000000000000000, -0.000000000000000000 ) ) ;
#699 = ORIENTED_EDGE ( 'NONE', *, *, #881, .F. ) ;
#700 = CARTESIAN_POINT ( 'NONE',  ( -7.449999999998971667, 4.609999999999982556, 1.250000000000000666 ) ) ;
#701 = VECTOR ( 'NONE', #326, 100.0000000000000000 ) ;
#702 =( GEOMETRIC_REPRESENTATION_CONTEXT ( 3 ) GLOBAL_UNCERTAINTY_ASSIGNED_CONTEXT ( ( #507 ) ) GLOBAL_UNIT_ASSIGNED_CONTEXT ( ( #87, #165, #579 ) ) REPRESENTATION_CONTEXT ( 'NONE', 'WORKASPACE' ) );
#703 = DIRECTION ( 'NONE',  ( 0.000000000000000000, -1.000000000000000000, -2.478176394252582127E-16 ) ) ;
#704 = LINE ( 'NONE', #3, #534 ) ;
#705 = EDGE_LOOP ( 'NONE', ( #425, #169, #616, #895 ) ) ;
#706 = DIRECTION ( 'NONE',  ( 0.000000000000000000, 1.000000000000000000, -0.000000000000000000 ) ) ;
#707 = EDGE_CURVE ( 'NONE', #546, #124, #577, .T. ) ;
#708 = CARTESIAN_POINT ( 'NONE',  ( -7.449999999998969891, 3.409999999999982379, -1.349999999999998757 ) ) ;
#709 = CARTESIAN_POINT ( 'NONE',  ( -7.449999999998971667, 4.209999999999982201, -0.5999999999999999778 ) ) ;
#710 = ORIENTED_EDGE ( 'NONE', *, *, #8, .F. ) ;
#711 = CARTESIAN_POINT ( 'NONE',  ( -4.889999999998971170, 3.409999999999982379, 1.750000000000000444 ) ) ;
#712 = DIRECTION ( 'NONE',  ( -0.000000000000000000, -1.000000000000000000, 0.000000000000000000 ) ) ;
#713 = LINE ( 'NONE', #865, #217 ) ;
#714 = EDGE_CURVE ( 'NONE', #214, #79, #162, .T. ) ;
#715 = CARTESIAN_POINT ( 'NONE',  ( -4.889999999998972058, 3.309999999999982290, -2.050000000001719336 ) ) ;
#716 = ORIENTED_EDGE ( 'NONE', *, *, #114, .T. ) ;
#717 = VECTOR ( 'NONE', #752, 100.0000000000000000 ) ;
#718 = AXIS2_PLACEMENT_3D ( 'NONE', #376, #18, #301 ) ;
#719 = CARTESIAN_POINT ( 'NONE',  ( -3.159999999998970743, 4.609999999999982556, -1.350000000000000089 ) ) ;
#720 = CARTESIAN_POINT ( 'NONE',  ( -3.159999999998970743, 3.309999999999982290, 1.350000000000000089 ) ) ;
#721 = CARTESIAN_POINT ( 'NONE',  ( 0.000000000000000000, 4.609999999999982556, 0.000000000000000000 ) ) ;
#722 = LINE ( 'NONE', #402, #193 ) ;
#723 = ORIENTED_EDGE ( 'NONE', *, *, #679, .T. ) ;
#724 = DIRECTION ( 'NONE',  ( -0.000000000000000000, -1.000000000000000000, 0.000000000000000000 ) ) ;
#725 = DIRECTION ( 'NONE',  ( 0.000000000000000000, 0.000000000000000000, -1.000000000000000000 ) ) ;
#726 = ORIENTED_EDGE ( 'NONE', *, *, #114, .F. ) ;
#727 = DIRECTION ( 'NONE',  ( -0.000000000000000000, -1.000000000000000000, -0.000000000000000000 ) ) ;
#728 = DIRECTION ( 'NONE',  ( -0.000000000000000000, -1.000000000000000000, -0.000000000000000000 ) ) ;
#729 = DIRECTION ( 'NONE',  ( 0.000000000000000000, 1.000000000000000000, -0.000000000000000000 ) ) ;
#730 = VECTOR ( 'NONE', #30, 100.0000000000000000 ) ;
#731 = ORIENTED_EDGE ( 'NONE', *, *, #607, .F. ) ;
#732 = PRODUCT_DEFINITION_FORMATION_WITH_SPECIFIED_SOURCE ( 'ANY', '', #485, .NOT_KNOWN. ) ;
#733 = CARTESIAN_POINT ( 'NONE',  ( -3.159999999998970743, 3.509999999999982467, 0.5999999999999999778 ) ) ;
#734 = ADVANCED_FACE ( 'NONE', ( #39 ), #878, .F. ) ;
#735 = VERTEX_POINT ( 'NONE', #523 ) ;
#736 = PLANE ( 'NONE',  #826 ) ;
#737 = ORIENTED_EDGE ( 'NONE', *, *, #316, .F. ) ;
#738 = ORIENTED_EDGE ( 'NONE', *, *, #194, .T. ) ;
#739 = EDGE_CURVE ( 'NONE', #223, #91, #339, .T. ) ;
#740 = CARTESIAN_POINT ( 'NONE',  ( -3.159999999998970743, 3.509999999999982467, 0.5999999999999999778 ) ) ;
#741 = ORIENTED_EDGE ( 'NONE', *, *, #596, .T. ) ;
#742 = VERTEX_POINT ( 'NONE', #324 ) ;
#743 = VECTOR ( 'NONE', #284, 100.0000000000000000 ) ;
#744 = VECTOR ( 'NONE', #765, 100.0000000000000000 ) ;
#745 = EDGE_CURVE ( 'NONE', #407, #546, #44, .T. ) ;
#746 = ORIENTED_EDGE ( 'NONE', *, *, #679, .F. ) ;
#747 = CARTESIAN_POINT ( 'NONE',  ( -3.821244020508354502E-16, 3.309999999999982290, -1.350000000000000755 ) ) ;
#748 = ORIENTED_EDGE ( 'NONE', *, *, #194, .F. ) ;
#749 = CARTESIAN_POINT ( 'NONE',  ( -3.259999999998970832, 3.509999999999982467, -0.5999999999999999778 ) ) ;
#750 = VERTEX_POINT ( 'NONE', #652 ) ;
#751 = CYLINDRICAL_SURFACE ( 'NONE', #337, 0.1750000000000004885 ) ;
#752 = DIRECTION ( 'NONE',  ( 1.734723475976807883E-15, 0.000000000000000000, 1.000000000000000000 ) ) ;
#753 = VECTOR ( 'NONE', #414, 100.0000000000000000 ) ;
#754 = VECTOR ( 'NONE', #564, 100.0000000000000000 ) ;
#755 = ORIENTED_EDGE ( 'NONE', *, *, #255, .T. ) ;
#756 = FACE_OUTER_BOUND ( 'NONE', #465, .T. ) ;
#757 = DIRECTION ( 'NONE',  ( -1.242045448193417777E-16, 0.000000000000000000, -1.000000000000000000 ) ) ;
#758 = EDGE_CURVE ( 'NONE', #47, #620, #23, .T. ) ;
#759 = ORIENTED_EDGE ( 'NONE', *, *, #427, .T. ) ;
#760 = PLANE ( 'NONE',  #858 ) ;
#761 = CARTESIAN_POINT ( 'NONE',  ( -5.189999999998970104, 3.409999999999982379, 9.003214840317845994E-15 ) ) ;
#762 = DIRECTION ( 'NONE',  ( -0.000000000000000000, -1.000000000000000000, -0.000000000000000000 ) ) ;
#763 = ORIENTED_EDGE ( 'NONE', *, *, #397, .F. ) ;
#764 = EDGE_CURVE ( 'NONE', #197, #84, #662, .T. ) ;
#765 = DIRECTION ( 'NONE',  ( -0.000000000000000000, -1.000000000000000000, -0.000000000000000000 ) ) ;
#766 = EDGE_CURVE ( 'NONE', #691, #396, #461, .T. ) ;
#767 = ORIENTED_EDGE ( 'NONE', *, *, #902, .F. ) ;
#768 = CARTESIAN_POINT ( 'NONE',  ( -4.589999999998969571, 3.409999999999982379, 7.962380754731742805E-15 ) ) ;
#769 = DIRECTION ( 'NONE',  ( -0.000000000000000000, 1.000000000000000000, 0.000000000000000000 ) ) ;
#770 = LINE ( 'NONE', #358, #60 ) ;
#771 = CIRCLE ( 'NONE', #499, 0.3000000000017197244 ) ;
#772 = ORIENTED_EDGE ( 'NONE', *, *, #249, .T. ) ;
#773 = DIRECTION ( 'NONE',  ( -0.000000000000000000, -1.000000000000000000, -0.000000000000000000 ) ) ;
#774 = VECTOR ( 'NONE', #773, 100.0000000000000000 ) ;
#775 = EDGE_CURVE ( 'NONE', #549, #887, #240, .T. ) ;
#776 = VECTOR ( 'NONE', #593, 100.0000000000000000 ) ;
#777 = CYLINDRICAL_SURFACE ( 'NONE', #674, 0.3000000000000002665 ) ;
#778 = DIRECTION ( 'NONE',  ( 0.000000000000000000, 1.000000000000000000, -0.000000000000000000 ) ) ;
#779 = ORIENTED_EDGE ( 'NONE', *, *, #707, .T. ) ;
#780 = DIRECTION ( 'NONE',  ( -0.000000000000000000, -1.000000000000000000, 0.000000000000000000 ) ) ;
#781 = CARTESIAN_POINT ( 'NONE',  ( -4.889999999998971170, 3.409999999999982379, 1.750000000000000444 ) ) ;
#782 = LINE ( 'NONE', #647, #743 ) ;
#783 = DIRECTION ( 'NONE',  ( -0.000000000000000000, -1.000000000000000000, -0.000000000000000000 ) ) ;
#784 = EDGE_CURVE ( 'NONE', #396, #260, #872, .T. ) ;
#785 = LINE ( 'NONE', #445, #754 ) ;
#786 = VECTOR ( 'NONE', #819, 100.0000000000000000 ) ;
#787 = VECTOR ( 'NONE', #703, 100.0000000000000000 ) ;
#788 = ORIENTED_EDGE ( 'NONE', *, *, #764, .T. ) ;
#789 = VECTOR ( 'NONE', #145, 100.0000000000000000 ) ;
#790 = PLANE ( 'NONE',  #628 ) ;
#791 = EDGE_CURVE ( 'NONE', #330, #297, #112, .T. ) ;
#792 = PLANE ( 'NONE',  #612 ) ;
#793 = ORIENTED_EDGE ( 'NONE', *, *, #54, .T. ) ;
#794 = DIRECTION ( 'NONE',  ( 0.000000000000000000, 0.000000000000000000, 1.000000000000000000 ) ) ;
#795 = PLANE ( 'NONE',  #814 ) ;
#796 = ORIENTED_EDGE ( 'NONE', *, *, #22, .F. ) ;
#797 = EDGE_CURVE ( 'NONE', #341, #125, #73, .T. ) ;
#798 = LINE ( 'NONE', #173, #532 ) ;
#799 = LINE ( 'NONE', #242, #744 ) ;
#800 = ORIENTED_EDGE ( 'NONE', *, *, #190, .T. ) ;
#801 = PLANE ( 'NONE',  #405 ) ;
#802 = EDGE_CURVE ( 'NONE', #297, #260, #848, .T. ) ;
#803 = VECTOR ( 'NONE', #836, 100.0000000000000000 ) ;
#804 = ORIENTED_EDGE ( 'NONE', *, *, #745, .T. ) ;
#805 = PRODUCT_DEFINITION_CONTEXT ( 'detailed design', #334, 'design' ) ;
#806 = CARTESIAN_POINT ( 'NONE',  ( -5.189999999998971880, 3.409999999999982379, -1.349999999999999867 ) ) ;
#807 = EDGE_LOOP ( 'NONE', ( #449, #599, #759, #322, #648, #177, #4, #254 ) ) ;
#808 = ORIENTED_EDGE ( 'NONE', *, *, #159, .T. ) ;
#809 = DIRECTION ( 'NONE',  ( 1.000000000000000000, 0.000000000000000000, 0.000000000000000000 ) ) ;
#810 = ORIENTED_EDGE ( 'NONE', *, *, #230, .T. ) ;
#811 = CARTESIAN_POINT ( 'NONE',  ( -3.259999999998970832, 3.409999999999982379, -1.250000000000000000 ) ) ;
#812 = EDGE_CURVE ( 'NONE', #457, #886, #770, .T. ) ;
#813 = ORIENTED_EDGE ( 'NONE', *, *, #493, .T. ) ;
#814 = AXIS2_PLACEMENT_3D ( 'NONE', #164, #438, #725 ) ;
#815 = ORIENTED_EDGE ( 'NONE', *, *, #54, .F. ) ;
#816 = ORIENTED_EDGE ( 'NONE', *, *, #607, .T. ) ;
#817 = CARTESIAN_POINT ( 'NONE',  ( -3.159999999998970743, 4.609999999999982556, -1.350000000000000089 ) ) ;
#818 = ORIENTED_EDGE ( 'NONE', *, *, #525, .T. ) ;
#819 = DIRECTION ( 'NONE',  ( 0.000000000000000000, 0.000000000000000000, 1.000000000000000000 ) ) ;
#820 = FACE_OUTER_BOUND ( 'NONE', #875, .T. ) ;
#821 = ORIENTED_EDGE ( 'NONE', *, *, #316, .T. ) ;
#822 = CARTESIAN_POINT ( 'NONE',  ( -3.259999999998970832, 3.409999999999982379, -1.250000000000000000 ) ) ;
#823 = EDGE_CURVE ( 'NONE', #555, #380, #2, .T. ) ;
#824 = LINE ( 'NONE', #488, #45 ) ;
#825 = VERTEX_POINT ( 'NONE', #503 ) ;
#826 = AXIS2_PLACEMENT_3D ( 'NONE', #871, #386, #669 ) ;
#827 = EDGE_LOOP ( 'NONE', ( #359, #195, #264, #710 ) ) ;
#828 = DIRECTION ( 'NONE',  ( 0.000000000000000000, 0.000000000000000000, 1.000000000000000000 ) ) ;
#829 = CARTESIAN_POINT ( 'NONE',  ( -3.259999999998970832, 4.609999999999982556, -1.250000000000000000 ) ) ;
#830 = ADVANCED_FACE ( 'NONE', ( #419, #690 ), #64, .F. ) ;
#831 = ORIENTED_EDGE ( 'NONE', *, *, #174, .F. ) ;
#832 = ORIENTED_EDGE ( 'NONE', *, *, #596, .F. ) ;
#833 = CARTESIAN_POINT ( 'NONE',  ( -4.889999999998971170, 3.409999999999982379, 1.925000000000000933 ) ) ;
#834 = DIRECTION ( 'NONE',  ( 0.000000000000000000, 0.000000000000000000, 1.000000000000000000 ) ) ;
#835 = ADVANCED_FACE ( 'NONE', ( #71 ), #266, .F. ) ;
#836 = DIRECTION ( 'NONE',  ( -1.000000000000000000, 0.000000000000000000, 2.830551126302482826E-16 ) ) ;
#837 = ORIENTED_EDGE ( 'NONE', *, *, #462, .F. ) ;
#838 = CARTESIAN_POINT ( 'NONE',  ( -4.889999999998971170, 3.409999999999982379, 1.574999999999999956 ) ) ;
#839 = DIRECTION ( 'NONE',  ( 1.000000000000000000, -0.000000000000000000, -1.242045448193417777E-16 ) ) ;
#840 = CARTESIAN_POINT ( 'NONE',  ( -3.159999999998970743, 3.409999999999982379, 1.350000000000000089 ) ) ;
#841 = LINE ( 'NONE', #25, #586 ) ;
#842 = ORIENTED_EDGE ( 'NONE', *, *, #739, .T. ) ;
#843 = DIRECTION ( 'NONE',  ( -0.000000000000000000, -1.000000000000000000, -0.000000000000000000 ) ) ;
#844 = VECTOR ( 'NONE', #63, 100.0000000000000000 ) ;
#845 = VECTOR ( 'NONE', #170, 100.0000000000000000 ) ;
#846 = CARTESIAN_POINT ( 'NONE',  ( -7.449999999998969891, 3.309999999999982290, -3.829241450674201168E-15 ) ) ;
#847 =( NAMED_UNIT ( * ) PLANE_ANGLE_UNIT ( ) SI_UNIT ( $, .RADIAN. ) );
#848 = LINE ( 'NONE', #840, #323 ) ;
#849 = ORIENTED_EDGE ( 'NONE', *, *, #118, .T. ) ;
#850 = DIRECTION ( 'NONE',  ( 0.000000000000000000, 0.000000000000000000, 1.000000000000000000 ) ) ;
#851 = EDGE_CURVE ( 'NONE', #620, #243, #192, .T. ) ;
#852 = FACE_OUTER_BOUND ( 'NONE', #252, .T. ) ;
#853 =( LENGTH_UNIT ( ) NAMED_UNIT ( * ) SI_UNIT ( .CENTI., .METRE. ) );
#854 = DIRECTION ( 'NONE',  ( 0.000000000000000000, 0.000000000000000000, 1.000000000000000000 ) ) ;
#855 = CARTESIAN_POINT ( 'NONE',  ( -3.159999999998970743, 4.609999999999982556, -1.350000000000000089 ) ) ;
#856 = EDGE_CURVE ( 'NONE', #363, #626, #704, .T. ) ;
#857 = CARTESIAN_POINT ( 'NONE',  ( -4.889999999998972058, 3.309999999999982290, -1.925000000001719780 ) ) ;
#858 = AXIS2_PLACEMENT_3D ( 'NONE', #697, #212, #421 ) ;
#859 = VECTOR ( 'NONE', #492, 100.0000000000000000 ) ;
#860 = DIRECTION ( 'NONE',  ( 1.734723475976807883E-15, 0.000000000000000000, 1.000000000000000000 ) ) ;
#861 = DIRECTION ( 'NONE',  ( -0.000000000000000000, -1.000000000000000000, -0.000000000000000000 ) ) ;
#862 = PRODUCT_DEFINITION ( 'UNKNOWN', '', #732, #805 ) ;
#863 = DIRECTION ( 'NONE',  ( 5.139921410301651782E-16, 0.000000000000000000, -1.000000000000000000 ) ) ;
#864 = DIRECTION ( 'NONE',  ( -1.734723475976804136E-15, 0.000000000000000000, -1.000000000000000000 ) ) ;
#865 = CARTESIAN_POINT ( 'NONE',  ( -7.449999999998969891, 4.609999999999982556, -1.349999999999998757 ) ) ;
#866 = EDGE_LOOP ( 'NONE', ( #849, #779, #664, #331 ) ) ;
#867 = EDGE_CURVE ( 'NONE', #608, #341, #152, .T. ) ;
#868 = CARTESIAN_POINT ( 'NONE',  ( -3.159999999998970743, 3.309999999999982290, -1.350000000000000089 ) ) ;
#869 = DIRECTION ( 'NONE',  ( 0.000000000000000000, 1.000000000000000000, -0.000000000000000000 ) ) ;
#870 = DIRECTION ( 'NONE',  ( 0.000000000000000000, 0.000000000000000000, 1.000000000000000000 ) ) ;
#871 = CARTESIAN_POINT ( 'NONE',  ( -3.821244020508354502E-16, 3.409999999999982379, -1.350000000000000755 ) ) ;
#872 = LINE ( 'NONE', #309, #460 ) ;
#873 = VECTOR ( 'NONE', #89, 100.0000000000000000 ) ;
#874 = VECTOR ( 'NONE', #81, 100.0000000000000000 ) ;
#875 = EDGE_LOOP ( 'NONE', ( #367, #731, #383, #696 ) ) ;
#876 = DIRECTION ( 'NONE',  ( 0.000000000000000000, -2.478176394252582127E-16, 1.000000000000000000 ) ) ;
#877 = ORIENTED_EDGE ( 'NONE', *, *, #220, .F. ) ;
#878 = PLANE ( 'NONE',  #263 ) ;
#879 = DIRECTION ( 'NONE',  ( -0.000000000000000000, -1.000000000000000000, -0.000000000000000000 ) ) ;
#880 = ORIENTED_EDGE ( 'NONE', *, *, #548, .F. ) ;
#881 = EDGE_CURVE ( 'NONE', #380, #620, #371, .T. ) ;
#882 = ORIENTED_EDGE ( 'NONE', *, *, #525, .F. ) ;
#883 = ORIENTED_EDGE ( 'NONE', *, *, #902, .T. ) ;
#884 = VECTOR ( 'NONE', #693, 100.0000000000000000 ) ;
#885 = VECTOR ( 'NONE', #666, 100.0000000000000000 ) ;
#886 = VERTEX_POINT ( 'NONE', #585 ) ;
#887 = VERTEX_POINT ( 'NONE', #645 ) ;
#888 = CYLINDRICAL_SURFACE ( 'NONE', #58, 0.3000000000017197244 ) ;
#889 = CARTESIAN_POINT ( 'NONE',  ( -4.589999999998971347, 3.309999999999982290, 1.350000000000000089 ) ) ;
#890 = EDGE_CURVE ( 'NONE', #283, #407, #654, .T. ) ;
#891 = ORIENTED_EDGE ( 'NONE', *, *, #629, .T. ) ;
#892 = LINE ( 'NONE', #426, #884 ) ;
#893 = CARTESIAN_POINT ( 'NONE',  ( -4.889999999998971170, 3.409999999999982379, 1.750000000000000444 ) ) ;
#894 = DIRECTION ( 'NONE',  ( 1.000000000000000000, 0.000000000000000000, 0.000000000000000000 ) ) ;
#895 = ORIENTED_EDGE ( 'NONE', *, *, #70, .F. ) ;
#896 = FACE_OUTER_BOUND ( 'NONE', #692, .T. ) ;
#897 = ADVANCED_FACE ( 'NONE', ( #519 ), #7, .F. ) ;
#898 = DIRECTION ( 'NONE',  ( 0.000000000000000000, 0.000000000000000000, 1.000000000000000000 ) ) ;
#899 = VECTOR ( 'NONE', #839, 100.0000000000000000 ) ;
#900 = VERTEX_POINT ( 'NONE', #294 ) ;
#901 = FACE_OUTER_BOUND ( 'NONE', #544, .T. ) ;
#902 = EDGE_CURVE ( 'NONE', #900, #341, #841, .T. ) ;
#903 = LINE ( 'NONE', #761, #717 ) ;
#904 = DIRECTION ( 'NONE',  ( -1.000000000000000000, 0.000000000000000000, 2.830551126302482826E-16 ) ) ;
#905 = ORIENTED_EDGE ( 'NONE', *, *, #174, .T. ) ;
#906 = DIRECTION ( 'NONE',  ( 0.000000000000000000, 0.000000000000000000, 1.000000000000000000 ) ) ;
ENDSEC;
END-ISO-10303-21;
