ISO-10303-21;
HEADER;
FILE_DESCRIPTION (( 'STEP AP214' ),
    '1' );
FILE_NAME ('Part4.STEP',
    '2026-07-30T12:34:00',
    ( '' ),
    ( '' ),
    'SwSTEP 2.0',
    'SolidWorks 2026',
    '' );
FILE_SCHEMA (( 'AUTOMOTIVE_DESIGN' ));
ENDSEC;

DATA;
#1 = CARTESIAN_POINT ( 'NONE',  ( 15.28550800703507662, 30.35528168177291874, -49.34871619411772770 ) ) ;
#2 = DIRECTION ( 'NONE',  ( -0.000000000000000000, 1.000000000000000000, -0.000000000000000000 ) ) ;
#3 = DIRECTION ( 'NONE',  ( -0.5573089558583488312, 0.000000000000000000, 0.8303052015494526428 ) ) ;
#4 = EDGE_CURVE ( 'NONE', #596, #608, #118, .T. ) ;
#5 = EDGE_CURVE ( 'NONE', #562, #429, #934, .T. ) ;
#6 = CARTESIAN_POINT ( 'NONE',  ( 12.74873147149161667, 30.69999999999993534, -47.64600702207904703 ) ) ;
#7 = DIRECTION ( 'NONE',  ( 1.000000000000000000, 0.000000000000000000, 0.000000000000000000 ) ) ;
#8 = CARTESIAN_POINT ( 'NONE',  ( 16.42429800461616551, 30.69999999999993534, -42.46822350345926367 ) ) ;
#9 = EDGE_CURVE ( 'NONE', #671, #856, #392, .T. ) ;
#10 = DIRECTION ( 'NONE',  ( -0.000000000000000000, 1.000000000000000000, -0.000000000000000000 ) ) ;
#11 = VECTOR ( 'NONE', #525, 1000.000000000000114 ) ;
#12 = ORIENTED_EDGE ( 'NONE', *, *, #500, .F. ) ;
#13 = CARTESIAN_POINT ( 'NONE',  ( -14.47199999999884490, 31.69999999999993534, -19.29600000000069926 ) ) ;
#14 = LINE ( 'NONE', #912, #364 ) ;
#15 = EDGE_LOOP ( 'NONE', ( #691, #526, #382, #321 ) ) ;
#16 = LINE ( 'NONE', #1011, #713 ) ;
#17 = ORIENTED_EDGE ( 'NONE', *, *, #900, .F. ) ;
#18 = PRESENTATION_LAYER_ASSIGNMENT (  '', '', ( #783 ) ) ;
#19 = DIRECTION ( 'NONE',  ( -0.8000000000000331291, 0.000000000000000000, -0.5999999999999557909 ) ) ;
#20 = CARTESIAN_POINT ( 'NONE',  ( 3.588948926189330377E-12, 30.69999999999993534, -31.89999999999569624 ) ) ;
#21 = DIRECTION ( 'NONE',  ( 1.000000000000000000, 0.000000000000000000, 0.000000000000000000 ) ) ;
#22 = ORIENTED_EDGE ( 'NONE', *, *, #367, .F. ) ;
#23 = CIRCLE ( 'NONE', #696, 2.000000000000001776 ) ;
#25 = AXIS2_PLACEMENT_3D ( 'NONE', #838, #665, #1119 ) ;
#24 = DIRECTION ( 'NONE',  ( -0.5745275399105768122, 0.000000000000000000, 0.8184852508654634207 ) ) ;
#26 = DIRECTION ( 'NONE',  ( 0.000000000000000000, 0.000000000000000000, 1.000000000000000000 ) ) ;
#27 = SHAPE_DEFINITION_REPRESENTATION ( #1076, #901 ) ;
#28 = ORIENTED_EDGE ( 'NONE', *, *, #755, .F. ) ;
#29 = LINE ( 'NONE', #760, #239 ) ;
#30 = DIRECTION ( 'NONE',  ( -0.000000000000000000, 1.000000000000000000, -0.000000000000000000 ) ) ;
#31 = CARTESIAN_POINT ( 'NONE',  ( 18.52298184261396585, 30.44035468428132063, -44.04223638195745139 ) ) ;
#32 = VERTEX_POINT ( 'NONE', #1000 ) ;
#33 = CARTESIAN_POINT ( 'NONE',  ( 38.56839323831705713, 29.69999999999993534, -29.70141530610469616 ) ) ;
#34 = FACE_BOUND ( 'NONE', #748, .T. ) ;
#35 = ORIENTED_EDGE ( 'NONE', *, *, #1159, .F. ) ;
#36 = PLANE ( 'NONE',  #648 ) ;
#37 = ADVANCED_FACE ( 'NONE', ( #659 ), #125, .F. ) ;
#38 = SURFACE_SIDE_STYLE ('',( #869 ) ) ;
#39 = ORIENTED_EDGE ( 'NONE', *, *, #795, .T. ) ;
#40 = DIRECTION ( 'NONE',  ( 0.000000000000000000, 0.000000000000000000, -1.000000000000000000 ) ) ;
#41 = DIRECTION ( 'NONE',  ( 0.000000000000000000, -0.000000000000000000, -1.000000000000000000 ) ) ;
#42 = ADVANCED_FACE ( 'NONE', ( #1097 ), #487, .T. ) ;
#43 = VERTEX_POINT ( 'NONE', #642 ) ;
#44 = DIRECTION ( 'NONE',  ( -0.8303052015494528648, 0.000000000000000000, 0.5573089558583483871 ) ) ;
#45 =( NAMED_UNIT ( * ) PLANE_ANGLE_UNIT ( ) SI_UNIT ( $, .RADIAN. ) );
#46 = AXIS2_PLACEMENT_3D ( 'NONE', #291, #908, #459 ) ;
#47 = FACE_OUTER_BOUND ( 'NONE', #759, .T. ) ;
#48 = EDGE_CURVE ( 'NONE', #678, #573, #553, .T. ) ;
#49 = ORIENTED_EDGE ( 'NONE', *, *, #1028, .T. ) ;
#50 = CIRCLE ( 'NONE', #287, 10.00000000000000178 ) ;
#51 = EDGE_CURVE ( 'NONE', #312, #337, #196, .T. ) ;
#52 = CIRCLE ( 'NONE', #256, 7.358898943537889537 ) ;
#53 = ORIENTED_EDGE ( 'NONE', *, *, #635, .T. ) ;
#54 = VERTEX_POINT ( 'NONE', #371 ) ;
#55 = CARTESIAN_POINT ( 'NONE',  ( 14.47199999999885023, 30.69999999999993534, -19.29600000000068860 ) ) ;
#56 = CARTESIAN_POINT ( 'NONE',  ( -20.00000000000000000, 30.69999999999993534, -48.89999999999668745 ) ) ;
#57 = EDGE_LOOP ( 'NONE', ( #400, #932, #244, #403 ) ) ;
#58 = ORIENTED_EDGE ( 'NONE', *, *, #460, .F. ) ;
#59 = VERTEX_POINT ( 'NONE', #839 ) ;
#60 = SURFACE_STYLE_USAGE ( .BOTH. , #38 ) ;
#61 = AXIS2_PLACEMENT_3D ( 'NONE', #86, #1163, #886 ) ;
#62 = DIRECTION ( 'NONE',  ( -0.000000000000000000, -1.000000000000000000, -0.000000000000000000 ) ) ;
#63 = EDGE_LOOP ( 'NONE', ( #237, #590, #461, #1038 ) ) ;
#64 = ORIENTED_EDGE ( 'NONE', *, *, #402, .T. ) ;
#65 = ORIENTED_EDGE ( 'NONE', *, *, #255, .F. ) ;
#66 = CARTESIAN_POINT ( 'NONE',  ( -18.08787749052790517, 31.69999999999993534, -26.94817409177224832 ) ) ;
#67 = CARTESIAN_POINT ( 'NONE',  ( -5.573089558583488312, 30.69999999999993534, -42.82964612895985823 ) ) ;
#68 = AXIS2_PLACEMENT_3D ( 'NONE', #368, #899, #639 ) ;
#69 = ORIENTED_EDGE ( 'NONE', *, *, #792, .F. ) ;
#70 = ORIENTED_EDGE ( 'NONE', *, *, #966, .T. ) ;
#71 = ORIENTED_EDGE ( 'NONE', *, *, #1083, .F. ) ;
#72 = EDGE_CURVE ( 'NONE', #653, #138, #576, .T. ) ;
#73 = DIRECTION ( 'NONE',  ( 0.000000000000000000, 0.000000000000000000, -1.000000000000000000 ) ) ;
#74 = CARTESIAN_POINT ( 'NONE',  ( -18.08787749052790517, 30.69999999999993534, -26.94817409177224832 ) ) ;
#75 = ORIENTED_EDGE ( 'NONE', *, *, #159, .F. ) ;
#76 = EDGE_CURVE ( 'NONE', #589, #947, #110, .T. ) ;
#77 = CARTESIAN_POINT ( 'NONE',  ( -20.00000000000000000, 29.69999999999993534, -48.89999999999668745 ) ) ;
#78 = EDGE_CURVE ( 'NONE', #678, #860, #297, .T. ) ;
#79 = CARTESIAN_POINT ( 'NONE',  ( -15.78461733052300531, 30.21668203681129228, -49.68372324383048522 ) ) ;
#80 = EDGE_CURVE ( 'NONE', #231, #784, #304, .T. ) ;
#81 = DIRECTION ( 'NONE',  ( 0.000000000000000000, 0.000000000000000000, -1.000000000000000000 ) ) ;
#82 = B_SPLINE_CURVE_WITH_KNOTS ( 'NONE', 3,
 ( #352, #958, #235, #327, #970, #160 ),
 .UNSPECIFIED., .F., .F.,
 ( 4, 2, 4 ),
 ( 3.469446951953614189E-18, 0.001844058534033937496, 0.003688117068067871523 ),
 .UNSPECIFIED. ) ;
#83 = CARTESIAN_POINT ( 'NONE',  ( -33.93779011097922904, 29.69999999999993534, -23.82229251149617255 ) ) ;
#84 = AXIS2_PLACEMENT_3D ( 'NONE', #360, #721, #90 ) ;
#85 = VECTOR ( 'NONE', #44, 1000.000000000000114 ) ;
#86 = CARTESIAN_POINT ( 'NONE',  ( 20.00000000000000000, 29.69999999999993534, -48.89999999999668745 ) ) ;
#87 = CARTESIAN_POINT ( 'NONE',  ( 11.00000000000000000, 31.69999999999993534, -65.49999999999414513 ) ) ;
#88 = AXIS2_PLACEMENT_3D ( 'NONE', #286, #448, #809 ) ;
#89 = AXIS2_PLACEMENT_3D ( 'NONE', #557, #137, #819 ) ;
#90 = DIRECTION ( 'NONE',  ( 3.105155021998484068E-14, 0.000000000000000000, -1.000000000000000000 ) ) ;
#91 = DIRECTION ( 'NONE',  ( 1.000000000000000000, 0.000000000000000000, 0.000000000000000000 ) ) ;
#92 = EDGE_CURVE ( 'NONE', #924, #1096, #815, .T. ) ;
#93 = DIRECTION ( 'NONE',  ( 0.000000000000000000, -1.000000000000000000, 0.000000000000000000 ) ) ;
#94 = CARTESIAN_POINT ( 'NONE',  ( -20.00000000000000000, 30.02608430239125781, -45.14999999999684377 ) ) ;
#95 = CARTESIAN_POINT ( 'NONE',  ( 17.62979601728669010, 30.62728365126565677, -43.37234701296204520 ) ) ;
#96 = VECTOR ( 'NONE', #862, 1000.000000000000000 ) ;
#97 = CARTESIAN_POINT ( 'NONE',  ( 15.78461733052300886, 30.21668203681218756, -49.68372324383047811 ) ) ;
#98 = ADVANCED_FACE ( 'NONE', ( #911 ), #1023, .F. ) ;
#99 = CARTESIAN_POINT ( 'NONE',  ( -14.47199999999884490, 30.69999999999993534, -19.29600000000069926 ) ) ;
#100 = LINE ( 'NONE', #1098, #929 ) ;
#101 = AXIS2_PLACEMENT_3D ( 'NONE', #357, #361, #274 ) ;
#102 = CARTESIAN_POINT ( 'NONE',  ( 3.588948926189330377E-12, 30.69999999999993534, -33.89999999999550084 ) ) ;
#103 = DIRECTION ( 'NONE',  ( -0.7922920858814013201, 0.000000000000000000, -0.6101419922032068621 ) ) ;
#104 = VERTEX_POINT ( 'NONE', #926 ) ;
#105 = LINE ( 'NONE', #818, #453 ) ;
#106 = CIRCLE ( 'NONE', #1015, 2.999999999999808153 ) ;
#107 = VERTEX_POINT ( 'NONE', #213 ) ;
#108 = CARTESIAN_POINT ( 'NONE',  ( 14.47199999999885023, 31.69999999999993534, -19.29600000000068860 ) ) ;
#109 = CIRCLE ( 'NONE', #780, 0.7500000000000006661 ) ;
#110 = LINE ( 'NONE', #469, #1155 ) ;
#111 = DIRECTION ( 'NONE',  ( 0.8303052015494526428, 0.000000000000000000, 0.5573089558583488312 ) ) ;
#112 = ORIENTED_EDGE ( 'NONE', *, *, #546, .T. ) ;
#113 = CARTESIAN_POINT ( 'NONE',  ( 22.30385672483235737, 31.69999999999993534, -50.82152132213393259 ) ) ;
#114 = CARTESIAN_POINT ( 'NONE',  ( 5.573089558583488312, 31.69999999999993534, -42.82964612895985823 ) ) ;
#115 = ORIENTED_EDGE ( 'NONE', *, *, #408, .T. ) ;
#116 = AXIS2_PLACEMENT_3D ( 'NONE', #652, #3, #111 ) ;
#117 = CARTESIAN_POINT ( 'NONE',  ( 20.00000000000000000, 29.69999999999993534, -50.89999999999391633 ) ) ;
#118 = LINE ( 'NONE', #13, #703 ) ;
#119 = ORIENTED_EDGE ( 'NONE', *, *, #367, .T. ) ;
#120 = TOROIDAL_SURFACE ( 'NONE', #174, 7.358898943540667759, 10.00000000000000000 ) ;
#121 = CARTESIAN_POINT ( 'NONE',  ( 2.059984127722458425E-15, 30.69999999999993534, -51.13269814445437333 ) ) ;
#122 = CARTESIAN_POINT ( 'NONE',  ( -20.00000000000000000, 29.69999999999993534, -48.89999999999668745 ) ) ;
#123 = ORIENTED_EDGE ( 'NONE', *, *, #437, .F. ) ;
#124 = CARTESIAN_POINT ( 'NONE',  ( 3.588948926189330377E-12, 31.69999999999993534, -31.89999999999569624 ) ) ;
#125 = PLANE ( 'NONE',  #988 ) ;
#126 = CARTESIAN_POINT ( 'NONE',  ( -18.82110596590550600, 30.36478517935691102, -44.26582947442608429 ) ) ;
#127 = VERTEX_POINT ( 'NONE', #570 ) ;
#128 = DIRECTION ( 'NONE',  ( 0.000000000000000000, -1.000000000000000000, 0.000000000000000000 ) ) ;
#129 = EDGE_CURVE ( 'NONE', #309, #423, #704, .T. ) ;
#130 = ORIENTED_EDGE ( 'NONE', *, *, #187, .T. ) ;
#131 = DIRECTION ( 'NONE',  ( 0.6101419922032068621, 0.000000000000000000, 0.7922920858814013201 ) ) ;
#132 = EDGE_CURVE ( 'NONE', #856, #1053, #1034, .T. ) ;
#133 = CARTESIAN_POINT ( 'NONE',  ( 2.059984127722458425E-15, 30.69999999999993534, -41.13269814445437333 ) ) ;
#134 = ADVANCED_FACE ( 'NONE', ( #47 ), #1109, .F. ) ;
#135 = LINE ( 'NONE', #307, #263 ) ;
#136 = VERTEX_POINT ( 'NONE', #114 ) ;
#137 = DIRECTION ( 'NONE',  ( 0.000000000000000000, 0.000000000000000000, 1.000000000000000000 ) ) ;
#138 = VERTEX_POINT ( 'NONE', #401 ) ;
#139 = ORIENTED_EDGE ( 'NONE', *, *, #437, .T. ) ;
#140 = CARTESIAN_POINT ( 'NONE',  ( 5.801708892866013656, 29.69999999999993534, -56.49999999999414513 ) ) ;
#141 = ORIENTED_EDGE ( 'NONE', *, *, #1083, .T. ) ;
#142 = ORIENTED_EDGE ( 'NONE', *, *, #1072, .T. ) ;
#143 = CIRCLE ( 'NONE', #1051, 10.00000000000000178 ) ;
#144 = AXIS2_PLACEMENT_3D ( 'NONE', #751, #681, #212 ) ;
#145 = VECTOR ( 'NONE', #807, 1000.000000000000000 ) ;
#146 = ORIENTED_EDGE ( 'NONE', *, *, #1044, .F. ) ;
#147 = ORIENTED_EDGE ( 'NONE', *, *, #483, .T. ) ;
#148 = DIRECTION ( 'NONE',  ( 0.000000000000000000, -1.000000000000000000, 0.000000000000000000 ) ) ;
#149 = VERTEX_POINT ( 'NONE', #1019 ) ;
#150 = ORIENTED_EDGE ( 'NONE', *, *, #765, .F. ) ;
#151 = EDGE_LOOP ( 'NONE', ( #115, #315, #788, #610, #1118, #1114, #232, #709, #119, #147, #430, #789, #827, #1042 ) ) ;
#152 = CARTESIAN_POINT ( 'NONE',  ( 3.588948926189330377E-12, 31.69999999999993534, -33.89999999999550084 ) ) ;
#153 = CARTESIAN_POINT ( 'NONE',  ( -1.799999999996165778, 30.69999999999993534, -31.49999999999554490 ) ) ;
#154 = ORIENTED_EDGE ( 'NONE', *, *, #92, .F. ) ;
#155 = APPLICATION_CONTEXT ( 'automotive_design' ) ;
#156 = VERTEX_POINT ( 'NONE', #300 ) ;
#157 = ORIENTED_EDGE ( 'NONE', *, *, #708, .F. ) ;
#158 = LINE ( 'NONE', #175, #892 ) ;
#159 = EDGE_CURVE ( 'NONE', #107, #43, #207, .T. ) ;
#160 = CARTESIAN_POINT ( 'NONE',  ( -15.78461733052300531, 30.21668203681129228, -49.68372324383048522 ) ) ;
#161 = VERTEX_POINT ( 'NONE', #943 ) ;
#162 = EDGE_CURVE ( 'NONE', #782, #1045, #135, .T. ) ;
#163 = CARTESIAN_POINT ( 'NONE',  ( 21.79999999999819593, 29.69999999999993534, -46.49999999999881339 ) ) ;
#164 = PLANE ( 'NONE',  #777 ) ;
#165 = EDGE_CURVE ( 'NONE', #1151, #924, #109, .T. ) ;
#166 = DIRECTION ( 'NONE',  ( 0.000000000000000000, 0.000000000000000000, -1.000000000000000000 ) ) ;
#167 = DIRECTION ( 'NONE',  ( 0.000000000000000000, -1.000000000000000000, 0.000000000000000000 ) ) ;
#168 = ADVANCED_FACE ( 'NONE', ( #1041 ), #762, .T. ) ;
#169 = CIRCLE ( 'NONE', #564, 10.00000000000000178 ) ;
#170 = VECTOR ( 'NONE', #586, 1000.000000000000114 ) ;
#171 = CARTESIAN_POINT ( 'NONE',  ( -13.98656140152072069, 29.69999999999993534, -52.24527539909988860 ) ) ;
#172 = FACE_OUTER_BOUND ( 'NONE', #328, .T. ) ;
#173 = CIRCLE ( 'NONE', #474, 2.000000000000001776 ) ;
#174 = AXIS2_PLACEMENT_3D ( 'NONE', #447, #362, #637 ) ;
#175 = CARTESIAN_POINT ( 'NONE',  ( 18.08787749052791227, 30.69999999999993534, -26.94817409177222345 ) ) ;
#176 = PLANE ( 'NONE',  #718 ) ;
#177 = CARTESIAN_POINT ( 'NONE',  ( 15.78461733052301241, 31.69999999999993534, -49.68372324383047101 ) ) ;
#178 = LINE ( 'NONE', #984, #910 ) ;
#179 = DIRECTION ( 'NONE',  ( 0.000000000000000000, 0.000000000000000000, -1.000000000000000000 ) ) ;
#180 = EDGE_CURVE ( 'NONE', #649, #865, #326, .T. ) ;
#181 = CYLINDRICAL_SURFACE ( 'NONE', #266, 1.999999999997226219 ) ;
#182 = CARTESIAN_POINT ( 'NONE',  ( -21.49311226770863925, 29.69999999999993179, -46.26983420077820597 ) ) ;
#183 = DIRECTION ( 'NONE',  ( -0.6101419922032068621, 0.000000000000000000, 0.7922920858814013201 ) ) ;
#184 = EDGE_CURVE ( 'NONE', #388, #555, #923, .T. ) ;
#185 = CARTESIAN_POINT ( 'NONE',  ( 9.184850993605152135E-17, 31.69999999999993534, -60.24999999999414513 ) ) ;
#186 = CIRCLE ( 'NONE', #950, 1.999999999999807487 ) ;
#187 = EDGE_CURVE ( 'NONE', #136, #558, #826, .T. ) ;
#188 = VECTOR ( 'NONE', #834, 1000.000000000000114 ) ;
#189 = DIRECTION ( 'NONE',  ( -0.8000000000000331291, 0.000000000000000000, -0.5999999999999557909 ) ) ;
#190 = CARTESIAN_POINT ( 'NONE',  ( 0.000000000000000000, 31.69999999999993534, -61.74999999999414513 ) ) ;
#191 = ORIENTED_EDGE ( 'NONE', *, *, #548, .T. ) ;
#192 = DIRECTION ( 'NONE',  ( 0.000000000000000000, -1.000000000000000000, 0.000000000000000000 ) ) ;
#193 = AXIS2_PLACEMENT_3D ( 'NONE', #728, #1087, #638 ) ;
#194 = ORIENTED_EDGE ( 'NONE', *, *, #847, .T. ) ;
#195 = DIRECTION ( 'NONE',  ( 0.000000000000000000, -1.000000000000000000, 0.000000000000000000 ) ) ;
#196 = LINE ( 'NONE', #20, #845 ) ;
#197 = CARTESIAN_POINT ( 'NONE',  ( -17.53545340899416871, 29.69999999999993534, -47.18944158218059215 ) ) ;
#198 = ORIENTED_EDGE ( 'NONE', *, *, #72, .F. ) ;
#199 = DIRECTION ( 'NONE',  ( 0.000000000000000000, 0.000000000000000000, -1.000000000000000000 ) ) ;
#200 = FACE_BOUND ( 'NONE', #657, .T. ) ;
#201 = AXIS2_PLACEMENT_3D ( 'NONE', #1071, #258, #528 ) ;
#202 = EDGE_LOOP ( 'NONE', ( #515, #1139, #376, #705, #157, #872, #852, #17, #335 ) ) ;
#203 = LINE ( 'NONE', #108, #600 ) ;
#204 = DIRECTION ( 'NONE',  ( 0.8000000000000333511, 0.000000000000000000, -0.5999999999999554579 ) ) ;
#205 = DIRECTION ( 'NONE',  ( -0.000000000000000000, 1.000000000000000000, -0.000000000000000000 ) ) ;
#206 = EDGE_LOOP ( 'NONE', ( #65, #139, #198, #841, #578, #464, #868, #875, #218, #770 ) ) ;
#207 = LINE ( 'NONE', #481, #170 ) ;
#208 = EDGE_CURVE ( 'NONE', #54, #1096, #894, .T. ) ;
#209 = DIRECTION ( 'NONE',  ( 0.000000000000000000, -1.000000000000000000, 0.000000000000000000 ) ) ;
#210 = ORIENTED_EDGE ( 'NONE', *, *, #847, .F. ) ;
#211 = AXIS2_PLACEMENT_3D ( 'NONE', #393, #289, #753 ) ;
#212 = DIRECTION ( 'NONE',  ( 1.000000000000000000, 0.000000000000000000, 0.000000000000000000 ) ) ;
#213 = CARTESIAN_POINT ( 'NONE',  ( -11.00000000000000000, 31.69999999999993534, -65.49999999999414513 ) ) ;
#214 = DIRECTION ( 'NONE',  ( -0.000000000000000000, 1.000000000000000000, -0.000000000000000000 ) ) ;
#215 = EDGE_LOOP ( 'NONE', ( #605, #1050 ) ) ;
#216 = DIRECTION ( 'NONE',  ( -0.000000000000000000, 1.000000000000000000, -0.000000000000000000 ) ) ;
#217 = EDGE_CURVE ( 'NONE', #790, #413, #662, .T. ) ;
#218 = ORIENTED_EDGE ( 'NONE', *, *, #184, .F. ) ;
#219 = EDGE_CURVE ( 'NONE', #589, #856, #385, .T. ) ;
#220 = DIRECTION ( 'NONE',  ( 0.000000000000000000, 0.000000000000000000, -1.000000000000000000 ) ) ;
#221 = DIRECTION ( 'NONE',  ( 0.000000000000000000, 0.000000000000000000, -1.000000000000000000 ) ) ;
#222 = ORIENTED_EDGE ( 'NONE', *, *, #80, .T. ) ;
#223 = DIRECTION ( 'NONE',  ( 0.000000000000000000, 0.000000000000000000, 1.000000000000000000 ) ) ;
#224 = CARTESIAN_POINT ( 'NONE',  ( 21.79999999999819593, 29.69999999999993534, -46.49999999999881339 ) ) ;
#225 = ADVANCED_FACE ( 'NONE', ( #1130 ), #492, .F. ) ;
#226 = EDGE_LOOP ( 'NONE', ( #322, #1148, #471, #522 ) ) ;
#227 = EDGE_LOOP ( 'NONE', ( #71, #737, #194, #412 ) ) ;
#228 = DIRECTION ( 'NONE',  ( -0.000000000000000000, 1.000000000000000000, -0.000000000000000000 ) ) ;
#229 =( NAMED_UNIT ( * ) SI_UNIT ( $, .STERADIAN. ) SOLID_ANGLE_UNIT ( ) );
#230 = DIRECTION ( 'NONE',  ( 0.000000000000000000, -1.000000000000000000, 0.000000000000000000 ) ) ;
#231 = VERTEX_POINT ( 'NONE', #670 ) ;
#232 = ORIENTED_EDGE ( 'NONE', *, *, #217, .T. ) ;
#233 = ORIENTED_EDGE ( 'NONE', *, *, #314, .F. ) ;
#234 = DIRECTION ( 'NONE',  ( 0.000000000000000000, -1.000000000000000000, 0.000000000000000000 ) ) ;
#235 = CARTESIAN_POINT ( 'NONE',  ( -13.77078892319941339, 30.65188795411399880, -48.33202195993029449 ) ) ;
#236 = ORIENTED_EDGE ( 'NONE', *, *, #208, .T. ) ;
#237 = ORIENTED_EDGE ( 'NONE', *, *, #763, .T. ) ;
#238 = AXIS2_PLACEMENT_3D ( 'NONE', #897, #93, #810 ) ;
#239 = VECTOR ( 'NONE', #296, 1000.000000000000000 ) ;
#240 = ORIENTED_EDGE ( 'NONE', *, *, #129, .T. ) ;
#241 = ORIENTED_EDGE ( 'NONE', *, *, #415, .T. ) ;
#242 = LINE ( 'NONE', #1055, #254 ) ;
#243 = CARTESIAN_POINT ( 'NONE',  ( 3.588948926189330377E-12, 30.69999999999993534, -33.89999999999550084 ) ) ;
#244 = ORIENTED_EDGE ( 'NONE', *, *, #527, .F. ) ;
#245 = ORIENTED_EDGE ( 'NONE', *, *, #973, .F. ) ;
#246 = ORIENTED_EDGE ( 'NONE', *, *, #350, .F. ) ;
#247 = CARTESIAN_POINT ( 'NONE',  ( -15.78461733052302662, 31.69999999999993534, -49.68372324383049232 ) ) ;
#248 = CARTESIAN_POINT ( 'NONE',  ( 3.588948926189330377E-12, 30.69999999999993534, -30.89999999999569624 ) ) ;
#249 = ORIENTED_EDGE ( 'NONE', *, *, #798, .T. ) ;
#250 = ADVANCED_FACE ( 'NONE', ( #749 ), #462, .T. ) ;
#251 = LINE ( 'NONE', #616, #802 ) ;
#252 = DIRECTION ( 'NONE',  ( 0.000000000000000000, 0.000000000000000000, -1.000000000000000000 ) ) ;
#253 = EDGE_CURVE ( 'NONE', #924, #1151, #716, .T. ) ;
#254 = VECTOR ( 'NONE', #214, 1000.000000000000000 ) ;
#255 = EDGE_CURVE ( 'NONE', #330, #707, #650, .T. ) ;
#256 = AXIS2_PLACEMENT_3D ( 'NONE', #622, #726, #265 ) ;
#257 = ADVANCED_FACE ( 'NONE', ( #583 ), #941, .T. ) ;
#258 = DIRECTION ( 'NONE',  ( 0.000000000000000000, -1.000000000000000000, 0.000000000000000000 ) ) ;
#259 = CARTESIAN_POINT ( 'NONE',  ( 20.00000000000000000, 29.69999999999993534, -48.89999999999668745 ) ) ;
#260 = CARTESIAN_POINT ( 'NONE',  ( 19.99999999999999645, 30.02608430239233783, -45.14999999999683666 ) ) ;
#261 = DIRECTION ( 'NONE',  ( 0.000000000000000000, -1.000000000000000000, 0.000000000000000000 ) ) ;
#262 = AXIS2_PLACEMENT_3D ( 'NONE', #775, #1048, #513 ) ;
#263 = VECTOR ( 'NONE', #216, 1000.000000000000000 ) ;
#264 = LINE ( 'NONE', #628, #324 ) ;
#265 = DIRECTION ( 'NONE',  ( 9.429255595363919000E-16, 0.000000000000000000, -1.000000000000000000 ) ) ;
#266 = AXIS2_PLACEMENT_3D ( 'NONE', #724, #903, #369 ) ;
#267 = CARTESIAN_POINT ( 'NONE',  ( 3.588948926189330377E-12, 30.69999999999993534, -33.89999999999550084 ) ) ;
#268 = DIRECTION ( 'NONE',  ( 0.000000000000000000, 0.000000000000000000, 1.000000000000000000 ) ) ;
#269 = FACE_OUTER_BOUND ( 'NONE', #595, .T. ) ;
#270 = ADVANCED_FACE ( 'NONE', ( #917 ), #36, .F. ) ;
#271 = UNCERTAINTY_MEASURE_WITH_UNIT (LENGTH_MEASURE( 1.000000000000000082E-05 ), #935, 'distance_accuracy_value', 'NONE');
#272 = DIRECTION ( 'NONE',  ( 0.000000000000000000, 0.000000000000000000, -1.000000000000000000 ) ) ;
#273 = AXIS2_PLACEMENT_3D ( 'NONE', #102, #30, #822 ) ;
#274 = DIRECTION ( 'NONE',  ( 0.000000000000000000, 0.000000000000000000, -1.000000000000000000 ) ) ;
#275 = CARTESIAN_POINT ( 'NONE',  ( -20.00000000000000000, 31.69999999999993534, -48.89999999999668745 ) ) ;
#276 = EDGE_CURVE ( 'NONE', #429, #1059, #203, .T. ) ;
#277 = CARTESIAN_POINT ( 'NONE',  ( -20.00000000000000000, 29.69999999999993534, -48.89999999999668745 ) ) ;
#278 = CARTESIAN_POINT ( 'NONE',  ( 0.000000000000000000, 29.69999999999993534, -56.49999999999414513 ) ) ;
#279 = CARTESIAN_POINT ( 'NONE',  ( 19.41060321598878957, 30.20095994559826025, -44.70795241198849368 ) ) ;
#280 = FACE_OUTER_BOUND ( 'NONE', #971, .T. ) ;
#281 = ADVANCED_FACE ( 'NONE', ( #383 ), #672, .T. ) ;
#282 = B_SPLINE_CURVE_WITH_KNOTS ( 'NONE', 3,
 ( #774, #1134, #512, #126, #1120, #427, #876, #667 ),
 .UNSPECIFIED., .F., .F.,
 ( 4, 2, 2, 4 ),
 ( 0.002273308576277557284, 0.003404751838850371241, 0.004536195101423184765, 0.006799081626568810946 ),
 .UNSPECIFIED. ) ;
#283 = LINE ( 'NONE', #1020, #655 ) ;
#284 = VECTOR ( 'NONE', #497, 1000.000000000000000 ) ;
#285 = EDGE_LOOP ( 'NONE', ( #1037, #210, #761, #700, #880, #859 ) ) ;
#286 = CARTESIAN_POINT ( 'NONE',  ( 5.801708892866057177, 29.69999999999993534, -46.49999999999414513 ) ) ;
#287 = AXIS2_PLACEMENT_3D ( 'NONE', #658, #495, #220 ) ;
#288 = DIRECTION ( 'NONE',  ( 0.5999999999999557909, 0.000000000000000000, -0.8000000000000331291 ) ) ;
#289 = DIRECTION ( 'NONE',  ( 0.000000000000000000, -1.000000000000000000, 0.000000000000000000 ) ) ;
#290 = ORIENTED_EDGE ( 'NONE', *, *, #370, .T. ) ;
#291 = CARTESIAN_POINT ( 'NONE',  ( 3.588948926189330377E-12, 30.69999999999993534, -33.89999999999550084 ) ) ;
#292 = VECTOR ( 'NONE', #91, 1000.000000000000000 ) ;
#293 = FACE_BOUND ( 'NONE', #343, .T. ) ;
#294 =( GEOMETRIC_REPRESENTATION_CONTEXT ( 3 ) GLOBAL_UNCERTAINTY_ASSIGNED_CONTEXT ( ( #381 ) ) GLOBAL_UNIT_ASSIGNED_CONTEXT ( ( #843, #308, #1095 ) ) REPRESENTATION_CONTEXT ( 'NONE', 'WORKASPACE' ) );
#295 = ORIENTED_EDGE ( 'NONE', *, *, #587, .F. ) ;
#296 = DIRECTION ( 'NONE',  ( -0.000000000000000000, 1.000000000000000000, -0.000000000000000000 ) ) ;
#297 = LINE ( 'NONE', #848, #989 ) ;
#298 = LINE ( 'NONE', #824, #1049 ) ;
#299 = ORIENTED_EDGE ( 'NONE', *, *, #990, .T. ) ;
#300 = CARTESIAN_POINT ( 'NONE',  ( 20.00000000000000000, 29.69999999999993534, -46.89999999999946567 ) ) ;
#301 = FACE_OUTER_BOUND ( 'NONE', #151, .T. ) ;
#302 = ORIENTED_EDGE ( 'NONE', *, *, #255, .T. ) ;
#303 = CARTESIAN_POINT ( 'NONE',  ( 0.000000000000000000, 31.69999999999993534, -60.99999999999414513 ) ) ;
#304 = LINE ( 'NONE', #456, #491 ) ;
#305 = CYLINDRICAL_SURFACE ( 'NONE', #800, 2.999999999999808153 ) ;
#306 = ORIENTED_EDGE ( 'NONE', *, *, #765, .T. ) ;
#307 = CARTESIAN_POINT ( 'NONE',  ( -20.00000000000000000, 29.69999999999993534, -46.89999999999668745 ) ) ;
#308 =( NAMED_UNIT ( * ) PLANE_ANGLE_UNIT ( ) SI_UNIT ( $, .RADIAN. ) );
#309 = VERTEX_POINT ( 'NONE', #933 ) ;
#310 = FACE_OUTER_BOUND ( 'NONE', #63, .T. ) ;
#311 = CARTESIAN_POINT ( 'NONE',  ( -5.801708892866057177, 31.69999999999993534, -46.49999999999414513 ) ) ;
#312 = VERTEX_POINT ( 'NONE', #1007 ) ;
#313 = CARTESIAN_POINT ( 'NONE',  ( 20.00000000000000000, 31.69999999999993534, -48.89999999999668745 ) ) ;
#314 = EDGE_CURVE ( 'NONE', #231, #59, #421, .T. ) ;
#315 = ORIENTED_EDGE ( 'NONE', *, *, #858, .T. ) ;
#316 = EDGE_LOOP ( 'NONE', ( #295, #141, #773, #1057 ) ) ;
#317 = DIRECTION ( 'NONE',  ( -0.000000000000000000, 1.000000000000000000, -0.000000000000000000 ) ) ;
#318 = EDGE_CURVE ( 'NONE', #127, #309, #398, .T. ) ;
#319 = DIRECTION ( 'NONE',  ( -0.000000000000000000, 1.000000000000000000, -0.000000000000000000 ) ) ;
#320 = DIRECTION ( 'NONE',  ( 0.000000000000000000, 0.000000000000000000, -1.000000000000000000 ) ) ;
#321 = ORIENTED_EDGE ( 'NONE', *, *, #435, .T. ) ;
#322 = ORIENTED_EDGE ( 'NONE', *, *, #938, .F. ) ;
#323 = EDGE_LOOP ( 'NONE', ( #75, #338, #191, #410 ) ) ;
#324 = VECTOR ( 'NONE', #974, 1000.000000000000000 ) ;
#325 = DIRECTION ( 'NONE',  ( 0.000000000000000000, 0.000000000000000000, 1.000000000000000000 ) ) ;
#326 = CIRCLE ( 'NONE', #1138, 7.358898943540665094 ) ;
#327 = CARTESIAN_POINT ( 'NONE',  ( -14.78226293466337182, 30.48034768191142518, -49.01093318938531951 ) ) ;
#328 = EDGE_LOOP ( 'NONE', ( #850, #417, #1104, #651 ) ) ;
#329 = EDGE_LOOP ( 'NONE', ( #514, #39, #302, #694, #772 ) ) ;
#330 = VERTEX_POINT ( 'NONE', #853 ) ;
#331 = AXIS2_PLACEMENT_3D ( 'NONE', #561, #738, #179 ) ;
#332 = LINE ( 'NONE', #66, #905 ) ;
#333 = DIRECTION ( 'NONE',  ( -0.000000000000000000, 1.000000000000000000, -0.000000000000000000 ) ) ;
#334 = VERTEX_POINT ( 'NONE', #559 ) ;
#335 = ORIENTED_EDGE ( 'NONE', *, *, #4, .T. ) ;
#336 = AXIS2_PLACEMENT_3D ( 'NONE', #524, #895, #73 ) ;
#337 = VERTEX_POINT ( 'NONE', #124 ) ;
#338 = ORIENTED_EDGE ( 'NONE', *, *, #730, .F. ) ;
#339 = CARTESIAN_POINT ( 'NONE',  ( 2.059984127722458425E-15, 30.69999999999993534, -51.13269814445437333 ) ) ;
#340 = AXIS2_PLACEMENT_3D ( 'NONE', #1035, #209, #41 ) ;
#341 = CYLINDRICAL_SURFACE ( 'NONE', #1005, 0.7500000000000006661 ) ;
#342 = EDGE_CURVE ( 'NONE', #707, #136, #29, .T. ) ;
#343 = EDGE_LOOP ( 'NONE', ( #955, #49, #130, #1145, #516, #416, #424, #585, #968 ) ) ;
#344 = VECTOR ( 'NONE', #1008, 1000.000000000000000 ) ;
#345 = VECTOR ( 'NONE', #204, 999.9999999999998863 ) ;
#346 = EDGE_LOOP ( 'NONE', ( #245, #53, #1141, #489 ) ) ;
#347 = ORIENTED_EDGE ( 'NONE', *, *, #708, .T. ) ;
#348 = DIRECTION ( 'NONE',  ( 0.000000000000000000, -1.000000000000000000, 0.000000000000000000 ) ) ;
#349 = DIRECTION ( 'NONE',  ( 0.000000000000000000, 0.000000000000000000, -1.000000000000000000 ) ) ;
#350 = EDGE_CURVE ( 'NONE', #558, #860, #50, .T. ) ;
#351 = CARTESIAN_POINT ( 'NONE',  ( 3.589193855549159494E-12, 30.69999999999993534, -35.89999999999530900 ) ) ;
#352 = CARTESIAN_POINT ( 'NONE',  ( -12.74873147148908714, 30.69999999999993534, -47.64600702207734173 ) ) ;
#353 = CIRCLE ( 'NONE', #46, 1.999999999999807487 ) ;
#354 = AXIS2_PLACEMENT_3D ( 'NONE', #303, #195, #405 ) ;
#355 = CIRCLE ( 'NONE', #508, 1.999999999997226219 ) ;
#356 = CARTESIAN_POINT ( 'NONE',  ( -16.42429800461373191, 30.69999999999993534, -42.46822350345745889 ) ) ;
#357 = CARTESIAN_POINT ( 'NONE',  ( -20.00000000000000000, 31.69999999999993534, -48.89999999999668745 ) ) ;
#358 = VECTOR ( 'NONE', #1101, 1000.000000000000114 ) ;
#359 = PRODUCT ( 'Part4', 'Part4', '', ( #375 ) ) ;
#360 = CARTESIAN_POINT ( 'NONE',  ( 5.801708892866057177, 31.69999999999993534, -46.49999999999414513 ) ) ;
#361 = DIRECTION ( 'NONE',  ( 0.000000000000000000, -1.000000000000000000, 0.000000000000000000 ) ) ;
#362 = DIRECTION ( 'NONE',  ( 0.000000000000000000, -1.000000000000000000, 0.000000000000000000 ) ) ;
#363 = CARTESIAN_POINT ( 'NONE',  ( -20.00000000000000000, 29.69999999999993534, -48.89999999999668745 ) ) ;
#364 = VECTOR ( 'NONE', #21, 1000.000000000000000 ) ;
#365 = CARTESIAN_POINT ( 'NONE',  ( 14.78473024185101004, 30.47978756315661286, -49.01258927005296329 ) ) ;
#366 = CARTESIAN_POINT ( 'NONE',  ( -20.00000000000000000, 29.69999999999993534, -48.89999999999668745 ) ) ;
#367 = EDGE_CURVE ( 'NONE', #750, #1033, #537, .T. ) ;
#368 = CARTESIAN_POINT ( 'NONE',  ( 3.588948926189330377E-12, 31.69999999999993534, -33.89999999999550084 ) ) ;
#369 = DIRECTION ( 'NONE',  ( 0.000000000000000000, 0.000000000000000000, 1.000000000000000000 ) ) ;
#370 = EDGE_CURVE ( 'NONE', #602, #1059, #476, .T. ) ;
#371 = CARTESIAN_POINT ( 'NONE',  ( 9.184850993605147205E-17, 29.69999999999993534, -60.24999999999414513 ) ) ;
#372 = DIRECTION ( 'NONE',  ( 0.000000000000000000, -1.000000000000000000, 0.000000000000000000 ) ) ;
#373 = DIRECTION ( 'NONE',  ( 0.000000000000000000, 0.000000000000000000, 1.000000000000000000 ) ) ;
#374 = ADVANCED_FACE ( 'NONE', ( #310 ), #1030, .F. ) ;
#375 = PRODUCT_CONTEXT ( 'NONE', #1018, 'mechanical' ) ;
#376 = ORIENTED_EDGE ( 'NONE', *, *, #944, .F. ) ;
#377 = DIRECTION ( 'NONE',  ( 0.000000000000000000, -1.000000000000000000, 0.000000000000000000 ) ) ;
#378 = DIRECTION ( 'NONE',  ( 0.000000000000000000, 0.000000000000000000, -1.000000000000000000 ) ) ;
#379 = EDGE_LOOP ( 'NONE', ( #736, #1064, #484, #732 ) ) ;
#380 = LINE ( 'NONE', #740, #358 ) ;
#381 = UNCERTAINTY_MEASURE_WITH_UNIT (LENGTH_MEASURE( 1.000000000000000082E-05 ), #843, 'distance_accuracy_value', 'NONE');
#382 = ORIENTED_EDGE ( 'NONE', *, *, #92, .T. ) ;
#383 = FACE_OUTER_BOUND ( 'NONE', #226, .T. ) ;
#384 = VECTOR ( 'NONE', #547, 1000.000000000000000 ) ;
#385 = CIRCLE ( 'NONE', #1162, 10.00000000000000178 ) ;
#386 = CARTESIAN_POINT ( 'NONE',  ( 0.000000000000000000, 31.69999999999993534, -61.74999999999414513 ) ) ;
#387 = CARTESIAN_POINT ( 'NONE',  ( 13.98656140152072069, 31.69999999999993534, -52.24527539909988860 ) ) ;
#388 = VERTEX_POINT ( 'NONE', #1164 ) ;
#389 = CARTESIAN_POINT ( 'NONE',  ( -5.801708892866057177, 29.69999999999993534, -46.49999999999414513 ) ) ;
#390 = VERTEX_POINT ( 'NONE', #87 ) ;
#391 = CARTESIAN_POINT ( 'NONE',  ( -20.00000000000000000, 29.69999999999993534, -48.89999999999668745 ) ) ;
#392 = LINE ( 'NONE', #278, #1154 ) ;
#393 = CARTESIAN_POINT ( 'NONE',  ( -20.00000000000000000, 29.69999999999993534, -48.89999999999668745 ) ) ;
#394 = ORIENTED_EDGE ( 'NONE', *, *, #973, .T. ) ;
#395 = DIRECTION ( 'NONE',  ( 0.000000000000000000, 0.000000000000000000, 1.000000000000000000 ) ) ;
#396 = CARTESIAN_POINT ( 'NONE',  ( 20.59097852891587266, 29.85456683700945746, -45.59323389668369231 ) ) ;
#397 = ORIENTED_EDGE ( 'NONE', *, *, #858, .F. ) ;
#398 = LINE ( 'NONE', #117, #743 ) ;
#399 = EDGE_CURVE ( 'NONE', #921, #790, #1169, .T. ) ;
#400 = ORIENTED_EDGE ( 'NONE', *, *, #460, .T. ) ;
#401 = CARTESIAN_POINT ( 'NONE',  ( 16.42429800461616551, 30.69999999999993534, -42.46822350345926367 ) ) ;
#402 = EDGE_CURVE ( 'NONE', #1045, #32, #805, .T. ) ;
#403 = ORIENTED_EDGE ( 'NONE', *, *, #546, .F. ) ;
#404 = CIRCLE ( 'NONE', #1070, 2.999999999999995559 ) ;
#405 = DIRECTION ( 'NONE',  ( 0.000000000000000000, 0.000000000000000000, -1.000000000000000000 ) ) ;
#406 = B_SPLINE_CURVE_WITH_KNOTS ( 'NONE', 3,
 ( #893, #182, #1075, #803, #535, #94 ),
 .UNSPECIFIED., .F., .F.,
 ( 4, 2, 4 ),
 ( 0.000000000000000000, 0.001136654288138778642, 0.002273308576277557284 ),
 .UNSPECIFIED. ) ;
#407 = CARTESIAN_POINT ( 'NONE',  ( -20.00000000000000000, 31.69999999999993534, -46.89999999999668745 ) ) ;
#408 = EDGE_CURVE ( 'NONE', #961, #825, #720, .T. ) ;
#409 = CARTESIAN_POINT ( 'NONE',  ( 2.059984127722458425E-15, 31.69999999999993534, -51.13269814445437333 ) ) ;
#410 = ORIENTED_EDGE ( 'NONE', *, *, #542, .T. ) ;
#411 = AXIS2_PLACEMENT_3D ( 'NONE', #445, #723, #268 ) ;
#412 = ORIENTED_EDGE ( 'NONE', *, *, #900, .T. ) ;
#413 = VERTEX_POINT ( 'NONE', #812 ) ;
#414 = DIRECTION ( 'NONE',  ( -0.8000000000000331291, 0.000000000000000000, -0.5999999999999557909 ) ) ;
#415 = EDGE_CURVE ( 'NONE', #602, #161, #406, .T. ) ;
#416 = ORIENTED_EDGE ( 'NONE', *, *, #1084, .F. ) ;
#417 = ORIENTED_EDGE ( 'NONE', *, *, #1044, .T. ) ;
#418 = ORIENTED_EDGE ( 'NONE', *, *, #1069, .F. ) ;
#419 = VECTOR ( 'NONE', #333, 1000.000000000000000 ) ;
#420 = CARTESIAN_POINT ( 'NONE',  ( 20.00000000000000000, 31.69999999999993534, -48.89999999999668745 ) ) ;
#421 = B_SPLINE_CURVE_WITH_KNOTS ( 'NONE', 3,
 ( #1105, #574, #745, #1013, #1039, #1111 ),
 .UNSPECIFIED., .F., .F.,
 ( 4, 2, 4 ),
 ( 0.002121175950903225835, 0.003666612429020155856, 0.005212048907137085442 ),
 .UNSPECIFIED. ) ;
#422 = ORIENTED_EDGE ( 'NONE', *, *, #253, .T. ) ;
#423 = VERTEX_POINT ( 'NONE', #630 ) ;
#424 = ORIENTED_EDGE ( 'NONE', *, *, #990, .F. ) ;
#425 = EDGE_CURVE ( 'NONE', #602, #104, #619, .T. ) ;
#426 = TOROIDAL_SURFACE ( 'NONE', #331, 7.358898943540667759, 10.00000000000000000 ) ;
#427 = CARTESIAN_POINT ( 'NONE',  ( -17.63345586771194462, 30.62667463682384650, -43.37509190078100119 ) ) ;
#428 = CARTESIAN_POINT ( 'NONE',  ( 2.059984127722458425E-15, 31.69999999999993534, -41.13269814445437333 ) ) ;
#429 = VERTEX_POINT ( 'NONE', #981 ) ;
#430 = ORIENTED_EDGE ( 'NONE', *, *, #854, .F. ) ;
#431 = ORIENTED_EDGE ( 'NONE', *, *, #885, .F. ) ;
#432 = CARTESIAN_POINT ( 'NONE',  ( 3.588948926189330377E-12, 30.69999999999993534, -33.89999999999550084 ) ) ;
#433 = ADVANCED_FACE ( 'NONE', ( #172 ), #898, .F. ) ;
#434 = CARTESIAN_POINT ( 'NONE',  ( -21.79999999999986571, 29.69999999999993534, -46.49999999999658939 ) ) ;
#435 = EDGE_CURVE ( 'NONE', #1096, #54, #1073, .T. ) ;
#436 = CARTESIAN_POINT ( 'NONE',  ( -5.801708892866013656, 29.69999999999993534, -56.49999999999414513 ) ) ;
#437 = EDGE_CURVE ( 'NONE', #330, #138, #52, .T. ) ;
#438 = CARTESIAN_POINT ( 'NONE',  ( 0.000000000000000000, 31.69999999999993534, -60.99999999999414513 ) ) ;
#439 = DIRECTION ( 'NONE',  ( 0.000000000000000000, -1.000000000000000000, 0.000000000000000000 ) ) ;
#440 = CARTESIAN_POINT ( 'NONE',  ( -33.93779011097922904, 29.69999999999993534, -23.82229251149617255 ) ) ;
#441 = AXIS2_PLACEMENT_3D ( 'NONE', #563, #10, #373 ) ;
#442 = AXIS2_PLACEMENT_3D ( 'NONE', #77, #701, #1160 ) ;
#443 = AXIS2_PLACEMENT_3D ( 'NONE', #993, #1166, #1079 ) ;
#444 = CARTESIAN_POINT ( 'NONE',  ( -17.23509375217892625, 29.70134053390358631, -47.61734091159577531 ) ) ;
#445 = CARTESIAN_POINT ( 'NONE',  ( 2.059984127722458425E-15, 30.69999999999993534, -51.13269814445437333 ) ) ;
#446 = AXIS2_PLACEMENT_3D ( 'NONE', #122, #1116, #493 ) ;
#447 = CARTESIAN_POINT ( 'NONE',  ( -20.00000000000000000, 20.69999999999993534, -48.89999999999668745 ) ) ;
#448 = DIRECTION ( 'NONE',  ( -0.000000000000000000, 1.000000000000000000, -0.000000000000000000 ) ) ;
#449 = EDGE_CURVE ( 'NONE', #790, #390, #178, .T. ) ;
#450 = DIRECTION ( 'NONE',  ( 0.000000000000000000, -0.000000000000000000, -1.000000000000000000 ) ) ;
#451 = CYLINDRICAL_SURFACE ( 'NONE', #1103, 2.000000000000001776 ) ;
#452 = CARTESIAN_POINT ( 'NONE',  ( 19.99999999999999645, 30.02608430239233783, -45.14999999999683666 ) ) ;
#453 = VECTOR ( 'NONE', #654, 1000.000000000000000 ) ;
#454 = ADVANCED_FACE ( 'NONE', ( #986 ), #176, .F. ) ;
#455 = FACE_OUTER_BOUND ( 'NONE', #778, .T. ) ;
#456 = CARTESIAN_POINT ( 'NONE',  ( 15.78461733052301241, 30.69999999999993534, -49.68372324383047101 ) ) ;
#457 = CARTESIAN_POINT ( 'NONE',  ( 33.93779011097922904, 29.69999999999993534, -23.82229251149617255 ) ) ;
#458 = ADVANCED_FACE ( 'NONE', ( #544 ), #451, .F. ) ;
#459 = DIRECTION ( 'NONE',  ( 0.000000000000000000, 0.000000000000000000, -1.000000000000000000 ) ) ;
#460 = EDGE_CURVE ( 'NONE', #156, #127, #957, .T. ) ;
#461 = ORIENTED_EDGE ( 'NONE', *, *, #219, .F. ) ;
#462 = PLANE ( 'NONE',  #505 ) ;
#463 = CARTESIAN_POINT ( 'NONE',  ( 19.70503849195426938, 30.11168986633444078, -44.92877886896258133 ) ) ;
#464 = ORIENTED_EDGE ( 'NONE', *, *, #997, .T. ) ;
#465 = DIRECTION ( 'NONE',  ( -0.000000000000000000, -1.000000000000000000, -0.000000000000000000 ) ) ;
#466 = AXIS2_PLACEMENT_3D ( 'NONE', #506, #864, #395 ) ;
#467 = ORIENTED_EDGE ( 'NONE', *, *, #976, .T. ) ;
#468 = DIRECTION ( 'NONE',  ( 0.000000000000000000, 0.000000000000000000, 1.000000000000000000 ) ) ;
#469 = CARTESIAN_POINT ( 'NONE',  ( 13.98656140152072069, 29.69999999999993534, -52.24527539909988860 ) ) ;
#470 = CARTESIAN_POINT ( 'NONE',  ( 17.03005078091667812, 30.69999999999993179, -42.92253808568459306 ) ) ;
#471 = ORIENTED_EDGE ( 'NONE', *, *, #9, .T. ) ;
#472 = CYLINDRICAL_SURFACE ( 'NONE', #441, 1.999999999997226219 ) ;
#473 = CARTESIAN_POINT ( 'NONE',  ( 0.000000000000000000, 29.69999999999993534, -60.99999999999414513 ) ) ;
#474 = AXIS2_PLACEMENT_3D ( 'NONE', #275, #372, #554 ) ;
#475 = ORIENTED_EDGE ( 'NONE', *, *, #614, .F. ) ;
#476 = LINE ( 'NONE', #1022, #953 ) ;
#477 = CIRCLE ( 'NONE', #84, 10.00000000000000178 ) ;
#478 = CARTESIAN_POINT ( 'NONE',  ( -1.799999999996165778, 30.69999999999993534, -31.49999999999554490 ) ) ;
#479 = LINE ( 'NONE', #545, #725 ) ;
#480 = EDGE_LOOP ( 'NONE', ( #609, #1012, #918, #123, #928, #1017 ) ) ;
#481 = CARTESIAN_POINT ( 'NONE',  ( -38.56839323831705713, 31.69999999999993534, -29.70141530610469616 ) ) ;
#482 = FACE_BOUND ( 'NONE', #582, .T. ) ;
#483 = EDGE_CURVE ( 'NONE', #1033, #59, #863, .T. ) ;
#484 = ORIENTED_EDGE ( 'NONE', *, *, #399, .F. ) ;
#485 = CARTESIAN_POINT ( 'NONE',  ( -14.47199999999884490, 30.69999999999993534, -19.29600000000069926 ) ) ;
#486 = B_SPLINE_CURVE_WITH_KNOTS ( 'NONE', 3,
 ( #97, #1, #365, #1091, #727, #6 ),
 .UNSPECIFIED., .F., .F.,
 ( 4, 2, 4 ),
 ( 0.003106404372129984923, 0.004952742999347980665, 0.006799081626565977275 ),
 .UNSPECIFIED. ) ;
#487 = PLANE ( 'NONE',  #1061 ) ;
#488 = DIRECTION ( 'NONE',  ( -0.000000000000000000, 1.000000000000000000, -0.000000000000000000 ) ) ;
#489 = ORIENTED_EDGE ( 'NONE', *, *, #1031, .F. ) ;
#490 = VECTOR ( 'NONE', #377, 1000.000000000000000 ) ;
#491 = VECTOR ( 'NONE', #1112, 1000.000000000000000 ) ;
#492 = CYLINDRICAL_SURFACE ( 'NONE', #804, 10.00000000000000178 ) ;
#493 = DIRECTION ( 'NONE',  ( 0.000000000000000000, -0.000000000000000000, -1.000000000000000000 ) ) ;
#494 = ORIENTED_EDGE ( 'NONE', *, *, #51, .F. ) ;
#495 = DIRECTION ( 'NONE',  ( 0.000000000000000000, -1.000000000000000000, 0.000000000000000000 ) ) ;
#496 = ADVANCED_FACE ( 'NONE', ( #890 ), #341, .F. ) ;
#497 = DIRECTION ( 'NONE',  ( -0.000000000000000000, 1.000000000000000000, -0.000000000000000000 ) ) ;
#498 = DIRECTION ( 'NONE',  ( -3.771702238144145284E-15, 0.000000000000000000, -1.000000000000000000 ) ) ;
#499 = ORIENTED_EDGE ( 'NONE', *, *, #78, .T. ) ;
#500 = EDGE_CURVE ( 'NONE', #865, #573, #82, .T. ) ;
#501 = ORIENTED_EDGE ( 'NONE', *, *, #415, .F. ) ;
#502 = TOROIDAL_SURFACE ( 'NONE', #866, 7.358898943537890425, 10.00000000000000000 ) ;
#503 = ORIENTED_EDGE ( 'NONE', *, *, #1159, .T. ) ;
#504 = CARTESIAN_POINT ( 'NONE',  ( -5.801708892866013656, 29.69999999999993534, -56.49999999999414513 ) ) ;
#505 = AXIS2_PLACEMENT_3D ( 'NONE', #485, #566, #828 ) ;
#506 = CARTESIAN_POINT ( 'NONE',  ( 20.00000000000000000, 29.69999999999993534, -48.89999999999668745 ) ) ;
#507 = ORIENTED_EDGE ( 'NONE', *, *, #614, .T. ) ;
#508 = AXIS2_PLACEMENT_3D ( 'NONE', #420, #781, #601 ) ;
#509 = ORIENTED_EDGE ( 'NONE', *, *, #717, .T. ) ;
#510 = AXIS2_PLACEMENT_3D ( 'NONE', #1003, #192, #556 ) ;
#511 = EDGE_LOOP ( 'NONE', ( #1108, #1060, #236, #154 ) ) ;
#512 = CARTESIAN_POINT ( 'NONE',  ( -19.41116118787807565, 30.20078940880384621, -44.70837089090546357 ) ) ;
#513 = DIRECTION ( 'NONE',  ( 0.000000000000000000, 0.000000000000000000, 1.000000000000000000 ) ) ;
#514 = ORIENTED_EDGE ( 'NONE', *, *, #80, .F. ) ;
#515 = ORIENTED_EDGE ( 'NONE', *, *, #712, .F. ) ;
#516 = ORIENTED_EDGE ( 'NONE', *, *, #78, .F. ) ;
#517 = VECTOR ( 'NONE', #1143, 1000.000000000000000 ) ;
#518 = DIRECTION ( 'NONE',  ( 0.000000000000000000, 0.000000000000000000, -1.000000000000000000 ) ) ;
#519 = DIRECTION ( 'NONE',  ( 0.000000000000000000, -1.000000000000000000, 0.000000000000000000 ) ) ;
#520 = ORIENTED_EDGE ( 'NONE', *, *, #276, .T. ) ;
#521 = ORIENTED_EDGE ( 'NONE', *, *, #217, .F. ) ;
#522 = ORIENTED_EDGE ( 'NONE', *, *, #132, .T. ) ;
#523 = AXIS2_PLACEMENT_3D ( 'NONE', #830, #817, #378 ) ;
#524 = CARTESIAN_POINT ( 'NONE',  ( -20.00000000000000000, 31.69999999999993534, -48.89999999999668745 ) ) ;
#525 = DIRECTION ( 'NONE',  ( -0.6101419922032069731, 0.000000000000000000, 0.7922920858814013201 ) ) ;
#526 = ORIENTED_EDGE ( 'NONE', *, *, #253, .F. ) ;
#527 = EDGE_CURVE ( 'NONE', #423, #309, #355, .T. ) ;
#528 = DIRECTION ( 'NONE',  ( 0.000000000000000000, 0.000000000000000000, -1.000000000000000000 ) ) ;
#529 = FACE_OUTER_BOUND ( 'NONE', #329, .T. ) ;
#530 = DIRECTION ( 'NONE',  ( -0.000000000000000000, 1.000000000000000000, -0.000000000000000000 ) ) ;
#531 = AXIS2_PLACEMENT_3D ( 'NONE', #697, #148, #797 ) ;
#532 = DIRECTION ( 'NONE',  ( 0.000000000000000000, 0.000000000000000000, -1.000000000000000000 ) ) ;
#533 = CARTESIAN_POINT ( 'NONE',  ( -15.78461733052300531, 30.21668203681129228, -49.68372324383048522 ) ) ;
#534 = VECTOR ( 'NONE', #1088, 1000.000000000000000 ) ;
#535 = CARTESIAN_POINT ( 'NONE',  ( -20.29600027706786847, 29.94017726044086558, -45.37200020779772558 ) ) ;
#536 = VECTOR ( 'NONE', #1149, 1000.000000000000000 ) ;
#537 = CIRCLE ( 'NONE', #25, 2.999999999997220002 ) ;
#538 = CARTESIAN_POINT ( 'NONE',  ( 5.573089558583488312, 30.69999999999993534, -42.82964612895985823 ) ) ;
#539 = DIRECTION ( 'NONE',  ( -0.8184852508654634207, 0.000000000000000000, -0.5745275399105768122 ) ) ;
#540 = B_SPLINE_CURVE_WITH_KNOTS ( 'NONE', 3,
 ( #533, #1078, #891, #882, #444, #1165 ),
 .UNSPECIFIED., .F., .F.,
 ( 4, 2, 4 ),
 ( 0.002121175950906448952, 0.003666612428764697007, 0.005212048906622945496 ),
 .UNSPECIFIED. ) ;
#541 = CLOSED_SHELL ( 'NONE', ( #575, #1089, #814, #458, #433, #98, #909, #811, #816, #257, #879, #996, #771, #1129, #617, #640, #591, #250, #37, #1168, #134, #168, #1065, #1117, #454, #281, #225, #902, #999, #270, #42, #374, #496 ) ) ;
#542 = EDGE_CURVE ( 'NONE', #104, #43, #607, .T. ) ;
#543 = CARTESIAN_POINT ( 'NONE',  ( 11.00000000000000000, 29.69999999999993534, -65.49999999999414513 ) ) ;
#544 = FACE_OUTER_BOUND ( 'NONE', #962, .T. ) ;
#545 = CARTESIAN_POINT ( 'NONE',  ( 22.30385672483235737, 29.69999999999993534, -50.82152132213393259 ) ) ;
#546 = EDGE_CURVE ( 'NONE', #156, #423, #964, .T. ) ;
#547 = DIRECTION ( 'NONE',  ( 0.5745275399105768122, 0.000000000000000000, 0.8184852508654634207 ) ) ;
#548 = EDGE_CURVE ( 'NONE', #921, #104, #690, .T. ) ;
#549 = CARTESIAN_POINT ( 'NONE',  ( -5.573089558583488312, 31.69999999999993534, -42.82964612895985823 ) ) ;
#550 = CARTESIAN_POINT ( 'NONE',  ( -5.573089558583488312, 30.69999999999993534, -42.82964612895985823 ) ) ;
#551 = AXIS2_PLACEMENT_3D ( 'NONE', #409, #855, #769 ) ;
#552 = AXIS2_PLACEMENT_3D ( 'NONE', #363, #261, #626 ) ;
#553 = LINE ( 'NONE', #752, #490 ) ;
#554 = DIRECTION ( 'NONE',  ( 0.000000000000000000, 0.000000000000000000, -1.000000000000000000 ) ) ;
#555 = VERTEX_POINT ( 'NONE', #67 ) ;
#556 = DIRECTION ( 'NONE',  ( 0.000000000000000000, 0.000000000000000000, -1.000000000000000000 ) ) ;
#557 = CARTESIAN_POINT ( 'NONE',  ( 0.000000000000000000, 0.000000000000000000, 0.000000000000000000 ) ) ;
#558 = VERTEX_POINT ( 'NONE', #428 ) ;
#559 = CARTESIAN_POINT ( 'NONE',  ( -20.00000000000000000, 29.69999999999993534, -50.89999999999668745 ) ) ;
#560 = DIRECTION ( 'NONE',  ( -0.000000000000000000, 1.000000000000000000, -0.000000000000000000 ) ) ;
#561 = CARTESIAN_POINT ( 'NONE',  ( -20.00000000000000000, 20.69999999999993534, -48.89999999999668745 ) ) ;
#562 = VERTEX_POINT ( 'NONE', #153 ) ;
#563 = CARTESIAN_POINT ( 'NONE',  ( 20.00000000000000000, 29.69999999999993534, -48.89999999999668745 ) ) ;
#564 = AXIS2_PLACEMENT_3D ( 'NONE', #1158, #1068, #252 ) ;
#565 = ORIENTED_EDGE ( 'NONE', *, *, #755, .T. ) ;
#566 = DIRECTION ( 'NONE',  ( 0.5999999999999556799, 0.000000000000000000, 0.8000000000000333511 ) ) ;
#567 = CARTESIAN_POINT ( 'NONE',  ( 33.93779011097922904, 29.69999999999993534, -23.82229251149617255 ) ) ;
#568 = FILL_AREA_STYLE_COLOUR ( '', #1026 ) ;
#569 = VERTEX_POINT ( 'NONE', #248 ) ;
#570 = CARTESIAN_POINT ( 'NONE',  ( 20.00000000000000000, 29.69999999999993534, -50.89999999999391633 ) ) ;
#571 = DIRECTION ( 'NONE',  ( -0.000000000000000000, 1.000000000000000000, -0.000000000000000000 ) ) ;
#572 = CIRCLE ( 'NONE', #68, 2.999999999999808153 ) ;
#573 = VERTEX_POINT ( 'NONE', #79 ) ;
#574 = CARTESIAN_POINT ( 'NONE',  ( 16.07341753475775192, 30.10077850336772798, -49.27229177850877306 ) ) ;
#575 = ADVANCED_FACE ( 'NONE', ( #1136 ), #975, .F. ) ;
#576 = LINE ( 'NONE', #99, #345 ) ;
#577 = LINE ( 'NONE', #55, #764 ) ;
#578 = ORIENTED_EDGE ( 'NONE', *, *, #587, .T. ) ;
#579 = DIRECTION ( 'NONE',  ( -0.000000000000000000, 1.000000000000000000, -0.000000000000000000 ) ) ;
#580 = CARTESIAN_POINT ( 'NONE',  ( 9.184850993605147205E-17, 31.69999999999993534, -60.24999999999414513 ) ) ;
#581 = EDGE_CURVE ( 'NONE', #881, #429, #823, .T. ) ;
#582 = EDGE_LOOP ( 'NONE', ( #150, #939 ) ) ;
#583 = FACE_OUTER_BOUND ( 'NONE', #967, .T. ) ;
#584 = CARTESIAN_POINT ( 'NONE',  ( -13.98656140152072069, 31.69999999999993534, -52.24527539909988860 ) ) ;
#585 = ORIENTED_EDGE ( 'NONE', *, *, #938, .T. ) ;
#586 = DIRECTION ( 'NONE',  ( -0.6101419922032069731, 0.000000000000000000, 0.7922920858814013201 ) ) ;
#587 = EDGE_CURVE ( 'NONE', #569, #562, #106, .T. ) ;
#588 = FACE_OUTER_BOUND ( 'NONE', #202, .T. ) ;
#589 = VERTEX_POINT ( 'NONE', #793 ) ;
#590 = ORIENTED_EDGE ( 'NONE', *, *, #132, .F. ) ;
#591 = ADVANCED_FACE ( 'NONE', ( #529 ), #164, .T. ) ;
#592 = FACE_OUTER_BOUND ( 'NONE', #874, .T. ) ;
#593 = PRODUCT_RELATED_PRODUCT_CATEGORY ( 'part', '', ( #359 ) ) ;
#594 = CARTESIAN_POINT ( 'NONE',  ( 5.801708892866057177, 29.69999999999993534, -46.49999999999414513 ) ) ;
#595 = EDGE_LOOP ( 'NONE', ( #475, #397, #28, #12, #1137, #884 ) ) ;
#596 = VERTEX_POINT ( 'NONE', #702 ) ;
#597 = ORIENTED_EDGE ( 'NONE', *, *, #76, .F. ) ;
#598 = CARTESIAN_POINT ( 'NONE',  ( 20.00000000000000000, 29.69999999999993534, -45.89999999999946567 ) ) ;
#599 = AXIS2_PLACEMENT_3D ( 'NONE', #624, #348, #710 ) ;
#600 = VECTOR ( 'NONE', #19, 1000.000000000000114 ) ;
#601 = DIRECTION ( 'NONE',  ( 0.000000000000000000, 0.000000000000000000, -1.000000000000000000 ) ) ;
#602 = VERTEX_POINT ( 'NONE', #434 ) ;
#603 = AXIS2_PLACEMENT_3D ( 'NONE', #259, #167, #532 ) ;
#604 = ORIENTED_EDGE ( 'NONE', *, *, #542, .F. ) ;
#605 = ORIENTED_EDGE ( 'NONE', *, *, #677, .T. ) ;
#606 = CARTESIAN_POINT ( 'NONE',  ( 0.000000000000000000, 29.69999999999993534, -65.49999999999414513 ) ) ;
#607 = LINE ( 'NONE', #883, #517 ) ;
#608 = VERTEX_POINT ( 'NONE', #1150 ) ;
#609 = ORIENTED_EDGE ( 'NONE', *, *, #483, .F. ) ;
#610 = ORIENTED_EDGE ( 'NONE', *, *, #425, .T. ) ;
#611 = CARTESIAN_POINT ( 'NONE',  ( 20.00000000000000000, 20.69999999999993534, -41.54110105645879969 ) ) ;
#612 = CARTESIAN_POINT ( 'NONE',  ( -5.801708892866013656, 31.69999999999993534, -56.49999999999414513 ) ) ;
#613 = VERTEX_POINT ( 'NONE', #612 ) ;
#614 = EDGE_CURVE ( 'NONE', #699, #161, #169, .T. ) ;
#615 = AXIS2_PLACEMENT_3D ( 'NONE', #606, #849, #1142 ) ;
#616 = CARTESIAN_POINT ( 'NONE',  ( -11.00000000000000000, 29.69999999999993534, -65.49999999999414513 ) ) ;
#617 = ADVANCED_FACE ( 'NONE', ( #888 ), #618, .F. ) ;
#618 = CYLINDRICAL_SURFACE ( 'NONE', #262, 1.999999999999807487 ) ;
#619 = CIRCLE ( 'NONE', #552, 2.999999999999995559 ) ;
#620 = EDGE_CURVE ( 'NONE', #413, #750, #1077, .T. ) ;
#621 = FACE_BOUND ( 'NONE', #1021, .T. ) ;
#622 = CARTESIAN_POINT ( 'NONE',  ( 20.00000000000000000, 30.69999999999993534, -48.89999999999668745 ) ) ;
#623 = EDGE_CURVE ( 'NONE', #750, #608, #264, .T. ) ;
#624 = CARTESIAN_POINT ( 'NONE',  ( 20.00000000000000000, 31.69999999999993534, -48.89999999999668745 ) ) ;
#625 = AXIS2_PLACEMENT_3D ( 'NONE', #339, #791, #786 ) ;
#626 = DIRECTION ( 'NONE',  ( 0.000000000000000000, 0.000000000000000000, -1.000000000000000000 ) ) ;
#627 = AXIS2_PLACEMENT_3D ( 'NONE', #948, #1124, #223 ) ;
#628 = CARTESIAN_POINT ( 'NONE',  ( 21.79999999999986926, 30.69999999999993534, -46.49999999999658229 ) ) ;
#629 = AXIS2_PLACEMENT_3D ( 'NONE', #660, #103, #183 ) ;
#630 = CARTESIAN_POINT ( 'NONE',  ( 20.00000000000000000, 31.69999999999993534, -46.89999999999946567 ) ) ;
#631 = EDGE_CURVE ( 'NONE', #1033, #687, #919, .T. ) ;
#632 = DIRECTION ( 'NONE',  ( 0.000000000000000000, -1.000000000000000000, 0.000000000000000000 ) ) ;
#633 = DIRECTION ( 'NONE',  ( -0.000000000000000000, 1.000000000000000000, -0.000000000000000000 ) ) ;
#634 = CYLINDRICAL_SURFACE ( 'NONE', #692, 2.999999999999808153 ) ;
#635 = EDGE_CURVE ( 'NONE', #766, #312, #1135, .T. ) ;
#636 = VECTOR ( 'NONE', #746, 1000.000000000000000 ) ;
#637 = DIRECTION ( 'NONE',  ( 0.000000000000000000, 0.000000000000000000, -1.000000000000000000 ) ) ;
#638 = DIRECTION ( 'NONE',  ( 0.000000000000000000, 0.000000000000000000, -1.000000000000000000 ) ) ;
#639 = DIRECTION ( 'NONE',  ( 0.000000000000000000, 0.000000000000000000, -1.000000000000000000 ) ) ;
#640 = ADVANCED_FACE ( 'NONE', ( #1062 ), #796, .F. ) ;
#641 = CARTESIAN_POINT ( 'NONE',  ( 33.93779011097922904, 31.69999999999993534, -23.82229251149617255 ) ) ;
#642 = CARTESIAN_POINT ( 'NONE',  ( -22.30385672478877979, 31.69999999999993534, -50.82152132219051310 ) ) ;
#643 = DIRECTION ( 'NONE',  ( 0.000000000000000000, 0.000000000000000000, 1.000000000000000000 ) ) ;
#644 = ORIENTED_EDGE ( 'NONE', *, *, #449, .T. ) ;
#645 = FACE_OUTER_BOUND ( 'NONE', #480, .T. ) ;
#646 = CIRCLE ( 'NONE', #1122, 10.00000000000000178 ) ;
#647 = CIRCLE ( 'NONE', #599, 2.999999999997220002 ) ;
#648 = AXIS2_PLACEMENT_3D ( 'NONE', #925, #1128, #131 ) ;
#649 = VERTEX_POINT ( 'NONE', #356 ) ;
#650 = LINE ( 'NONE', #846, #85 ) ;
#651 = ORIENTED_EDGE ( 'NONE', *, *, #342, .F. ) ;
#652 = CARTESIAN_POINT ( 'NONE',  ( 18.08787749052791227, 30.69999999999993534, -26.94817409177222345 ) ) ;
#653 = VERTEX_POINT ( 'NONE', #969 ) ;
#654 = DIRECTION ( 'NONE',  ( -0.000000000000000000, 1.000000000000000000, -0.000000000000000000 ) ) ;
#655 = VECTOR ( 'NONE', #571, 1000.000000000000000 ) ;
#656 = CARTESIAN_POINT ( 'NONE',  ( 21.18439120359125738, 29.70000000000125340, -46.03829340269018644 ) ) ;
#657 = EDGE_LOOP ( 'NONE', ( #779, #240 ) ) ;
#658 = CARTESIAN_POINT ( 'NONE',  ( 2.059984127722458425E-15, 31.69999999999993534, -51.13269814445437333 ) ) ;
#659 = FACE_OUTER_BOUND ( 'NONE', #878, .T. ) ;
#660 = CARTESIAN_POINT ( 'NONE',  ( -38.56839323831705713, 29.69999999999993534, -29.70141530610469616 ) ) ;
#661 = ORIENTED_EDGE ( 'NONE', *, *, #712, .T. ) ;
#662 = LINE ( 'NONE', #33, #188 ) ;
#663 = FACE_BOUND ( 'NONE', #1029, .T. ) ;
#664 = ORIENTED_EDGE ( 'NONE', *, *, #792, .T. ) ;
#665 = DIRECTION ( 'NONE',  ( 0.000000000000000000, -1.000000000000000000, 0.000000000000000000 ) ) ;
#666 = DIRECTION ( 'NONE',  ( -0.8184852508654634207, 0.000000000000000000, 0.5745275399105768122 ) ) ;
#667 = CARTESIAN_POINT ( 'NONE',  ( -16.42429800461373191, 30.69999999999993534, -42.46822350345745889 ) ) ;
#668 = ORIENTED_EDGE ( 'NONE', *, *, #837, .F. ) ;
#669 = EDGE_CURVE ( 'NONE', #653, #569, #722, .T. ) ;
#670 = CARTESIAN_POINT ( 'NONE',  ( 15.78461733052300886, 30.21668203681218756, -49.68372324383047811 ) ) ;
#671 = VERTEX_POINT ( 'NONE', #436 ) ;
#672 = PLANE ( 'NONE',  #144 ) ;
#673 = FACE_OUTER_BOUND ( 'NONE', #379, .T. ) ;
#674 = EDGE_CURVE ( 'NONE', #865, #555, #158, .T. ) ;
#675 = ORIENTED_EDGE ( 'NONE', *, *, #500, .T. ) ;
#676 = DIRECTION ( 'NONE',  ( 0.000000000000000000, -1.000000000000000000, 0.000000000000000000 ) ) ;
#677 = EDGE_CURVE ( 'NONE', #337, #149, #742, .T. ) ;
#678 = VERTEX_POINT ( 'NONE', #247 ) ;
#679 = ORIENTED_EDGE ( 'NONE', *, *, #623, .F. ) ;
#680 = EDGE_CURVE ( 'NONE', #707, #388, #143, .T. ) ;
#681 = DIRECTION ( 'NONE',  ( -0.000000000000000000, 0.000000000000000000, 1.000000000000000000 ) ) ;
#682 = CARTESIAN_POINT ( 'NONE',  ( 5.801708892866013656, 31.69999999999993534, -56.49999999999414513 ) ) ;
#683 = DIRECTION ( 'NONE',  ( 0.000000000000000000, -1.000000000000000000, 0.000000000000000000 ) ) ;
#684 = ORIENTED_EDGE ( 'NONE', *, *, #48, .T. ) ;
#685 = AXIS2_PLACEMENT_3D ( 'NONE', #438, #715, #711 ) ;
#686 = ORIENTED_EDGE ( 'NONE', *, *, #162, .T. ) ;
#687 = VERTEX_POINT ( 'NONE', #260 ) ;
#688 = AXIS2_PLACEMENT_3D ( 'NONE', #121, #683, #40 ) ;
#689 = CARTESIAN_POINT ( 'NONE',  ( -13.98656140152072069, 29.69999999999993534, -52.24527539909988860 ) ) ;
#690 = LINE ( 'NONE', #1063, #11 ) ;
#691 = ORIENTED_EDGE ( 'NONE', *, *, #1086, .F. ) ;
#692 = AXIS2_PLACEMENT_3D ( 'NONE', #920, #205, #643 ) ;
#693 = ORIENTED_EDGE ( 'NONE', *, *, #370, .F. ) ;
#694 = ORIENTED_EDGE ( 'NONE', *, *, #342, .T. ) ;
#695 = PRESENTATION_STYLE_ASSIGNMENT (( #60 ) ) ;
#696 = AXIS2_PLACEMENT_3D ( 'NONE', #277, #1085, #272 ) ;
#697 = CARTESIAN_POINT ( 'NONE',  ( 3.588948926189330377E-12, 31.69999999999993534, -33.89999999999550084 ) ) ;
#698 = ORIENTED_EDGE ( 'NONE', *, *, #620, .F. ) ;
#699 = VERTEX_POINT ( 'NONE', #806 ) ;
#700 = ORIENTED_EDGE ( 'NONE', *, *, #821, .T. ) ;
#701 = DIRECTION ( 'NONE',  ( 0.000000000000000000, -1.000000000000000000, 0.000000000000000000 ) ) ;
#702 = CARTESIAN_POINT ( 'NONE',  ( 1.799999999998746825, 31.69999999999993534, -31.49999999999210942 ) ) ;
#703 = VECTOR ( 'NONE', #1092, 999.9999999999998863 ) ;
#704 = CIRCLE ( 'NONE', #794, 1.999999999997226219 ) ;
#705 = ORIENTED_EDGE ( 'NONE', *, *, #159, .T. ) ;
#706 = B_SPLINE_CURVE_WITH_KNOTS ( 'NONE', 3,
 ( #8, #470, #95, #31, #729, #279, #463, #452 ),
 .UNSPECIFIED., .F., .F.,
 ( 4, 2, 2, 4 ),
 ( 9.813077866773594792E-18, 0.002259556104813727814, 0.003389334157220592371, 0.004519112209627456495 ),
 .UNSPECIFIED. ) ;
#707 = VERTEX_POINT ( 'NONE', #538 ) ;
#708 = EDGE_CURVE ( 'NONE', #1059, #43, #835, .T. ) ;
#709 = ORIENTED_EDGE ( 'NONE', *, *, #620, .T. ) ;
#710 = DIRECTION ( 'NONE',  ( 0.000000000000000000, 0.000000000000000000, -1.000000000000000000 ) ) ;
#711 = DIRECTION ( 'NONE',  ( 0.000000000000000000, 0.000000000000000000, -1.000000000000000000 ) ) ;
#712 = EDGE_CURVE ( 'NONE', #1110, #608, #647, .T. ) ;
#713 = VECTOR ( 'NONE', #24, 1000.000000000000000 ) ;
#714 = FACE_OUTER_BOUND ( 'NONE', #206, .T. ) ;
#715 = DIRECTION ( 'NONE',  ( -0.000000000000000000, -1.000000000000000000, -0.000000000000000000 ) ) ;
#716 = CIRCLE ( 'NONE', #354, 0.7500000000000006661 ) ;
#717 = EDGE_CURVE ( 'NONE', #961, #1043, #1067, .T. ) ;
#718 = AXIS2_PLACEMENT_3D ( 'NONE', #440, #539, #896 ) ;
#719 = DIRECTION ( 'NONE',  ( 0.8303052015494526428, 0.000000000000000000, 0.5573089558583488312 ) ) ;
#720 = LINE ( 'NONE', #83, #145 ) ;
#721 = DIRECTION ( 'NONE',  ( -0.000000000000000000, 1.000000000000000000, -0.000000000000000000 ) ) ;
#722 = CIRCLE ( 'NONE', #201, 2.999999999999808153 ) ;
#723 = DIRECTION ( 'NONE',  ( -0.000000000000000000, 1.000000000000000000, -0.000000000000000000 ) ) ;
#724 = CARTESIAN_POINT ( 'NONE',  ( 20.00000000000000000, 29.69999999999993534, -48.89999999999668745 ) ) ;
#725 = VECTOR ( 'NONE', #1009, 1000.000000000000000 ) ;
#726 = DIRECTION ( 'NONE',  ( -0.000000000000000000, 1.000000000000000000, -0.000000000000000000 ) ) ;
#727 = CARTESIAN_POINT ( 'NONE',  ( 13.26424843694520739, 30.69999999999993889, -47.99202704123351992 ) ) ;
#728 = CARTESIAN_POINT ( 'NONE',  ( 20.00000000000000000, 29.69999999999993534, -48.89999999999668745 ) ) ;
#729 = CARTESIAN_POINT ( 'NONE',  ( 18.81967447599782872, 30.36516752737125913, -44.26475585699530768 ) ) ;
#730 = EDGE_CURVE ( 'NONE', #921, #107, #251, .T. ) ;
#731 = FACE_OUTER_BOUND ( 'NONE', #1127, .T. ) ;
#732 = ORIENTED_EDGE ( 'NONE', *, *, #730, .T. ) ;
#733 = DIRECTION ( 'NONE',  ( -0.000000000000000000, 1.000000000000000000, -0.000000000000000000 ) ) ;
#734 = DIRECTION ( 'NONE',  ( -0.000000000000000000, 1.000000000000000000, -0.000000000000000000 ) ) ;
#735 = APPLICATION_PROTOCOL_DEFINITION ( 'draft international standard', 'automotive_design', 1998, #155 ) ;
#736 = ORIENTED_EDGE ( 'NONE', *, *, #944, .T. ) ;
#737 = ORIENTED_EDGE ( 'NONE', *, *, #669, .F. ) ;
#738 = DIRECTION ( 'NONE',  ( 0.000000000000000000, -1.000000000000000000, 0.000000000000000000 ) ) ;
#739 = EDGE_LOOP ( 'NONE', ( #1054, #1066 ) ) ;
#740 = CARTESIAN_POINT ( 'NONE',  ( 38.56839323831705713, 31.69999999999993534, -29.70141530610469616 ) ) ;
#741 = CARTESIAN_POINT ( 'NONE',  ( 19.99999999999999645, 30.02608430239233783, -45.14999999999683666 ) ) ;
#742 = CIRCLE ( 'NONE', #983, 1.999999999999807487 ) ;
#743 = VECTOR ( 'NONE', #317, 1000.000000000000000 ) ;
#744 = EDGE_LOOP ( 'NONE', ( #58, #69 ) ) ;
#745 = CARTESIAN_POINT ( 'NONE',  ( 16.36118694392696327, 29.97465900396010952, -48.86232880773121678 ) ) ;
#746 = DIRECTION ( 'NONE',  ( -0.000000000000000000, -1.000000000000000000, -0.000000000000000000 ) ) ;
#747 = LINE ( 'NONE', #457, #534 ) ;
#748 = EDGE_LOOP ( 'NONE', ( #422, #1126 ) ) ;
#749 = FACE_OUTER_BOUND ( 'NONE', #285, .T. ) ;
#750 = VERTEX_POINT ( 'NONE', #163 ) ;
#751 = CARTESIAN_POINT ( 'NONE',  ( 0.000000000000000000, 29.69999999999993534, -56.49999999999414513 ) ) ;
#752 = CARTESIAN_POINT ( 'NONE',  ( -15.78461733052300531, 30.69999999999993534, -49.68372324383048522 ) ) ;
#753 = DIRECTION ( 'NONE',  ( 0.000000000000000000, 0.000000000000000000, -1.000000000000000000 ) ) ;
#754 = ORIENTED_EDGE ( 'NONE', *, *, #48, .F. ) ;
#755 = EDGE_CURVE ( 'NONE', #573, #825, #540, .T. ) ;
#756 = CARTESIAN_POINT ( 'NONE',  ( 0.000000000000000000, 31.69999999999993534, -60.99999999999414513 ) ) ;
#757 = B_SPLINE_CURVE_WITH_KNOTS ( 'NONE', 3,
 ( #741, #396, #656, #224 ),
 .UNSPECIFIED., .F., .F.,
 ( 4, 4 ),
 ( 0.004519112209627456495, 0.006782711198649915389 ),
 .UNSPECIFIED. ) ;
#758 = PLANE ( 'NONE',  #446 ) ;
#759 = EDGE_LOOP ( 'NONE', ( #35, #249, #686, #668 ) ) ;
#760 = CARTESIAN_POINT ( 'NONE',  ( 5.573089558583488312, 30.69999999999993534, -42.82964612895985823 ) ) ;
#761 = ORIENTED_EDGE ( 'NONE', *, *, #72, .T. ) ;
#762 = CYLINDRICAL_SURFACE ( 'NONE', #466, 2.999999999997220002 ) ;
#763 = EDGE_CURVE ( 'NONE', #947, #1053, #477, .T. ) ;
#764 = VECTOR ( 'NONE', #414, 1000.000000000000114 ) ;
#765 = EDGE_CURVE ( 'NONE', #782, #334, #952, .T. ) ;
#766 = VERTEX_POINT ( 'NONE', #351 ) ;
#767 = DIRECTION ( 'NONE',  ( -0.000000000000000000, 1.000000000000000000, -0.000000000000000000 ) ) ;
#768 = DIRECTION ( 'NONE',  ( 0.000000000000000000, 0.000000000000000000, -1.000000000000000000 ) ) ;
#769 = DIRECTION ( 'NONE',  ( 0.000000000000000000, 0.000000000000000000, -1.000000000000000000 ) ) ;
#770 = ORIENTED_EDGE ( 'NONE', *, *, #680, .F. ) ;
#771 = ADVANCED_FACE ( 'NONE', ( #714, #621 ), #1081, .T. ) ;
#772 = ORIENTED_EDGE ( 'NONE', *, *, #1028, .F. ) ;
#773 = ORIENTED_EDGE ( 'NONE', *, *, #581, .T. ) ;
#774 = CARTESIAN_POINT ( 'NONE',  ( -20.00000000000000000, 30.02608430239125781, -45.14999999999684377 ) ) ;
#775 = CARTESIAN_POINT ( 'NONE',  ( 3.588948926189330377E-12, 30.69999999999993534, -33.89999999999550084 ) ) ;
#776 = ORIENTED_EDGE ( 'NONE', *, *, #799, .F. ) ;
#777 = AXIS2_PLACEMENT_3D ( 'NONE', #74, #787, #1161 ) ;
#778 = EDGE_LOOP ( 'NONE', ( #1131, #507, #501 ) ) ;
#779 = ORIENTED_EDGE ( 'NONE', *, *, #527, .T. ) ;
#780 = AXIS2_PLACEMENT_3D ( 'NONE', #756, #128, #842 ) ;
#781 = DIRECTION ( 'NONE',  ( 0.000000000000000000, -1.000000000000000000, 0.000000000000000000 ) ) ;
#782 = VERTEX_POINT ( 'NONE', #985 ) ;
#783 = STYLED_ITEM ( 'NONE', ( #695 ), #951 ) ;
#784 = VERTEX_POINT ( 'NONE', #177 ) ;
#785 = EDGE_LOOP ( 'NONE', ( #836, #861, #521, #644 ) ) ;
#786 = DIRECTION ( 'NONE',  ( 0.000000000000000000, 0.000000000000000000, 1.000000000000000000 ) ) ;
#787 = DIRECTION ( 'NONE',  ( -0.5573089558583483871, 0.000000000000000000, -0.8303052015494528648 ) ) ;
#788 = ORIENTED_EDGE ( 'NONE', *, *, #1036, .T. ) ;
#789 = ORIENTED_EDGE ( 'NONE', *, *, #219, .T. ) ;
#790 = VERTEX_POINT ( 'NONE', #543 ) ;
#791 = DIRECTION ( 'NONE',  ( -0.000000000000000000, 1.000000000000000000, -0.000000000000000000 ) ) ;
#792 = EDGE_CURVE ( 'NONE', #127, #156, #1100, .T. ) ;
#793 = CARTESIAN_POINT ( 'NONE',  ( 13.98656140152072069, 29.69999999999993534, -52.24527539909988860 ) ) ;
#794 = AXIS2_PLACEMENT_3D ( 'NONE', #313, #676, #1027 ) ;
#795 = EDGE_CURVE ( 'NONE', #231, #330, #486, .T. ) ;
#796 = CYLINDRICAL_SURFACE ( 'NONE', #625, 10.00000000000000178 ) ;
#797 = DIRECTION ( 'NONE',  ( 0.000000000000000000, 0.000000000000000000, -1.000000000000000000 ) ) ;
#798 = EDGE_CURVE ( 'NONE', #334, #782, #23, .T. ) ;
#799 = EDGE_CURVE ( 'NONE', #947, #784, #808, .T. ) ;
#800 = AXIS2_PLACEMENT_3D ( 'NONE', #1024, #488, #325 ) ;
#801 = CARTESIAN_POINT ( 'NONE',  ( 3.588948926189330377E-12, 31.69999999999993534, -33.89999999999550084 ) ) ;
#802 = VECTOR ( 'NONE', #530, 1000.000000000000000 ) ;
#803 = CARTESIAN_POINT ( 'NONE',  ( -20.59248042000585244, 29.85805658147320685, -45.59436031500116826 ) ) ;
#804 = AXIS2_PLACEMENT_3D ( 'NONE', #389, #851, #26 ) ;
#805 = CIRCLE ( 'NONE', #101, 2.000000000000001776 ) ;
#806 = CARTESIAN_POINT ( 'NONE',  ( -20.00000000000000000, 29.69999999999993534, -45.89999999999669456 ) ) ;
#807 = DIRECTION ( 'NONE',  ( -0.5745275399105768122, 0.000000000000000000, 0.8184852508654634207 ) ) ;
#808 = LINE ( 'NONE', #641, #384 ) ;
#809 = DIRECTION ( 'NONE',  ( 0.000000000000000000, 0.000000000000000000, 1.000000000000000000 ) ) ;
#810 = DIRECTION ( 'NONE',  ( 0.000000000000000000, 0.000000000000000000, -1.000000000000000000 ) ) ;
#811 = ADVANCED_FACE ( 'NONE', ( #455 ), #120, .F. ) ;
#812 = CARTESIAN_POINT ( 'NONE',  ( 22.30385672483235737, 29.69999999999993534, -50.82152132213393259 ) ) ;
#813 = CARTESIAN_POINT ( 'NONE',  ( -12.74873147148908714, 30.69999999999993534, -47.64600702207734173 ) ) ;
#814 = ADVANCED_FACE ( 'NONE', ( #992 ), #181, .F. ) ;
#815 = LINE ( 'NONE', #386, #636 ) ;
#816 = ADVANCED_FACE ( 'NONE', ( #731 ), #1167, .F. ) ;
#817 = DIRECTION ( 'NONE',  ( -0.000000000000000000, 1.000000000000000000, -0.000000000000000000 ) ) ;
#818 = CARTESIAN_POINT ( 'NONE',  ( 3.588948926189330377E-12, 30.69999999999993534, -30.89999999999569624 ) ) ;
#819 = DIRECTION ( 'NONE',  ( 1.000000000000000000, 0.000000000000000000, 0.000000000000000000 ) ) ;
#820 = ORIENTED_EDGE ( 'NONE', *, *, #425, .F. ) ;
#821 = EDGE_CURVE ( 'NONE', #138, #687, #706, .T. ) ;
#822 = DIRECTION ( 'NONE',  ( 0.000000000000000000, 0.000000000000000000, 1.000000000000000000 ) ) ;
#823 = CIRCLE ( 'NONE', #531, 2.999999999999808153 ) ;
#824 = CARTESIAN_POINT ( 'NONE',  ( 0.000000000000000000, 31.69999999999993534, -65.49999999999414513 ) ) ;
#825 = VERTEX_POINT ( 'NONE', #197 ) ;
#826 = CIRCLE ( 'NONE', #551, 10.00000000000000178 ) ;
#827 = ORIENTED_EDGE ( 'NONE', *, *, #9, .F. ) ;
#828 = DIRECTION ( 'NONE',  ( 0.8000000000000332401, 0.000000000000000000, -0.5999999999999555689 ) ) ;
#829 = CARTESIAN_POINT ( 'NONE',  ( 14.47199999999885023, 30.69999999999993534, -19.29600000000068860 ) ) ;
#830 = CARTESIAN_POINT ( 'NONE',  ( -5.801708892866057177, 29.69999999999993534, -46.49999999999414513 ) ) ;
#831 = EDGE_LOOP ( 'NONE', ( #1140, #394, #1147, #494 ) ) ;
#832 = MECHANICAL_DESIGN_GEOMETRIC_PRESENTATION_REPRESENTATION (  '', ( #783 ), #972 ) ;
#833 = CARTESIAN_POINT ( 'NONE',  ( 20.00000000000000000, 20.69999999999993534, -48.89999999999668745 ) ) ;
#834 = DIRECTION ( 'NONE',  ( 0.6101419922032069731, 0.000000000000000000, 0.7922920858814013201 ) ) ;
#835 = CIRCLE ( 'NONE', #336, 2.999999999999995559 ) ;
#836 = ORIENTED_EDGE ( 'NONE', *, *, #1123, .T. ) ;
#837 = EDGE_CURVE ( 'NONE', #32, #1045, #173, .T. ) ;
#838 = CARTESIAN_POINT ( 'NONE',  ( 20.00000000000000000, 29.69999999999993534, -48.89999999999668745 ) ) ;
#839 = CARTESIAN_POINT ( 'NONE',  ( 17.53545340929568752, 29.69999999999993534, -47.18944158175104064 ) ) ;
#840 = CARTESIAN_POINT ( 'NONE',  ( 5.801708892866013656, 29.69999999999993534, -56.49999999999414513 ) ) ;
#841 = ORIENTED_EDGE ( 'NONE', *, *, #669, .T. ) ;
#842 = DIRECTION ( 'NONE',  ( 0.000000000000000000, 0.000000000000000000, -1.000000000000000000 ) ) ;
#843 =( LENGTH_UNIT ( ) NAMED_UNIT ( * ) SI_UNIT ( .MILLI., .METRE. ) );
#844 = ORIENTED_EDGE ( 'NONE', *, *, #717, .F. ) ;
#845 = VECTOR ( 'NONE', #560, 1000.000000000000000 ) ;
#846 = CARTESIAN_POINT ( 'NONE',  ( -18.08787749052790517, 30.69999999999993534, -26.94817409177224832 ) ) ;
#847 = EDGE_CURVE ( 'NONE', #653, #596, #100, .T. ) ;
#848 = CARTESIAN_POINT ( 'NONE',  ( 18.08787749052791227, 31.69999999999993534, -26.94817409177222345 ) ) ;
#849 = DIRECTION ( 'NONE',  ( -0.000000000000000000, 0.000000000000000000, 1.000000000000000000 ) ) ;
#850 = ORIENTED_EDGE ( 'NONE', *, *, #680, .T. ) ;
#851 = DIRECTION ( 'NONE',  ( -0.000000000000000000, 1.000000000000000000, -0.000000000000000000 ) ) ;
#852 = ORIENTED_EDGE ( 'NONE', *, *, #581, .F. ) ;
#853 = CARTESIAN_POINT ( 'NONE',  ( 12.74873147149161667, 30.69999999999993534, -47.64600702207904703 ) ) ;
#854 = EDGE_CURVE ( 'NONE', #589, #59, #747, .T. ) ;
#855 = DIRECTION ( 'NONE',  ( 0.000000000000000000, -1.000000000000000000, 0.000000000000000000 ) ) ;
#856 = VERTEX_POINT ( 'NONE', #840 ) ;
#857 = VECTOR ( 'NONE', #734, 1000.000000000000000 ) ;
#858 = EDGE_CURVE ( 'NONE', #825, #699, #1144, .T. ) ;
#859 = ORIENTED_EDGE ( 'NONE', *, *, #623, .T. ) ;
#860 = VERTEX_POINT ( 'NONE', #549 ) ;
#861 = ORIENTED_EDGE ( 'NONE', *, *, #887, .F. ) ;
#862 = DIRECTION ( 'NONE',  ( -0.000000000000000000, 1.000000000000000000, -0.000000000000000000 ) ) ;
#863 = CIRCLE ( 'NONE', #603, 2.999999999997220002 ) ;
#864 = DIRECTION ( 'NONE',  ( -0.000000000000000000, 1.000000000000000000, -0.000000000000000000 ) ) ;
#865 = VERTEX_POINT ( 'NONE', #813 ) ;
#866 = AXIS2_PLACEMENT_3D ( 'NONE', #833, #995, #199 ) ;
#867 = ORIENTED_EDGE ( 'NONE', *, *, #1072, .F. ) ;
#868 = ORIENTED_EDGE ( 'NONE', *, *, #180, .T. ) ;
#869 = SURFACE_STYLE_FILL_AREA ( #927 ) ;
#870 = CARTESIAN_POINT ( 'NONE',  ( 0.000000000000000000, 31.69999999999993534, -60.99999999999414513 ) ) ;
#871 = ORIENTED_EDGE ( 'NONE', *, *, #997, .F. ) ;
#872 = ORIENTED_EDGE ( 'NONE', *, *, #276, .F. ) ;
#873 = AXIS2_PLACEMENT_3D ( 'NONE', #432, #889, #977 ) ;
#874 = EDGE_LOOP ( 'NONE', ( #1002, #664, #112, #965 ) ) ;
#875 = ORIENTED_EDGE ( 'NONE', *, *, #674, .T. ) ;
#876 = CARTESIAN_POINT ( 'NONE',  ( -17.03305870968305413, 30.69999999999994600, -42.92479403225939905 ) ) ;
#877 = CARTESIAN_POINT ( 'NONE',  ( 20.00000000000000000, 29.69999999999993534, -46.89999999999946567 ) ) ;
#878 = EDGE_LOOP ( 'NONE', ( #520, #693, #241, #467, #871, #1121 ) ) ;
#879 = ADVANCED_FACE ( 'NONE', ( #269 ), #426, .F. ) ;
#880 = ORIENTED_EDGE ( 'NONE', *, *, #1157, .T. ) ;
#881 = VERTEX_POINT ( 'NONE', #907 ) ;
#882 = CARTESIAN_POINT ( 'NONE',  ( -16.94182264300293994, 29.77293398599106666, -48.03514173173200419 ) ) ;
#883 = CARTESIAN_POINT ( 'NONE',  ( -22.30385672478878334, 29.69999999999993534, -50.82152132219051310 ) ) ;
#884 = ORIENTED_EDGE ( 'NONE', *, *, #976, .F. ) ;
#885 = EDGE_CURVE ( 'NONE', #671, #961, #1080, .T. ) ;
#886 = DIRECTION ( 'NONE',  ( 0.000000000000000000, 0.000000000000000000, -1.000000000000000000 ) ) ;
#887 = EDGE_CURVE ( 'NONE', #413, #1110, #479, .T. ) ;
#888 = FACE_OUTER_BOUND ( 'NONE', #346, .T. ) ;
#889 = DIRECTION ( 'NONE',  ( 0.000000000000000000, -1.000000000000000000, 0.000000000000000000 ) ) ;
#890 = FACE_OUTER_BOUND ( 'NONE', #15, .T. ) ;
#891 = CARTESIAN_POINT ( 'NONE',  ( -16.36118694383003813, 29.97465900400217720, -48.86232880786930366 ) ) ;
#892 = VECTOR ( 'NONE', #719, 1000.000000000000000 ) ;
#893 = CARTESIAN_POINT ( 'NONE',  ( -21.79999999999986571, 29.69999999999993534, -46.49999999999658939 ) ) ;
#894 = CIRCLE ( 'NONE', #1004, 0.7500000000000006661 ) ;
#895 = DIRECTION ( 'NONE',  ( 0.000000000000000000, -1.000000000000000000, 0.000000000000000000 ) ) ;
#896 = DIRECTION ( 'NONE',  ( -0.5745275399105768122, 0.000000000000000000, 0.8184852508654634207 ) ) ;
#897 = CARTESIAN_POINT ( 'NONE',  ( 20.00000000000000000, 29.69999999999993534, -48.89999999999668745 ) ) ;
#898 = CYLINDRICAL_SURFACE ( 'NONE', #411, 10.00000000000000178 ) ;
#899 = DIRECTION ( 'NONE',  ( 0.000000000000000000, -1.000000000000000000, 0.000000000000000000 ) ) ;
#900 = EDGE_CURVE ( 'NONE', #596, #881, #572, .T. ) ;
#901 = ADVANCED_BREP_SHAPE_REPRESENTATION ( 'Part4', ( #951, #89 ), #294 ) ;
#902 = ADVANCED_FACE ( 'NONE', ( #1107 ), #994, .T. ) ;
#903 = DIRECTION ( 'NONE',  ( -0.000000000000000000, 1.000000000000000000, -0.000000000000000000 ) ) ;
#904 = ORIENTED_EDGE ( 'NONE', *, *, #408, .F. ) ;
#905 = VECTOR ( 'NONE', #963, 1000.000000000000114 ) ;
#906 = DIRECTION ( 'NONE',  ( 0.5745275399105768122, 0.000000000000000000, 0.8184852508654634207 ) ) ;
#907 = CARTESIAN_POINT ( 'NONE',  ( 3.588948926189330377E-12, 31.69999999999993534, -30.89999999999569624 ) ) ;
#908 = DIRECTION ( 'NONE',  ( 0.000000000000000000, -1.000000000000000000, 0.000000000000000000 ) ) ;
#909 = ADVANCED_FACE ( 'NONE', ( #1093 ), #634, .T. ) ;
#910 = VECTOR ( 'NONE', #633, 1000.000000000000000 ) ;
#911 = FACE_OUTER_BOUND ( 'NONE', #831, .T. ) ;
#912 = CARTESIAN_POINT ( 'NONE',  ( 0.000000000000000000, 31.69999999999993534, -56.49999999999414513 ) ) ;
#913 = ORIENTED_EDGE ( 'NONE', *, *, #854, .T. ) ;
#914 = LINE ( 'NONE', #185, #998 ) ;
#915 = APPLICATION_PROTOCOL_DEFINITION ( 'draft international standard', 'automotive_design', 1998, #1018 ) ;
#916 = ORIENTED_EDGE ( 'NONE', *, *, #887, .T. ) ;
#917 = FACE_OUTER_BOUND ( 'NONE', #785, .T. ) ;
#918 = ORIENTED_EDGE ( 'NONE', *, *, #821, .F. ) ;
#919 = CIRCLE ( 'NONE', #979, 10.00000000000000178 ) ;
#920 = CARTESIAN_POINT ( 'NONE',  ( 3.588948926189330377E-12, 30.69999999999993534, -33.89999999999550084 ) ) ;
#921 = VERTEX_POINT ( 'NONE', #1001 ) ;
#922 = LINE ( 'NONE', #550, #857 ) ;
#923 = CIRCLE ( 'NONE', #688, 10.00000000000000178 ) ;
#924 = VERTEX_POINT ( 'NONE', #190 ) ;
#925 = CARTESIAN_POINT ( 'NONE',  ( 38.56839323831705713, 29.69999999999993534, -29.70141530610469616 ) ) ;
#926 = CARTESIAN_POINT ( 'NONE',  ( -22.30385672478877979, 29.69999999999993534, -50.82152132219051310 ) ) ;
#927 = FILL_AREA_STYLE ('',( #568 ) ) ;
#928 = ORIENTED_EDGE ( 'NONE', *, *, #795, .F. ) ;
#929 = VECTOR ( 'NONE', #733, 1000.000000000000000 ) ;
#930 = DIRECTION ( 'NONE',  ( -0.000000000000000000, 1.000000000000000000, -0.000000000000000000 ) ) ;
#931 = FACE_BOUND ( 'NONE', #744, .T. ) ;
#932 = ORIENTED_EDGE ( 'NONE', *, *, #318, .T. ) ;
#933 = CARTESIAN_POINT ( 'NONE',  ( 20.00000000000000000, 31.69999999999993534, -50.89999999999391633 ) ) ;
#934 = LINE ( 'NONE', #478, #344 ) ;
#935 =( LENGTH_UNIT ( ) NAMED_UNIT ( * ) SI_UNIT ( .MILLI., .METRE. ) );
#936 = EDGE_LOOP ( 'NONE', ( #299, #844, #431, #70 ) ) ;
#937 = DIRECTION ( 'NONE',  ( -0.000000000000000000, 1.000000000000000000, -0.000000000000000000 ) ) ;
#938 = EDGE_CURVE ( 'NONE', #613, #1053, #14, .T. ) ;
#939 = ORIENTED_EDGE ( 'NONE', *, *, #798, .F. ) ;
#940 = VECTOR ( 'NONE', #930, 1000.000000000000000 ) ;
#941 = CYLINDRICAL_SURFACE ( 'NONE', #1052, 2.999999999999995559 ) ;
#942 = LINE ( 'NONE', #133, #284 ) ;
#943 = CARTESIAN_POINT ( 'NONE',  ( -20.00000000000000000, 30.02608430239125781, -45.14999999999684377 ) ) ;
#944 = EDGE_CURVE ( 'NONE', #107, #390, #298, .T. ) ;
#945 = FACE_BOUND ( 'NONE', #739, .T. ) ;
#946 = ORIENTED_EDGE ( 'NONE', *, *, #635, .F. ) ;
#947 = VERTEX_POINT ( 'NONE', #387 ) ;
#948 = CARTESIAN_POINT ( 'NONE',  ( -20.00000000000000000, 29.69999999999993534, -48.89999999999668745 ) ) ;
#949 = ORIENTED_EDGE ( 'NONE', *, *, #837, .T. ) ;
#950 = AXIS2_PLACEMENT_3D ( 'NONE', #152, #234, #768 ) ;
#951 = MANIFOLD_SOLID_BREP ( 'Cut-Extrude1', #541 ) ;
#952 = CIRCLE ( 'NONE', #442, 2.000000000000001776 ) ;
#953 = VECTOR ( 'NONE', #228, 1000.000000000000000 ) ;
#954 = ORIENTED_EDGE ( 'NONE', *, *, #674, .F. ) ;
#955 = ORIENTED_EDGE ( 'NONE', *, *, #799, .T. ) ;
#956 = CARTESIAN_POINT ( 'NONE',  ( -20.00000000000000000, 29.69999999999993534, -48.89999999999668745 ) ) ;
#957 = CIRCLE ( 'NONE', #193, 1.999999999997226219 ) ;
#958 = CARTESIAN_POINT ( 'NONE',  ( -13.26182289798396141, 30.69999999999993534, -47.99039899580711932 ) ) ;
#959 = EDGE_LOOP ( 'NONE', ( #1152, #684, #565, #904, #509 ) ) ;
#960 = TOROIDAL_SURFACE ( 'NONE', #510, 7.358898943537890425, 10.00000000000000000 ) ;
#961 = VERTEX_POINT ( 'NONE', #689 ) ;
#962 = EDGE_LOOP ( 'NONE', ( #306, #503, #1099, #1006 ) ) ;
#963 = DIRECTION ( 'NONE',  ( -0.8303052015494528648, 0.000000000000000000, 0.5573089558583483871 ) ) ;
#964 = LINE ( 'NONE', #877, #419 ) ;
#965 = ORIENTED_EDGE ( 'NONE', *, *, #129, .F. ) ;
#966 = EDGE_CURVE ( 'NONE', #671, #613, #1016, .T. ) ;
#967 = EDGE_LOOP ( 'NONE', ( #604, #820, #290, #347 ) ) ;
#968 = ORIENTED_EDGE ( 'NONE', *, *, #763, .F. ) ;
#969 = CARTESIAN_POINT ( 'NONE',  ( 1.799999999996167555, 30.69999999999993534, -31.49999999999554490 ) ) ;
#970 = CARTESIAN_POINT ( 'NONE',  ( -15.28479551365591682, 30.35547953688073974, -49.34823796160702614 ) ) ;
#971 = EDGE_LOOP ( 'NONE', ( #1046, #22, #1010 ) ) ;
#972 =( GEOMETRIC_REPRESENTATION_CONTEXT ( 3 ) GLOBAL_UNCERTAINTY_ASSIGNED_CONTEXT ( ( #271 ) ) GLOBAL_UNIT_ASSIGNED_CONTEXT ( ( #935, #45, #229 ) ) REPRESENTATION_CONTEXT ( 'NONE', 'WORKASPACE' ) );
#973 = EDGE_CURVE ( 'NONE', #766, #149, #242, .T. ) ;
#974 = DIRECTION ( 'NONE',  ( -0.000000000000000000, 1.000000000000000000, -0.000000000000000000 ) ) ;
#975 = CYLINDRICAL_SURFACE ( 'NONE', #685, 0.7500000000000006661 ) ;
#976 = EDGE_CURVE ( 'NONE', #161, #649, #282, .T. ) ;
#977 = DIRECTION ( 'NONE',  ( 0.000000000000000000, 0.000000000000000000, -1.000000000000000000 ) ) ;
#978 = DIRECTION ( 'NONE',  ( 0.000000000000000000, 0.000000000000000000, 1.000000000000000000 ) ) ;
#979 = AXIS2_PLACEMENT_3D ( 'NONE', #611, #982, #81 ) ;
#980 = DIRECTION ( 'NONE',  ( 0.000000000000000000, 0.000000000000000000, -1.000000000000000000 ) ) ;
#981 = CARTESIAN_POINT ( 'NONE',  ( -1.799999999996165778, 31.69999999999993534, -31.49999999999554490 ) ) ;
#982 = DIRECTION ( 'NONE',  ( 1.000000000000000000, 0.000000000000000000, -1.224646799147353207E-16 ) ) ;
#983 = AXIS2_PLACEMENT_3D ( 'NONE', #801, #439, #980 ) ;
#984 = CARTESIAN_POINT ( 'NONE',  ( 11.00000000000000000, 29.69999999999993534, -65.49999999999414513 ) ) ;
#985 = CARTESIAN_POINT ( 'NONE',  ( -20.00000000000000000, 29.69999999999993534, -46.89999999999668745 ) ) ;
#986 = FACE_OUTER_BOUND ( 'NONE', #959, .T. ) ;
#987 = DIRECTION ( 'NONE',  ( 1.000000000000000000, 0.000000000000000000, 0.000000000000000000 ) ) ;
#988 = AXIS2_PLACEMENT_3D ( 'NONE', #829, #288, #189 ) ;
#989 = VECTOR ( 'NONE', #1014, 1000.000000000000000 ) ;
#990 = EDGE_CURVE ( 'NONE', #613, #1043, #646, .T. ) ;
#991 = PRODUCT_DEFINITION_CONTEXT ( 'detailed design', #155, 'design' ) ;
#992 = FACE_OUTER_BOUND ( 'NONE', #57, .T. ) ;
#993 = CARTESIAN_POINT ( 'NONE',  ( 0.000000000000000000, 29.69999999999993534, -60.99999999999414513 ) ) ;
#994 = PLANE ( 'NONE',  #629 ) ;
#995 = DIRECTION ( 'NONE',  ( 0.000000000000000000, -1.000000000000000000, 0.000000000000000000 ) ) ;
#996 = ADVANCED_FACE ( 'NONE', ( #1113 ), #305, .T. ) ;
#997 = EDGE_CURVE ( 'NONE', #562, #649, #577, .T. ) ;
#998 = VECTOR ( 'NONE', #465, 1000.000000000000000 ) ;
#999 = ADVANCED_FACE ( 'NONE', ( #673 ), #1047, .F. ) ;
#1000 = CARTESIAN_POINT ( 'NONE',  ( -20.00000000000000000, 31.69999999999993534, -50.89999999999668745 ) ) ;
#1001 = CARTESIAN_POINT ( 'NONE',  ( -11.00000000000000000, 29.69999999999993534, -65.49999999999414513 ) ) ;
#1002 = ORIENTED_EDGE ( 'NONE', *, *, #318, .F. ) ;
#1004 = AXIS2_PLACEMENT_3D ( 'NONE', #473, #230, #320 ) ;
#1003 = CARTESIAN_POINT ( 'NONE',  ( 20.00000000000000000, 20.69999999999993534, -48.89999999999668745 ) ) ;
#1005 = AXIS2_PLACEMENT_3D ( 'NONE', #870, #62, #349 ) ;
#1006 = ORIENTED_EDGE ( 'NONE', *, *, #162, .F. ) ;
#1007 = CARTESIAN_POINT ( 'NONE',  ( 3.588948926189330377E-12, 30.69999999999993534, -31.89999999999569624 ) ) ;
#1008 = DIRECTION ( 'NONE',  ( -0.000000000000000000, 1.000000000000000000, -0.000000000000000000 ) ) ;
#1009 = DIRECTION ( 'NONE',  ( -0.000000000000000000, 1.000000000000000000, -0.000000000000000000 ) ) ;
#1010 = ORIENTED_EDGE ( 'NONE', *, *, #1157, .F. ) ;
#1011 = CARTESIAN_POINT ( 'NONE',  ( -33.93779011097922904, 31.69999999999993534, -23.82229251149617255 ) ) ;
#1012 = ORIENTED_EDGE ( 'NONE', *, *, #631, .T. ) ;
#1013 = CARTESIAN_POINT ( 'NONE',  ( 16.94182264319915632, 29.77293398593370810, -48.03514173145247668 ) ) ;
#1014 = DIRECTION ( 'NONE',  ( 0.8303052015494526428, 0.000000000000000000, 0.5573089558583488312 ) ) ;
#1015 = AXIS2_PLACEMENT_3D ( 'NONE', #243, #519, #1056 ) ;
#1016 = LINE ( 'NONE', #504, #96 ) ;
#1017 = ORIENTED_EDGE ( 'NONE', *, *, #314, .T. ) ;
#1018 = APPLICATION_CONTEXT ( 'automotive_design' ) ;
#1019 = CARTESIAN_POINT ( 'NONE',  ( 3.589193855549159494E-12, 31.69999999999993534, -35.89999999999530900 ) ) ;
#1020 = CARTESIAN_POINT ( 'NONE',  ( -20.00000000000000000, 29.69999999999993534, -50.89999999999668745 ) ) ;
#1021 = EDGE_LOOP ( 'NONE', ( #418, #946 ) ) ;
#1022 = CARTESIAN_POINT ( 'NONE',  ( -21.79999999999986571, 30.69999999999993534, -46.49999999999658939 ) ) ;
#1023 = CYLINDRICAL_SURFACE ( 'NONE', #273, 1.999999999999807487 ) ;
#1024 = CARTESIAN_POINT ( 'NONE',  ( 3.588948926189330377E-12, 30.69999999999993534, -33.89999999999550084 ) ) ;
#1025 = EDGE_LOOP ( 'NONE', ( #698, #916, #661, #679 ) ) ;
#1026 = COLOUR_RGB ( '',0.7921568627450980005, 0.8196078431372548767, 0.9333333333333333481 ) ;
#1027 = DIRECTION ( 'NONE',  ( 0.000000000000000000, 0.000000000000000000, -1.000000000000000000 ) ) ;
#1028 = EDGE_CURVE ( 'NONE', #784, #136, #332, .T. ) ;
#1029 = EDGE_LOOP ( 'NONE', ( #64, #949 ) ) ;
#1030 = CYLINDRICAL_SURFACE ( 'NONE', #88, 10.00000000000000178 ) ;
#1031 = EDGE_CURVE ( 'NONE', #149, #337, #186, .T. ) ;
#1032 = DIRECTION ( 'NONE',  ( 0.000000000000000000, -1.000000000000000000, 0.000000000000000000 ) ) ;
#1033 = VERTEX_POINT ( 'NONE', #598 ) ;
#1034 = LINE ( 'NONE', #140, #940 ) ;
#1035 = CARTESIAN_POINT ( 'NONE',  ( 3.588948926189330377E-12, 31.69999999999993534, -33.89999999999550084 ) ) ;
#1036 = EDGE_CURVE ( 'NONE', #699, #602, #404, .T. ) ;
#1037 = ORIENTED_EDGE ( 'NONE', *, *, #4, .F. ) ;
#1038 = ORIENTED_EDGE ( 'NONE', *, *, #76, .T. ) ;
#1039 = CARTESIAN_POINT ( 'NONE',  ( 17.23509375242660724, 29.70134053385953266, -47.61734091124291979 ) ) ;
#1040 = CARTESIAN_POINT ( 'NONE',  ( -21.79999999999986571, 31.69999999999993534, -46.49999999999658939 ) ) ;
#1041 = FACE_OUTER_BOUND ( 'NONE', #1025, .T. ) ;
#1042 = ORIENTED_EDGE ( 'NONE', *, *, #885, .T. ) ;
#1043 = VERTEX_POINT ( 'NONE', #584 ) ;
#1044 = EDGE_CURVE ( 'NONE', #388, #558, #942, .T. ) ;
#1045 = VERTEX_POINT ( 'NONE', #407 ) ;
#1046 = ORIENTED_EDGE ( 'NONE', *, *, #631, .F. ) ;
#1047 = PLANE ( 'NONE',  #615 ) ;
#1048 = DIRECTION ( 'NONE',  ( -0.000000000000000000, 1.000000000000000000, -0.000000000000000000 ) ) ;
#1049 = VECTOR ( 'NONE', #987, 1000.000000000000000 ) ;
#1050 = ORIENTED_EDGE ( 'NONE', *, *, #1031, .T. ) ;
#1051 = AXIS2_PLACEMENT_3D ( 'NONE', #1156, #1074, #166 ) ;
#1052 = AXIS2_PLACEMENT_3D ( 'NONE', #391, #767, #468 ) ;
#1053 = VERTEX_POINT ( 'NONE', #682 ) ;
#1054 = ORIENTED_EDGE ( 'NONE', *, *, #435, .F. ) ;
#1055 = CARTESIAN_POINT ( 'NONE',  ( 3.589193855549159494E-12, 30.69999999999993534, -35.89999999999530900 ) ) ;
#1056 = DIRECTION ( 'NONE',  ( 0.000000000000000000, 0.000000000000000000, -1.000000000000000000 ) ) ;
#1057 = ORIENTED_EDGE ( 'NONE', *, *, #5, .F. ) ;
#1058 = PRODUCT_DEFINITION_FORMATION_WITH_SPECIFIED_SOURCE ( 'ANY', '', #359, .NOT_KNOWN. ) ;
#1059 = VERTEX_POINT ( 'NONE', #1040 ) ;
#1060 = ORIENTED_EDGE ( 'NONE', *, *, #1086, .T. ) ;
#1061 = AXIS2_PLACEMENT_3D ( 'NONE', #567, #666, #906 ) ;
#1062 = FACE_OUTER_BOUND ( 'NONE', #1153, .T. ) ;
#1063 = CARTESIAN_POINT ( 'NONE',  ( -38.56839323831705713, 29.69999999999993534, -29.70141530610469616 ) ) ;
#1064 = ORIENTED_EDGE ( 'NONE', *, *, #449, .F. ) ;
#1065 = ADVANCED_FACE ( 'NONE', ( #592 ), #472, .F. ) ;
#1066 = ORIENTED_EDGE ( 'NONE', *, *, #208, .F. ) ;
#1067 = LINE ( 'NONE', #171, #536 ) ;
#1068 = DIRECTION ( 'NONE',  ( 1.000000000000000000, 0.000000000000000000, -1.224646799147353207E-16 ) ) ;
#1069 = EDGE_CURVE ( 'NONE', #312, #766, #353, .T. ) ;
#1070 = AXIS2_PLACEMENT_3D ( 'NONE', #956, #1032, #221 ) ;
#1071 = CARTESIAN_POINT ( 'NONE',  ( 3.588948926189330377E-12, 30.69999999999993534, -33.89999999999550084 ) ) ;
#1072 = EDGE_CURVE ( 'NONE', #555, #860, #922, .T. ) ;
#1073 = CIRCLE ( 'NONE', #443, 0.7500000000000006661 ) ;
#1074 = DIRECTION ( 'NONE',  ( 0.000000000000000000, -1.000000000000000000, 0.000000000000000000 ) ) ;
#1075 = CARTESIAN_POINT ( 'NONE',  ( -21.19094358140216272, 29.73723544878574643, -46.04320768604836900 ) ) ;
#1076 = PRODUCT_DEFINITION_SHAPE ( 'NONE', 'NONE',  #1090 ) ;
#1077 = CIRCLE ( 'NONE', #61, 2.999999999997220002 ) ;
#1078 = CARTESIAN_POINT ( 'NONE',  ( -16.07341753470913304, 30.10077850338623762, -49.27229177857805809 ) ) ;
#1079 = DIRECTION ( 'NONE',  ( 0.000000000000000000, 0.000000000000000000, -1.000000000000000000 ) ) ;
#1080 = CIRCLE ( 'NONE', #523, 10.00000000000000178 ) ;
#1081 = PLANE ( 'NONE',  #1146 ) ;
#1082 = CARTESIAN_POINT ( 'NONE',  ( 0.000000000000000000, 29.69999999999993534, -65.49999999999414513 ) ) ;
#1083 = EDGE_CURVE ( 'NONE', #569, #881, #105, .T. ) ;
#1084 = EDGE_CURVE ( 'NONE', #1043, #678, #16, .T. ) ;
#1085 = DIRECTION ( 'NONE',  ( 0.000000000000000000, -1.000000000000000000, 0.000000000000000000 ) ) ;
#1086 = EDGE_CURVE ( 'NONE', #1151, #54, #914, .T. ) ;
#1087 = DIRECTION ( 'NONE',  ( 0.000000000000000000, -1.000000000000000000, 0.000000000000000000 ) ) ;
#1088 = DIRECTION ( 'NONE',  ( 0.5745275399105768122, 0.000000000000000000, 0.8184852508654634207 ) ) ;
#1089 = ADVANCED_FACE ( 'NONE', ( #645 ), #502, .F. ) ;
#1090 = PRODUCT_DEFINITION ( 'UNKNOWN', '', #1058, #991 ) ;
#1091 = CARTESIAN_POINT ( 'NONE',  ( 13.77402159916225877, 30.65148059111860590, -48.33419176359058866 ) ) ;
#1092 = DIRECTION ( 'NONE',  ( 0.8000000000000333511, 0.000000000000000000, -0.5999999999999554579 ) ) ;
#1093 = FACE_OUTER_BOUND ( 'NONE', #316, .T. ) ;
#1094 = CARTESIAN_POINT ( 'NONE',  ( 0.000000000000000000, 29.69999999999993534, -61.74999999999414513 ) ) ;
#1095 =( NAMED_UNIT ( * ) SI_UNIT ( $, .STERADIAN. ) SOLID_ANGLE_UNIT ( ) );
#1096 = VERTEX_POINT ( 'NONE', #1094 ) ;
#1097 = FACE_OUTER_BOUND ( 'NONE', #1132, .T. ) ;
#1098 = CARTESIAN_POINT ( 'NONE',  ( 1.799999999996167555, 30.69999999999993534, -31.49999999999554490 ) ) ;
#1099 = ORIENTED_EDGE ( 'NONE', *, *, #402, .F. ) ;
#1100 = CIRCLE ( 'NONE', #238, 1.999999999997226219 ) ;
#1101 = DIRECTION ( 'NONE',  ( 0.6101419922032069731, 0.000000000000000000, 0.7922920858814013201 ) ) ;
#1102 = PLANE ( 'NONE',  #340 ) ;
#1103 = AXIS2_PLACEMENT_3D ( 'NONE', #366, #2, #978 ) ;
#1104 = ORIENTED_EDGE ( 'NONE', *, *, #187, .F. ) ;
#1105 = CARTESIAN_POINT ( 'NONE',  ( 15.78461733052300886, 30.21668203681218756, -49.68372324383047811 ) ) ;
#1106 = DIRECTION ( 'NONE',  ( -0.000000000000000000, 1.000000000000000000, -0.000000000000000000 ) ) ;
#1107 = FACE_OUTER_BOUND ( 'NONE', #323, .T. ) ;
#1108 = ORIENTED_EDGE ( 'NONE', *, *, #165, .F. ) ;
#1109 = CYLINDRICAL_SURFACE ( 'NONE', #627, 2.000000000000001776 ) ;
#1110 = VERTEX_POINT ( 'NONE', #113 ) ;
#1111 = CARTESIAN_POINT ( 'NONE',  ( 17.53545340929568752, 29.69999999999993534, -47.18944158175104064 ) ) ;
#1112 = DIRECTION ( 'NONE',  ( 0.000000000000000000, 1.000000000000000000, 0.000000000000000000 ) ) ;
#1113 = FACE_OUTER_BOUND ( 'NONE', #227, .T. ) ;
#1114 = ORIENTED_EDGE ( 'NONE', *, *, #399, .T. ) ;
#1115 = DIRECTION ( 'NONE',  ( 3.105155021998484068E-14, 0.000000000000000000, -1.000000000000000000 ) ) ;
#1116 = DIRECTION ( 'NONE',  ( 0.000000000000000000, -1.000000000000000000, 0.000000000000000000 ) ) ;
#1117 = ADVANCED_FACE ( 'NONE', ( #280 ), #960, .F. ) ;
#1118 = ORIENTED_EDGE ( 'NONE', *, *, #548, .F. ) ;
#1119 = DIRECTION ( 'NONE',  ( 0.000000000000000000, 0.000000000000000000, -1.000000000000000000 ) ) ;
#1120 = CARTESIAN_POINT ( 'NONE',  ( -18.52528122807219546, 30.43979444900503140, -44.04396092105112359 ) ) ;
#1121 = ORIENTED_EDGE ( 'NONE', *, *, #5, .T. ) ;
#1122 = AXIS2_PLACEMENT_3D ( 'NONE', #311, #319, #518 ) ;
#1123 = EDGE_CURVE ( 'NONE', #390, #1110, #380, .T. ) ;
#1124 = DIRECTION ( 'NONE',  ( -0.000000000000000000, 1.000000000000000000, -0.000000000000000000 ) ) ;
#1125 = FACE_BOUND ( 'NONE', #215, .T. ) ;
#1126 = ORIENTED_EDGE ( 'NONE', *, *, #165, .T. ) ;
#1127 = EDGE_LOOP ( 'NONE', ( #754, #499, #867, #954, #675 ) ) ;
#1128 = DIRECTION ( 'NONE',  ( -0.7922920858814013201, 0.000000000000000000, 0.6101419922032068621 ) ) ;
#1129 = ADVANCED_FACE ( 'NONE', ( #34, #293, #588, #1125, #663, #200 ), #1102, .F. ) ;
#1130 = FACE_OUTER_BOUND ( 'NONE', #936, .T. ) ;
#1131 = ORIENTED_EDGE ( 'NONE', *, *, #1036, .F. ) ;
#1132 = EDGE_LOOP ( 'NONE', ( #233, #222, #776, #597, #913 ) ) ;
#1133 = ORIENTED_EDGE ( 'NONE', *, *, #184, .T. ) ;
#1134 = CARTESIAN_POINT ( 'NONE',  ( -19.70535674505171997, 30.11159750093952781, -44.92901755878568082 ) ) ;
#1135 = CIRCLE ( 'NONE', #873, 1.999999999999807487 ) ;
#1136 = FACE_OUTER_BOUND ( 'NONE', #511, .T. ) ;
#1137 = ORIENTED_EDGE ( 'NONE', *, *, #180, .F. ) ;
#1138 = AXIS2_PLACEMENT_3D ( 'NONE', #56, #579, #498 ) ;
#1139 = ORIENTED_EDGE ( 'NONE', *, *, #1123, .F. ) ;
#1140 = ORIENTED_EDGE ( 'NONE', *, *, #1069, .T. ) ;
#1141 = ORIENTED_EDGE ( 'NONE', *, *, #51, .T. ) ;
#1142 = DIRECTION ( 'NONE',  ( 1.000000000000000000, 0.000000000000000000, 0.000000000000000000 ) ) ;
#1143 = DIRECTION ( 'NONE',  ( -0.000000000000000000, 1.000000000000000000, -0.000000000000000000 ) ) ;
#1144 = CIRCLE ( 'NONE', #211, 2.999999999999995559 ) ;
#1145 = ORIENTED_EDGE ( 'NONE', *, *, #350, .T. ) ;
#1146 = AXIS2_PLACEMENT_3D ( 'NONE', #267, #632, #450 ) ;
#1147 = ORIENTED_EDGE ( 'NONE', *, *, #677, .F. ) ;
#1148 = ORIENTED_EDGE ( 'NONE', *, *, #966, .F. ) ;
#1149 = DIRECTION ( 'NONE',  ( -0.000000000000000000, 1.000000000000000000, -0.000000000000000000 ) ) ;
#1150 = CARTESIAN_POINT ( 'NONE',  ( 21.79999999999986926, 31.69999999999993534, -46.49999999999658229 ) ) ;
#1151 = VERTEX_POINT ( 'NONE', #580 ) ;
#1152 = ORIENTED_EDGE ( 'NONE', *, *, #1084, .T. ) ;
#1153 = EDGE_LOOP ( 'NONE', ( #146, #1133, #142, #246 ) ) ;
#1154 = VECTOR ( 'NONE', #7, 1000.000000000000000 ) ;
#1155 = VECTOR ( 'NONE', #1106, 1000.000000000000000 ) ;
#1156 = CARTESIAN_POINT ( 'NONE',  ( 2.059984127722458425E-15, 30.69999999999993534, -51.13269814445437333 ) ) ;
#1157 = EDGE_CURVE ( 'NONE', #687, #750, #757, .T. ) ;
#1158 = CARTESIAN_POINT ( 'NONE',  ( -20.00000000000000000, 20.69999999999993534, -41.54110105645602147 ) ) ;
#1159 = EDGE_CURVE ( 'NONE', #334, #32, #283, .T. ) ;
#1160 = DIRECTION ( 'NONE',  ( 0.000000000000000000, 0.000000000000000000, -1.000000000000000000 ) ) ;
#1161 = DIRECTION ( 'NONE',  ( -0.8303052015494528648, 0.000000000000000000, 0.5573089558583483871 ) ) ;
#1162 = AXIS2_PLACEMENT_3D ( 'NONE', #594, #937, #1115 ) ;
#1163 = DIRECTION ( 'NONE',  ( 0.000000000000000000, -1.000000000000000000, 0.000000000000000000 ) ) ;
#1164 = CARTESIAN_POINT ( 'NONE',  ( 2.059984127722458425E-15, 30.69999999999993534, -41.13269814445437333 ) ) ;
#1165 = CARTESIAN_POINT ( 'NONE',  ( -17.53545340899416871, 29.69999999999993534, -47.18944158218059215 ) ) ;
#1166 = DIRECTION ( 'NONE',  ( 0.000000000000000000, -1.000000000000000000, 0.000000000000000000 ) ) ;
#1167 = PLANE ( 'NONE',  #116 ) ;
#1168 = ADVANCED_FACE ( 'NONE', ( #945, #301, #482, #931 ), #758, .T. ) ;
#1169 = LINE ( 'NONE', #1082, #292 ) ;
ENDSEC;
END-ISO-10303-21;
